<svg width="16" height="16" viewBox="0 0 16 16" fill="none" xmlns="http://www.w3.org/2000/svg">
<path d="M1.33301 11.3333V13.3333H6.66634V12.0733H2.59967V11.3333C2.59967 10.9066 4.68634 9.93329 6.66634 9.93329C7.30634 9.93996 7.93967 10.0266 8.55301 10.1866L9.56634 9.17329C8.63301 8.85996 7.66634 8.68663 6.66634 8.66663C4.88634 8.66663 1.33301 9.55329 1.33301 11.3333ZM6.66634 2.66663C5.19301 2.66663 3.99967 3.85996 3.99967 5.33329C3.99967 6.80663 5.19301 7.99996 6.66634 7.99996C8.13967 7.99996 9.33301 6.80663 9.33301 5.33329C9.33301 3.85996 8.13967 2.66663 6.66634 2.66663ZM6.66634 6.66663C5.93301 6.66663 5.33301 6.07329 5.33301 5.33329C5.33301 4.59329 5.93301 3.99996 6.66634 3.99996C7.39967 3.99996 7.99967 4.59996 7.99967 5.33329C7.99967 6.06663 7.40634 6.66663 6.66634 6.66663ZM14.4663 8.89996L13.7997 9.56663L12.433 8.23329L13.0997 7.56663C13.2397 7.42663 13.473 7.42663 13.613 7.56663L14.4663 8.41996C14.6063 8.55996 14.6063 8.79329 14.4663 8.93329M7.99967 12.6266L12.0397 8.58663L13.4063 9.91996L9.40634 13.9666H7.99967V12.6266Z" fill="black"/>
</svg>
