<svg width="20" height="20" viewBox="0 0 20 20" fill="none" xmlns="http://www.w3.org/2000/svg">
<g clip-path="url(#clip0_209_1684)">
<path d="M10.8335 9.16651C11.3279 9.16651 11.8113 9.01988 12.2224 8.74518C12.6335 8.47048 12.954 8.08003 13.1432 7.62321C13.3324 7.1664 13.3819 6.66373 13.2855 6.17878C13.189 5.69383 12.9509 5.24837 12.6013 4.89874C12.2516 4.54911 11.8062 4.311 11.3212 4.21454C10.8363 4.11808 10.3336 4.16759 9.87679 4.35681C9.41997 4.54603 9.02952 4.86646 8.75482 5.27758C8.48012 5.6887 8.33349 6.17205 8.33349 6.66651C8.33349 7.32955 8.59689 7.96543 9.06573 8.43427C9.53457 8.90311 10.1705 9.16651 10.8335 9.16651ZM10.8335 5.83317C10.9983 5.83317 11.1594 5.88205 11.2965 5.97361C11.4335 6.06518 11.5403 6.19533 11.6034 6.3476C11.6665 6.49987 11.683 6.66743 11.6508 6.82908C11.6187 6.99073 11.5393 7.13922 11.4227 7.25576C11.3062 7.3723 11.1577 7.45167 10.9961 7.48383C10.8344 7.51598 10.6669 7.49948 10.5146 7.4364C10.3623 7.37333 10.2322 7.26652 10.1406 7.12948C10.049 6.99244 10.0002 6.83132 10.0002 6.66651C10.0002 6.44549 10.088 6.23353 10.2442 6.07725C10.4005 5.92097 10.6125 5.83317 10.8335 5.83317ZM14.2585 9.04984C14.746 8.3507 15.0074 7.51885 15.0074 6.66651C15.0074 5.81416 14.746 4.98231 14.2585 4.28317C14.4982 4.20602 14.7484 4.16666 15.0002 4.1665C15.6632 4.1665 16.2991 4.4299 16.7679 4.89874C17.2368 5.36758 17.5002 6.00346 17.5002 6.66651C17.5002 7.32955 17.2368 7.96543 16.7679 8.43427C16.2991 8.90311 15.6632 9.16651 15.0002 9.16651C14.7484 9.16635 14.4982 9.12699 14.2585 9.04984ZM10.8335 10.8332C5.8335 10.8332 5.8335 14.1665 5.8335 14.1665V15.8332H15.8335V14.1665C15.8335 14.1665 15.8335 10.8332 10.8335 10.8332ZM7.50016 14.1665C7.50016 13.9248 7.76683 12.4998 10.8335 12.4998C13.7502 12.4998 14.1168 13.7998 14.1668 14.1665M20.0002 14.1665V15.8332H17.5002V14.1665C17.4807 13.547 17.338 12.9377 17.0805 12.3739C16.8229 11.8102 16.4557 11.3034 16.0002 10.8832C20.0002 11.2915 20.0002 14.1665 20.0002 14.1665ZM6.11683 7.43317L7.0835 8.60817L3.12516 12.5665L0.833496 10.0665L1.80016 9.09984L3.12516 10.4165L6.11683 7.43317Z" fill="#6E7C87"/>
</g>
<defs>
<clipPath id="clip0_209_1684">
<rect width="20" height="20" fill="white"/>
</clipPath>
</defs>
</svg>
