<svg width="20" height="20" viewBox="0 0 20 20" fill="none" xmlns="http://www.w3.org/2000/svg">
<path d="M12.5 3.3335C11.6159 3.3335 10.7681 3.68469 10.143 4.30981C9.51784 4.93493 9.16665 5.78277 9.16665 6.66683C9.16665 7.55088 9.51784 8.39873 10.143 9.02385C10.7681 9.64897 11.6159 10.0002 12.5 10.0002C13.384 10.0002 14.2319 9.64897 14.857 9.02385C15.4821 8.39873 15.8333 7.55088 15.8333 6.66683C15.8333 5.78277 15.4821 4.93493 14.857 4.30981C14.2319 3.68469 13.384 3.3335 12.5 3.3335ZM12.5 4.91683C13.4666 4.91683 14.25 5.70016 14.25 6.66683C14.25 7.6335 13.4666 8.41683 12.5 8.41683C12.0359 8.41683 11.5907 8.23245 11.2625 7.90427C10.9344 7.57608 10.75 7.13096 10.75 6.66683C10.75 6.2027 10.9344 5.75758 11.2625 5.42939C11.5907 5.1012 12.0359 4.91683 12.5 4.91683ZM3.33331 5.8335V8.3335H0.833313V10.0002H3.33331V12.5002H4.99998V10.0002H7.49998V8.3335H4.99998V5.8335H3.33331ZM12.5 10.8335C10.275 10.8335 5.83331 11.9418 5.83331 14.1668V16.6668H19.1666V14.1668C19.1666 11.9418 14.725 10.8335 12.5 10.8335ZM12.5 12.4168C14.975 12.4168 17.5833 13.6335 17.5833 14.1668V15.0835H7.41665V14.1668C7.41665 13.6335 9.99998 12.4168 12.5 12.4168Z" fill="#6E7C87"/>
</svg>
