<svg width="34" height="34" viewBox="0 0 34 34" fill="none" xmlns="http://www.w3.org/2000/svg">
<rect x="0.5" y="0.5" width="33" height="33" rx="16.5" stroke="#E5E9EB"/>
<mask id="mask0_213_1278" style="mask-type:luminance" maskUnits="userSpaceOnUse" x="7" y="7" width="20" height="20">
<path d="M27 27L27 7L7 7L7 27L27 27Z" fill="white"/>
</mask>
<g mask="url(#mask0_213_1278)">
<path d="M13.6138 16.5928C13.4171 16.7896 13.4172 17.1089 13.6138 17.3057C13.8106 17.5024 14.1298 17.5023 14.3267 17.3057L20.3462 11.2861C20.5429 11.0893 20.543 10.77 20.3462 10.5732C20.1494 10.3766 19.8301 10.3766 19.6333 10.5732L13.6138 16.5928Z" fill="#49454F" stroke="#49454F" stroke-width="0.4"/>
<path d="M13.6138 16.6538C13.417 16.8505 13.4172 17.1699 13.6138 17.3667L19.6333 23.3862C19.8301 23.5831 20.1494 23.5831 20.3462 23.3862C20.543 23.1894 20.543 22.8702 20.3462 22.6733L14.3267 16.6538C14.1298 16.4573 13.8105 16.4571 13.6138 16.6538Z" fill="#49454F" stroke="#49454F" stroke-width="0.4"/>
</g>
</svg>
