<svg width="13" height="13" viewBox="0 0 13 13" fill="none" xmlns="http://www.w3.org/2000/svg">
<path d="M11.6997 8.88535V10.5714C11.7003 10.7279 11.6682 10.8829 11.6053 11.0263C11.5425 11.1697 11.4504 11.2984 11.3348 11.4042C11.2192 11.5101 11.0828 11.5906 10.9342 11.6408C10.7856 11.6909 10.6282 11.7095 10.472 11.6954C8.73917 11.5075 7.07464 10.9166 5.61219 9.97005C4.25156 9.10716 3.09799 7.95587 2.23339 6.59794C1.28168 5.13175 0.689415 3.46244 0.504571 1.72525C0.490498 1.56984 0.509005 1.4132 0.558913 1.26531C0.608821 1.11742 0.689037 0.981529 0.794452 0.866277C0.899868 0.751025 1.02817 0.658942 1.1712 0.595891C1.31423 0.53284 1.46885 0.500201 1.62521 0.500054H3.3146C3.5879 0.49737 3.85284 0.593956 4.06006 0.771808C4.26727 0.949661 4.40262 1.19664 4.44087 1.46672C4.51218 2.0063 4.64441 2.53609 4.83506 3.04599C4.91083 3.24715 4.92723 3.46577 4.88231 3.67595C4.8374 3.88612 4.73306 4.07904 4.58165 4.23185L3.86647 4.94561C4.66813 6.35265 5.83544 7.51765 7.24527 8.31771L7.96045 7.60395C8.11356 7.45285 8.30686 7.34871 8.51746 7.30389C8.72805 7.25906 8.9471 7.27543 9.14866 7.35104C9.65958 7.54132 10.1904 7.67329 10.7311 7.74446C11.0046 7.78297 11.2544 7.92048 11.433 8.13084C11.6116 8.3412 11.7065 8.60973 11.6997 8.88535Z" stroke="#49454F" stroke-linecap="round" stroke-linejoin="round"/>
</svg>
