<svg width="15" height="17" viewBox="0 0 15 17" fill="none" xmlns="http://www.w3.org/2000/svg">
<path d="M13.3333 1.66667H12.5V0H10.8333V1.66667H4.16667V0H2.5V1.66667H1.66667C0.75 1.66667 0 2.41667 0 3.33333V15C0 15.925 0.75 16.6667 1.66667 16.6667H13.3333C14.2583 16.6667 15 15.925 15 15V3.33333C15 2.41667 14.2583 1.66667 13.3333 1.66667ZM13.3333 15H1.66667V6.66667H13.3333V15ZM1.66667 5V3.33333H13.3333V5H1.66667ZM6.3 13.7167L11.25 8.775L10.3583 7.89167L6.3 11.95L4.54167 10.1917L3.65833 11.075L6.3 13.7167Z" fill="black"/>
</svg>
