<svg width="38" height="38" viewBox="0 0 38 38" fill="none" xmlns="http://www.w3.org/2000/svg">
<rect x="0.5" y="0.5" width="37" height="37" rx="18.5" stroke="#E5E9EB"/>
<path d="M25.9996 22.4817V24.5893C26.0004 24.7849 25.9602 24.9786 25.8817 25.1578C25.8031 25.3371 25.6879 25.498 25.5435 25.6303C25.399 25.7626 25.2285 25.8633 25.0428 25.9259C24.8571 25.9886 24.6603 26.0119 24.465 25.9943C22.299 25.7594 20.2183 25.0207 18.3902 23.8376C16.6895 22.7589 15.2475 21.3198 14.1667 19.6224C12.9771 17.7897 12.2368 15.7031 12.0057 13.5316C11.9881 13.3373 12.0113 13.1415 12.0736 12.9566C12.136 12.7718 12.2363 12.6019 12.3681 12.4578C12.4998 12.3138 12.6602 12.1987 12.839 12.1199C13.0178 12.041 13.2111 12.0003 13.4065 12.0001H15.5183C15.8599 11.9967 16.1911 12.1174 16.4501 12.3398C16.7091 12.5621 16.8783 12.8708 16.9261 13.2084C17.0152 13.8829 17.1805 14.5451 17.4188 15.1825C17.5135 15.4339 17.534 15.7072 17.4779 15.9699C17.4218 16.2327 17.2913 16.4738 17.1021 16.6648L16.2081 17.557C17.2102 19.3158 18.6693 20.7721 20.4316 21.7721L21.3256 20.8799C21.517 20.6911 21.7586 20.5609 22.0218 20.5049C22.2851 20.4488 22.5589 20.4693 22.8108 20.5638C23.4495 20.8016 24.113 20.9666 24.7888 21.0556C25.1308 21.1037 25.4431 21.2756 25.6663 21.5386C25.8895 21.8015 26.0081 22.1372 25.9996 22.4817Z" stroke="#49454F" stroke-width="2" stroke-linecap="round" stroke-linejoin="round"/>
</svg>
