<svg width="70" height="54" viewBox="0 0 70 54" fill="none" xmlns="http://www.w3.org/2000/svg">
<path d="M8.91254 36.7358L0 41.8815L5.05772 50.6417C9.50179 47.4514 11.1126 41.6407 8.91254 36.7358Z" fill="#DADCDD"/>
<path d="M54.3639 52.2789C61.2879 48.2814 63.7215 39.4941 59.7938 32.6911C55.8661 25.888 47.0392 23.602 40.1153 27.5996C33.1939 31.5956 30.7576 40.3844 34.6853 47.1875C38.6131 53.9905 47.4425 56.275 54.3639 52.2789ZM39.89 40.3903C39.339 40.7084 38.638 40.527 38.3253 39.9854C38.0126 39.4438 38.206 38.746 38.757 38.4278L44.4884 35.1188C43.5359 34.3849 42.1844 34.2512 41.0637 34.8982L37.8053 36.7794C37.2543 37.0976 36.5533 36.9162 36.2405 36.3746C35.9278 35.8329 36.1213 35.1351 36.6723 34.817L39.9307 32.9358L48.0898 28.2251C48.6409 27.9069 49.3419 28.0883 49.6546 28.6299C49.9673 29.1716 49.7739 29.8694 49.2228 30.1875L44.8837 32.6927C45.5149 32.9807 46.0949 33.3889 46.5755 33.9139L50.1746 31.8359C50.7256 31.5178 51.4266 31.6992 51.7393 32.2408C52.052 32.7824 51.8586 33.4802 51.3076 33.7983L47.7085 35.8763C48.2037 37.4533 47.9047 39.161 46.9706 40.5062L57.5246 42.9743C58.1399 43.1179 58.5112 43.7303 58.3598 44.341C58.2792 44.6563 58.0745 44.9105 57.8137 45.0611C57.5661 45.204 57.2645 45.2595 56.9671 45.187L44.8365 42.3489L41.9801 43.998C41.429 44.3162 40.728 44.1348 40.4153 43.5932C40.1026 43.0515 40.296 42.3538 40.8471 42.0356L44.0788 40.1698L44.0841 40.1667L44.1054 40.1544C45.2262 39.5074 45.786 38.2701 45.6279 37.074L39.8885 40.3876L39.89 40.3903Z" fill="#DADCDD"/>
<path d="M32.847 73.5807L83.567 44.2975C80.7575 38.3001 82.7506 31.1105 88.288 27.275L78.7316 10.7226C72.6397 13.5979 65.4182 11.7317 61.6291 6.2999L10.9091 35.5831C13.7186 41.5805 11.7282 48.7686 6.19072 52.6041L15.7472 69.1564C21.8391 66.2812 29.0605 68.1474 32.847 73.5807ZM38.9821 25.6375C47.0055 21.0051 57.237 23.6524 61.7901 31.5386C66.3433 39.4249 63.5201 49.6093 55.4967 54.2416C47.4733 58.8739 37.2418 56.2267 32.6886 48.3404C28.1355 40.4541 30.9587 30.2698 38.9821 25.6375Z" fill="#DADCDD"/>
<path d="M77.5985 8.76013L72.5408 -9.44138e-05L63.6256 5.1471C66.776 9.50329 72.6136 11.0137 77.5985 8.76013Z" fill="#DADCDD"/>
</svg>
