<svg width="100" height="100" viewBox="0 0 100 100" fill="none" xmlns="http://www.w3.org/2000/svg">
<g clip-path="url(#clip0_657_1842)">
<path d="M50 100C77.6142 100 100 77.6142 100 50C100 22.3858 77.6142 0 50 0C22.3858 0 0 22.3858 0 50C0 77.6142 22.3858 100 50 100Z" fill="#32BA7C"/>
<path d="M37.2241 72.5553L62.9339 98.265C84.2273 92.5868 100 73.1862 100 50.0001C100 49.5269 100 49.0537 100 48.5805L79.8109 29.9685L37.2241 72.5553Z" fill="#0AA06E"/>
<path d="M51.2621 61.1987C53.4703 63.4069 53.4703 67.1924 51.2621 69.4006L46.6879 73.9747C44.4797 76.1829 40.6942 76.1829 38.486 73.9747L18.4545 53.7854C16.2463 51.5772 16.2463 47.7918 18.4545 45.5836L23.0286 41.0094C25.2368 38.8012 29.0223 38.8012 31.2305 41.0094L51.2621 61.1987Z" fill="white"/>
<path d="M68.77 26.3407C70.9782 24.1325 74.7637 24.1325 76.9719 26.3407L81.5461 30.9149C83.7543 33.1231 83.7543 36.9085 81.5461 39.1167L46.8458 73.6593C44.6376 75.8675 40.8521 75.8675 38.6439 73.6593L34.0697 69.0852C31.8615 66.877 31.8615 63.0915 34.0697 60.8833L68.77 26.3407Z" fill="white"/>
</g>
<defs>
<clipPath id="clip0_657_1842">
<rect width="100" height="100" fill="white"/>
</clipPath>
</defs>
</svg>
