<svg width="20" height="20" viewBox="0 0 20 20" fill="none" xmlns="http://www.w3.org/2000/svg">
<path d="M9.16661 9.1665C10.5473 9.1665 11.6666 8.04722 11.6666 6.6665C11.6666 5.28579 10.5473 4.1665 9.16661 4.1665C7.7859 4.1665 6.66661 5.28579 6.66661 6.6665C6.66661 8.04722 7.7859 9.1665 9.16661 9.1665Z" fill="white"/>
<path d="M9.16666 9.1665C7.01894 9.1665 5.27777 10.9074 5.27777 13.0554H13.0555C13.0555 10.9074 11.3143 9.1665 9.16666 9.1665Z" fill="white"/>
<path d="M19.7559 18.576L16.2084 15.0285C17.5344 13.4383 18.3333 11.3941 18.3333 9.16667C18.3333 4.11217 14.2212 0 9.16667 0C4.11217 0 0 4.11211 0 9.16667C0 14.2212 4.11217 18.3333 9.16667 18.3333C11.3948 18.3333 13.4397 17.5338 15.0301 16.2072L18.5774 19.7546C18.7402 19.9173 18.9534 19.9986 19.1667 19.9986C19.3799 19.9986 19.5932 19.9173 19.7559 19.7546C20.0814 19.4291 20.0814 18.9014 19.7559 18.576ZM1.66667 9.16667C1.66667 5.03117 5.03117 1.66667 9.16667 1.66667C13.3022 1.66667 16.6667 5.03117 16.6667 9.16667C16.6667 13.3022 13.3022 16.6667 9.16667 16.6667C5.03117 16.6667 1.66667 13.3022 1.66667 9.16667Z" fill="white"/>
</svg>
