<svg width="13" height="13" viewBox="0 0 13 13" fill="none" xmlns="http://www.w3.org/2000/svg">
<path d="M11.7369 3.47413H1.09636C2.11208 1.57159 4.11117 0.281982 6.41665 0.281982C8.72213 0.281982 10.7214 1.57159 11.7369 3.47413ZM10.9067 7.85117H10.5116C9.10902 7.85117 7.85952 6.9645 7.40015 5.64238L7.134 4.86042C7.09375 4.74755 6.9889 4.67507 6.87602 4.67507H6.05381C5.94094 4.67507 5.84425 4.74754 5.804 4.8524L5.46538 5.73119C4.98179 7.01277 3.7565 7.85117 2.39413 7.85117H1.91842C1.22513 7.85117 0.628668 7.41586 0.394897 6.80321C0.628814 9.91486 3.24054 12.3735 6.41665 12.3735C9.59261 12.3735 12.2045 9.91486 12.4383 6.80321C12.1965 7.41586 11.608 7.85117 10.9067 7.85117Z" fill="#FFD93B"/>
<path d="M6.41683 12.6551C3.12785 12.6551 0.359499 10.0943 0.11377 6.82427L0.658895 6.70221C0.856353 7.22093 1.36269 7.56977 1.9186 7.56977H2.39431C3.63608 7.56977 4.76425 6.79116 5.20146 5.63164L5.54081 4.75081C5.62408 4.53352 5.82563 4.39337 6.05386 4.39337H6.87606C7.10984 4.39337 7.32042 4.543 7.3999 4.76656L7.66721 5.55216C8.08634 6.75821 9.22967 7.56977 10.5115 7.56977H10.9065C11.4691 7.56977 11.9673 7.22808 12.1756 6.69987L12.7196 6.82427C12.474 10.0944 9.70538 12.6551 6.41683 12.6551ZM0.848041 7.80354C1.50021 10.2754 3.77404 12.0915 6.41683 12.0915C9.05904 12.0915 11.3327 10.2761 11.9853 7.80427C11.6744 8.01529 11.3018 8.13327 10.9066 8.13327H10.5117C8.98977 8.13327 7.63221 7.16975 7.13375 5.73548L6.86702 4.95148L6.05386 4.95702L5.72879 5.83319C5.20977 7.20839 3.86956 8.13341 2.39431 8.13341H1.9186C1.52996 8.13341 1.15837 8.01383 0.848041 7.80354ZM12.2076 3.75579H0.625791L0.847457 3.34089C1.94821 1.27998 4.08233 0 6.41683 0C8.75134 0 10.8853 1.27998 11.9859 3.34089L12.2076 3.75579ZM1.5896 3.19214H11.2438C10.1895 1.5594 8.38106 0.563646 6.41683 0.563646C4.45231 0.563646 2.64383 1.5594 1.5896 3.19214Z" fill="#202730"/>
<path d="M12.5511 3.74826V6.20687C12.5511 6.4246 12.5109 6.62599 12.4384 6.80333C12.1964 7.41597 11.608 7.85129 10.9067 7.85129H10.5116C9.10901 7.85129 7.85951 6.96462 7.40013 5.64249L7.13399 4.86053C7.09374 4.74766 6.98888 4.67518 6.87601 4.67518H6.0538C5.94092 4.67518 5.84424 4.74766 5.80399 4.85251L5.46536 5.73131C4.98178 7.01289 3.75649 7.85129 2.39411 7.85129H1.9184C1.22511 7.85129 0.628652 7.41597 0.394881 6.80333C0.322256 6.62599 0.28186 6.42445 0.28186 6.20687V3.74826C0.28186 3.59499 0.402756 3.47424 0.548006 3.47424H12.2769C12.4302 3.47424 12.5511 3.59499 12.5511 3.74826Z" fill="#92EAFF"/>
<path d="M10.9066 8.13341H10.5117C8.98975 8.13341 7.63219 7.16989 7.13373 5.73562L6.867 4.95162L6.05383 4.95716L5.72877 5.83333C5.20975 7.20853 3.86954 8.13356 2.39429 8.13356H1.91858C1.13006 8.13356 0.411833 7.63918 0.131396 6.90389C0.0452083 6.69287 0 6.45662 0 6.2071V3.74791C0 3.44078 0.246021 3.19214 0.548333 3.19214H12.2773C12.584 3.19214 12.8335 3.44093 12.8335 3.74791V6.2071C12.8335 6.45662 12.7884 6.69287 12.6996 6.91001C12.4069 7.65158 11.7025 8.13341 10.9066 8.13341ZM6.05383 4.39337H6.87604C7.10981 4.39337 7.32039 4.54299 7.39987 4.76656L7.66719 5.55216C8.08631 6.7582 9.22964 7.56976 10.5115 7.56976H10.9064C11.4691 7.56976 11.9672 7.22808 12.1756 6.69914C12.238 6.54718 12.2687 6.38268 12.2687 6.2071V3.75578H0.548333L0.564375 6.2071C0.564375 6.38268 0.595292 6.54718 0.656104 6.69593C0.856187 7.22093 1.36267 7.56976 1.91858 7.56976H2.39429C3.63606 7.56976 4.76423 6.79116 5.20144 5.63164L5.54079 4.75081C5.62406 4.53351 5.8256 4.39337 6.05383 4.39337Z" fill="#202730"/>
<path d="M6.41113 9.88965C5.59577 9.88965 4.81571 9.49998 4.32425 8.84665C4.23063 8.72225 4.25557 8.54594 4.38011 8.45231C4.5045 8.35781 4.6814 8.38304 4.77532 8.50817C5.16061 9.01989 5.77209 9.32614 6.41113 9.32614C7.05017 9.32614 7.66179 9.01989 8.04709 8.50817C8.14071 8.38304 8.31775 8.35708 8.44229 8.45231C8.56684 8.54594 8.59192 8.7224 8.49815 8.84665C8.00669 9.49998 7.22648 9.88965 6.41113 9.88965Z" fill="#202730"/>
<path d="M2.47017 6.38266C2.39798 6.38266 2.32565 6.3551 2.27067 6.29997C2.16042 6.18972 2.16071 6.01108 2.27082 5.90083L3.14757 5.02466C3.25782 4.91601 3.43632 4.91528 3.54642 5.02539C3.65667 5.13564 3.65638 5.31428 3.54627 5.42453L2.66952 6.3007C2.6144 6.3551 2.54236 6.38266 2.47017 6.38266Z" fill="#202730"/>
<path d="M9.92232 6.38266C9.85013 6.38266 9.7778 6.3551 9.72282 6.29997C9.61257 6.18972 9.61286 6.01108 9.72296 5.90083L10.5997 5.02466C10.71 4.91601 10.8885 4.91528 10.9986 5.02539C11.1088 5.13564 11.1085 5.31428 10.9984 5.42453L10.1217 6.3007C10.0667 6.3551 9.99465 6.38266 9.92232 6.38266Z" fill="#202730"/>
</svg>
