<svg width="38" height="38" viewBox="0 0 38 38" fill="none" xmlns="http://www.w3.org/2000/svg">
<rect x="0.5" y="0.5" width="37" height="37" rx="18.5" stroke="#E5E9EB"/>
<path d="M19 18.8332C19.4602 18.8332 19.8333 18.4601 19.8333 17.9998C19.8333 17.5396 19.4602 17.1665 19 17.1665C18.5397 17.1665 18.1666 17.5396 18.1666 17.9998C18.1666 18.4601 18.5397 18.8332 19 18.8332Z" stroke="#49454F" stroke-width="2" stroke-linecap="round" stroke-linejoin="round"/>
<path d="M19 13.0002C19.4602 13.0002 19.8333 12.6271 19.8333 12.1668C19.8333 11.7066 19.4602 11.3335 19 11.3335C18.5397 11.3335 18.1666 11.7066 18.1666 12.1668C18.1666 12.6271 18.5397 13.0002 19 13.0002Z" stroke="#49454F" stroke-width="2" stroke-linecap="round" stroke-linejoin="round"/>
<path d="M19 24.6667C19.4602 24.6667 19.8333 24.2936 19.8333 23.8333C19.8333 23.3731 19.4602 23 19 23C18.5397 23 18.1666 23.3731 18.1666 23.8333C18.1666 24.2936 18.5397 24.6667 19 24.6667Z" stroke="#49454F" stroke-width="2" stroke-linecap="round" stroke-linejoin="round"/>
</svg>
