<svg width="20" height="20" viewBox="0 0 20 20" fill="none" xmlns="http://www.w3.org/2000/svg">
<mask id="mask0_160_1009" style="mask-type:luminance" maskUnits="userSpaceOnUse" x="0" y="0" width="20" height="20">
<path d="M20 0L0 1.74846e-06L1.74846e-06 20L20 20L20 0Z" fill="white"/>
</mask>
<g mask="url(#mask0_160_1009)">
<path d="M9.59277 13.3862C9.78955 13.5829 10.1089 13.5828 10.3057 13.3862C10.5024 13.1894 10.5023 12.8702 10.3057 12.6733L4.28613 6.65381C4.08929 6.45713 3.77003 6.45703 3.57324 6.65381C3.37662 6.8506 3.3766 7.16992 3.57324 7.3667L9.59277 13.3862Z" fill="#49454F" stroke="#49454F" stroke-width="0.4"/>
<path d="M9.65372 13.3862C9.85044 13.583 10.1698 13.5828 10.3666 13.3862L16.3861 7.3667C16.583 7.16988 16.583 6.85064 16.3861 6.65381C16.1893 6.45698 15.8701 6.45698 15.6732 6.65381L9.65372 12.6733C9.4572 12.8702 9.457 13.1895 9.65372 13.3862Z" fill="#49454F" stroke="#49454F" stroke-width="0.4"/>
</g>
</svg>
