<svg width="24" height="24" viewBox="0 0 24 24" fill="none" xmlns="http://www.w3.org/2000/svg">
<path d="M11.7487 3.45419C11.8029 3.25431 11.6848 3.04825 11.4849 2.99406C11.4118 2.97419 11.3346 2.977 11.2631 3.00194C8.78662 3.82544 7.71975 6.20969 8.0625 8.43756C8.42306 10.7817 9.5625 12.8448 7.125 12.8448C4.57631 12.8448 5.69006 9.76544 5.69119 9.18756C5.21419 9.19263 2.8125 12.0181 2.8125 15.5626C2.8125 15.6001 2.81269 15.6374 2.81287 15.6745C2.8425 18.7313 5.33138 21.1924 8.38819 21.1876H15.4241C18.4811 21.1924 20.97 18.7313 20.9994 15.6745C20.9998 15.6374 21 15.6001 21 15.5626C21 12.0181 18.0801 9.48213 15.9375 8.62506C13.3584 7.59344 11.0948 5.77338 11.7487 3.45419Z" fill="#FFE161"/>
<path d="M21 15.5624V15.6749C20.9696 18.7315 18.4806 21.1923 15.4238 21.1874H8.4375C15 20.0624 17.985 17.698 17.4375 13.3124C17.25 11.8124 16.5 10.8749 15 9.93742C9.99188 6.80805 10.7156 4.33305 11.6925 3.13867C11.7604 3.22867 11.7814 3.34567 11.7487 3.45367C11.0944 5.77305 13.3575 7.59367 15.9375 8.62492C18.0806 9.4818 21 12.0187 21 15.5624Z" fill="#FBBC05"/>
<path d="M6.18753 3C5.81253 3 6.31335 4.37419 5.06253 5.625C3.18753 7.5 3.56253 9.5625 3.93753 9.375C4.27297 9.20738 4.31253 8.0625 6.00003 6.375C7.32585 5.04919 6.60678 3 6.18753 3Z" fill="#FBBC05"/>
<path d="M17.25 7.1251C17.3917 6.98335 16.6875 6.3751 16.7631 5.36672C16.8692 3.9526 15.6334 3.34997 15.5625 3.5626C15.4991 3.75291 16.1473 3.99122 15.9375 5.2501C15.75 6.3751 16.875 7.5001 17.25 7.1251Z" fill="#F4950C"/>
</svg>
