<svg width="28" height="24" viewBox="0 0 28 24" fill="none" xmlns="http://www.w3.org/2000/svg">
<path d="M22.7723 2.57129C23.9725 2.57129 24.9995 3.56886 24.9995 4.7697C25.0057 5.06219 24.9543 5.35305 24.8481 5.62567C24.742 5.89829 24.5832 6.14733 24.3807 6.35858C24.1783 6.56982 23.9362 6.73913 23.6684 6.85684C23.4005 6.97456 23.1121 7.03836 22.8196 7.04461C22.527 7.05087 22.2361 6.99945 21.9635 6.8933C21.6908 6.78714 21.4418 6.62833 21.2305 6.42593C21.0192 6.22353 20.8499 5.98151 20.7322 5.71368C20.6144 5.44584 20.5506 5.15745 20.5444 4.86495C20.5444 4.83345 20.5444 4.8012 20.5444 4.7697C20.5444 3.57186 21.5706 2.57129 22.7723 2.57129Z" fill="#151515"/>
<path d="M24.9995 10.7336V17.0228C24.9995 17.6017 24.8854 18.1748 24.6638 18.7095C24.4422 19.2443 24.1173 19.7301 23.7078 20.1393C23.2983 20.5484 22.8122 20.8729 22.2773 21.0941C21.7423 21.3154 21.169 21.429 20.5901 21.4286H12.3513C7.21956 21.4286 3 17.1533 3 11.987C3 6.82058 7.22106 2.57227 12.3513 2.57227H17.0727C17.4057 2.57108 17.7255 2.70209 17.962 2.93653C18.1984 3.17097 18.3321 3.48967 18.3337 3.82261C18.3341 3.82911 18.3341 3.83562 18.3337 3.84212V5.54024C18.3348 5.92286 18.1875 6.29102 17.9229 6.56739C17.6582 6.84375 17.2968 7.00682 16.9144 7.02235H12.9139V7.03135H12.3813C9.68079 7.03135 7.45436 9.27551 7.45436 11.99C7.45436 14.7044 9.68154 16.9471 12.3813 16.9471H20.5444V14.3474H12.4683V9.86205H24.1271C24.3583 9.86225 24.5799 9.95412 24.7435 10.1175C24.907 10.2809 24.9991 10.5025 24.9995 10.7336Z" fill="#151515"/>
</svg>
