<svg width="16" height="16" viewBox="0 0 16 16" fill="none" xmlns="http://www.w3.org/2000/svg">
<path d="M14.0474 11.2122V11.1776C14.5638 10.1975 14.8337 9.10639 14.8337 7.99858C14.8337 6.89077 14.5638 5.79963 14.0474 4.81953V4.78497C13.4608 3.691 12.5882 2.77674 11.5228 2.13967C10.4574 1.5026 9.23909 1.1666 7.99774 1.16748C6.75639 1.16837 5.53855 1.50611 4.47406 2.14471C3.40956 2.7833 2.53832 3.6988 1.95322 4.79361V4.82816C1.43685 5.80827 1.16699 6.89941 1.16699 8.00722C1.16699 9.11503 1.43685 10.2062 1.95322 11.1863V11.2208C2.53614 12.3239 3.40887 13.247 4.47746 13.8909C5.54604 14.5348 6.77001 14.8751 8.01761 14.8751C9.2652 14.8751 10.4892 14.5348 11.5578 13.8909C12.6263 13.247 13.4991 12.3239 14.082 11.2208L14.0474 11.2122ZM6.06525 2.32725C5.60128 3.00316 5.25785 3.75431 5.0502 4.54741H3.10217C3.83216 3.51451 4.86889 2.73772 6.06525 2.32725ZM2.59248 5.41128H4.84287C4.70623 6.12359 4.62822 6.8459 4.60963 7.57096H2.01801C2.07132 6.82124 2.26625 6.08841 2.59248 5.41128ZM2.59248 10.5945C2.26625 9.91739 2.07132 9.18456 2.01801 8.43483H4.60963C4.62822 9.15989 4.70623 9.88221 4.84287 10.5945H2.59248ZM3.09785 11.4584H5.0502C5.25785 12.2515 5.60128 13.0026 6.06525 13.6785C4.86889 13.2681 3.83216 12.4913 3.10217 11.4584H3.09785ZM7.56839 13.8988C6.95504 13.6181 6.35033 12.7542 5.94863 11.4584H7.56839V13.8988ZM7.56839 10.5945H5.72834C5.5791 9.88367 5.49382 9.16089 5.4735 8.43483H7.56839V10.5945ZM7.56839 7.57096H5.4735C5.49379 6.8449 5.57908 6.12212 5.72834 5.41128H7.56839V7.57096ZM7.56839 4.54741H5.94863C6.35033 3.2516 6.95504 2.38772 7.56839 2.10696V4.54741ZM13.4082 10.5945H11.1578C11.2944 9.88221 11.3724 9.15989 11.391 8.43483H13.9826C13.9293 9.18456 13.7344 9.91739 13.4082 10.5945ZM13.4082 5.41128C13.7344 6.08841 13.9293 6.82124 13.9826 7.57096H11.391C11.3724 6.8459 11.2944 6.12359 11.1578 5.41128H13.4082ZM12.8985 4.54741H10.9505C10.7428 3.75431 10.3994 3.00316 9.9354 2.32725C11.1318 2.73772 12.1685 3.51451 12.8985 4.54741ZM8.43226 2.10696C9.04561 2.38772 9.65033 3.2516 10.052 4.54741H8.43226V2.10696ZM8.43226 5.41128H10.2723C10.4216 6.12212 10.5069 6.8449 10.5272 7.57096H8.43226V5.41128ZM8.43226 8.43483H10.5272C10.5068 9.16089 10.4216 9.88367 10.2723 10.5945H8.43226V8.43483ZM8.43226 13.8988V11.4584H10.052C9.65033 12.7542 9.04561 13.6181 8.43226 13.8988ZM9.9354 13.6785C10.3994 13.0026 10.7428 12.2515 10.9505 11.4584H12.8985C12.1685 12.4913 11.1318 13.2681 9.9354 13.6785Z" fill="#151515"/>
</svg>
