<svg width="155" height="91" viewBox="0 0 155 91" fill="none" xmlns="http://www.w3.org/2000/svg">
<g clip-path="url(#clip0_1490_2656)">
<path d="M50.8185 20.1595C53.1148 20.1595 55.0796 22.0683 55.0796 24.3661C55.0916 24.9257 54.9932 25.4823 54.7901 26.0039C54.5869 26.5256 54.2831 27.0021 53.8958 27.4063C53.5085 27.8105 53.0454 28.1345 52.5329 28.3597C52.0204 28.5849 51.4686 28.707 50.9089 28.719C50.3493 28.731 49.7927 28.6326 49.2711 28.4295C48.7495 28.2263 48.2729 27.9225 47.8687 27.5352C47.4645 27.1479 47.1405 26.6848 46.9153 26.1723C46.6901 25.6598 46.568 25.108 46.556 24.5483C46.556 24.4881 46.556 24.4264 46.556 24.3661C46.556 22.0741 48.5194 20.1595 50.8185 20.1595Z" fill="#19E0EC"/>
<path d="M57.2538 32.4677C57.2538 23.4705 61.5665 19.9615 71.4506 19.9615H79.2552V30.2001H71.4506C68.6262 30.2001 67.6603 31.5908 67.6603 33.6374V56.5286H57.2538V32.4677Z" fill="#19E0EC"/>
<path d="M81.1038 32.4806C81.1038 23.5738 85.372 20.0992 95.1571 20.0992H102.887V30.2374H95.1528C92.357 30.2374 91.4012 31.6123 91.4012 33.6388V56.3018H81.1038V32.4806Z" fill="#19E0EC"/>
<path d="M123.644 20.1595C133.745 20.1595 142.014 28.2913 142.014 38.2314C142.014 48.1715 133.749 56.3018 123.644 56.3018C113.539 56.3018 105.282 48.1701 105.282 38.2314C105.282 28.2927 113.543 20.1595 123.644 20.1595ZM123.644 46.567C128.306 46.567 132.12 42.8125 132.12 38.2257C132.12 33.6388 128.306 29.8901 123.644 29.8901C118.983 29.8901 115.168 33.6445 115.168 38.2314C115.168 42.8182 118.981 46.5713 123.644 46.5713V46.567Z" fill="#19E0EC"/>
<path d="M55.0795 35.7772V47.8112C55.0795 48.9188 54.8613 50.0155 54.4373 51.0387C54.0133 52.0619 53.3918 52.9915 52.6083 53.7744C51.8249 54.5573 50.8949 55.1781 49.8714 55.6014C48.8479 56.0248 47.7511 56.2423 46.6435 56.2415H30.8809C21.0628 56.2415 12.9899 48.061 12.9899 38.1754C12.9899 28.2899 21.0657 20.161 30.8809 20.161H39.9139C40.551 20.1587 41.1629 20.4094 41.6153 20.858C42.0677 21.3065 42.3235 21.9164 42.3265 22.5534C42.3272 22.5658 42.3272 22.5783 42.3265 22.5907V25.84C42.3286 26.5721 42.0469 27.2766 41.5405 27.8054C41.0342 28.3342 40.3426 28.6462 39.6111 28.6759H31.9573V28.6931H30.9383C25.7716 28.6931 21.512 32.9872 21.512 38.1811C21.512 43.3751 25.7731 47.6663 30.9383 47.6663H46.556V42.6919H31.1048V34.1095H53.4104C53.8527 34.1099 54.2768 34.2857 54.5897 34.5983C54.9026 34.9109 55.0788 35.3349 55.0795 35.7772Z" fill="#19E0EC"/>
<path d="M38.44 70.4279C39.0693 70.5452 39.5867 70.8599 39.992 71.3719C40.3973 71.8839 40.6 72.4706 40.6 73.1319C40.6 73.7292 40.4507 74.2572 40.152 74.7159C39.864 75.1639 39.4427 75.5159 38.888 75.7719C38.3333 76.0279 37.6773 76.1559 36.92 76.1559H32.104V64.9879H36.712C37.4693 64.9879 38.12 65.1106 38.664 65.3559C39.2187 65.6012 39.6347 65.9426 39.912 66.3799C40.2 66.8172 40.344 67.3132 40.344 67.8679C40.344 68.5186 40.168 69.0626 39.816 69.4999C39.4747 69.9372 39.016 70.2466 38.44 70.4279ZM34.344 69.5959H36.392C36.9253 69.5959 37.336 69.4786 37.624 69.2439C37.912 68.9986 38.056 68.6519 38.056 68.2039C38.056 67.7559 37.912 67.4092 37.624 67.1639C37.336 66.9185 36.9253 66.7959 36.392 66.7959H34.344V69.5959ZM36.6 74.3319C37.144 74.3319 37.5653 74.2039 37.864 73.9479C38.1733 73.6919 38.328 73.3292 38.328 72.8599C38.328 72.3799 38.168 72.0066 37.848 71.7399C37.528 71.4626 37.096 71.3239 36.552 71.3239H34.344V74.3319H36.6ZM47.1532 64.9879V71.8999C47.1532 72.6572 47.3506 73.2386 47.7452 73.6439C48.1399 74.0386 48.6946 74.2359 49.4092 74.2359C50.1346 74.2359 50.6946 74.0386 51.0892 73.6439C51.4839 73.2386 51.6812 72.6572 51.6812 71.8999V64.9879H53.9373V71.8839C53.9373 72.8332 53.7292 73.6386 53.3132 74.2999C52.9079 74.9506 52.3586 75.4412 51.6652 75.7719C50.9826 76.1026 50.2199 76.2679 49.3772 76.2679C48.5452 76.2679 47.7879 76.1026 47.1052 75.7719C46.4332 75.4412 45.8999 74.9506 45.5052 74.2999C45.1106 73.6386 44.9132 72.8332 44.9132 71.8839V64.9879H47.1532ZM62.5175 76.2679C61.7388 76.2679 61.0348 76.1346 60.4055 75.8679C59.7868 75.6012 59.2962 75.2172 58.9335 74.7159C58.5708 74.2146 58.3842 73.6226 58.3735 72.9399H60.7735C60.8055 73.3986 60.9655 73.7612 61.2535 74.0279C61.5522 74.2946 61.9575 74.4279 62.4695 74.4279C62.9922 74.4279 63.4028 74.3052 63.7015 74.0599C64.0002 73.8039 64.1495 73.4732 64.1495 73.0679C64.1495 72.7372 64.0482 72.4652 63.8455 72.2519C63.6428 72.0386 63.3868 71.8732 63.0775 71.7559C62.7788 71.6279 62.3628 71.4892 61.8295 71.3399C61.1042 71.1266 60.5122 70.9186 60.0535 70.7159C59.6055 70.5026 59.2162 70.1879 58.8855 69.7719C58.5655 69.3452 58.4055 68.7799 58.4055 68.0759C58.4055 67.4146 58.5708 66.8385 58.9015 66.3479C59.2322 65.8572 59.6962 65.4839 60.2935 65.2279C60.8908 64.9612 61.5735 64.8279 62.3415 64.8279C63.4935 64.8279 64.4268 65.1106 65.1415 65.6759C65.8668 66.2305 66.2668 67.0092 66.3415 68.0119H63.8775C63.8562 67.6279 63.6908 67.3132 63.3815 67.0679C63.0828 66.8119 62.6828 66.6839 62.1815 66.6839C61.7442 66.6839 61.3922 66.7959 61.1255 67.0199C60.8695 67.2439 60.7415 67.5692 60.7415 67.9959C60.7415 68.2945 60.8375 68.5452 61.0295 68.7479C61.2322 68.9399 61.4775 69.0999 61.7655 69.2279C62.0642 69.3452 62.4802 69.4839 63.0135 69.6439C63.7388 69.8572 64.3308 70.0706 64.7895 70.2839C65.2482 70.4972 65.6428 70.8172 65.9735 71.2439C66.3042 71.6706 66.4695 72.2306 66.4695 72.9239C66.4695 73.5212 66.3148 74.0759 66.0055 74.5879C65.6962 75.0999 65.2428 75.5106 64.6455 75.8199C64.0482 76.1186 63.3388 76.2679 62.5175 76.2679ZM73.2115 64.9879V76.1559H70.9715V64.9879H73.2115ZM87.5366 76.1559H85.2966L80.2246 68.4919V76.1559H77.9846V64.9719H80.2246L85.2966 72.6519V64.9719H87.5366V76.1559ZM94.5502 66.7959V69.5959H98.3102V71.3719H94.5502V74.3319H98.7902V76.1559H92.3102V64.9719H98.7902V66.7959H94.5502ZM107.242 76.2679C106.463 76.2679 105.759 76.1346 105.13 75.8679C104.511 75.6012 104.021 75.2172 103.658 74.7159C103.295 74.2146 103.109 73.6226 103.098 72.9399H105.498C105.53 73.3986 105.69 73.7612 105.978 74.0279C106.277 74.2946 106.682 74.4279 107.194 74.4279C107.717 74.4279 108.127 74.3052 108.426 74.0599C108.725 73.8039 108.874 73.4732 108.874 73.0679C108.874 72.7372 108.773 72.4652 108.57 72.2519C108.367 72.0386 108.111 71.8732 107.802 71.7559C107.503 71.6279 107.087 71.4892 106.554 71.3399C105.829 71.1266 105.237 70.9186 104.778 70.7159C104.33 70.5026 103.941 70.1879 103.61 69.7719C103.29 69.3452 103.13 68.7799 103.13 68.0759C103.13 67.4146 103.295 66.8385 103.626 66.3479C103.957 65.8572 104.421 65.4839 105.018 65.2279C105.615 64.9612 106.298 64.8279 107.066 64.8279C108.218 64.8279 109.151 65.1106 109.866 65.6759C110.591 66.2305 110.991 67.0092 111.066 68.0119H108.602C108.581 67.6279 108.415 67.3132 108.106 67.0679C107.807 66.8119 107.407 66.6839 106.906 66.6839C106.469 66.6839 106.117 66.7959 105.85 67.0199C105.594 67.2439 105.466 67.5692 105.466 67.9959C105.466 68.2945 105.562 68.5452 105.754 68.7479C105.957 68.9399 106.202 69.0999 106.49 69.2279C106.789 69.3452 107.205 69.4839 107.738 69.6439C108.463 69.8572 109.055 70.0706 109.514 70.2839C109.973 70.4972 110.367 70.8172 110.698 71.2439C111.029 71.6706 111.194 72.2306 111.194 72.9239C111.194 73.5212 111.039 74.0759 110.73 74.5879C110.421 75.0999 109.967 75.5106 109.37 75.8199C108.773 76.1186 108.063 76.2679 107.242 76.2679ZM119.552 76.2679C118.773 76.2679 118.069 76.1346 117.44 75.8679C116.821 75.6012 116.331 75.2172 115.968 74.7159C115.605 74.2146 115.419 73.6226 115.408 72.9399H117.808C117.84 73.3986 118 73.7612 118.288 74.0279C118.587 74.2946 118.992 74.4279 119.504 74.4279C120.027 74.4279 120.437 74.3052 120.736 74.0599C121.035 73.8039 121.184 73.4732 121.184 73.0679C121.184 72.7372 121.083 72.4652 120.88 72.2519C120.677 72.0386 120.421 71.8732 120.112 71.7559C119.813 71.6279 119.397 71.4892 118.864 71.3399C118.139 71.1266 117.547 70.9186 117.088 70.7159C116.64 70.5026 116.251 70.1879 115.92 69.7719C115.6 69.3452 115.44 68.7799 115.44 68.0759C115.44 67.4146 115.605 66.8385 115.936 66.3479C116.267 65.8572 116.731 65.4839 117.328 65.2279C117.925 64.9612 118.608 64.8279 119.376 64.8279C120.528 64.8279 121.461 65.1106 122.176 65.6759C122.901 66.2305 123.301 67.0092 123.376 68.0119H120.912C120.891 67.6279 120.725 67.3132 120.416 67.0679C120.117 66.8119 119.717 66.6839 119.216 66.6839C118.779 66.6839 118.427 66.7959 118.16 67.0199C117.904 67.2439 117.776 67.5692 117.776 67.9959C117.776 68.2945 117.872 68.5452 118.064 68.7479C118.267 68.9399 118.512 69.0999 118.8 69.2279C119.099 69.3452 119.515 69.4839 120.048 69.6439C120.773 69.8572 121.365 70.0706 121.824 70.2839C122.283 70.4972 122.677 70.8172 123.008 71.2439C123.339 71.6706 123.504 72.2306 123.504 72.9239C123.504 73.5212 123.349 74.0759 123.04 74.5879C122.731 75.0999 122.277 75.5106 121.68 75.8199C121.083 76.1186 120.373 76.2679 119.552 76.2679Z" fill="#0A5957"/>
</g>
<defs>
<clipPath id="clip0_1490_2656">
<rect width="155" height="91" fill="white"/>
</clipPath>
</defs>
</svg>
