<?xml version="1.0" encoding="utf-8"?>
<!-- Generator: Adobe Illustrator 26.0.1, SVG Export Plug-In . SVG Version: 6.00 Build 0)  -->
<svg version="1.1" id="Layer_1" xmlns="http://www.w3.org/2000/svg" xmlns:xlink="http://www.w3.org/1999/xlink" x="0px" y="0px"
	 viewBox="0 0 1080 1080" style="enable-background:new 0 0 1080 1080;" xml:space="preserve">
<style type="text/css">
	.st0{fill:#FFFFFF;}
</style>
<g>
	<path class="st0" d="M373.6,427.82c14.3,0,26.51,11.87,26.51,26.16c0.31,14.64-11.3,26.77-25.94,27.08
		c-14.64,0.31-26.77-11.3-27.08-25.94c-0.01-0.38-0.01-0.76,0-1.14C347.08,439.7,359.29,427.82,373.6,427.82z"/>
	<path class="st0" d="M413.63,504.38c0-55.96,26.82-77.79,88.3-77.79h48.54v63.69h-48.54c-17.57,0-23.57,8.64-23.57,21.37v142.39
		h-64.73V504.38z"/>
	<path class="st0" d="M561.97,504.47c0-55.4,26.55-77.02,87.42-77.02h48.08v63.06h-48.08c-17.4,0-23.34,8.56-23.34,21.16v140.97
		h-64.08V504.47z"/>
	<path class="st0" d="M826.58,427.82c62.83,0,114.25,50.58,114.25,112.4s-51.41,112.41-114.25,112.41s-114.21-50.58-114.21-112.41
		S763.75,427.82,826.58,427.82z M826.58,592.12c29,0,52.73-23.35,52.73-51.88s-23.76-51.9-52.73-51.9s-52.72,23.35-52.72,51.88
		s23.72,51.88,52.72,51.88V592.12z"/>
	<path class="st0" d="M400.1,524.97v74.85c0,28.96-23.48,52.44-52.44,52.44h-98.08c-61.07,0-111.29-50.92-111.29-112.38
		s50.24-112.05,111.29-112.05h56.19c8.25-0.03,14.97,6.63,15,14.88c0,0.08,0,0.16,0,0.23v20.22c0,9.43-7.43,17.2-16.86,17.6h-47.64
		v0.11h-6.34c-32.1,0-58.63,26.7-58.63,59.01s26.51,59,58.63,59h97.14v-30.9h-96.11V514.6h138.75
		C395.45,514.6,400.09,519.24,400.1,524.97z"/>
</g>
</svg>
