<svg width="16" height="16" viewBox="0 0 16 16" fill="none" xmlns="http://www.w3.org/2000/svg">
<path d="M1.33325 13.3333H14.6666V4.66663C14.6666 4.13329 14.4533 3.62663 14.0799 3.25329C13.7066 2.87996 13.1999 2.66663 12.6666 2.66663H3.33325C2.79992 2.66663 2.29325 2.87996 1.91992 3.25329C1.54659 3.62663 1.33325 4.13329 1.33325 4.66663V13.3333ZM13.3333 7.33329H9.99992V5.99996H5.99992V7.33329H2.66659V4.66663C2.66659 4.49329 2.73992 4.33329 2.85992 4.19329C2.99992 4.07329 3.15992 3.99996 3.33325 3.99996H12.6666C12.8466 3.99996 12.9999 4.07329 13.1399 4.19329C13.2666 4.33329 13.3333 4.49329 13.3333 4.66663V7.33329ZM9.99992 8.66662H13.3333V12H2.66659V8.66662H5.99992L7.33325 9.99996H8.66658L9.99992 8.66662ZM7.33325 7.33329H8.66658V8.66662H7.33325V7.33329Z" fill="black"/>
</svg>
