<svg width="54" height="24" viewBox="0 0 54 24" fill="none" xmlns="http://www.w3.org/2000/svg">
<rect width="54" height="24" rx="12" fill="white"/>
<path d="M16.3534 7.01482C16.385 6.89823 16.3161 6.77802 16.1995 6.74641C16.1569 6.73482 16.1118 6.73646 16.0702 6.75101C14.6255 7.23138 14.0032 8.6222 14.2031 9.92179C14.4135 11.2892 15.0781 12.4926 13.6562 12.4926C12.1695 12.4926 12.8192 10.6964 12.8199 10.3593C12.5416 10.3622 11.1406 12.0104 11.1406 14.078C11.1406 14.0999 11.1407 14.1217 11.1408 14.1433C11.1581 15.9265 12.61 17.3621 14.3931 17.3593H18.4974C20.2807 17.3621 21.7325 15.9265 21.7497 14.1433C21.7499 14.1217 21.75 14.0999 21.75 14.078C21.75 12.0104 20.0467 10.5311 18.7969 10.0312C17.2924 9.42938 15.9719 8.36768 16.3534 7.01482Z" fill="#009A14"/>
<path d="M21.75 14.0782V14.1439C21.7323 15.9269 20.2803 17.3623 18.4972 17.3595H14.4219C18.25 16.7032 19.9913 15.324 19.6719 12.7657C19.5625 11.8907 19.125 11.3439 18.25 10.797C15.3286 8.97152 15.7508 7.52777 16.3206 6.83105C16.3602 6.88355 16.3725 6.9518 16.3534 7.0148C15.9717 8.36777 17.2919 9.4298 18.7969 10.0314C20.047 10.5312 21.75 12.0111 21.75 14.0782Z" fill="#009A14"/>
<path d="M13.1093 6.75C12.8905 6.75 13.1827 7.55161 12.453 8.28125C11.3593 9.375 11.578 10.5781 11.7968 10.4688C11.9924 10.371 12.0155 9.70312 12.9999 8.71875C13.7733 7.94536 13.3538 6.75 13.1093 6.75Z" fill="#009A14"/>
<path d="M19.5626 9.1561C19.6453 9.07342 19.2345 8.7186 19.2786 8.13038C19.3405 7.30548 18.6196 6.95395 18.5782 7.07798C18.5413 7.18899 18.9194 7.32801 18.797 8.06235C18.6876 8.7186 19.3439 9.37485 19.5626 9.1561Z" fill="#009A14"/>
<path d="M32.71 15.5V8.5H33.71V15.5H32.71ZM28.25 15.5V8.5H29.25V15.5H28.25ZM29.09 12.34V11.52H32.92V12.34H29.09ZM37.4629 15.62C36.9762 15.62 36.5429 15.5067 36.1629 15.28C35.7896 15.0533 35.4962 14.7367 35.2829 14.33C35.0696 13.9167 34.9629 13.4367 34.9629 12.89C34.9629 12.3433 35.0696 11.8667 35.2829 11.46C35.4962 11.0467 35.7929 10.7267 36.1729 10.5C36.5529 10.2733 36.9862 10.16 37.4729 10.16C37.9662 10.16 38.3996 10.2733 38.7729 10.5C39.1529 10.7267 39.4462 11.0467 39.6529 11.46C39.8662 11.8667 39.9729 12.3433 39.9729 12.89C39.9729 13.4367 39.8662 13.9167 39.6529 14.33C39.4396 14.7367 39.1429 15.0533 38.7629 15.28C38.3896 15.5067 37.9562 15.62 37.4629 15.62ZM37.4629 14.76C37.7429 14.76 37.9929 14.69 38.2129 14.55C38.4396 14.41 38.6196 14.2033 38.7529 13.93C38.8862 13.65 38.9529 13.3033 38.9529 12.89C38.9529 12.4767 38.8862 12.1333 38.7529 11.86C38.6262 11.58 38.4529 11.37 38.2329 11.23C38.0129 11.09 37.7596 11.02 37.4729 11.02C37.1996 11.02 36.9496 11.09 36.7229 11.23C36.4962 11.37 36.3162 11.58 36.1829 11.86C36.0562 12.1333 35.9929 12.4767 35.9929 12.89C35.9929 13.3033 36.0562 13.65 36.1829 13.93C36.3162 14.2033 36.4929 14.41 36.7129 14.55C36.9329 14.69 37.1829 14.76 37.4629 14.76ZM43.1032 15.5C42.7899 15.5 42.5165 15.45 42.2832 15.35C42.0499 15.25 41.8699 15.0833 41.7432 14.85C41.6165 14.6167 41.5532 14.3 41.5532 13.9V11.13H40.6432V10.28H41.5532L41.6732 8.94H42.5532V10.28H43.9932V11.13H42.5532V13.91C42.5532 14.1967 42.6099 14.3933 42.7232 14.5C42.8432 14.6 43.0532 14.65 43.3532 14.65H43.9832V15.5H43.1032Z" fill="#151515"/>
</svg>
