<svg width="20" height="20" viewBox="0 0 20 20" fill="none" xmlns="http://www.w3.org/2000/svg">
<g clip-path="url(#clip0_18_1022)">
<path d="M9.1665 9.16699C10.5472 9.16699 11.6665 8.0477 11.6665 6.66699C11.6665 5.28628 10.5472 4.16699 9.1665 4.16699C7.78579 4.16699 6.6665 5.28628 6.6665 6.66699C6.6665 8.0477 7.78579 9.16699 9.1665 9.16699Z" fill="white"/>
<path d="M9.16672 9.16699C7.019 9.16699 5.27783 10.9079 5.27783 13.0559H13.0556C13.0556 10.9079 11.3144 9.16699 9.16672 9.16699Z" fill="white"/>
<path d="M19.7559 18.5765L16.2084 15.029C17.5344 13.4388 18.3333 11.3946 18.3333 9.16716C18.3333 4.11265 14.2212 0.000488281 9.16667 0.000488281C4.11217 0.000488281 0 4.1126 0 9.16716C0 14.2217 4.11217 18.3338 9.16667 18.3338C11.3948 18.3338 13.4397 17.5343 15.0301 16.2077L18.5774 19.755C18.7402 19.9178 18.9534 19.9991 19.1667 19.9991C19.3799 19.9991 19.5932 19.9178 19.7559 19.755C20.0814 19.4295 20.0814 18.9019 19.7559 18.5765ZM1.66667 9.16716C1.66667 5.03165 5.03117 1.66715 9.16667 1.66715C13.3022 1.66715 16.6667 5.03165 16.6667 9.16716C16.6667 13.3027 13.3022 16.6672 9.16667 16.6672C5.03117 16.6672 1.66667 13.3027 1.66667 9.16716Z" fill="white"/>
</g>
<defs>
<clipPath id="clip0_18_1022">
<rect width="20" height="20" fill="white"/>
</clipPath>
</defs>
</svg>
