<svg width="40" height="40" viewBox="0 0 40 40" fill="none" xmlns="http://www.w3.org/2000/svg">
<g clip-path="url(#clip0_4233_1909)">
<mask id="mask0_4233_1909" style="mask-type:luminance" maskUnits="userSpaceOnUse" x="0" y="0" width="40" height="40">
<path d="M32.5 0H7.5C3.35786 0 0 3.35786 0 7.5V32.5C0 36.6421 3.35786 40 7.5 40H32.5C36.6421 40 40 36.6421 40 32.5V7.5C40 3.35786 36.6421 0 32.5 0Z" fill="white"/>
</mask>
<g mask="url(#mask0_4233_1909)">
<path d="M8.59375 84.375C34.2232 84.375 55 63.5982 55 37.9688C55 12.3393 34.2232 -8.4375 8.59375 -8.4375C-17.0357 -8.4375 -37.8125 12.3393 -37.8125 37.9688C-37.8125 63.5982 -17.0357 84.375 8.59375 84.375Z" fill="url(#paint0_radial_4233_1909)"/>
</g>
<path d="M25.625 15.9375C26.4879 15.9375 27.1875 15.2379 27.1875 14.375C27.1875 13.5121 26.4879 12.8125 25.625 12.8125C24.7621 12.8125 24.0625 13.5121 24.0625 14.375C24.0625 15.2379 24.7621 15.9375 25.625 15.9375Z" fill="white"/>
<path d="M20 15C19.0111 15 18.0444 15.2932 17.2222 15.8427C16.3999 16.3921 15.759 17.173 15.3806 18.0866C15.0022 19.0002 14.9031 20.0055 15.0961 20.9755C15.289 21.9454 15.7652 22.8363 16.4645 23.5355C17.1637 24.2348 18.0546 24.711 19.0246 24.9039C19.9945 25.0969 20.9998 24.9978 21.9134 24.6194C22.827 24.241 23.6079 23.6001 24.1574 22.7779C24.7068 21.9556 25 20.9889 25 20C25 18.6739 24.4732 17.4021 23.5355 16.4645C22.5979 15.5268 21.3261 15 20 15ZM20 22.5C19.5055 22.5 19.0222 22.3534 18.6111 22.0787C18.2 21.804 17.8795 21.4135 17.6903 20.9567C17.5011 20.4999 17.4516 19.9972 17.548 19.5123C17.6445 19.0273 17.8826 18.5819 18.2322 18.2322C18.5819 17.8826 19.0273 17.6445 19.5123 17.548C19.9972 17.4516 20.4999 17.5011 20.9567 17.6903C21.4135 17.8795 21.804 18.2 22.0787 18.6111C22.3534 19.0222 22.5 19.5055 22.5 20C22.5 20.663 22.2366 21.2989 21.7678 21.7678C21.2989 22.2366 20.663 22.5 20 22.5Z" fill="white"/>
<path d="M26.25 9C28.8734 9 31 11.1266 31 13.75V26.25C31 28.8734 28.8734 31 26.25 31H13.75C11.1266 31 9 28.8734 9 26.25V13.75C9 11.1266 11.1266 9 13.75 9H26.25Z" stroke="white" stroke-width="2" stroke-miterlimit="10"/>
</g>
<defs>
<radialGradient id="paint0_radial_4233_1909" cx="0" cy="0" r="1" gradientUnits="userSpaceOnUse" gradientTransform="translate(8.59375 37.9688) scale(46.4062)">
<stop stop-color="#FFD676"/>
<stop offset="0.25" stop-color="#F2A454"/>
<stop offset="0.38" stop-color="#F05C3C"/>
<stop offset="0.7" stop-color="#C22F86"/>
<stop offset="0.96" stop-color="#6666AD"/>
<stop offset="0.99" stop-color="#5C6CB2"/>
</radialGradient>
<clipPath id="clip0_4233_1909">
<rect width="40" height="40" rx="20" fill="white"/>
</clipPath>
</defs>
</svg>
