<svg width="38" height="38" viewBox="0 0 38 38" fill="none" xmlns="http://www.w3.org/2000/svg">
<rect x="0.5" y="0.5" width="37" height="37" rx="18.5" fill="#1AE0ED" fill-opacity="0.1"/>
<rect x="0.5" y="0.5" width="37" height="37" rx="18.5" stroke="#1AE0ED"/>
<g clip-path="url(#clip0_199_1529)">
<path d="M19.8335 18.1665C20.3279 18.1665 20.8113 18.0199 21.2224 17.7452C21.6335 17.4705 21.954 17.08 22.1432 16.6232C22.3324 16.1664 22.3819 15.6637 22.2855 15.1788C22.189 14.6938 21.9509 14.2484 21.6013 13.8987C21.2516 13.5491 20.8062 13.311 20.3212 13.2145C19.8363 13.1181 19.3336 13.1676 18.8768 13.3568C18.42 13.546 18.0295 13.8665 17.7548 14.2776C17.4801 14.6887 17.3335 15.1721 17.3335 15.6665C17.3335 16.3295 17.5969 16.9654 18.0657 17.4343C18.5346 17.9031 19.1705 18.1665 19.8335 18.1665ZM19.8335 14.8332C19.9983 14.8332 20.1594 14.882 20.2965 14.9736C20.4335 15.0652 20.5403 15.1953 20.6034 15.3476C20.6665 15.4999 20.683 15.6674 20.6508 15.8291C20.6187 15.9907 20.5393 16.1392 20.4227 16.2558C20.3062 16.3723 20.1577 16.4517 19.9961 16.4838C19.8344 16.516 19.6669 16.4995 19.5146 16.4364C19.3623 16.3733 19.2322 16.2665 19.1406 16.1295C19.049 15.9924 19.0002 15.8313 19.0002 15.6665C19.0002 15.4455 19.088 15.2335 19.2442 15.0772C19.4005 14.921 19.6125 14.8332 19.8335 14.8332ZM23.2585 18.0498C23.746 17.3507 24.0074 16.5189 24.0074 15.6665C24.0074 14.8142 23.746 13.9823 23.2585 13.2832C23.4982 13.206 23.7484 13.1667 24.0002 13.1665C24.6632 13.1665 25.2991 13.4299 25.7679 13.8987C26.2368 14.3676 26.5002 15.0035 26.5002 15.6665C26.5002 16.3295 26.2368 16.9654 25.7679 17.4343C25.2991 17.9031 24.6632 18.1665 24.0002 18.1665C23.7484 18.1664 23.4982 18.127 23.2585 18.0498ZM19.8335 19.8332C14.8335 19.8332 14.8335 23.1665 14.8335 23.1665V24.8332H24.8335V23.1665C24.8335 23.1665 24.8335 19.8332 19.8335 19.8332ZM16.5002 23.1665C16.5002 22.9248 16.7668 21.4998 19.8335 21.4998C22.7502 21.4998 23.1168 22.7998 23.1668 23.1665M29.0002 23.1665V24.8332H26.5002V23.1665C26.4807 22.547 26.338 21.9377 26.0805 21.3739C25.8229 20.8102 25.4557 20.3034 25.0002 19.8832C29.0002 20.2915 29.0002 23.1665 29.0002 23.1665ZM15.1168 16.4332L16.0835 17.6082L12.1252 21.5665L9.8335 19.0665L10.8002 18.0998L12.1252 19.4165L15.1168 16.4332Z" fill="#6E7C87"/>
</g>
<defs>
<clipPath id="clip0_199_1529">
<rect width="20" height="20" fill="white" transform="translate(9 9)"/>
</clipPath>
</defs>
</svg>
