<svg width="16" height="16" viewBox="0 0 16 16" fill="none" xmlns="http://www.w3.org/2000/svg">
<path d="M11.0401 3.62667L10.0734 4.59333C11.2267 5.29333 12.0001 6.55333 12.0001 8C12.0001 9.06087 11.5787 10.0783 10.8285 10.8284C10.0784 11.5786 9.06095 12 8.00008 12C6.93921 12 5.9218 11.5786 5.17165 10.8284C4.42151 10.0783 4.00008 9.06087 4.00008 8C4.00008 6.55333 4.77341 5.29333 5.92008 4.58667L4.96008 3.62667C3.57341 4.58667 2.66675 6.18667 2.66675 8C2.66675 9.41449 3.22865 10.771 4.22884 11.7712C5.22904 12.7714 6.58559 13.3333 8.00008 13.3333C9.41457 13.3333 10.7711 12.7714 11.7713 11.7712C12.7715 10.771 13.3334 9.41449 13.3334 8C13.3334 6.18667 12.4267 4.58667 11.0401 3.62667ZM8.66675 2H7.33341V8.66667H8.66675" fill="black"/>
</svg>
