<svg width="38" height="38" viewBox="0 0 38 38" fill="none" xmlns="http://www.w3.org/2000/svg">
<rect x="0.5" y="0.5" width="37" height="37" rx="18.5" fill="#1AE0ED" fill-opacity="0.1"/>
<rect x="0.5" y="0.5" width="37" height="37" rx="18.5" stroke="#1AE0ED"/>
<g clip-path="url(#clip0_199_1519)">
<path d="M19 13.1665C18.2265 13.1665 17.4846 13.4738 16.9376 14.0208C16.3906 14.5678 16.0833 15.3096 16.0833 16.0832C16.0833 16.8567 16.3906 17.5986 16.9376 18.1456C17.4846 18.6925 18.2265 18.9998 19 18.9998C19.7735 18.9998 20.5154 18.6925 21.0624 18.1456C21.6094 17.5986 21.9167 16.8567 21.9167 16.0832C21.9167 15.3096 21.6094 14.5678 21.0624 14.0208C20.5154 13.4738 19.7735 13.1665 19 13.1665ZM19 14.8332C19.3315 14.8332 19.6495 14.9649 19.8839 15.1993C20.1183 15.4337 20.25 15.7517 20.25 16.0832C20.25 16.4147 20.1183 16.7326 19.8839 16.9671C19.6495 17.2015 19.3315 17.3332 19 17.3332C18.6685 17.3332 18.3505 17.2015 18.1161 16.9671C17.8817 16.7326 17.75 16.4147 17.75 16.0832C17.75 15.7517 17.8817 15.4337 18.1161 15.1993C18.3505 14.9649 18.6685 14.8332 19 14.8332ZM13.5833 15.6665C13.0308 15.6665 12.5009 15.886 12.1102 16.2767C11.7195 16.6674 11.5 17.1973 11.5 17.7498C11.5 18.5332 11.9417 19.2082 12.575 19.5665C12.875 19.7332 13.2167 19.8332 13.5833 19.8332C13.95 19.8332 14.2917 19.7332 14.5917 19.5665C14.9 19.3915 15.1583 19.1415 15.35 18.8415C14.7417 18.0498 14.4167 17.0832 14.4167 16.0832C14.4167 16.0082 14.4167 15.9248 14.4167 15.8498C14.1667 15.7332 13.8833 15.6665 13.5833 15.6665ZM24.4167 15.6665C24.1167 15.6665 23.8333 15.7332 23.5833 15.8498C23.5833 15.9248 23.5833 16.0082 23.5833 16.0832C23.5833 17.0832 23.2583 18.0498 22.65 18.8415C22.75 18.9998 22.8583 19.1248 22.9833 19.2498C23.1167 19.3748 23.25 19.4832 23.4083 19.5665C23.7083 19.7332 24.05 19.8332 24.4167 19.8332C24.7833 19.8332 25.125 19.7332 25.425 19.5665C26.0583 19.2082 26.5 18.5332 26.5 17.7498C26.5 17.1973 26.2805 16.6674 25.8898 16.2767C25.4991 15.886 24.9692 15.6665 24.4167 15.6665ZM19 20.6665C17.05 20.6665 13.1667 21.6415 13.1667 23.5832V24.8332H24.8333V23.5832C24.8333 21.6415 20.95 20.6665 19 20.6665ZM12.925 21.1248C11.3167 21.3165 9 22.1332 9 23.5832V24.8332H11.5V23.2248C11.5 22.3832 12.075 21.6832 12.925 21.1248ZM25.075 21.1248C25.925 21.6832 26.5 22.3832 26.5 23.2248V24.8332H29V23.5832C29 22.1332 26.6833 21.3165 25.075 21.1248ZM19 22.3332C20.275 22.3332 21.7 22.7498 22.525 23.1665H15.475C16.3 22.7498 17.725 22.3332 19 22.3332Z" fill="#6E7C87"/>
</g>
<defs>
<clipPath id="clip0_199_1519">
<rect width="20" height="20" fill="white" transform="translate(9 9)"/>
</clipPath>
</defs>
</svg>
