<svg width="16" height="16" viewBox="0 0 16 16" fill="none" xmlns="http://www.w3.org/2000/svg">
<path d="M8.46448 15.1309C4.52597 15.1309 1.33337 11.9383 1.33337 7.99976C1.33337 4.06125 4.52597 0.868652 8.46448 0.868652C12.403 0.868652 15.5956 4.06125 15.5956 7.99976C15.5956 11.9383 12.403 15.1309 8.46448 15.1309ZM8.46448 13.7046C9.97751 13.7046 11.4286 13.1036 12.4984 12.0337C13.5683 10.9638 14.1694 9.51278 14.1694 7.99976C14.1694 6.48673 13.5683 5.03567 12.4984 3.96579C11.4286 2.89592 9.97751 2.29487 8.46448 2.29487C6.95145 2.29487 5.50039 2.89592 4.43052 3.96579C3.36064 5.03567 2.75959 6.48673 2.75959 7.99976C2.75959 9.51278 3.36064 10.9638 4.43052 12.0337C5.50039 13.1036 6.95145 13.7046 8.46448 13.7046ZM6.32515 8.71287H5.61204V7.28665H6.32515V6.57353C6.32482 5.99397 6.52619 5.43235 6.89472 4.98504C7.26326 4.53773 7.77597 4.23262 8.3449 4.12206C8.91382 4.0115 9.50349 4.10237 10.0127 4.3791C10.522 4.65582 10.919 5.10114 11.1358 5.63865L9.71955 5.99235C9.59453 5.79783 9.4098 5.64909 9.19309 5.56846C8.97637 5.48782 8.73935 5.47963 8.51759 5.54511C8.29582 5.6106 8.10127 5.74623 7.96312 5.93165C7.82497 6.11708 7.75067 6.3423 7.75137 6.57353V7.28665H9.8907V8.71287H7.75137V10.1391H11.3169V11.5653H5.61204V10.1391H6.32515V8.71287Z" fill="#151515"/>
</svg>
