<svg width="16" height="16" viewBox="0 0 16 16" fill="none" xmlns="http://www.w3.org/2000/svg">
<path d="M8.4646 15.1311C4.52609 15.1311 1.3335 11.9385 1.3335 8C1.3335 4.06149 4.52609 0.868896 8.4646 0.868896C12.4031 0.868896 15.5957 4.06149 15.5957 8C15.5957 11.9385 12.4031 15.1311 8.4646 15.1311ZM8.4646 13.7049C9.97763 13.7049 11.4287 13.1038 12.4986 12.034C13.5684 10.9641 14.1695 9.51303 14.1695 8C14.1695 6.48697 13.5684 5.03591 12.4986 3.96604C11.4287 2.89617 9.97763 2.29512 8.4646 2.29512C6.95157 2.29512 5.50051 2.89617 4.43064 3.96604C3.36077 5.03591 2.75972 6.48697 2.75972 8C2.75972 9.51303 3.36077 10.9641 4.43064 12.034C5.50051 13.1038 6.95157 13.7049 8.4646 13.7049ZM6.32527 8.71311H5.61216V7.28689H6.32527V6.57378C6.32494 5.99421 6.52631 5.43259 6.89485 4.98528C7.26338 4.53798 7.77609 4.23287 8.34502 4.1223C8.91394 4.01174 9.50361 4.10262 10.0129 4.37934C10.5221 4.65606 10.9192 5.10138 11.1359 5.63889L9.71967 5.99259C9.59465 5.79807 9.40993 5.64934 9.19321 5.5687C8.97649 5.48806 8.73947 5.47987 8.51771 5.54536C8.29594 5.61084 8.10139 5.74647 7.96324 5.9319C7.82509 6.11732 7.75079 6.34255 7.75149 6.57378V7.28689H9.89082V8.71311H7.75149V10.1393H11.317V11.5656H5.61216V10.1393H6.32527V8.71311Z" fill="#151515"/>
</svg>
