<svg width="20" height="20" viewBox="0 0 20 20" fill="none" xmlns="http://www.w3.org/2000/svg">
<path d="M9.99996 9.83317C10.4602 9.83317 10.8333 9.46007 10.8333 8.99984C10.8333 8.5396 10.4602 8.1665 9.99996 8.1665C9.53972 8.1665 9.16663 8.5396 9.16663 8.99984C9.16663 9.46007 9.53972 9.83317 9.99996 9.83317Z" stroke="#49454F" stroke-width="2" stroke-linecap="round" stroke-linejoin="round"/>
<path d="M9.99996 4.00016C10.4602 4.00016 10.8333 3.62707 10.8333 3.16683C10.8333 2.70659 10.4602 2.3335 9.99996 2.3335C9.53972 2.3335 9.16663 2.70659 9.16663 3.16683C9.16663 3.62707 9.53972 4.00016 9.99996 4.00016Z" stroke="#49454F" stroke-width="2" stroke-linecap="round" stroke-linejoin="round"/>
<path d="M9.99996 15.6667C10.4602 15.6667 10.8333 15.2936 10.8333 14.8333C10.8333 14.3731 10.4602 14 9.99996 14C9.53972 14 9.16663 14.3731 9.16663 14.8333C9.16663 15.2936 9.53972 15.6667 9.99996 15.6667Z" stroke="#49454F" stroke-width="2" stroke-linecap="round" stroke-linejoin="round"/>
</svg>
