<svg width="150" height="150" viewBox="0 0 150 150" fill="none" xmlns="http://www.w3.org/2000/svg">
<path d="M75 97.75C71.5138 97.75 68.1063 98.7837 65.2081 100.721C62.3095 102.657 60.0504 105.41 58.7164 108.631C57.3824 111.851 57.0335 115.394 57.7136 118.814C58.3936 122.232 60.0723 125.373 62.5369 127.837C65.0019 130.302 68.1425 131.981 71.5613 132.661C74.98 133.341 78.5244 132.992 81.7444 131.659C84.965 130.324 87.7181 128.066 89.6544 125.167C91.5913 122.269 92.625 118.861 92.625 115.375C92.625 110.701 90.7681 106.217 87.4625 102.912C84.1575 99.6069 79.6744 97.75 75 97.75Z" fill="#CECECE"/>
<path d="M127.75 48.8126C130.072 50.5944 132.284 52.5144 134.375 54.5625L143.25 45.75C141.27 43.7043 139.184 41.7642 137 39.9375L127.75 48.8126Z" fill="#CECECE"/>
<path d="M115.687 73.2499L124.562 64.4374C122.489 62.3699 120.276 60.4486 117.938 58.6875L109 67.5624C111.356 69.3037 113.59 71.2043 115.687 73.2499Z" fill="#CECECE"/>
<path d="M97.4375 92.3125L106.25 83.5C104.016 81.3194 101.566 79.3719 98.9375 77.6875L89.75 86.875C92.5631 88.3044 95.1531 90.1356 97.4375 92.3125Z" fill="#CECECE"/>
<path d="M86.6875 72.1249L97.75 61.1249L107.125 51.7499L126.5 32.5L141 17.9999L132.125 8.875L115 25.9999C102.439 20.2826 88.8006 17.3206 75 17.3126C62.3293 17.269 49.7764 19.744 38.0707 24.5937C26.3649 29.4434 15.7396 36.571 6.81232 45.5625L15.6248 54.375C27.1561 42.8641 41.7905 34.961 57.74 31.6312C73.6894 28.3014 90.2638 29.6892 105.438 35.625L94.5 46.5625C82.5019 43.0811 69.7881 42.8921 57.6921 46.0151C45.5959 49.1381 34.5628 55.4581 25.7498 64.3124L34.5623 73.1249C39.892 67.7624 46.2323 63.5093 53.2162 60.613C60.2001 57.7164 67.6888 56.2334 75.25 56.2499C78.2675 56.2668 81.2781 56.5386 84.25 57.0624L70.625 70.6874C60.5732 71.6568 51.1662 76.0731 43.9998 83.1874L50.9373 90.1874L33.0623 108.062L41.8748 116.875L86.9375 71.8749L86.6875 72.1249Z" fill="#CECECE"/>
</svg>
