<svg width="16" height="16" viewBox="0 0 16 16" fill="none" xmlns="http://www.w3.org/2000/svg">
<path d="M14.7069 7.24738L13.7524 6.21611C13.6787 6.13676 13.6435 6.02424 13.6584 5.91491L13.8501 4.49568C13.9288 3.91373 13.5556 3.3787 13.0013 3.27747L11.6482 3.02988C11.5438 3.01082 11.4519 2.94101 11.4025 2.84295L10.7596 1.57749C10.4956 1.05763 9.89189 0.853068 9.38554 1.11193L8.15212 1.74183C8.0568 1.7905 7.94321 1.7905 7.84789 1.74183L6.61447 1.11193C6.10779 0.85304 5.50476 1.05761 5.24042 1.57749L4.59752 2.84295C4.54748 2.9424 4.45757 3.01014 4.35178 3.02988L2.99903 3.27747C2.44434 3.37833 2.0715 3.91373 2.15025 4.4953L2.34158 5.91488C2.35645 6.02564 2.32266 6.13565 2.24763 6.21608L1.29306 7.24735C0.902315 7.66918 0.902315 8.33081 1.29306 8.75264L2.24763 9.78391C2.32132 9.86325 2.35645 9.97578 2.34158 10.0851L2.14993 11.5043C2.07118 12.0863 2.44434 12.6213 2.99868 12.7225L4.35175 12.9701C4.45621 12.9892 4.54814 13.059 4.59749 13.1571L5.2404 14.4225C5.50473 14.9424 6.10809 15.1469 6.61445 14.8881L7.84787 14.2582C7.94319 14.2095 8.05677 14.2095 8.15209 14.2582L9.38551 14.8881C9.53391 14.9639 9.6904 14.9999 9.84453 14.9999C10.2164 14.9999 10.573 14.7901 10.7595 14.4226L11.4024 13.1571C11.4525 13.0576 11.5424 12.9899 11.6482 12.9702L13.0009 12.7226C13.5556 12.6217 13.9285 12.0863 13.8497 11.5047L13.6584 10.0852C13.6435 9.97441 13.6773 9.86439 13.7523 9.78397L14.7069 8.75269C15.0977 8.33084 15.0977 7.66921 14.7069 7.24738ZM14.209 8.25112L13.2545 9.28168C13.0303 9.52362 12.9279 9.85304 12.9729 10.186L13.1642 11.6052C13.1906 11.7992 13.0662 11.9777 12.8817 12.0115L11.5282 12.2591C11.2105 12.3173 10.9418 12.5215 10.7907 12.8188L10.1478 14.084C10.0599 14.2575 9.85911 14.3259 9.68977 14.2395L8.45635 13.6092C8.31369 13.5366 8.15685 13.4999 8.00003 13.4999C7.84322 13.4999 7.68635 13.5366 7.54372 13.6096L6.3103 14.2391C6.14162 14.3259 5.94018 14.2575 5.85229 14.084L5.20939 12.8185C5.05829 12.5208 4.78923 12.317 4.47116 12.2591L3.11841 12.0112C2.93387 11.9773 2.80946 11.7992 2.83549 11.6052L3.02714 10.186C3.07209 9.85304 2.96966 9.52365 2.74591 9.28205L1.79101 8.25112C1.66088 8.11004 1.66088 7.88998 1.79101 7.7489L2.74558 6.71834C2.96969 6.47639 3.07209 6.14698 3.02714 5.81402L2.83582 4.39479C2.80946 4.20081 2.93384 4.02235 3.11839 3.98848L4.47182 3.74089C4.78955 3.68269 5.05829 3.4785 5.20936 3.18118L5.85227 1.91607C5.94015 1.74254 6.14162 1.67484 6.31027 1.76052L7.54369 2.39079C7.82897 2.5361 8.17104 2.53644 8.45635 2.39045L9.68977 1.76092C9.85878 1.67415 10.0599 1.74257 10.1478 1.9161L10.7907 3.18155C10.9418 3.47921 11.2108 3.68309 11.5289 3.74092L12.8817 3.98886C13.0662 4.02272 13.1906 4.20081 13.1646 4.39482L12.9729 5.81405C12.928 6.14701 13.0304 6.4764 13.2542 6.71799L14.2091 7.7489C14.3392 7.88998 14.3392 8.11007 14.209 8.25112Z" fill="white"/>
<path d="M9.91631 6.08371C9.80469 5.9721 9.6239 5.9721 9.51229 6.08371L6.08371 9.51227C5.9721 9.62388 5.9721 9.80467 6.08371 9.91629C6.13951 9.97208 6.21261 10 6.28572 10C6.35883 10 6.43193 9.9721 6.48773 9.91629L9.91631 6.48773C10.0279 6.37611 10.0279 6.19532 9.91631 6.08371Z" fill="white"/>
<path d="M8 6.5C8 5.67276 7.32724 5 6.5 5C5.67276 5 5 5.67276 5 6.5C5 7.32724 5.67276 8 6.5 8C7.32724 8 8 7.32724 8 6.5ZM5.74966 6.5C5.74966 6.08638 6.08641 5.74963 6.50003 5.74963C6.91365 5.74963 7.2504 6.08638 7.2504 6.5C7.2504 6.91362 6.91365 7.25037 6.50003 7.25037C6.08638 7.25037 5.74966 6.91362 5.74966 6.5Z" fill="white"/>
<path d="M9.5 8C8.67276 8 8 8.67276 8 9.5C8 10.3272 8.67276 11 9.5 11C10.3272 11 11 10.3272 11 9.5C11 8.67276 10.3272 8 9.5 8ZM9.5 10.2503C9.08638 10.2503 8.74963 9.91359 8.74963 9.49997C8.74963 9.08635 9.08638 8.7496 9.5 8.7496C9.91362 8.7496 10.2504 9.08635 10.2504 9.49997C10.2504 9.91359 9.91362 10.2503 9.5 10.2503Z" fill="white"/>
</svg>
