<svg width="14" height="12" viewBox="0 0 14 12" fill="none" xmlns="http://www.w3.org/2000/svg">
<path d="M0 8.66667V10.6667H5.33333V9.40667H1.26667V8.66667C1.26667 8.24 3.35333 7.26667 5.33333 7.26667C5.97333 7.27333 6.60667 7.36 7.22 7.52L8.23333 6.50667C7.3 6.19333 6.33333 6.02 5.33333 6C3.55333 6 0 6.88667 0 8.66667ZM5.33333 0C3.86 0 2.66667 1.19333 2.66667 2.66667C2.66667 4.14 3.86 5.33333 5.33333 5.33333C6.80667 5.33333 8 4.14 8 2.66667C8 1.19333 6.80667 0 5.33333 0ZM5.33333 4C4.6 4 4 3.40667 4 2.66667C4 1.92667 4.6 1.33333 5.33333 1.33333C6.06667 1.33333 6.66667 1.93333 6.66667 2.66667C6.66667 3.4 6.07333 4 5.33333 4ZM13.1333 6.23333L12.4667 6.9L11.1 5.56667L11.7667 4.9C11.9067 4.76 12.14 4.76 12.28 4.9L13.1333 5.75333C13.2733 5.89333 13.2733 6.12667 13.1333 6.26667M6.66667 9.96L10.7067 5.92L12.0733 7.25333L8.07333 11.3H6.66667V9.96Z" fill="black"/>
</svg>
