<svg width="16" height="16" viewBox="0 0 16 16" fill="none" xmlns="http://www.w3.org/2000/svg">
<path d="M8 2C8.79565 2 9.55871 2.31607 10.1213 2.87868C10.6839 3.44129 11 4.20435 11 5C11 5.79565 10.6839 6.55871 10.1213 7.12132C9.55871 7.68393 8.79565 8 8 8C7.20435 8 6.44129 7.68393 5.87868 7.12132C5.31607 6.55871 5 5.79565 5 5C5 4.20435 5.31607 3.44129 5.87868 2.87868C6.44129 2.31607 7.20435 2 8 2ZM8 3.5C7.60218 3.5 7.22064 3.65804 6.93934 3.93934C6.65804 4.22064 6.5 4.60218 6.5 5C6.5 5.39782 6.65804 5.77936 6.93934 6.06066C7.22064 6.34196 7.60218 6.5 8 6.5C8.39782 6.5 8.77936 6.34196 9.06066 6.06066C9.34196 5.77936 9.5 5.39782 9.5 5C9.5 4.60218 9.34196 4.22064 9.06066 3.93934C8.77936 3.65804 8.39782 3.5 8 3.5ZM8 8.75C10.0025 8.75 14 9.7475 14 11.75V14H2V11.75C2 9.7475 5.9975 8.75 8 8.75ZM8 10.175C5.7725 10.175 3.425 11.27 3.425 11.75V12.575H12.575V11.75C12.575 11.27 10.2275 10.175 8 10.175Z" fill="black"/>
</svg>
