<svg width="20" height="20" viewBox="0 0 20 20" fill="none" xmlns="http://www.w3.org/2000/svg">
<path d="M3.33331 5.00016C3.33331 4.55814 3.50891 4.13421 3.82147 3.82165C4.13403 3.50909 4.55795 3.3335 4.99998 3.3335H6.66665C7.10867 3.3335 7.5326 3.50909 7.84516 3.82165C8.15772 4.13421 8.33331 4.55814 8.33331 5.00016V6.66683C8.33331 7.10886 8.15772 7.53278 7.84516 7.84534C7.5326 8.1579 7.10867 8.3335 6.66665 8.3335H4.99998C4.55795 8.3335 4.13403 8.1579 3.82147 7.84534C3.50891 7.53278 3.33331 7.10886 3.33331 6.66683V5.00016ZM11.6666 5.00016C11.6666 4.55814 11.8422 4.13421 12.1548 3.82165C12.4674 3.50909 12.8913 3.3335 13.3333 3.3335H15C15.442 3.3335 15.8659 3.50909 16.1785 3.82165C16.4911 4.13421 16.6666 4.55814 16.6666 5.00016V6.66683C16.6666 7.10886 16.4911 7.53278 16.1785 7.84534C15.8659 8.1579 15.442 8.3335 15 8.3335H13.3333C12.8913 8.3335 12.4674 8.1579 12.1548 7.84534C11.8422 7.53278 11.6666 7.10886 11.6666 6.66683V5.00016ZM3.33331 13.3335C3.33331 12.8915 3.50891 12.4675 3.82147 12.155C4.13403 11.8424 4.55795 11.6668 4.99998 11.6668H6.66665C7.10867 11.6668 7.5326 11.8424 7.84516 12.155C8.15772 12.4675 8.33331 12.8915 8.33331 13.3335V15.0002C8.33331 15.4422 8.15772 15.8661 7.84516 16.1787C7.5326 16.4912 7.10867 16.6668 6.66665 16.6668H4.99998C4.55795 16.6668 4.13403 16.4912 3.82147 16.1787C3.50891 15.8661 3.33331 15.4422 3.33331 15.0002V13.3335ZM11.6666 13.3335C11.6666 12.8915 11.8422 12.4675 12.1548 12.155C12.4674 11.8424 12.8913 11.6668 13.3333 11.6668H15C15.442 11.6668 15.8659 11.8424 16.1785 12.155C16.4911 12.4675 16.6666 12.8915 16.6666 13.3335V15.0002C16.6666 15.4422 16.4911 15.8661 16.1785 16.1787C15.8659 16.4912 15.442 16.6668 15 16.6668H13.3333C12.8913 16.6668 12.4674 16.4912 12.1548 16.1787C11.8422 15.8661 11.6666 15.4422 11.6666 15.0002V13.3335Z" stroke="#6E7C87" stroke-width="2" stroke-linecap="round" stroke-linejoin="round"/>
</svg>
