<svg width="24" height="24" viewBox="0 0 24 24" fill="none" xmlns="http://www.w3.org/2000/svg">
<path d="M5.99998 3.59998C5.36346 3.59998 4.75301 3.85283 4.30292 4.30292C3.85283 4.75301 3.59998 5.36346 3.59998 5.99998V8.39998C3.59998 9.0365 3.85283 9.64694 4.30292 10.097C4.75301 10.5471 5.36346 10.8 5.99998 10.8H8.39998C9.0365 10.8 9.64694 10.5471 10.097 10.097C10.5471 9.64694 10.8 9.0365 10.8 8.39998V5.99998C10.8 5.36346 10.5471 4.75301 10.097 4.30292C9.64694 3.85283 9.0365 3.59998 8.39998 3.59998H5.99998ZM5.99998 13.2C5.36346 13.2 4.75301 13.4528 4.30292 13.9029C3.85283 14.353 3.59998 14.9635 3.59998 15.6V18C3.59998 18.6365 3.85283 19.2469 4.30292 19.697C4.75301 20.1471 5.36346 20.4 5.99998 20.4H8.39998C9.0365 20.4 9.64694 20.1471 10.097 19.697C10.5471 19.2469 10.8 18.6365 10.8 18V15.6C10.8 14.9635 10.5471 14.353 10.097 13.9029C9.64694 13.4528 9.0365 13.2 8.39998 13.2H5.99998ZM13.2 5.99998C13.2 5.36346 13.4528 4.75301 13.9029 4.30292C14.353 3.85283 14.9635 3.59998 15.6 3.59998H18C18.6365 3.59998 19.2469 3.85283 19.697 4.30292C20.1471 4.75301 20.4 5.36346 20.4 5.99998V8.39998C20.4 9.0365 20.1471 9.64694 19.697 10.097C19.2469 10.5471 18.6365 10.8 18 10.8H15.6C14.9635 10.8 14.353 10.5471 13.9029 10.097C13.4528 9.64694 13.2 9.0365 13.2 8.39998V5.99998ZM13.2 15.6C13.2 14.9635 13.4528 14.353 13.9029 13.9029C14.353 13.4528 14.9635 13.2 15.6 13.2H18C18.6365 13.2 19.2469 13.4528 19.697 13.9029C20.1471 14.353 20.4 14.9635 20.4 15.6V18C20.4 18.6365 20.1471 19.2469 19.697 19.697C19.2469 20.1471 18.6365 20.4 18 20.4H15.6C14.9635 20.4 14.353 20.1471 13.9029 19.697C13.4528 19.2469 13.2 18.6365 13.2 18V15.6Z" fill="white"/>
</svg>
