<svg width="16" height="16" viewBox="0 0 16 16" fill="none" xmlns="http://www.w3.org/2000/svg">
<g clip-path="url(#clip0_180_4946)">
<path d="M14.7889 2.39256C12.4607 2.39256 9.39732 1.60691 8.3054 0.15135C8.16014 -0.0255291 7.89903 -0.0510417 7.72215 0.0942216C7.70128 0.111311 7.68211 0.130476 7.66502 0.15135C6.57298 1.60679 3.50964 2.39256 1.18152 2.39256C0.960449 2.39256 0.78125 2.57175 0.78125 2.79282V7.99557C0.78125 12.3964 4.6029 15.0495 7.87535 15.9843C7.94713 16.0052 8.0233 16.0052 8.09507 15.9843C11.3675 15.0495 15.1892 12.3964 15.1892 7.99557V2.79282C15.1892 2.57175 15.01 2.39256 14.7889 2.39256ZM14.3886 7.99557C14.3886 11.9024 10.9649 14.2974 7.98521 15.1832C5.00548 14.2974 1.58166 11.9024 1.58166 7.99557V3.18601C3.89501 3.10776 6.6306 2.36204 7.98521 0.999615C9.33994 2.36204 12.0754 3.10776 14.3888 3.18589V7.99557H14.3886Z" fill="black"/>
<path d="M6.38452 6.39477V7.19518H5.98425C5.76318 7.19518 5.58398 7.37438 5.58398 7.59545V10.7971C5.58398 11.0182 5.76318 11.1974 5.98425 11.1974H9.98644C10.2075 11.1974 10.3867 11.0182 10.3867 10.7971V7.59545C10.3867 7.37438 10.2075 7.19518 9.98644 7.19518H9.58617V6.39477C9.58617 5.51062 8.8695 4.79395 7.98535 4.79395C7.10119 4.79395 6.38452 5.51062 6.38452 6.39477ZM9.58617 10.397H6.38452V7.9956H9.58617V10.397ZM8.78576 6.39477V7.19518H7.18493V6.39477C7.18493 5.95276 7.54321 5.59436 7.98535 5.59436C8.42736 5.59436 8.78576 5.95276 8.78576 6.39477Z" fill="black"/>
</g>
<defs>
<clipPath id="clip0_180_4946">
<rect width="16" height="16" fill="white"/>
</clipPath>
</defs>
</svg>
