<svg width="24" height="24" viewBox="0 0 24 24" fill="none" xmlns="http://www.w3.org/2000/svg">
<g clip-path="url(#clip0_2779_6395)">
<path fill-rule="evenodd" clip-rule="evenodd" d="M15.5804 3.31366C15.2803 2.6731 14.6506 2.2486 13.9435 2.21478C13.2429 2.17986 12.5805 2.53233 12.2172 3.13142C9.57963 7.25085 5.0488 10.4973 1.39641 12.1549C0.92718 12.359 0.559432 12.7431 0.376104 13.221C0.191684 13.7034 0.210235 14.2402 0.428483 14.7084C0.876983 15.6774 1.55246 17.1266 2.00533 18.0978C2.00533 18.0978 2.00533 18.0978 2.00642 18.0989C2.22576 18.5692 2.62733 18.9293 3.11839 19.0974C3.60508 19.2632 4.1387 19.2261 4.59702 18.9948C8.20357 17.2477 13.6118 15.9066 18.4536 16.5078C19.1553 16.6137 19.8449 16.3343 20.2651 15.7789C20.6895 15.218 20.7692 14.4694 20.4713 13.8321C19.2055 11.0866 16.8615 6.0614 15.5804 3.31366ZM14.0974 4.00659C15.3774 6.75216 17.7192 11.774 18.9872 14.5207C18.9872 14.5218 18.9872 14.5229 18.9883 14.524C19.0287 14.6113 19.0178 14.7138 18.9599 14.7913C18.9021 14.8677 18.8061 14.9059 18.71 14.8906C18.7002 14.8895 18.6904 14.8874 18.6806 14.8863C13.5114 14.2381 7.72779 15.6578 3.87899 17.5238C3.87244 17.5271 3.86698 17.5292 3.86044 17.5325C3.79496 17.5664 3.71857 17.5718 3.64764 17.5478C3.5778 17.5238 3.51997 17.4725 3.48941 17.4059C3.03655 16.4347 2.36216 14.9888 1.91366 14.0187C1.91257 14.0187 1.91257 14.0176 1.91257 14.0165C1.88202 13.9511 1.87874 13.8747 1.90493 13.807C1.93112 13.7383 1.9835 13.6837 2.05116 13.6553C2.05661 13.6521 2.06207 13.6499 2.06862 13.6477C5.96326 11.881 10.7887 8.4032 13.6008 4.00659C13.6063 3.99896 13.6107 3.99022 13.6161 3.98259C13.6674 3.89529 13.7624 3.844 13.8638 3.84945C13.9642 3.85382 14.0548 3.91493 14.0974 4.00659Z" fill="#D8D8D8"/>
<path fill-rule="evenodd" clip-rule="evenodd" d="M10.8945 6.17495L15.2758 15.5705C15.4668 15.9798 15.9535 16.1565 16.3627 15.9667C16.773 15.7757 16.9498 15.2879 16.7588 14.8787L12.3775 5.48311C12.1865 5.07389 11.6998 4.89602 11.2906 5.08699C10.8814 5.27795 10.7035 5.76574 10.8945 6.17495Z" fill="#D8D8D8"/>
<path fill-rule="evenodd" clip-rule="evenodd" d="M6.67146 17.776L8.28649 21.2374C8.73172 22.1933 9.8677 22.6069 10.8236 22.1617C10.9862 22.0853 11.1554 22.0067 11.318 21.9303C12.2739 21.4851 12.6875 20.3491 12.2422 19.3932L10.8585 16.4261C10.6676 16.0169 10.1798 15.839 9.77058 16.03C9.36137 16.2209 9.18459 16.7087 9.37446 17.1179L10.7582 20.085C10.8225 20.2214 10.7636 20.384 10.6261 20.4473L10.1318 20.6776C9.99538 20.742 9.83278 20.683 9.76949 20.5455L8.15555 17.0841C7.96458 16.6749 7.47679 16.4981 7.06758 16.6891C6.65836 16.8801 6.48049 17.3667 6.67146 17.776Z" fill="#D8D8D8"/>
<path fill-rule="evenodd" clip-rule="evenodd" d="M20.1068 8.50147L22.0853 7.57937C22.4945 7.38841 22.6713 6.90062 22.4803 6.49141C22.2893 6.08219 21.8026 5.90432 21.3934 6.09529L19.415 7.01738C19.0058 7.20835 18.8279 7.69614 19.0189 8.10535C19.2098 8.51457 19.6976 8.69244 20.1068 8.50147Z" fill="#D8D8D8"/>
<path fill-rule="evenodd" clip-rule="evenodd" d="M20.6001 12.2205L22.6516 12.9669C23.0761 13.1218 23.5464 12.9025 23.7003 12.478C23.8552 12.0535 23.6359 11.5832 23.2114 11.4293L21.1599 10.6829C20.7354 10.528 20.2661 10.7473 20.1112 11.1718C19.9573 11.5963 20.1756 12.0666 20.6001 12.2205Z" fill="#D8D8D8"/>
<path fill-rule="evenodd" clip-rule="evenodd" d="M18.4209 4.80869L19.1673 2.75825C19.3223 2.33376 19.1029 1.86343 18.6784 1.70847C18.2539 1.55461 17.7836 1.77395 17.6298 2.19735L16.8833 4.24888C16.7284 4.67338 16.9477 5.1437 17.3722 5.29757C17.7967 5.45252 18.267 5.23318 18.4209 4.80869Z" fill="#D8D8D8"/>
</g>
<defs>
<clipPath id="clip0_2779_6395">
<rect width="24" height="24" fill="white"/>
</clipPath>
</defs>
</svg>
