<svg width="20" height="20" viewBox="0 0 20 20" fill="none" xmlns="http://www.w3.org/2000/svg">
<g clip-path="url(#clip0_199_1587)">
<path d="M10.1934 5.97803C10.402 5.97822 10.5713 6.14729 10.5713 6.35596V6.61572C11.2219 6.77211 11.6836 7.35319 11.6846 8.02588C11.6845 8.23463 11.5154 8.40381 11.3066 8.40381C11.098 8.40365 10.9287 8.23453 10.9287 8.02588C10.9287 7.64226 10.6179 7.33076 10.2344 7.33057C9.85064 7.33057 9.53906 7.64214 9.53906 8.02588C9.5391 8.40959 9.85066 8.72021 10.2344 8.72021C10.9776 8.72056 11.6 9.28278 11.6768 10.022C11.7518 10.7476 11.2767 11.412 10.5713 11.5806V11.8511C10.5712 12.0596 10.4019 12.2288 10.1934 12.229C9.98465 12.229 9.81555 12.0598 9.81543 11.8511V11.5591C9.20483 11.3743 8.78418 10.8124 8.7832 10.1714C8.78326 9.96265 8.95238 9.79346 9.16113 9.79346C9.36987 9.79348 9.53901 9.96266 9.53906 10.1714C9.53966 10.523 9.80252 10.8186 10.1514 10.8608C10.188 10.8564 10.2248 10.8571 10.2607 10.8638C10.6383 10.8493 10.9355 10.5365 10.9287 10.1587C10.9218 9.78034 10.6129 9.47724 10.2344 9.47705C9.50755 9.47722 8.89245 8.93861 8.7959 8.21826C8.7013 7.51068 9.13538 6.84192 9.81543 6.63721V6.35596C9.81543 6.14717 9.98458 5.97803 10.1934 5.97803Z" fill="#6E7C87" stroke="#6E7C87" stroke-width="0.1"/>
<path d="M10.2334 4.31738C12.8883 4.31738 15.0408 6.46921 15.041 9.12402C15.041 11.779 12.8884 13.9316 10.2334 13.9316C7.57859 13.9315 5.42676 11.7789 5.42676 9.12402C5.42998 6.4706 7.57997 4.32044 10.2334 4.31738ZM10.2334 5.07324C7.99738 5.07598 6.18535 6.88801 6.18262 9.12402C6.18262 11.3613 7.99615 13.1756 10.2334 13.1758C12.4708 13.1758 14.2852 11.3614 14.2852 9.12402C14.285 6.88678 12.4707 5.07324 10.2334 5.07324Z" fill="#6E7C87" stroke="#6E7C87" stroke-width="0.1"/>
<path d="M4.31543 13.4043C4.52423 13.41 4.68932 13.5842 4.68359 13.793L4.66992 14.2568C5.90351 13.6408 7.35927 13.6512 8.58496 14.29L8.82617 14.415C9.15341 14.5841 9.51477 14.6769 9.88281 14.6875L12.2549 14.7529H12.2559C13.0064 14.7743 13.6884 15.1877 14.0576 15.8389L16.5869 14.6445C17.401 14.2357 18.3925 14.5385 18.8398 15.332C18.9382 15.5062 18.8847 15.7272 18.7168 15.8359L12.8652 19.6201C12.8502 19.63 12.8339 19.638 12.8174 19.6455C12.2373 19.9118 11.6069 20.0501 10.9688 20.0498C10.7428 20.0499 10.5171 20.0328 10.2939 19.998L10.0713 19.957C10.0641 19.9554 10.0548 19.9538 10.0459 19.9512V19.9502L6.01074 18.8184C5.73367 18.74 5.43726 18.7728 5.18359 18.9092L4.5332 19.2568L4.52637 19.501C4.52083 19.7056 4.35317 19.869 4.14844 19.8691H4.1377L1.53613 19.7979C1.32748 19.792 1.16324 19.6178 1.16895 19.4092L1.32617 13.7002C1.33205 13.4917 1.50536 13.3275 1.71387 13.333L4.31543 13.4043ZM8.2373 14.9609C7.09553 14.3661 5.72252 14.436 4.64648 15.1406L4.55664 18.3867L4.82617 18.2432C5.252 18.0142 5.75034 17.9593 6.21582 18.0908L10.2363 19.2197C10.9898 19.3737 11.7731 19.2867 12.4746 18.9717L17.9482 15.4316C17.697 15.2294 17.363 15.1673 17.0596 15.2656L16.9229 15.3223C16.9206 15.3234 16.9169 15.3255 16.9131 15.3271L16.9121 15.3262L14.3096 16.5557C14.3307 16.6871 14.3426 16.82 14.3389 16.9531C14.3333 17.1576 14.1656 17.321 13.9609 17.3213H13.9502L10.0508 17.2139C9.84216 17.2081 9.67689 17.034 9.68262 16.8252C9.68867 16.6168 9.86258 16.4523 10.0713 16.458L13.5391 16.5537C13.3865 15.9558 12.8562 15.5267 12.2344 15.5088L9.8623 15.4434C9.3802 15.4294 8.9071 15.3072 8.47852 15.0859L8.2373 14.9609ZM1.93457 19.0518L3.78027 19.1025L3.91602 14.1494L2.07129 14.0986L1.93457 19.0518Z" fill="#6E7C87" stroke="#6E7C87" stroke-width="0.1"/>
<path d="M10.2339 -0.0498047C10.4426 -0.0497683 10.6118 0.119365 10.6118 0.328125V3.44434C10.6118 3.6531 10.4426 3.82223 10.2339 3.82227C10.0251 3.82227 9.85596 3.65312 9.85596 3.44434V0.328125C9.85596 0.119342 10.0251 -0.0498047 10.2339 -0.0498047Z" fill="#6E7C87" stroke="#6E7C87" stroke-width="0.1"/>
<path d="M12.6943 1.59033C12.9031 1.59037 13.0723 1.7595 13.0723 1.96826V3.44482C13.0721 3.65341 12.903 3.82272 12.6943 3.82275C12.4857 3.82275 12.3166 3.65344 12.3164 3.44482V1.96826C12.3164 1.75948 12.4856 1.59033 12.6943 1.59033Z" fill="#6E7C87" stroke="#6E7C87" stroke-width="0.1"/>
<path d="M7.77344 1.59033C7.98219 1.59037 8.15137 1.7595 8.15137 1.96826V3.44482C8.15117 3.65341 7.98207 3.82272 7.77344 3.82275C7.56478 3.82275 7.39571 3.65344 7.39551 3.44482V1.96826C7.39551 1.75948 7.56465 1.59033 7.77344 1.59033Z" fill="#6E7C87" stroke="#6E7C87" stroke-width="0.1"/>
</g>
<defs>
<clipPath id="clip0_199_1587">
<rect width="20" height="20" fill="white"/>
</clipPath>
</defs>
</svg>
