<svg width="20" height="20" viewBox="0 0 20 20" fill="none" xmlns="http://www.w3.org/2000/svg">
<path d="M7.23689 11.1186C7.40523 10.782 7.50023 10.402 7.50023 10.0003C7.50023 9.59863 7.40523 9.21863 7.23689 8.88197M7.23689 11.1186C6.98498 11.6223 6.5704 12.0261 6.06031 12.2648C5.55022 12.5034 4.9745 12.5628 4.42643 12.4334C3.87836 12.304 3.39004 11.9933 3.04057 11.5517C2.69111 11.1101 2.50098 10.5634 2.50098 10.0003C2.50098 9.43715 2.69111 8.8905 3.04057 8.44891C3.39004 8.00731 3.87836 7.69664 4.42643 7.56721C4.9745 7.43779 5.55022 7.49721 6.06031 7.73583C6.5704 7.97445 6.98498 8.37831 7.23689 8.88197M7.23689 11.1186L12.7636 13.882M7.23689 8.88197L12.7636 6.11863M12.7636 13.882C12.467 14.4752 12.4182 15.1619 12.6279 15.7911C12.8376 16.4203 13.2887 16.9404 13.8819 17.237C14.4751 17.5336 15.1618 17.5824 15.791 17.3726C16.4202 17.1629 16.9403 16.7118 17.2369 16.1186C17.5335 15.5254 17.5823 14.8387 17.3726 14.2095C17.1628 13.5803 16.7118 13.0602 16.1186 12.7636C15.8248 12.6168 15.5051 12.5292 15.1775 12.5059C14.8499 12.4826 14.521 12.5241 14.2094 12.628C13.5803 12.8377 13.0602 13.2888 12.7636 13.882ZM12.7636 6.11863C12.9104 6.4123 13.1137 6.67417 13.3618 6.88928C13.6098 7.10439 13.8978 7.26854 14.2093 7.37235C14.5208 7.47616 14.8497 7.51759 15.1772 7.49429C15.5048 7.47099 15.8245 7.38341 16.1181 7.23655C16.4118 7.08969 16.6737 6.88642 16.8888 6.63836C17.1039 6.39029 17.2681 6.10229 17.3719 5.79079C17.4757 5.47928 17.5171 5.15039 17.4938 4.82287C17.4705 4.49535 17.3829 4.17563 17.2361 3.88197C16.9395 3.28888 16.4194 2.8379 15.7903 2.62825C15.1612 2.4186 14.4746 2.46745 13.8815 2.76405C13.2884 3.06065 12.8374 3.58071 12.6278 4.20981C12.4181 4.83892 12.467 5.52554 12.7636 6.11863Z" stroke="black" stroke-width="2" stroke-linecap="round" stroke-linejoin="round"/>
</svg>
