<svg width="22" height="22" viewBox="0 0 22 22" fill="none" xmlns="http://www.w3.org/2000/svg">
<path d="M20.1205 5.95565H1.8795C3.62075 2.69415 7.04775 0.483398 11 0.483398C14.9523 0.483398 18.3795 2.69415 20.1205 5.95565ZM18.6973 13.4592H18.02C15.6155 13.4592 13.4735 11.9391 12.686 9.67265L12.2298 8.33215C12.1608 8.13865 11.981 8.0144 11.7875 8.0144H10.378C10.1845 8.0144 10.0188 8.13865 9.94975 8.3184L9.36925 9.8249C8.54025 12.0219 6.43975 13.4592 4.10425 13.4592H3.28875C2.10025 13.4592 1.07775 12.7129 0.677002 11.6627C1.078 16.9969 5.55525 21.2117 11 21.2117C16.4445 21.2117 20.922 16.9969 21.3228 11.6627C20.9083 12.7129 19.8995 13.4592 18.6973 13.4592Z" fill="#FFD93B"/>
<path d="M11.0002 21.6945C5.36195 21.6945 0.616196 17.3045 0.194946 11.6987L1.12945 11.4895C1.46795 12.3787 2.33595 12.9767 3.28895 12.9767H4.10445C6.2332 12.9767 8.1672 11.642 8.9167 9.65425L9.49845 8.14425C9.6412 7.77175 9.9867 7.5315 10.378 7.5315H11.7875C12.1882 7.5315 12.5492 7.788 12.6855 8.17125L13.1437 9.518C13.8622 11.5855 15.8222 12.9767 18.0197 12.9767H18.6967C19.6612 12.9767 20.5152 12.391 20.8725 11.4855L21.805 11.6987C21.384 17.3047 16.6377 21.6945 11.0002 21.6945ZM1.4537 13.3775C2.5717 17.615 6.4697 20.7282 11.0002 20.7282C15.5297 20.7282 19.4275 17.6162 20.5462 13.3787C20.0132 13.7405 19.3745 13.9427 18.697 13.9427H18.02C15.411 13.9427 13.0837 12.291 12.2292 9.83225L11.772 8.48825L10.378 8.49775L9.8207 9.99975C8.93095 12.3572 6.63345 13.943 4.10445 13.943H3.28895C2.6227 13.943 1.9857 13.738 1.4537 13.3775ZM20.9272 6.4385H1.0727L1.4527 5.72725C3.3397 2.19425 6.9982 0 11.0002 0C15.0022 0 18.6605 2.19425 20.5472 5.72725L20.9272 6.4385ZM2.72495 5.47225H19.275C17.4677 2.67325 14.3675 0.96625 11.0002 0.96625C7.63245 0.96625 4.5322 2.67325 2.72495 5.47225Z" fill="#202730"/>
<path d="M21.5163 6.42532V10.6401C21.5163 11.0133 21.4473 11.3586 21.323 11.6626C20.9083 12.7128 19.8995 13.4591 18.6973 13.4591H18.02C15.6155 13.4591 13.4735 11.9391 12.686 9.67257L12.2298 8.33207C12.1608 8.13857 11.981 8.01432 11.7875 8.01432H10.378C10.1845 8.01432 10.0188 8.13857 9.94978 8.31832L9.36928 9.82482C8.54028 12.0218 6.43978 13.4591 4.10428 13.4591H3.28878C2.10028 13.4591 1.07778 12.7128 0.677026 11.6626C0.552526 11.3586 0.483276 11.0131 0.483276 10.6401V6.42532C0.483276 6.16257 0.690526 5.95557 0.939526 5.95557H21.0463C21.309 5.95557 21.5163 6.16257 21.5163 6.42532Z" fill="#92EAFF"/>
<path d="M18.697 13.9429H18.02C15.411 13.9429 13.0837 12.2912 12.2292 9.83242L11.772 8.48842L10.378 8.49792L9.82075 9.99992C8.931 12.3574 6.6335 13.9432 4.1045 13.9432H3.289C1.93725 13.9432 0.706 13.0957 0.22525 11.8352C0.0775 11.4734 0 11.0684 0 10.6407V6.42492C0 5.89842 0.42175 5.47217 0.94 5.47217H21.0467C21.5725 5.47217 22.0002 5.89867 22.0002 6.42492V10.6407C22.0002 11.0684 21.923 11.4734 21.7707 11.8457C21.269 13.1169 20.0615 13.9429 18.697 13.9429ZM10.378 7.53142H11.7875C12.1882 7.53142 12.5492 7.78792 12.6855 8.17117L13.1437 9.51792C13.8622 11.5854 15.8222 12.9767 18.0197 12.9767H18.6967C19.6612 12.9767 20.5152 12.3909 20.8725 11.4842C20.9795 11.2237 21.032 10.9417 21.032 10.6407V6.43842H0.94L0.9675 10.6407C0.9675 10.9417 1.0205 11.2237 1.12475 11.4787C1.46775 12.3787 2.336 12.9767 3.289 12.9767H4.1045C6.23325 12.9767 8.16725 11.6419 8.91675 9.65417L9.4985 8.14417C9.64125 7.77167 9.98675 7.53142 10.378 7.53142Z" fill="#202730"/>
<path d="M10.9905 16.9537C9.5927 16.9537 8.25545 16.2857 7.41295 15.1657C7.25245 14.9525 7.2952 14.6502 7.5087 14.4897C7.72195 14.3277 8.0252 14.371 8.1862 14.5855C8.8467 15.4627 9.89495 15.9877 10.9905 15.9877C12.086 15.9877 13.1345 15.4627 13.795 14.5855C13.9555 14.371 14.259 14.3265 14.4725 14.4897C14.686 14.6502 14.729 14.9527 14.5682 15.1657C13.7257 16.2857 12.3882 16.9537 10.9905 16.9537Z" fill="#202730"/>
<path d="M4.23451 10.9416C4.11076 10.9416 3.98676 10.8944 3.89251 10.7999C3.70351 10.6109 3.70401 10.3046 3.89276 10.1156L5.39576 8.61363C5.58476 8.42738 5.89076 8.42613 6.07951 8.61488C6.26851 8.80388 6.26801 9.11013 6.07926 9.29913L4.57626 10.8011C4.48176 10.8944 4.35826 10.9416 4.23451 10.9416Z" fill="#202730"/>
<path d="M17.0098 10.9416C16.886 10.9416 16.762 10.8944 16.6678 10.7999C16.4788 10.6109 16.4793 10.3046 16.668 10.1156L18.171 8.61363C18.36 8.42738 18.666 8.42613 18.8548 8.61488C19.0438 8.80388 19.0433 9.11013 18.8545 9.29913L17.3515 10.8011C17.2573 10.8944 17.1338 10.9416 17.0098 10.9416Z" fill="#202730"/>
</svg>
