<?xml version="1.0" encoding="UTF-8"?><svg xmlns="http://www.w3.org/2000/svg" viewBox="0 0 1000 1000"><defs><style>.cls-1{fill:#fff;}.cls-2{fill:#050505;}.cls-3,.cls-4{mix-blend-mode:multiply;}.cls-3,.cls-5{fill:#ddd;}.cls-6{fill:#333130;}.cls-7{isolation:isolate;}.cls-8{fill:#ffb685;}.cls-4{fill:#d1d3d4;}.cls-9{fill:#333;}.cls-10{fill:#efefef;}.cls-11{font-family:Roboto-Regular, Roboto;font-size:27px;}.cls-12{fill:none;stroke:#15e9f4;stroke-miterlimit:10;stroke-width:3px;}.cls-13{fill:#15e9f4;}.cls-14{fill:#b5b5b5;}.cls-15{fill:#e6e6e6;}</style></defs><g class="cls-7"><g id="Layer_1"><ellipse class="cls-4" cx="541.74" cy="787.77" rx="95.89" ry="3.25"/><path class="cls-12" d="M219.44,386.05s190.06-218.81,317.21,58.35"/><text class="cls-11" transform="translate(356.19 295.52) rotate(-6.45)"><tspan x="0" y="0">Lead</tspan></text><path class="cls-12" d="M559.04,500.27c10.21,97.6,32.92,214.82,145.93,239.16,44.59,9.6,92.09.04,132.28-21.54,54.6-29.31,94.91-84.16,114.48-142.19"/><text class="cls-11" transform="translate(824.88 755.98) rotate(-23.45)"><tspan x="0" y="0">Conversion</tspan></text><path d="M321.95,345.85c-25.86,0-46.82,21.16-46.82,47.27,0,26.1,20.96,47.27,46.82,47.27,25.86,0,46.82-21.16,46.82-47.27,0-26.1-20.96-47.27-46.82-47.27ZM321.95,434.15c-22.45,0-40.65-18.37-40.65-41.04,0-22.66,18.2-41.04,40.65-41.04,22.45,0,40.65,18.37,40.65,41.04,0,22.66-18.2,41.04-40.65,41.04Z"/><path d="M365.05,452.44c-1.31.97-3.15.68-4.11-.64l-13.67-18.84,4.74-3.51,13.67,18.84c.96,1.32.68,3.18-.63,4.15Z"/><polygon class="cls-1" points="573.75 715.74 589.01 727.84 600.36 714.08 584.75 702.43 573.75 715.74"/><path d="M588.53,728.44l-15.25-12.09c-.16-.13-.27-.32-.29-.52-.02-.21.04-.41.17-.57l10.99-13.32c.26-.32.72-.37,1.05-.13l15.62,11.66c.17.13.28.32.3.53.03.21-.04.42-.17.58l-11.35,13.75c-.15.18-.37.28-.59.28-.17,0-.34-.05-.48-.17ZM584.87,703.48l-10.03,12.15,14.05,11.14,10.36-12.55-14.38-10.73Z"/><polygon class="cls-1" points="487.44 732.46 488 743.07 505.74 743.07 504.61 732.46 487.44 732.46"/><path d="M487.23,743.11l-.56-10.61c-.01-.21.06-.42.21-.57.15-.15.35-.24.56-.24h17.17c.39,0,.72.3.77.69l1.13,10.61c.02.22-.05.43-.19.6-.15.16-.35.25-.57.25h-17.74c-.41,0-.75-.32-.77-.73ZM503.92,733.23h-15.67s.48,9.07.48,9.07h16.15s-.96-9.07-.96-9.07Z"/><path class="cls-1" d="M488.7,742.69h16.47c1.17,0,2.22.71,2.66,1.8,1.46,3.58,4.43,11.96,4.03,19.91-.11,2.17-1.9,3.87-4.05,3.87h-48.32c-2.22,0-3.91-2.05-3.47-4.25.53-2.63,2.37-6.09,7.67-9.21,8.58-5.04,19.36-10.08,22.76-11.64.7-.32,1.47-.49,2.24-.49Z"/><path d="M456.16,767.45c-.82-1.01-1.15-2.31-.89-3.58.52-2.59,2.34-6.37,8.03-9.72,8.66-5.09,19.66-10.22,22.83-11.67.81-.37,1.67-.56,2.56-.56h16.47c1.49,0,2.81.89,3.38,2.28,1.37,3.36,4.5,12.04,4.09,20.24-.13,2.58-2.25,4.6-4.82,4.6h-48.32c-1.29,0-2.51-.58-3.33-1.58ZM456.78,764.17c-.17.82.04,1.66.57,2.31.53.65,1.31,1.02,2.14,1.02h48.32c1.75,0,3.19-1.38,3.28-3.14"/><path d="M484.91,757.86c.15,0,.29-.04.42-.13.35-.23.45-.71.22-1.07l-6.57-9.95c-.23-.35-.71-.45-1.07-.22-.35.23-.45.71-.22,1.07l6.57,9.95c.15.22.39.35.64.35Z"/><path d="M478.55,761.65c.15,0,.29-.04.42-.13.35-.23.45-.71.22-1.07l-6.57-9.95c-.23-.35-.71-.45-1.07-.22-.35.23-.45.71-.22,1.07l6.57,9.95c.15.22.39.35.64.35Z"/><path class="cls-1" d="M589.26,728.15l10.2-13.05c.72-.93,1.92-1.32,3.05-1,3.69,1.06,12.05,3.89,17.98,9.13,1.62,1.43,1.84,3.9.5,5.61l-29.92,38.3c-1.38,1.76-4.02,1.83-5.45.12-1.72-2.05-3.27-5.65-2.41-11.78,1.39-9.92,4.15-21.58,5.04-25.24.19-.76.53-1.47,1.01-2.08Z"/><path d="M585.03,767.75c-1.69-2.02-3.51-5.8-2.58-12.38,1.41-10.02,4.23-21.91,5.06-25.32.21-.87.6-1.67,1.15-2.37l10.2-13.05c.92-1.18,2.44-1.67,3.87-1.26,3.46.99,12.16,3.89,18.28,9.29,1.93,1.7,2.19,4.63.6,6.66l-29.92,38.3c-.81,1.03-2.02,1.64-3.32,1.66-.02,0-.05,0-.07,0-1.26,0-2.44-.55-3.26-1.52ZM586.21,766.76c.53.63,1.29.96,2.12.97.84-.01,1.61-.4,2.13-1.07l29.92-38.3c1.09-1.39.91-3.39-.41-4.56"/><path d="M598.12,740.84c.4,0,.73-.31.77-.71.03-.42-.28-.79-.7-.83l-11.8-.95c-.42-.04-.79.28-.83.71-.03.42.28.79.7.83l11.8.95s.04,0,.06,0Z"/><path d="M597.12,748.23c.4,0,.73-.31.77-.71.03-.42-.28-.79-.7-.83l-11.8-.95c-.43-.04-.79.28-.83.7-.03.42.28.79.7.83l11.8.95s.04,0,.06,0Z"/><path class="cls-1" d="M526.54,558.87s5.66,18.42,7.54,45.33c1.88,26.9,41.94,57.31,55.83,98.23l-14.75,17.86s-44.54-34.42-53.09-48.64c-9.03-15.02-19.89-46.23-19.89-46.23l7.77-57.63,1.36-.32c3.53-.84,6.86-2.16,10.1-3.74,2.16-1.05,3.95-2.75,5.13-4.85Z"/><path class="cls-1" d="M522.1,563.73s3.91,24.36-8.48,44.25c-12.39,19.89-11.26,40.36-9.01,50.59,2.25,10.23,7.88,40.92,0,73.89,0,0-7.88,3.41-17.17,0,0,0-23.93-54.57-25.06-88.1-1.13-33.54,12.95-79.01,12.95-79.01,0,0,28.2,8.44,46.76-1.62Z"/><path class="cls-1" d="M371.3,456.66c.78-.52,1.3-1.34,1.45-2.27.48-3.14,1.13-10.47-2.31-14.74-4.47-5.54-12.13-7.73-13.02-6.19-.89,1.55,10.47,11.47,6.64,17.27,0,0-3.51,1.11-8.49-3.04-.7-.58-1.79-.19-1.95.71-.22,1.24-.11,3.13,1.25,5.68,1.74,3.26,4.91,5.51,6.93,6.69,1.07.63,2.4.59,3.44-.09l6.08-4.01Z"/><path class="cls-8" d="M361.4,461.43c-2.31-1.35-5.44-3.66-7.22-6.99-1.51-2.83-1.55-4.92-1.33-6.18.12-.69.6-1.25,1.26-1.49.67-.24,1.39-.12,1.94.33,3.86,3.21,6.68,3.09,7.51,2.95,1.9-3.43-1.99-8.72-4.59-12.25-1.85-2.51-2.78-3.77-2.23-4.72.2-.35.65-.78,1.67-.86,2.7-.19,8.75,2.14,12.62,6.94,3.66,4.54,2.95,12.24,2.47,15.34-.18,1.14-.83,2.16-1.78,2.8l-6.08,4.01c-.68.45-1.45.67-2.22.67-.7,0-1.4-.18-2.03-.55Z"/><path class="cls-1" d="M549.46,543.84s19.42-1.8,24.28.98c4.86,2.78,4.37,6.21,2.27,7.68-1.63,1.14-11.85.41-16.34.03-.36-.03-.48.46-.16.61,2.58,1.13,6.75,3.27,6.3,5.08-.65,2.61-17-2.61-17-2.61l.65-11.77Z"/><path class="cls-8" d="M548.58,556.34c-.33-.11-.55-.43-.53-.77l.65-11.77c.02-.38.32-.69.7-.72.8-.07,19.72-1.79,24.73,1.08,2.6,1.49,4.08,3.39,4.17,5.36.06,1.42-.63,2.77-1.85,3.62-1.24.87-6.08.99-14.39.36,5.07,2.64,4.65,4.31,4.5,4.91-.07.28-.25.66-.75.94-.45.25-1.15.36-2.03.36-4.42,0-13.19-2.72-15.2-3.36Z"/><path class="cls-6" d="M507.43,526.89c-6.38-22.74-16.52-53.05-34.16-57.6l.28-13.78s-31.5,5.85-33.99,23.76c-13.84,3.65-28.76,2.48-42.09-3.99-7.95-3.86-16.14-12.58-24.06-21.33l-13.09,8.53s27.36,67.07,88.92,48.5c0,0,18.86,14.16,16.23,49.4,0,0,24.91,20.32,59.12,1.85,0,0-10.79-12.6-17.17-35.34Z"/><path class="cls-6" d="M552.47,541.2l-1.41,17.34s-48.14,28.61-84.93-57.41l31.53-3.22s10.89,33.72,54.8,43.29Z"/><path class="cls-1" d="M524.09,564.09c.35,0,.66-.24.75-.59.1-.41-.16-.83-.57-.93-27.82-6.61-38.77-21.44-47.57-33.35-.25-.34-.73-.41-1.08-.16s-.41.73-.16,1.08c8.95,12.12,20.09,27.19,48.45,33.93.06.01.12.02.18.02Z"/><path class="cls-1" d="M459.92,490.54s.02,0,.03,0c.42-.02.75-.37.74-.8-.64-15.85,6.75-27.01,6.83-27.12.24-.35.15-.83-.21-1.07-.35-.24-.83-.14-1.07.21-.32.47-7.75,11.67-7.09,28.05.02.41.36.74.77.74Z"/><path class="cls-1" d="M448.31,510.61c.21,0,.42-.09.57-.26.28-.32.26-.8-.06-1.09-7.95-7.13-7.72-14.85-7.72-14.93.02-.42-.31-.78-.73-.8-.41,0-.78.31-.8.73-.02.34-.29,8.51,8.23,16.15.15.13.33.2.51.2Z"/><path class="cls-1" d="M434.59,440.7s-8.57-1.76-7.73,3.72c.85,5.49,1.15,18.42,5.54,20,4.39,1.59,9.2-4.64,12.22-1.88,3.02,2.76,5.11,6.91,6.6,12.03.91.33,2.82.86,5.06.31,4.53-1.1,6.29-5.58,6.46-6.04-1.12-1.17-2.28-2.6-3.44-4.27-1.81-2.59-3.81-6.1-4.53-9.76l-20.18-14.13Z"/><path class="cls-8" d="M450.97,475.31c-.23-.08-.41-.27-.48-.51-1.56-5.35-3.65-9.17-6.39-11.68-1.12-1.02-2.62-.39-4.96.73-2.15,1.02-4.58,2.18-7,1.31-3.96-1.43-4.85-9.84-5.56-16.59-.16-1.51-.31-2.94-.48-4.02-.23-1.47.11-2.65,1.01-3.5,2.24-2.13,7.09-1.2,7.64-1.09.1.02.2.06.29.12l20.18,14.13c.16.11.28.29.31.48.72,3.65,2.8,7.16,4.41,9.47,1.12,1.6,2.25,3,3.37,4.18.2.21.27.52.16.8-.2.54-2.12,5.33-6.99,6.52-.76.18-1.48.26-2.16.26-1.34,0-2.5-.29-3.34-.59Z"/><path class="cls-6" d="M435.26,455.1c.09,0,.18-.02.26-.05,3-1.09,4.02-4.83,3.7-8.06-.29-2.89-1.54-4.92-3.19-5.17-3.76-.58-5.04,5.19-5.09,5.43-.09.42.18.82.59.91.41.09.82-.18.91-.59,0-.05,1.05-4.57,3.35-4.23.88.13,1.69,1.77,1.89,3.8.25,2.55-.48,5.66-2.69,6.46-.4.15-.61.59-.46.99.11.31.41.51.72.51Z"/><path d="M432.54,445.04s-8.8,1.63-8.52-7.08c.28-8.72,6.45-17.26,22.97-13.85,0,0,3.75-11.46,13.33-8.15,9.57,3.32,6.48,18.38-3.1,19.7,0,0,8,14.73-2.17,20.11-2.57,1.36-5.57,1.6-8.41.98-3.01-.66-6.9-2.15-8.47-5.55,0,0,1.37-7.01-1.3-8.43-2.67-1.42-4.33,2.28-4.33,2.28Z"/><path class="cls-13" d="M504.03,630.59c-.4.15-.6.59-.46.99,3.85,10.44,11.29,29.58,17.83,40.46,8.52,14.19,51.45,47.45,53.28,48.86.14.11.31.16.47.16.22,0,.44-.1.59-.28l14.75-17.86c.17-.21.22-.48.14-.74-6.83-20.12-20.05-37.86-31.72-53.51-12.41-16.64-23.12-31.01-24.07-44.53-1.86-26.68-7.52-45.31-7.57-45.5-.09-.29-.35-.51-.65-.54-.31-.03-.6.12-.75.39-1.11,1.98-2.77,3.55-4.8,4.53"/><path class="cls-13" d="M487.17,733.18c-.2-.07-.36-.22-.44-.41-.24-.55-24-55.09-25.12-88.38-1.12-33.28,12.84-78.8,12.98-79.26.12-.4.55-.63.96-.51.28.08,28.11,8.23,46.18-1.56.22-.12.48-.12.71-.01.22.11.38.32.42.57.04.25,3.81,24.87-8.58,44.78-13.66,21.93-10.27,43.83-8.91,50.01,2.56,11.62,7.68,42.11,0,74.24-.06.24-.22.43-.44.53-.22.1-3.76,1.59-8.87,1.59-2.62,0-5.66-.39-8.87-1.57Z"/><path class="cls-9" d="M881.76,217.77c-36.67,4.99-52.34,37.65-48.88,67.33,3.22,27.63,22.5,53.94,58.45,53.94,2.46,0,5-.12,7.62-.38,22.58-2.2,39.73-14.14,48.29-33.64,9.34-21.26,6.42-47.73-7.26-65.87-12.93-17.14-33.61-24.74-58.23-21.39ZM941.05,305.65c-9.07,18.03-26.04,28.19-47.77,28.6-.42,0-.85.01-1.27.01-34.57,0-52.39-26.84-54.34-52.08-1.96-25.48,11.64-55.03,46.15-59.71,22.29-3.02,41,4.32,52.67,20.67,12.63,17.7,14.46,42.82,4.56,62.51Z"/><path class="cls-9" d="M940.82,397.28h-45.21v-45.16h-6.2v45.16h-45.21c0,17.38,4.41,34.73,8.67,51.53,1.61,6.35,3.27,12.9,4.69,19.4h69.9c1.4-6.44,3.05-12.95,4.66-19.27,4.29-16.89,8.71-34.32,8.71-51.66ZM922.15,462.75l-60.2-.08-12.24-57.64h85.66l-13.22,57.72Z"/><path class="cls-9" d="M959.59,346.41c-18.32-.73-33.74,3.8-42.76,12.67-6.44,6.32-9.67,14.82-9.65,25.3,28.47,2.31,47.31-11.36,52.4-37.97ZM919.79,379.29l-4.66.97-.05-4.76c-.06-5.18,2.16-10,6.41-13.95,6.29-5.85,16.92-9.42,25.85-8.66l5.18.43-1.85,4.86c-5.6,14.71-17.8,18.38-30.87,21.11Z"/><path class="cls-9" d="M879.76,384.55c-5.1-26.6-23.93-40.27-52.4-37.97-.03,10.48,3.21,18.98,9.64,25.3,9.02,8.86,24.44,13.4,42.76,12.67ZM835.3,350.7l4.66.97c13.07,2.73,25.27,6.41,30.87,21.11l1.85,4.86-5.18.43c-8.93.75-19.56-2.81-25.85-8.66-4.25-3.95-6.47-8.77-6.41-13.95l.05-4.76Z"/><path class="cls-13" d="M909.58,298c2.6-13.83-3.67-17.4-11.61-21.91-3.5-1.99-7.12-4.05-10.26-7.16-4.31-4.27-3.12-7.59-2.41-8.82,1.51-2.62,5.09-3.84,8.5-2.91,3.83,1.05,6.23,4.39,6.62,9.08l9.35.14c.3-6.05-1.91-11.87-5.83-15.11-1.23-1.02-2.34-1.45-3.31-1.83-3.41-1.33-4.49-2.92-3.67-9.51h-8.77c.85,5.61-1.59,7.31-5.06,8.99-1.72.84-3.49,1.7-4.98,3.62-3.31,4.26-4.61,8.16-3.99,11.94,1.22,7.43,9.75,13.08,16.61,17.62,4.72,3.13,8.45,5.6,9.26,8.28,1.2,4.03.05,6.17-1.12,7.25-1.7,1.57-4.47,1.83-7.4.69-2.98-1.16-6.55-4.07-7.52-8.64l-9.44.08c.38,1.26.62,2.52.85,3.75.36,1.94.7,3.77,1.58,5.46,1.2,2.32,3.31,3.86,5.35,5.34,3.16,2.31,6.7,4.89,5.92,10.35l8.78-.05c.02-4.94,3.32-7.05,6.26-8.93,2.84-1.82,5.52-3.53,6.31-7.72Z"/><ellipse class="cls-4" cx="742.58" cy="687.71" rx="80.87" ry="3.29"/><ellipse class="cls-8" cx="772.81" cy="295.49" rx="19.4" ry="21.25"/><path class="cls-8" d="M766.84,330.92c-.68,0-1.36-.12-2.03-.38-2.88-1.12-4.31-4.37-3.19-7.25.76-1.97,2.69-8.49,1.68-12.5-.76-3,1.06-6.05,4.06-6.81,3.01-.76,6.05,1.06,6.81,4.06,2.07,8.2-1.67,18.19-2.1,19.3-.86,2.22-2.98,3.57-5.23,3.57Z"/><path class="cls-13" d="M777.39,448.2c-.55,4.99-1.17,9.57-1.84,14.31-.68,4.7-1.41,9.39-2.2,14.07-1.59,9.36-3.47,18.68-5.6,27.98-1.08,4.65-2.24,9.29-3.48,13.93-1.27,4.63-2.65,9.25-4.14,13.87-3.04,9.22-6.49,18.41-11.27,27.46-1.21,2.34-2.44,4.32-3.67,6.38l-3.71,6.14-3.92,6c-1.29,2.01-2.61,3.99-4,5.92l-4.1,5.84-4.26,5.72c-1.4,1.92-2.86,3.79-4.35,5.64-1.49,1.85-2.91,3.74-4.45,5.55-12.18,14.58-25.12,28.18-39.93,40.33l-5.59-6.29c6.13-6.45,12.01-13.62,17.53-20.81,5.56-7.22,10.85-14.62,15.79-22.24,4.91-7.63,9.71-15.31,13.97-23.27,1.12-1.96,2.17-3.95,3.18-5.97l3.08-6,2.89-6.09c.96-2.02,1.98-4.09,2.74-5.94,3.26-7.65,5.69-16.1,7.74-24.68,2-8.62,3.63-17.42,5.01-26.31,1.37-8.89,2.44-17.86,3.35-26.86.46-4.5.87-9,1.22-13.5.35-4.46.66-9.1.85-13.34l29.17,2.17Z"/><path class="cls-13" d="M807.01,435.49c.71,9.9,1.23,19.49,1.6,29.23.34,9.71.56,19.42.64,29.14.04,19.46-.5,38.92-2.11,58.55-.81,9.72-1.82,19.33-2.94,28.92-1.08,9.59-2.35,19.15-3.65,28.69-2.59,19.08-5.49,38.08-8.63,57.08l-8.36-.97c1.22-19.11,2.24-38.27,3.18-57.37.83-19.1,1.71-38.24,1.74-57.14.03-4.74-.06-9.4-.18-14.06-.24-4.71-.47-9.41-.82-14.12-.65-9.42-1.48-18.85-2.48-28.28-.95-9.43-2.03-18.85-3.23-28.26-1.18-9.37-2.41-18.88-3.82-28.04l29.06-3.36Z"/><path class="cls-8" d="M847.3,308.32c-.37-2.69-4.98-4.95-7.4-5.28.69-1.8,1.1-3.96,1.36-5.44.37-2.11-.46-3.33-1.3-.87-.49,1.42-2.96,6.96-3.05,8.86-.39,2.14.34,5.09,1.88,6.72,2.69,2.84,5.1,4.42,6.16,2.87.99-1.46,2.72-4.12,2.35-6.85Z"/><path class="cls-6" d="M845.29,315.8v-.64c.06-.2-.09-.45-1.58-.87-.5-.14-1.05-.23-1.6-.24h-.2c-1.55-.03-1.76.13-1.75.33l-.2.56-.42,1.12-.88,2.23c-.6,1.48-1.25,2.93-1.89,4.36-1.31,2.86-2.66,5.63-4.05,8.22-1.4,2.56-2.84,5.01-4.39,6.79-.75.9-1.53,1.59-2.19,1.98-.67.41-1.14.51-1.56.5-.21,0-.44-.03-.71-.09l-1.78-.5c-1.41-.33-2.79-.81-4.18-1.25-2.73-1.01-5.47-2.02-8.12-3.3-2.65-1.26-5.25-2.64-7.79-4.14-1.28-.73-2.5-1.55-3.74-2.33l-1.8-1.21-1.61-1.12-.16-.11c-.4-.36-.84-.69-1.35-.94-20.88-10.44-46.98-2.84-48.08-2.52-1.74.52-3.06,1.74-3.8,3.25-.02.04-.05.07-.08.11-4.07,7.23-7.19,14.69-10.03,22.41-2.76,7.73-4.9,15.7-6.62,24.11-1.56,8.32-2.06,16.69-1.69,24.96.16,4.13.54,8.24,1.07,12.32.26,2.04.56,4.07.9,6.1l.53,3.04.29,1.52c.06.25.09.51.17.76.09.12.21.24.53.33.16.05.23.11.47.15l.71.11c.55.08,1.14.03,1.7-.18l.09-.04.67-.26c.22-.09.28-.15.42-.23.29-.15.39-.29.45-.42.04-.25,0-.49.02-.73l.02-1.48.1-2.96c.08-1.97.19-3.95.35-5.92.3-3.94.69-7.85,1.19-11.73.97-7.76,2.23-15.39,4.02-22.76.89-3.69,1.92-7.25,3.35-10.91,1.4-3.62,2.73-7.29,4.22-10.92.16-.41.32-.82.48-1.22l-.34,60.38-13.95,57c-.94,3.84,2.1,7.49,6.04,7.27,31.36,1.57,59.28-.24,84.53-4.7,4.09-.23,6.7-4.47,5.06-8.23l-22.84-52.19-8.67-57.17c1.78-1.39,2.97-3.83,2.97-6.62,0-1.59-.39-3.06-1.04-4.3,2.35,1.5,4.76,2.89,7.28,4.1,3.21,1.52,6.54,2.8,9.97,3.79,1.73.47,3.44.95,5.21,1.29l1.32.26.67.13.99.15c1.33.16,2.74.17,4.13-.02,2.81-.37,5.42-1.59,7.38-3.06,1.99-1.47,3.48-3.15,4.7-4.82,2.39-3.38,3.84-6.81,4.87-10.25,1.03-3.43,1.59-6.86,1.89-10.28.16-1.71.24-3.41.28-5.11l.04-2.55v-1.28Z"/><path class="cls-1" d="M760.24,418.58h-.09c-1.63-.02-3.03-.52-4.16-.93-.55-.2-1.22-.44-1.51-.45-.58-.02-1.33.19-2.13.42-1.07.3-2.27.64-3.61.57-2.52-.14-3.72-.74-4.74-1.35-.36-.21-.39-.24-.91-.28l.62-6.84c1.92.18,2.94.71,3.82,1.24.37.22.54.33,1.58.38.22,0,.9-.19,1.36-.32,1.15-.33,2.54-.74,4.23-.68,1.36.05,2.55.47,3.6.85.71.25,1.45.52,1.93.52h0c.32,0,1.04-.24,1.61-.43,1.07-.35,2.41-.8,3.93-.81,1.45,0,2.66.37,3.75.71.69.21,1.43.45,1.82.42.36-.01,1.06-.28,1.68-.52,1.03-.4,2.32-.89,3.78-.98,1.44-.09,2.69.22,3.81.5.66.16,1.39.35,1.79.31.38-.04,1.08-.36,1.7-.65,1.04-.48,2.21-1.02,3.62-1.21,1.42-.19,2.75.03,3.82.21.66.11,1.41.24,1.77.17.39-.07,1.05-.46,1.68-.83.95-.56,2.03-1.19,3.35-1.52,1.36-.34,2.68-.29,3.74-.25.64.02,1.43.05,1.73-.05l2.23,6.5c-1.5.52-2.99.46-4.2.42-.69-.02-1.41-.05-1.83.05-.36.09-.95.44-1.52.78-1.04.61-2.33,1.38-3.93,1.67-1.53.28-2.97.04-4.13-.15-.69-.11-1.39-.23-1.79-.18-.38.05-1.03.35-1.65.64-1.06.49-2.39,1.1-3.94,1.25-1.55.14-2.95-.2-4.09-.48-.67-.17-1.37-.34-1.73-.31-.41.03-1.08.29-1.74.54-1.07.41-2.4.93-3.92.98-1.6.04-2.96-.38-4.08-.72-.61-.19-1.29-.4-1.64-.4h0c-.44,0-1.16.24-1.84.47-1.1.36-2.34.77-3.76.77Z"/><path class="cls-6" d="M782.13,663.38l-.91,6.08c-.24,1.58-.21,3.18.07,4.75l.21,1.15h32.86c.73,0,1.24-.74.95-1.42-.71-1.67-2.27-4.3-5.23-5.09-4.31-1.15-15.89-4.72-15.89-4.72,0,0-5.46.67-12.05-.75Z"/><path class="cls-6" d="M673.87,635.49l-5.55,2.63c-1.44.68-2.76,1.6-3.9,2.71l-.84.81,18.34,27.26c.41.61,1.31.61,1.71,0,.99-1.52,2.3-4.29,1.31-7.18-1.45-4.21-4.96-15.82-4.96-15.82,0,0-3.61-4.16-6.11-10.42Z"/><path class="cls-2" d="M781.16,274.24s-.04-.02-.06-.03c-.99-.65-2.15-1.22-3.51-1.67-6.22-2.04-13.34.39-18.72,5.49-7.96-5.71-29.4-7.36-31.51,17.46-2.41,28.48-25.92.64-30.59,24.46-4.67,23.82,45.54,61.25,75.18,26.66,12.25-14.3,1.77-20.34,7.32-31.45,13.83-27.67,9.17-36.84,1.88-40.92Z"/><path class="cls-8" d="M788.66,297.3c.68,3.54-.8,6.79-3.29,7.27-2.49.48-5.06-2.01-5.73-5.55-.68-3.54.8-6.79,3.29-7.27,2.49-.48,5.06,2.01,5.73,5.55Z"/><path class="cls-1" d="M773.11,300.29l-.59-.19c1.77-5.47,1.55-10.09-.64-13.73-3.45-5.74-10.69-7.1-10.76-7.11l.11-.61c.31.06,7.6,1.43,11.19,7.41,2.28,3.81,2.52,8.6.7,14.24Z"/><path class="cls-8" d="M732.98,430.01c-.64-1.7-1.08-5.43-1.71-6.86-.04-1.35-.36-2.59-1.17-3.43-.88-.92-2.25-1.24-3.58,1.33-1.34,2.57-1.64,10.18-2.04,12.23-.7,3.52,2.63,3.38,5.68-4.44.07-.19.14-.4.21-.6.2.57.43,1.11.64,1.56.7,1.45,2.48,1.59,1.97.23Z"/><path class="cls-1" d="M36.9,491.64c3.5,3.5,8.24,5.46,13.18,5.46,3.72,0,7.32-1.11,10.36-3.14l-13.27,13.27c-3.5,3.5-5.46,8.24-5.46,13.18s1.96,9.69,5.46,13.18c3.5,3.5,8.24,5.46,13.18,5.46,3.72,0,7.32-1.11,10.36-3.14l-6.97,6.97c-3.5,3.5-5.46,8.24-5.46,13.18s1.96,9.69,5.46,13.18c3.5,3.5,8.24,5.46,13.18,5.46,3.71,0,7.32-1.11,10.36-3.14l-1.7,1.7c-3.5,3.5-5.46,8.24-5.46,13.18s1.96,9.69,5.46,13.18c3.5,3.5,8.24,5.46,13.18,5.46s9.69-1.96,13.18-5.46l17.67-17.67c-2.03,3.04-3.14,6.64-3.14,10.36,0,4.95,1.96,9.69,5.46,13.18,3.5,3.5,8.24,5.46,13.18,5.46s9.69-1.96,13.18-5.46l26.85-26.85c-2.03,3.04-3.14,6.64-3.14,10.36,0,4.95,1.96,9.69,5.46,13.18,3.5,3.5,8.24,5.46,13.18,5.46s9.69-1.96,13.18-5.46l41.8-41.8c3.5-3.5,5.46-8.24,5.46-13.18s-1.96-9.69-5.46-13.18c-3.5-3.5-8.24-5.46-13.18-5.46-3.72,0-7.32,1.11-10.36,3.14l8.75-8.75c3.5-3.5,5.46-8.24,5.46-13.18s-1.96-9.69-5.46-13.18c-3.5-3.5-8.24-5.46-13.18-5.46-3.72,0-7.32,1.11-10.36,3.14l17.67-17.67c3.5-3.5,5.46-8.24,5.46-13.18s-1.96-9.69-5.46-13.18c-3.5-3.5-8.24-5.46-13.18-5.46-3.71,0-7.32,1.11-10.36,3.14l11.25-11.25c3.5-3.5,5.46-8.24,5.46-13.18s-1.96-9.69-5.46-13.18c-3.5-3.5-8.24-5.46-13.18-5.46s-9.69,1.96-13.18,5.46l-25.06,25.06c2.03-3.04,3.14-6.64,3.14-10.36,0-4.95-1.96-9.69-5.46-13.18-3.5-3.5-8.24-5.46-13.18-5.46s-9.69,1.96-13.18,5.46l-35.18,35.18c2.03-3.04,3.14-6.64,3.14-10.36,0-4.95-1.96-9.69-5.46-13.18-3.5-3.5-8.24-5.46-13.18-5.46s-9.69,1.96-13.18,5.46l-41.8,41.8c-3.5,3.5-5.46,8.24-5.46,13.18s1.96,9.69,5.46,13.18Z"/><path class="cls-1" d="M238.29,554l-1.29,1.29c-.5.5-.5,1.32,0,1.83.5.5,1.32.5,1.83,0l1.29-1.29,1.29,1.29c.5.5,1.32.5,1.83,0,.5-.5.5-1.32,0-1.83l-1.29-1.29,1.29-1.29c.5-.5.5-1.32,0-1.83-.25-.25-.58-.38-.91-.38s-.66.13-.91.38l-1.29,1.29-1.29-1.29c-.25-.25-.58-.38-.91-.38s-.66.13-.91.38c-.5.5-.5,1.32,0,1.83l1.29,1.29Z"/><path class="cls-1" d="M76.21,598.91l-1.29,1.29c-.5.5-.5,1.32,0,1.83.5.5,1.32.5,1.83,0l1.29-1.29,1.29,1.29c.5.5,1.32.5,1.83,0,.5-.5.5-1.32,0-1.83l-1.29-1.29,1.29-1.29c.5-.5.5-1.32,0-1.83-.25-.25-.58-.38-.91-.38s-.66.13-.91.38l-1.29,1.29-1.29-1.29c-.25-.25-.58-.38-.91-.38s-.66.13-.91.38c-.5.5-.5,1.32,0,1.83l1.29,1.29Z"/><path class="cls-1" d="M43.2,484.55l-1.29,1.29c-.5.5-.5,1.32,0,1.83.5.5,1.32.5,1.83,0l1.29-1.29,1.29,1.29c.5.5,1.32.5,1.83,0,.5-.5.5-1.32,0-1.83l-1.29-1.29,1.29-1.29c.5-.5.5-1.32,0-1.83-.25-.25-.58-.38-.91-.38s-.66.13-.91.38l-1.29,1.29-1.29-1.29c-.25-.25-.58-.38-.91-.38s-.66.13-.91.38c-.5.5-.5,1.32,0,1.83l1.29,1.29Z"/><path class="cls-1" d="M198.48,418.24l-1.29,1.29c-.5.5-.5,1.32,0,1.83.5.5,1.32.5,1.83,0l1.29-1.29,1.29,1.29c.5.5,1.32.5,1.83,0,.5-.5.5-1.32,0-1.83l-1.29-1.29,1.29-1.29c.5-.5.5-1.32,0-1.83-.25-.25-.58-.38-.91-.38s-.66.13-.91.38l-1.29,1.29-1.29-1.29c-.25-.25-.58-.38-.91-.38s-.66.13-.91.38c-.5.5-.5,1.32,0,1.83l1.29,1.29Z"/><path class="cls-1" d="M174.86,600.71c2.08,0,3.77,1.69,3.77,3.77s-1.69,3.77-3.77,3.77-3.77-1.69-3.77-3.77,1.69-3.77,3.77-3.77ZM174.86,605.67c.66,0,1.19-.53,1.19-1.19s-.53-1.19-1.19-1.19-1.19.53-1.19,1.19.53,1.19,1.19,1.19Z"/><path class="cls-1" d="M245.95,480.51c2.08,0,3.77,1.69,3.77,3.77s-1.69,3.77-3.77,3.77-3.77-1.69-3.77-3.77,1.69-3.77,3.77-3.77ZM245.95,485.47c.66,0,1.19-.53,1.19-1.19s-.53-1.19-1.19-1.19-1.19.53-1.19,1.19.53,1.19,1.19,1.19Z"/><path class="cls-1" d="M88.05,419.97c2.08,0,3.77,1.69,3.77,3.77s-1.69,3.77-3.77,3.77-3.77-1.69-3.77-3.77,1.69-3.77,3.77-3.77ZM88.05,424.94c.66,0,1.19-.53,1.19-1.19s-.53-1.19-1.19-1.19-1.19.53-1.19,1.19.53,1.19,1.19,1.19Z"/><path class="cls-15" d="M36.9,491.64c3.5,3.5,8.24,5.46,13.18,5.46,3.72,0,7.32-1.11,10.36-3.14l-13.27,13.27c-3.5,3.5-5.46,8.24-5.46,13.18s1.96,9.69,5.46,13.18c3.5,3.5,8.24,5.46,13.18,5.46,3.72,0,7.32-1.11,10.36-3.14l-6.97,6.97c-3.5,3.5-5.46,8.24-5.46,13.18s1.96,9.69,5.46,13.18c3.5,3.5,8.24,5.46,13.18,5.46,3.71,0,7.32-1.11,10.36-3.14l-1.7,1.7c-3.5,3.5-5.46,8.24-5.46,13.18s1.96,9.69,5.46,13.18c3.5,3.5,8.24,5.46,13.18,5.46s9.69-1.96,13.18-5.46l17.67-17.67c-2.03,3.04-3.14,6.64-3.14,10.36,0,4.95,1.96,9.69,5.46,13.18,3.5,3.5,8.24,5.46,13.18,5.46s9.69-1.96,13.18-5.46l26.85-26.85c-2.03,3.04-3.14,6.64-3.14,10.36,0,4.95,1.96,9.69,5.46,13.18,3.5,3.5,8.24,5.46,13.18,5.46s9.69-1.96,13.18-5.46l41.8-41.8c3.5-3.5,5.46-8.24,5.46-13.18s-1.96-9.69-5.46-13.18c-3.5-3.5-8.24-5.46-13.18-5.46-3.72,0-7.32,1.11-10.36,3.14l8.75-8.75c3.5-3.5,5.46-8.24,5.46-13.18s-1.96-9.69-5.46-13.18c-3.5-3.5-8.24-5.46-13.18-5.46-3.72,0-7.32,1.11-10.36,3.14l17.67-17.67c3.5-3.5,5.46-8.24,5.46-13.18s-1.96-9.69-5.46-13.18c-3.5-3.5-8.24-5.46-13.18-5.46-3.71,0-7.32,1.11-10.36,3.14l11.25-11.25c3.5-3.5,5.46-8.24,5.46-13.18s-1.96-9.69-5.46-13.18c-3.5-3.5-8.24-5.46-13.18-5.46s-9.69,1.96-13.18,5.46l-25.06,25.06c2.03-3.04,3.14-6.64,3.14-10.36,0-4.95-1.96-9.69-5.46-13.18-3.5-3.5-8.24-5.46-13.18-5.46s-9.69,1.96-13.18,5.46l-35.18,35.18c2.03-3.04,3.14-6.64,3.14-10.36,0-4.95-1.96-9.69-5.46-13.18-3.5-3.5-8.24-5.46-13.18-5.46s-9.69,1.96-13.18,5.46l-41.8,41.8c-3.5,3.5-5.46,8.24-5.46,13.18s1.96,9.69,5.46,13.18Z"/><path class="cls-13" d="M238.29,554l-1.29,1.29c-.5.5-.5,1.32,0,1.83.5.5,1.32.5,1.83,0l1.29-1.29,1.29,1.29c.5.5,1.32.5,1.83,0,.5-.5.5-1.32,0-1.83l-1.29-1.29,1.29-1.29c.5-.5.5-1.32,0-1.83-.25-.25-.58-.38-.91-.38s-.66.13-.91.38l-1.29,1.29-1.29-1.29c-.25-.25-.58-.38-.91-.38s-.66.13-.91.38c-.5.5-.5,1.32,0,1.83l1.29,1.29Z"/><path class="cls-13" d="M76.21,598.91l-1.29,1.29c-.5.5-.5,1.32,0,1.83.5.5,1.32.5,1.83,0l1.29-1.29,1.29,1.29c.5.5,1.32.5,1.83,0,.5-.5.5-1.32,0-1.83l-1.29-1.29,1.29-1.29c.5-.5.5-1.32,0-1.83-.25-.25-.58-.38-.91-.38s-.66.13-.91.38l-1.29,1.29-1.29-1.29c-.25-.25-.58-.38-.91-.38s-.66.13-.91.38c-.5.5-.5,1.32,0,1.83l1.29,1.29Z"/><path class="cls-13" d="M43.2,484.55l-1.29,1.29c-.5.5-.5,1.32,0,1.83.5.5,1.32.5,1.83,0l1.29-1.29,1.29,1.29c.5.5,1.32.5,1.83,0,.5-.5.5-1.32,0-1.83l-1.29-1.29,1.29-1.29c.5-.5.5-1.32,0-1.83-.25-.25-.58-.38-.91-.38s-.66.13-.91.38l-1.29,1.29-1.29-1.29c-.25-.25-.58-.38-.91-.38s-.66.13-.91.38c-.5.5-.5,1.32,0,1.83l1.29,1.29Z"/><path class="cls-13" d="M198.48,418.24l-1.29,1.29c-.5.5-.5,1.32,0,1.83.5.5,1.32.5,1.83,0l1.29-1.29,1.29,1.29c.5.5,1.32.5,1.83,0,.5-.5.5-1.32,0-1.83l-1.29-1.29,1.29-1.29c.5-.5.5-1.32,0-1.83-.25-.25-.58-.38-.91-.38s-.66.13-.91.38l-1.29,1.29-1.29-1.29c-.25-.25-.58-.38-.91-.38s-.66.13-.91.38c-.5.5-.5,1.32,0,1.83l1.29,1.29Z"/><path class="cls-13" d="M174.86,600.71c2.08,0,3.77,1.69,3.77,3.77s-1.69,3.77-3.77,3.77-3.77-1.69-3.77-3.77,1.69-3.77,3.77-3.77ZM174.86,605.67c.66,0,1.19-.53,1.19-1.19s-.53-1.19-1.19-1.19-1.19.53-1.19,1.19.53,1.19,1.19,1.19Z"/><path class="cls-13" d="M245.95,480.51c2.08,0,3.77,1.69,3.77,3.77s-1.69,3.77-3.77,3.77-3.77-1.69-3.77-3.77,1.69-3.77,3.77-3.77ZM245.95,485.47c.66,0,1.19-.53,1.19-1.19s-.53-1.19-1.19-1.19-1.19.53-1.19,1.19.53,1.19,1.19,1.19Z"/><path class="cls-13" d="M88.05,419.97c2.08,0,3.77,1.69,3.77,3.77s-1.69,3.77-3.77,3.77-3.77-1.69-3.77-3.77,1.69-3.77,3.77-3.77ZM88.05,424.94c.66,0,1.19-.53,1.19-1.19s-.53-1.19-1.19-1.19-1.19.53-1.19,1.19.53,1.19,1.19,1.19Z"/><path class="cls-14" d="M131.02,507.48l-2.19-1.74s0,0,0,0l-.81-.65c-.71-.57-1.5-1.03-2.34-1.39-1.26-.53-2.57-.8-3.91-.8-5.54,0-10.05,4.51-10.06,10.05v1.03s0,0,0,0v.29s-1.27-.03-1.27-.03h-.05c-.41-.01-.83-.03-1.26-.05-1.45-.07-2.97-.19-4.52-.37-.8-.09-1.61-.2-2.42-.31-.09-.01-.19-.03-.28-.04-.12-.02-.24-.04-.35-.05-.07-.01-.13-.02-.2-.03-.17-.03-.34-.05-.51-.08l-.98-.16-1.06-.18.71-1h0s.49-.69.49-.69c.13-.18.25-.36.36-.54,3.09-4.89,2.46-11.31-1.6-15.51l-.86-.88.69-.73.15-.16c.24-.26.5-.52.75-.76.61-.59,1.25-1.13,1.92-1.63.35-.26.7-.51,1.06-.74.06-.04.13-.08.19-.12l.9-.57.03.03.7.75c1.92,2.06,4.53,3.2,7.35,3.2s5.44-1.14,7.36-3.2l.73-.78h0l.9.57c.07.04.13.08.2.12.36.23.72.48,1.06.74,1.74,1.29,3.28,2.9,4.6,4.8,1.54,2.21,2.69,4.7,3.43,7.4.05.17.09.33.13.5l.5,1.97h0s.44,1.75.44,1.75Z"/><path class="cls-13" d="M121.77,483.56c0,1.85-.48,3.54-1.31,4.99-.22.38-.45.74-.71,1.08h0l-.73.78c-1.92,2.06-4.54,3.2-7.36,3.2s-5.43-1.13-7.35-3.2l-.7-.75c-.27-.35-.51-.73-.73-1.11-.84-1.47-1.32-3.17-1.32-4.99,0-5.58,4.53-10.11,10.11-10.11s10.11,4.52,10.11,10.11Z"/><path class="cls-14" d="M193.79,495.24c-4.07,4.2-4.7,10.62-1.6,15.51.12.18.24.36.36.54l.48.68h0s.71,1.01.71,1.01l-1.05.17-.99.16c-.17.03-.34.06-.51.08-.28.04-.56.09-.84.13h0c-.13.02-.26.04-.39.06-.03,0-.07,0-.1.01-.06,0-.12.02-.19.03-.37.05-.74.1-1.11.14-.06,0-.12.01-.17.02,0,0-.02,0-.03,0-.14.02-.28.03-.42.05-1.54.18-3.06.3-4.51.37-.43.02-.84.03-1.26.04h-.05s-1.27.03-1.27.03v-.27s0,0,0,0c.03-.34.05-.68.05-1.03,0-5.58-4.53-10.11-10.11-10.11-2.75,0-5.24,1.1-7.06,2.87,0,0,0,0,0,0l-2.19,1.74.44-1.75.5-1.97c.04-.17.09-.34.13-.5h0c.74-2.7,1.89-5.19,3.43-7.4,1.32-1.9,2.87-3.51,4.61-4.8.35-.26.7-.5,1.06-.74.06-.04.13-.08.19-.12l.9-.57.03.03c1.05,1.39,2.46,2.49,4.08,3.19,1.32.56,2.66.83,3.98.83,3.2,0,6.19-1.55,8.08-4.04h0s0,0,0,0l.9.57c.07.04.13.08.2.12.36.23.72.48,1.06.74.67.5,1.31,1.04,1.92,1.63.26.25.51.5.75.76l.16.17.68.73-.86.88Z"/><path class="cls-1" d="M180.89,472.16c-6.29,0-11.4,5.11-11.4,11.4,0,2.04.54,3.99,1.51,5.68.21.37.45.74.71,1.08.26.35.53.68.83,1,1.06,1.14,2.37,2.07,3.86,2.72,1.44.62,2.95.93,4.49.93h0c2.93,0,5.83-1.18,7.95-3.25.13-.13.27-.27.39-.4.3-.32.58-.65.84-1,.26-.35.5-.71.71-1.08.98-1.7,1.51-3.65,1.51-5.68,0-6.29-5.11-11.4-11.4-11.4ZM189.69,488.55c-.22.38-.46.74-.72,1.08h0c-1.89,2.49-4.88,4.04-8.08,4.04-1.31,0-2.66-.26-3.98-.83-1.62-.69-3.02-1.8-4.08-3.19-.27-.35-.51-.73-.73-1.11-.84-1.47-1.32-3.17-1.32-4.99,0-5.58,4.52-10.11,10.11-10.11s10.11,4.53,10.11,10.11c0,1.85-.48,3.54-1.31,4.99Z"/><path class="cls-13" d="M191,483.56c0,1.85-.48,3.54-1.31,4.99-.22.38-.46.74-.72,1.08h0c-1.89,2.49-4.88,4.04-8.08,4.04-1.31,0-2.66-.26-3.98-.83-1.62-.69-3.02-1.8-4.08-3.19-.27-.35-.51-.73-.73-1.11-.84-1.47-1.32-3.17-1.32-4.99,0-5.58,4.52-10.11,10.11-10.11s10.11,4.53,10.11,10.11Z"/><path class="cls-5" d="M163.55,520.09l-1.03.66h0l-.05.03-.09.06c-.34.21-.67.44-.99.68-5.25,3.88-8.48,10.72-8.48,18.17v.06s0,0,0,0l.13,1.26-.41.03h0l-.91.07c-.33.03-.66.05-.99.07-1.54.1-3.01.15-4.46.15h0c-1.45,0-2.92-.05-4.46-.15-.33-.02-.65-.04-.99-.07l-.92-.07-.4-.03.13-1.26v-.06s0,0,0,0c0-7.45-3.22-14.3-8.48-18.18-.32-.24-.65-.46-.98-.68l-.09-.06-.05-.03-1.03-.66.2-.27.3-.4.33-.45c.25-.33.48-.68.68-1.04l.05.03c.46-.81.8-1.67,1.02-2.55l.2-.18c.44-.41.89-.81,1.35-1.18.41-.33.83-.65,1.26-.95.03-.02.06-.04.09-.06.32-.22.63-.43.96-.63l.04-.02.87-.54.73.78c2.41,2.59,5.69,4.01,9.23,4.01,3.53,0,6.81-1.43,9.22-4.01l.73-.78.87.54.04.02c.32.2.65.42.96.64.03.02.06.04.08.06.43.3.85.62,1.26.96.46.37.91.77,1.34,1.18l.2.19c.22.89.56,1.75,1.01,2.55.21.37.45.74.71,1.08.21.28.44.55.68.81,0,0,0,0,0,0l.17.23Z"/><path class="cls-1" d="M146.28,490.33c-7.54,0-13.67,6.13-13.67,13.67,0,.98.1,1.94.3,2.86,0,0,0,0,0,0,.27,1.26.71,2.45,1.3,3.56h0c.16.3.33.59.51.87.23.37.48.72.74,1.06,2.5,3.23,6.42,5.32,10.82,5.32s8.31-2.08,10.82-5.32c.26-.34.51-.69.74-1.06.18-.28.35-.57.5-.86.6-1.11,1.04-2.32,1.31-3.58.2-.92.3-1.87.3-2.85,0-7.54-6.13-13.67-13.67-13.67ZM156.75,510.62c-2.19,3.47-6.06,5.77-10.47,5.77s-8.27-2.3-10.47-5.77c-1.21-1.91-1.91-4.18-1.91-6.61,0-6.84,5.54-12.38,12.38-12.38s12.38,5.54,12.38,12.38c0,2.43-.7,4.7-1.91,6.61Z"/><path class="cls-13" d="M158.66,504.01c0,2.43-.7,4.7-1.91,6.61-2.19,3.47-6.06,5.77-10.47,5.77s-8.27-2.3-10.47-5.77c-1.21-1.91-1.91-4.18-1.91-6.61,0-6.84,5.54-12.38,12.38-12.38s12.38,5.54,12.38,12.38Z"/><path class="cls-1" d="M226.11,536.74c0,.98-.91,1.3-1.35,1.45-.36.13-.87.28-1.47.44-1.41.38-3.2.79-5.05,1.14-3.71.7-9.42,1.54-15.52,1.54-.75,0-1.5-.01-2.22-.04-4.27-.15-8.16-.7-9.3-.88-.19-.03-.3-.05-.33-.05l-.96-.15-1.23-.19v-.28s-.03-.8-.03-.8c-.16-5.59-2.21-10.98-5.61-14.81l-.58-.65.02-.03.38-.75c.08-.16.16-.31.24-.46.21-.4.42-.79.65-1.17,1.32-2.27,2.93-4.28,4.76-5.98.6-.55,1.21-1.07,1.85-1.55.2-.15.4-.3.6-.44.34-.24.69-.47,1.04-.69l.04-.03.86-.54.14.15.59.63c.49.53,1.02,1.01,1.58,1.44,2.18,1.67,4.83,2.58,7.65,2.58,3.54,0,6.81-1.43,9.23-4.02l.73-.78.86.54.05.03c.35.22.7.45,1.04.69,2.89,2.04,5.32,4.74,7.23,8.02.02.04.05.08.07.12l.03.03.09.15c1.17,2.06,2.09,4.29,2.75,6.63.03.11.34,1.17.6,2.55h0s.06.29.06.29c.04.2.06.35.06.35.07.38.11.69.11.7.04.24.07.47.07.47.19,1.42.29,2.89.29,4.34Z"/><path class="cls-1" d="M202.85,490.33c-2.93,0-5.64.92-7.86,2.49-.35.25-.7.52-1.02.8-2.93,2.51-4.79,6.23-4.79,10.38,0,2.68.77,5.18,2.11,7.3.23.37.48.72.74,1.06h0c.21.27.43.53.65.78.36.4.74.77,1.14,1.12,2.41,2.12,5.57,3.41,9.03,3.41,4.4,0,8.31-2.08,10.82-5.32.26-.34.51-.69.74-1.06,1.34-2.11,2.11-4.62,2.11-7.3,0-7.54-6.13-13.67-13.67-13.67ZM213.32,510.62c-2.19,3.47-6.06,5.77-10.47,5.77-2.74,0-5.27-.89-7.32-2.4-1.25-.92-2.32-2.06-3.14-3.37-1.21-1.91-1.91-4.18-1.91-6.61,0-4.25,2.14-8,5.4-10.23,1.99-1.36,4.39-2.15,6.98-2.15,6.84,0,12.38,5.54,12.38,12.38,0,2.43-.7,4.7-1.91,6.61Z"/><path class="cls-10" d="M215.23,504.01c0,2.43-.7,4.7-1.91,6.61-2.19,3.47-6.06,5.77-10.47,5.77-2.74,0-5.27-.89-7.32-2.4-1.25-.92-2.32-2.06-3.14-3.37-1.21-1.91-1.91-4.18-1.91-6.61,0-4.25,2.14-8,5.4-10.23,1.99-1.36,4.39-2.15,6.98-2.15,6.84,0,12.38,5.54,12.38,12.38Z"/><path class="cls-1" d="M110.1,523.47l-.58.66c-3.4,3.83-5.45,9.22-5.61,14.81l-.02.8v.28s-1.07.17-1.07.17c-.06,0-.11.02-.17.03-.44.07-.87.13-1.29.2-4.37.64-8.02.93-11.65.93-5.96,0-11.63-.84-15.34-1.54-1.86-.35-3.66-.76-5.07-1.14-.61-.16-1.12-.32-1.49-.45-.44-.16-1.36-.48-1.36-1.46,0-4.85,1.09-9.65,3.16-13.87,1.98-4.04,4.8-7.4,8.19-9.79.34-.24.69-.47,1.05-.69l.04-.03.83-.52.74.74.02.02c2.42,2.59,5.69,4.01,9.22,4.01,2.82,0,5.47-.9,7.65-2.58h0c.56-.43,1.09-.91,1.58-1.44l.59-.63h0s.14-.15.14-.15l.87.54.04.02c.35.22.7.45,1.04.69.2.14.4.29.6.44.15.12.31.23.46.35.06.05.13.1.19.15.04.03.07.06.11.09.04.04.09.07.13.11.03.02.05.04.08.06.03.03.06.05.09.08.03.02.06.05.09.07.09.08.18.15.26.23.08.07.15.13.23.2.07.06.13.12.2.18,0,0,.02.02.03.03,1.83,1.7,3.43,3.71,4.76,5.98.22.38.44.77.65,1.17.08.15.16.31.24.46l.38.75.02.03Z"/><path class="cls-1" d="M99.63,494.61c-.33-.35-.68-.68-1.04-.99-.33-.28-.67-.55-1.02-.8-.76-.54-1.57-.99-2.43-1.37-1.72-.75-3.55-1.12-5.44-1.12-7.54,0-13.67,6.13-13.67,13.67,0,2.68.78,5.18,2.11,7.3.23.37.48.72.74,1.06,2.5,3.23,6.42,5.32,10.82,5.32,3.36,0,6.54-1.2,9.03-3.41.2-.17.39-.35.58-.54.19-.19.38-.38.56-.58.23-.25.45-.51.65-.78.27-.34.51-.7.74-1.06,1.33-2.1,2.07-4.54,2.11-7.08.06-3.59-1.27-7.01-3.74-9.62ZM77.32,504.01c0-6.84,5.54-12.38,12.38-12.38,2.54,0,4.95.77,6.98,2.15.73.5,1.4,1.07,2.02,1.72,3.96,4.18,4.45,10.43,1.48,15.12-.49.78-1.08,1.52-1.77,2.19-.43.43-.89.82-1.38,1.18-2.05,1.51-4.58,2.4-7.32,2.4-4.41,0-8.27-2.3-10.47-5.77-1.21-1.91-1.91-4.18-1.91-6.61Z"/><path class="cls-10" d="M100.17,510.62c-.49.78-1.08,1.52-1.77,2.19-.43.43-.89.82-1.38,1.18-2.05,1.51-4.58,2.4-7.32,2.4-4.41,0-8.27-2.3-10.47-5.77-1.21-1.91-1.91-4.18-1.91-6.61,0-6.84,5.54-12.38,12.38-12.38,2.54,0,4.95.77,6.98,2.15.73.5,1.4,1.07,2.02,1.72,3.96,4.18,4.45,10.43,1.48,15.12Z"/><path class="cls-1" d="M132.01,520.47c-.35-.26-.7-.5-1.06-.73-.02-.01-.03-.02-.05-.03-.05-.03-.1-.06-.15-.09l-.9-.57h0s-.35.38-.35.38l-.38.4c-.38.4-.78.77-1.21,1.1-1.75,1.36-3.88,2.1-6.15,2.1h0c-2.82,0-5.43-1.14-7.35-3.2l-.7-.75-.03-.03-.9.57c-.06.04-.13.08-.19.12-.36.23-.72.48-1.07.74-.37.27-.72.56-1.07.86-.34.29-.67.59-.98.9-.32.32-.64.65-.94.99-1.31,1.47-2.45,3.17-3.36,5.03-1.6,3.25-2.49,6.92-2.6,10.65,0,.26-.01.52-.01.78,0,.2.04.37.1.51.24.58.87.8,1.17.9.13.05.29.1.46.15.23.07.48.14.77.22,1.16.31,2.63.64,4.16.93,3.04.58,7.69,1.26,12.57,1.26s9.53-.69,12.57-1.26c1.38-.26,2.72-.56,3.82-.84.12-.03.23-.06.34-.09.5-.13.93-.26,1.23-.37.05-.02.12-.04.19-.07.4-.16,1.01-.48,1.08-1.22,0-.04,0-.09,0-.13,0-7.86-3.4-15.08-8.97-19.22ZM138.29,540.19c-2.86.79-9.69,2.19-16.52,2.19s-13.79-1.43-16.6-2.21c-.7-.19-1.15-.35-1.28-.43l.02-.8c.16-5.58,2.21-10.98,5.61-14.81l.58-.66-.02-.03c.31-.32.64-.63.98-.93.41-.37.84-.71,1.28-1.04.17.18.34.36.51.54,1.2,1.19,2.61,2.11,4.17,2.74,1.51.61,3.11.92,4.75.92,2.46,0,4.85-.71,6.91-2.05.55-.36,1.07-.75,1.55-1.18.33-.29.64-.6.93-.92,5.26,3.88,8.48,10.73,8.48,18.18h0s0,.05,0,.05c-.16.09-.63.25-1.34.44Z"/><path class="cls-13" d="M139.64,539.69h0s0,.05,0,.05c-.16.09-.63.25-1.34.44-2.86.79-9.69,2.19-16.52,2.19s-13.79-1.43-16.6-2.21c-.7-.19-1.15-.35-1.28-.43l.02-.8c.16-5.58,2.21-10.98,5.61-14.81l.58-.66-.02-.03c.31-.32.64-.63.98-.93.41-.37.84-.71,1.28-1.04.17.18.34.36.51.54,1.2,1.19,2.61,2.11,4.17,2.74,1.51.61,3.11.92,4.75.92,2.46,0,4.85-.71,6.91-2.05.55-.36,1.07-.75,1.55-1.18.33-.29.64-.6.93-.92,5.26,3.88,8.48,10.73,8.48,18.18Z"/><path class="cls-1" d="M133.16,512.37c-.02-.5-.08-.99-.17-1.47h0c-.01-.08-.03-.16-.04-.23h0c-.24-1.16-.66-2.29-1.26-3.34-.19-.32-.39-.64-.61-.95-.16-.22-.32-.44-.5-.65h0c-.53-.65-1.13-1.22-1.77-1.73-1.99-1.56-4.46-2.43-7.04-2.43-3.18,0-6.12,1.27-8.3,3.59-2.01,2.14-3.1,4.88-3.1,7.8,0,.24,0,.48.02.71.01.19.03.39.05.58.05.44.12.87.22,1.3.25,1.09.66,2.13,1.22,3.1.21.37.45.73.71,1.08.26.35.53.68.83,1,.11.12.23.24.34.35,2.15,2.12,4.99,3.28,8.01,3.28,2.21,0,4.36-.64,6.21-1.84.4-.26.78-.54,1.13-.84.34-.29.67-.59.97-.92.01-.01.02-.03.04-.04.29-.31.55-.63.8-.96.01-.01.02-.03.03-.04.26-.35.49-.71.71-1.08.46-.8.82-1.66,1.07-2.56.09-.32.17-.65.23-.98.07-.36.12-.71.15-1.07.05-.56.07-1.12.04-1.67ZM111.71,513.99s0,0,0,0v-1.03c0-5.54,4.52-10.05,10.06-10.05,1.33,0,2.65.27,3.91.8.84.35,1.63.82,2.34,1.39l.81.65s0,0,0,0c.43.43.83.89,1.19,1.39.48.67.86,1.39,1.15,2.13.53,1.34.76,2.75.69,4.14-.03.68-.13,1.35-.29,2.01-.22.89-.56,1.75-1.02,2.55l-.05-.03c-.2.36-.43.71-.68,1.04l-.33.45-.38.4c-.38.4-.78.77-1.21,1.1-1.75,1.36-3.88,2.1-6.15,2.1h0c-2.82,0-5.43-1.14-7.35-3.2l-.7-.75c-.27-.35-.52-.73-.74-1.12-.42-.74-.75-1.54-.98-2.38-.14-.52-.24-1.05-.29-1.59Z"/><path class="cls-1" d="M131.86,513.4c-.03.68-.13,1.35-.29,2.01-.22.89-.56,1.75-1.02,2.55l-.05-.03c-.2.36-.43.71-.68,1.04l-.33.45-.38.4c-.38.4-.78.77-1.21,1.1-1.75,1.36-3.88,2.1-6.15,2.1h0c-2.82,0-5.43-1.14-7.35-3.2l-.7-.75c-.27-.35-.52-.73-.74-1.12-.42-.74-.75-1.54-.98-2.38-.14-.52-.24-1.05-.29-1.59,0,0,0,0,0,0v-1.03c0-5.54,4.52-10.05,10.06-10.05,1.33,0,2.65.27,3.91.8.84.35,1.63.82,2.34,1.39l.81.65s0,0,0,0c.43.43.83.89,1.19,1.39.48.67.86,1.39,1.15,2.13.53,1.34.76,2.75.69,4.14Z"/><path class="cls-1" d="M190,538.91c-.11-3.74-1-7.4-2.6-10.66-.92-1.86-2.05-3.55-3.36-5.03-.3-.34-.62-.67-.94-.99-.32-.31-.65-.62-.99-.91-.35-.3-.7-.58-1.07-.85-.35-.26-.7-.5-1.06-.74-.07-.04-.13-.08-.2-.12l-.9-.57c-1.89,2.5-4.89,4.04-8.09,4.04-1.31,0-2.66-.26-3.97-.83-.82-.35-1.56-.79-2.22-1.3-.44-.34-.84-.71-1.21-1.1,0,0,0,0,0,0-.24-.26-.47-.53-.68-.81l-.9.57s-.1.06-.15.09c-.02,0-.03.02-.05.03-.36.23-.72.48-1.06.74-5.57,4.14-8.97,11.36-8.97,19.22,0,.05,0,.09,0,.13.06.73.66,1.05,1.07,1.21h0c.07.03.14.05.2.07.3.11.73.23,1.23.37.11.03.22.06.34.09,1.1.28,2.44.58,3.82.84,3.04.58,7.68,1.26,12.57,1.26s9.53-.69,12.57-1.26c1.52-.29,3-.62,4.16-.93.45-.12.84-.24,1.13-.34.03-.01.06-.02.09-.03.3-.11.93-.33,1.17-.9.06-.15.1-.32.1-.51,0-.26,0-.52-.01-.78ZM187.39,540.17c-2.81.78-9.71,2.21-16.6,2.21s-13.66-1.4-16.52-2.19h0c-.72-.2-1.19-.36-1.34-.44h0s0-.06,0-.06c0-7.44,3.22-14.29,8.48-18.17.29.33.6.63.93.92,1.02.91,2.18,1.65,3.47,2.2,1.6.69,3.28,1.03,4.99,1.03s3.27-.32,4.81-.96c1.51-.62,2.87-1.51,4.04-2.64.2-.2.4-.4.58-.6.44.33.87.67,1.28,1.04.34.3.67.61.98.94l-.02.03.58.65c3.4,3.82,5.44,9.22,5.61,14.81l.02.8c-.13.08-.58.24-1.28.43Z"/><path class="cls-13" d="M188.67,539.73c-.13.08-.58.24-1.28.43-2.81.78-9.71,2.21-16.6,2.21s-13.66-1.4-16.52-2.19h0c-.72-.2-1.19-.36-1.34-.44h0s0-.06,0-.06c0-7.44,3.22-14.29,8.48-18.17.29.33.6.63.93.92,1.02.91,2.18,1.65,3.47,2.2,1.6.69,3.28,1.03,4.99,1.03s3.27-.32,4.81-.96c1.51-.62,2.87-1.51,4.04-2.64.2-.2.4-.4.58-.6.44.33.87.67,1.28,1.04.34.3.67.61.98.94l-.02.03.58.65c3.4,3.82,5.44,9.22,5.61,14.81l.02.8Z"/><path class="cls-1" d="M170.79,501.57c-2.56,0-5.04.87-7.04,2.43-.5.4-.98.84-1.42,1.32-.12.14-.24.27-.36.41-.41.5-.78,1.03-1.1,1.59-.51.89-.89,1.84-1.15,2.84-.04.17-.08.33-.11.5-.01.07-.03.15-.04.22h0s0,0,0,0c-.09.49-.15.99-.17,1.49-.03.55-.01,1.11.04,1.67.04.46.11.91.21,1.36.05.24.11.47.18.7.25.89.61,1.75,1.07,2.55.21.38.45.74.7,1.09.01.01.02.03.03.04.09.12.18.23.27.35.17.21.35.42.53.61.01.01.02.03.04.04.31.33.63.63.97.92.85.72,1.81,1.3,2.86,1.75,1.44.62,2.95.93,4.48.93h0c2.93,0,5.82-1.18,7.95-3.24.14-.13.27-.27.4-.41.3-.32.58-.65.84-1,.12-.16.23-.32.34-.48.02-.03.04-.06.06-.09.02-.03.04-.06.06-.09.03-.04.05-.09.08-.13.06-.09.11-.19.17-.28.56-.97.97-2.01,1.22-3.1.1-.43.17-.86.22-1.3.05-.42.07-.85.07-1.28v-.02c0-6.28-5.12-11.38-11.4-11.38ZM179.58,517.96c-.21.38-.45.74-.71,1.08-1.89,2.5-4.89,4.04-8.09,4.04-1.31,0-2.66-.26-3.97-.83-.82-.35-1.56-.79-2.22-1.3-.44-.34-.84-.71-1.21-1.1,0,0,0,0,0,0-.24-.26-.47-.53-.68-.81-.26-.35-.5-.71-.71-1.08-.45-.8-.79-1.66-1.01-2.55-.16-.66-.26-1.33-.29-2.01h0c-.06-1.39.16-2.8.69-4.14.43-1.09,1.07-2.14,1.92-3.08.14-.15.28-.3.43-.45,0,0,0,0,0,0,1.82-1.78,4.31-2.87,7.06-2.87,5.58,0,10.11,4.52,10.11,10.11,0,.35-.02.69-.05,1.03h0c-.05.54-.15,1.07-.28,1.58-.22.85-.56,1.65-.98,2.38Z"/><path class="cls-1" d="M180.89,512.97c0,.35-.02.69-.05,1.03h0c-.05.54-.15,1.07-.28,1.58-.22.85-.56,1.65-.98,2.38-.21.38-.45.74-.71,1.08-1.89,2.5-4.89,4.04-8.09,4.04-1.31,0-2.66-.26-3.97-.83-.82-.35-1.56-.79-2.22-1.3-.44-.34-.84-.71-1.21-1.1,0,0,0,0,0,0-.24-.26-.47-.53-.68-.81-.26-.35-.5-.71-.71-1.08-.45-.8-.79-1.66-1.01-2.55-.16-.66-.26-1.33-.29-2.01h0c-.06-1.39.16-2.8.69-4.14.43-1.09,1.07-2.14,1.92-3.08.14-.15.28-.3.43-.45,0,0,0,0,0,0,1.82-1.78,4.31-2.87,7.06-2.87,5.58,0,10.11,4.52,10.11,10.11Z"/><path class="cls-3" d="M228.8,533.92s-.03-.23-.07-.49c0-.04-.05-.35-.12-.73,0-.02-.02-.12-.04-.25h0s-.03-.17-.03-.17c0-.02,0-.05-.01-.07l-.07-.37h0c-.26-1.32-.55-2.33-.59-2.48-.68-2.44-1.65-4.76-2.87-6.91l-.17-.3-.03-.03c-.37-.63-1.2-2.06-2.6-3.75-1.49-1.8-3.16-3.36-5-4.66.44-.69.82-1.43,1.15-2.19.78-1.85,1.18-3.81,1.18-5.83s-.4-3.98-1.18-5.83c-.75-1.78-1.83-3.38-3.21-4.76-1.37-1.37-2.97-2.45-4.76-3.21-1.85-.78-3.81-1.18-5.83-1.18s-3.98.4-5.83,1.18c-1.05.44-2.03,1-2.95,1.66-.7-.69-1.45-1.33-2.22-1.9,1.13-1.92,1.73-4.12,1.73-6.42,0-1.71-.34-3.37-1-4.94-.64-1.51-1.55-2.87-2.72-4.03-1.17-1.17-2.52-2.08-4.03-2.72-1.57-.66-3.23-1-4.94-1s-3.38.34-4.94,1c-1.51.64-2.87,1.55-4.03,2.72-1.17,1.17-2.08,2.52-2.72,4.03-.66,1.57-1,3.23-1,4.94,0,2.31.62,4.51,1.74,6.42-1.88,1.39-3.54,3.11-4.96,5.15-1.71,2.46-2.97,5.25-3.75,8.28h0c-.07-1.81-.46-3.56-1.17-5.22-.75-1.78-1.83-3.38-3.21-4.76-1.37-1.37-2.97-2.45-4.76-3.21-1.85-.78-3.81-1.18-5.83-1.18s-3.98.4-5.83,1.18c-1.78.75-3.38,1.83-4.76,3.21s-2.45,2.97-3.21,4.76c-.7,1.66-1.1,3.42-1.17,5.23-.77-3.03-2.03-5.82-3.75-8.28-1.41-2.03-3.07-3.76-4.95-5.14,1.13-1.92,1.73-4.12,1.73-6.42,0-1.71-.34-3.37-1-4.94-.64-1.51-1.55-2.87-2.72-4.03-1.17-1.17-2.52-2.08-4.03-2.72-1.57-.66-3.23-1-4.94-1s-3.37.34-4.94,1c-1.51.64-2.87,1.55-4.03,2.72-1.17,1.17-2.08,2.52-2.72,4.03-.66,1.57-1,3.23-1,4.94,0,2.31.62,4.51,1.74,6.42-.78.57-1.52,1.21-2.23,1.9-.88-.64-1.82-1.18-2.83-1.61-1.88-.82-3.89-1.23-5.95-1.23s-3.98.4-5.83,1.18c-1.78.75-3.38,1.83-4.76,3.21-1.37,1.37-2.45,2.97-3.21,4.76-.78,1.85-1.18,3.81-1.18,5.83s.4,3.98,1.18,5.83c.32.76.71,1.5,1.15,2.19-3.57,2.51-6.53,6.04-8.61,10.28-2.16,4.4-3.29,9.39-3.29,14.44,0,.84.4,1.62,1.09,2.13.15.11.31.21.5.3.18.08.38.17.63.26.4.14.93.3,1.58.47,1.44.39,3.28.8,5.17,1.16,3.76.71,9.52,1.56,15.58,1.56,3.85,0,7.7-.32,12.38-1.02h0c.2.18.44.35.74.5.16.08.34.15.57.23.34.12.78.25,1.32.4,1.19.32,2.7.66,4.25.95,3.09.59,7.83,1.28,12.81,1.28s9.71-.7,12.81-1.28c1.55-.29,3.07-.63,4.25-.95.5-.14.93-.26,1.26-.38l.65.05c1.94.15,3.75.22,5.55.22s3.61-.07,5.55-.22l.65-.05h0c.33.11.75.24,1.26.38,1.19.32,2.7.66,4.25.95,3.09.59,7.83,1.28,12.81,1.28s9.71-.7,12.81-1.28c1.55-.29,3.07-.63,4.25-.95.54-.15.98-.28,1.32-.4.23-.08.41-.15.57-.23.3-.14.54-.31.73-.49l.2.03c.27.04,4.77.76,9.78.94.74.03,1.5.04,2.26.04,6.2,0,12-.85,15.76-1.57,1.88-.36,3.71-.77,5.15-1.16.64-.17,1.16-.33,1.56-.47.25-.09.45-.17.63-.25.18-.09.34-.18.49-.29.7-.51,1.1-1.28,1.1-2.13,0-1.52-.1-3.04-.3-4.52ZM197.57,495.48c1.99-1.36,4.39-2.15,6.98-2.15,6.84,0,12.38,5.54,12.38,12.38,0,2.43-.7,4.7-1.91,6.61-2.19,3.47-6.06,5.77-10.47,5.77-2.74,0-5.27-.89-7.32-2.4-1.25-.92-2.32-2.06-3.14-3.37-1.21-1.91-1.91-4.18-1.91-6.61,0-4.25,2.14-8,5.4-10.23ZM184.45,521.87c-.33-.27-.66-.54-1-.79.71-1.2,1.21-2.51,1.48-3.88,1.05-.04,2.12-.11,3.21-.21-1.38,1.46-2.62,3.09-3.69,4.89ZM165.42,507.43h0c1.82-1.78,4.31-2.88,7.06-2.88,5.58,0,10.11,4.52,10.11,10.11,0,.35-.02.69-.05,1.03h0c-.05.54-.15,1.07-.28,1.58-.22.85-.56,1.65-.98,2.38-.21.38-.45.74-.71,1.08-1.89,2.5-4.89,4.04-8.09,4.04-1.31,0-2.66-.26-3.97-.83-.82-.35-1.56-.79-2.22-1.3-.44-.34-.84-.71-1.21-1.1,0,0,0,0,0,0-.24-.26-.47-.53-.68-.81-.26-.35-.5-.71-.71-1.08-.45-.8-.79-1.66-1.01-2.55-.16-.66-.26-1.33-.29-2.01h0c-.06-1.39.16-2.8.69-4.14.43-1.09,1.07-2.14,1.92-3.08.14-.15.28-.3.43-.45ZM182.59,475.15c5.58,0,10.11,4.53,10.11,10.11,0,1.85-.48,3.54-1.31,4.99-.22.38-.46.74-.72,1.08h0c-1.89,2.49-4.88,4.04-8.08,4.04-1.31,0-2.66-.26-3.98-.83-1.62-.69-3.02-1.8-4.08-3.19-.27-.35-.51-.73-.73-1.11-.84-1.47-1.32-3.17-1.32-4.99,0-5.58,4.52-10.11,10.11-10.11ZM173.16,493.76c1.21,1.34,2.7,2.43,4.43,3.17,1.6.69,3.28,1.04,5,1.04s3.27-.32,4.82-.96c1.51-.62,2.87-1.51,4.04-2.65.2-.19.39-.39.57-.59.63.46,1.22.97,1.79,1.52-1.3,1.34-2.33,2.89-3.05,4.6-.78,1.85-1.18,3.81-1.18,5.82s.4,3.98,1.18,5.83c.32.76.71,1.5,1.15,2.19-.12.09-.25.18-.37.27h0c-1.97.28-4.14.51-6.36.62,0-1.69-.34-3.33-1-4.88-.64-1.51-1.55-2.87-2.72-4.03-1.17-1.17-2.52-2.08-4.03-2.72-1.57-.66-3.23-1-4.94-1-1.82,0-3.58.38-5.24,1.13-.41.19-.82.4-1.2.62,1.45-4.14,3.96-7.62,7.12-9.96ZM147.97,493.32c6.84,0,12.38,5.54,12.38,12.38,0,2.43-.7,4.7-1.91,6.61-2.19,3.47-6.06,5.77-10.47,5.77s-8.27-2.3-10.47-5.77c-1.21-1.91-1.91-4.18-1.91-6.61,0-6.84,5.54-12.38,12.38-12.38ZM111.5,521.88c-1.07-1.79-2.31-3.43-3.69-4.89,1.09.1,2.17.17,3.22.21.28,1.37.78,2.68,1.48,3.88-.34.25-.68.52-1.01.8ZM133.56,515.1c-.03.68-.13,1.35-.29,2.01-.22.89-.56,1.75-1.02,2.55l-.05-.03c-.2.36-.43.71-.68,1.04l-.33.45-.38.4c-.38.4-.78.77-1.21,1.1-1.75,1.36-3.88,2.1-6.15,2.1h0c-2.82,0-5.43-1.14-7.35-3.2l-.7-.75c-.27-.35-.52-.73-.74-1.12-.42-.74-.75-1.54-.98-2.38-.14-.52-.24-1.05-.29-1.59,0,0,0,0,0,0v-1.03c0-5.54,4.52-10.05,10.06-10.05,1.33,0,2.65.27,3.91.8.84.35,1.63.82,2.34,1.39l.81.65s0,0,0,0c.43.43.83.89,1.19,1.39.48.67.86,1.39,1.15,2.13.53,1.34.76,2.75.69,4.14ZM113.36,475.15c5.58,0,10.11,4.52,10.11,10.11,0,1.85-.48,3.54-1.31,4.99-.22.38-.45.74-.71,1.08h0l-.73.78c-1.92,2.06-4.54,3.2-7.36,3.2s-5.43-1.13-7.35-3.2l-.7-.75c-.27-.35-.51-.73-.73-1.11-.84-1.47-1.32-3.17-1.32-4.99,0-5.58,4.53-10.11,10.11-10.11ZM103.93,493.76c1.2,1.34,2.7,2.43,4.43,3.17,1.6.69,3.28,1.03,4.99,1.03s3.27-.32,4.81-.96c1.51-.62,2.87-1.51,4.04-2.64.2-.19.4-.39.58-.6,3.16,2.34,5.67,5.82,7.12,9.96-.18-.1-.36-.21-.54-.3-1.81-.95-3.85-1.45-5.9-1.45-1.78,0-3.51.36-5.12,1.08-1.56.69-2.95,1.67-4.12,2.92-1.17,1.25-2.07,2.69-2.66,4.28-.52,1.4-.78,2.86-.79,4.35-2.22-.11-4.39-.33-6.36-.62-.12-.09-.25-.18-.37-.27,1.47-2.31,2.28-4.98,2.32-7.78.03-1.91-.3-3.79-.98-5.57-.7-1.84-1.75-3.51-3.12-4.95-.04-.05-.09-.09-.13-.14.57-.55,1.17-1.05,1.79-1.52ZM91.4,493.32c2.54,0,4.95.77,6.98,2.15.73.5,1.4,1.07,2.02,1.72,3.96,4.18,4.45,10.43,1.48,15.12-.49.78-1.08,1.52-1.77,2.19-.43.43-.89.82-1.38,1.18-2.05,1.51-4.58,2.4-7.32,2.4-4.41,0-8.27-2.3-10.47-5.77-1.21-1.91-1.91-4.18-1.91-6.61,0-6.84,5.54-12.38,12.38-12.38ZM69.44,538.44c0-8.86,3.83-17.75,10.89-22.66.16.17.32.34.49.51,1.37,1.37,2.97,2.45,4.76,3.21,1.85.78,3.81,1.18,5.83,1.18s3.95-.39,5.79-1.16c1.77-.74,3.36-1.81,4.74-3.16.04-.04.08-.08.11-.11l.3.05c.35.06.7.11,1.05.17,2.44,1.91,4.55,4.38,6.19,7.26-1.53,1.64-2.84,3.55-3.88,5.67-1.71,3.49-2.65,7.42-2.74,11.42-3.84.57-7.57.93-11.56.93-10.98,0-21.96-2.95-21.96-3.29ZM123.46,544.07c-6.89,0-13.79-1.43-16.6-2.21-.7-.19-1.15-.35-1.28-.43l.02-.8c.16-5.58,2.21-10.98,5.61-14.81l.58-.66-.02-.03c.31-.32.64-.63.98-.93.41-.37.84-.71,1.28-1.04.17.18.34.36.51.54,1.2,1.19,2.61,2.11,4.17,2.74,1.51.61,3.11.92,4.75.92,2.46,0,4.85-.71,6.91-2.05.55-.36,1.07-.75,1.55-1.18.33-.29.64-.6.93-.92,5.26,3.88,8.48,10.73,8.48,18.18h0s0,.05,0,.05c-.16.09-.63.25-1.34.44-2.86.79-9.69,2.19-16.52,2.19ZM147.97,541.73c-1.32,0-2.64-.04-4.01-.12,0-.09.01-.16.01-.22,0-4.4-1.02-8.7-2.96-12.43-1.65-3.19-3.92-5.89-6.6-7.87.73-1.25,1.24-2.6,1.51-4.03.04-.21.08-.42.1-.63.28-.22.57-.43.87-.64.16.17.32.34.49.51,1.37,1.37,2.97,2.45,4.76,3.21,1.85.78,3.81,1.18,5.83,1.18s3.98-.4,5.83-1.18c1.78-.75,3.38-1.83,4.76-3.21.17-.17.33-.34.49-.51.3.21.58.42.87.64h0c.04.32.1.64.17.95.28,1.3.77,2.56,1.44,3.71-2.68,1.98-4.95,4.68-6.6,7.87-1.93,3.74-2.96,8.04-2.96,12.43,0,.06,0,.13.01.22-1.37.08-2.69.12-4.01.12ZM172.48,544.07c-6.83,0-13.66-1.4-16.52-2.19h0c-.72-.2-1.19-.36-1.34-.44h0s0-.06,0-.06c0-7.44,3.22-14.29,8.48-18.17.29.33.6.63.93.92,1.02.91,2.18,1.65,3.47,2.2,1.6.69,3.28,1.03,4.99,1.03s3.27-.32,4.81-.96c1.51-.62,2.87-1.51,4.04-2.64.2-.2.4-.4.58-.6.44.33.87.67,1.28,1.04.34.3.67.61.98.94l-.02.03.58.65c3.4,3.82,5.44,9.22,5.61,14.81l.02.8c-.13.08-.58.24-1.28.43-2.81.78-9.71,2.21-16.6,2.21ZM204.41,541.72c-.72,0-1.45-.01-2.17-.04-4.32-.15-8.3-.73-9.25-.88-.08-4-1.03-7.94-2.74-11.43-1.04-2.12-2.35-4.03-3.87-5.67,1.59-2.81,3.66-5.3,6.19-7.26.35-.05.7-.11,1.05-.17l.3-.05s.03.04.05.05c1.37,1.37,2.97,2.45,4.76,3.21,1.85.78,3.81,1.18,5.83,1.18s3.98-.4,5.83-1.18c1.78-.75,3.38-1.83,4.76-3.21.17-.17.33-.34.49-.51,4.84,3.39,6.96,7.79,7.12,7.96,1.12,1.98,2.01,4.13,2.63,6.34,0,0,.34,1.15.61,2.61h0c.05.24.08.45.08.45.06.37.11.67.11.67.04.24.06.45.06.45.18,1.36.28,2.76.28,4.17,0,.32-10.82,3.28-22.1,3.28Z"/><path class="cls-9" d="M109.32,515.48s-.02-.09-.03-.14c0,0,0,0,0,0-.03-.18-.06-.35-.09-.53,0-.02,0-.04,0-.06,0-.02,0-.03,0-.05,0-.05-.01-.1-.02-.14,0-.01,0-.02,0-.03,0-.05-.01-.1-.02-.15,0-.06-.01-.11-.02-.17,0-.02,0-.04,0-.06,0-.03,0-.07,0-.1,0-.05,0-.1-.01-.15,0-.05,0-.1,0-.15,0-.05,0-.1,0-.16,0-.02,0-.04,0-.06,0-.1,0-.2,0-.3,0-.1,0-.21,0-.31-2.22-.11-4.39-.33-6.36-.62-.17-.02-.33-.05-.49-.07-.19.3-.4.58-.62.87-.08.1-.16.21-.24.31.07.01.13.02.2.03.12.02.24.04.35.05.09.01.19.03.28.04.15.12.31.23.46.35.06.05.13.1.19.15.1.08.2.16.3.25.07.05.13.11.2.17.09.08.18.15.26.23.08.07.15.13.23.2.08.07.15.14.22.21.69.08,1.38.16,2.06.22,1.09.1,2.17.17,3.22.21,0,0,0-.02,0-.03ZM109.32,515.48s-.02-.09-.03-.14h0c-.03-.18-.06-.36-.09-.53,0-.02,0-.04,0-.06,0-.02,0-.03,0-.05,0-.05-.01-.1-.02-.14,0-.01,0-.02,0-.03,0-.05-.01-.1-.02-.15,0-.06-.01-.11-.02-.17,0-.02,0-.04,0-.06,0-.03,0-.07,0-.1,0-.05,0-.1-.01-.15,0-.05,0-.1,0-.15,0-.05,0-.1,0-.16,0-.02,0-.04,0-.06,0-.1,0-.2,0-.3,0-.1,0-.21,0-.31-2.22-.11-4.39-.33-6.36-.62-.17-.02-.33-.05-.49-.07-.19.3-.4.58-.62.87-.08.1-.16.21-.24.31.07.01.13.02.2.03.12.02.24.04.35.05.09.01.19.03.28.04.15.12.31.23.46.35.06.05.13.1.19.15.1.08.2.16.3.25.07.05.13.11.2.17.09.08.18.15.26.23.08.07.15.13.23.2.08.07.15.14.22.21.69.08,1.38.16,2.06.22,1.09.1,2.17.17,3.22.21,0,0,0-.02,0-.03ZM109.32,515.48s-.02-.09-.03-.14h0c-.03-.18-.06-.36-.09-.53,0-.02,0-.04,0-.06,0-.02,0-.03,0-.05,0-.05-.01-.1-.02-.14,0-.01,0-.02,0-.03,0-.05-.01-.1-.02-.15,0-.06-.01-.11-.02-.17,0-.02,0-.04,0-.06,0-.03,0-.07,0-.1,0-.05,0-.1-.01-.15,0-.05,0-.1,0-.15,0-.05,0-.1,0-.16,0-.02,0-.04,0-.06,0-.1,0-.2,0-.3,0-.1,0-.21,0-.31-2.22-.11-4.39-.33-6.36-.62-.17-.02-.33-.05-.49-.07-.19.3-.4.58-.62.87-.08.1-.16.21-.24.31.07.01.13.02.2.03.12.02.24.04.35.05.09.01.19.03.28.04.15.12.31.23.46.35.06.05.13.1.19.15.1.08.2.16.3.25.07.06.13.11.2.17.09.08.18.15.26.23.08.07.15.13.23.2.08.07.15.14.22.21.69.08,1.38.16,2.06.22,1.09.1,2.17.17,3.22.21,0,0,0-.02,0-.03ZM131.76,505.14l-.43-1.69s0-.03-.01-.04h0c-.77-3.04-2.03-5.82-3.75-8.28-1.41-2.03-3.07-3.76-4.95-5.14-.35-.26-.7-.5-1.07-.74-.07-.05-.15-.09-.22-.14l-.88-.55c-.22.38-.45.74-.71,1.08h0l-.73.78c-1.92,2.06-4.54,3.2-7.36,3.2s-5.43-1.13-7.35-3.2l-.7-.75c-.27-.35-.51-.73-.73-1.11l-.88.55c-.07.04-.14.09-.21.14-.36.23-.72.48-1.07.74-.78.57-1.52,1.21-2.23,1.9-.23.22-.45.46-.68.69l-.23.25-.89.96c.73.5,1.4,1.07,2.02,1.72,3.96,4.18,4.45,10.43,1.48,15.12-.49.78-1.08,1.52-1.77,2.19-.43.43-.89.82-1.38,1.18l.32.05h0l1.39.23.29.05,1.31.22.3.05c.35.06.7.11,1.05.17.8.12,1.59.23,2.37.32.69.08,1.38.16,2.06.22,1.09.1,2.17.17,3.22.21.35.01.69.03,1.03.03h.3s1.34.04,1.34.04c-.14-.52-.24-1.05-.29-1.59,0,0,0,0,0,0v-1.03c0-5.54,4.52-10.05,10.06-10.05,1.33,0,2.65.27,3.91.8.84.35,1.63.82,2.34,1.39l.81.65s0,0,0,0c.43.43.83.89,1.19,1.39.48.67.86,1.39,1.15,2.13l1.65,1.31.12.1h0l.27.22-1.45-5.74ZM111.66,494.91c3.04,0,6.07-1.21,8.31-3.61.02,0,.03.02.05.03.37.23.73.48,1.08.74,3.16,2.34,5.67,5.82,7.12,9.96h0c.23.64.42,1.3.6,1.97,0,.03.01.05.02.08-.8-.64-1.69-1.16-2.64-1.57-1.46-.62-2.95-.9-4.41-.9-5.98,0-11.34,4.82-11.35,11.35-.02,0-.04,0-.05,0-.43-.01-.86-.03-1.29-.05-2.22-.11-4.39-.33-6.36-.62-.17-.02-.33-.05-.49-.07-.4-.06-.78-.12-1.16-.18.14-.2.28-.4.4-.6,3.39-5.35,2.74-12.44-1.77-17.09.24-.26.49-.51.75-.76.57-.55,1.17-1.05,1.79-1.52.35-.26.71-.51,1.08-.74.02-.01.03-.02.05-.03,2.25,2.41,5.27,3.61,8.3,3.61ZM109.32,515.48s-.02-.09-.03-.14h0c-.03-.18-.06-.36-.09-.53,0-.02,0-.04,0-.06,0-.02,0-.03,0-.05,0-.05-.01-.1-.02-.14,0-.01,0-.02,0-.03,0-.05-.01-.1-.02-.15,0-.06-.01-.11-.02-.17,0-.02,0-.04,0-.06,0-.03,0-.07,0-.1,0-.05,0-.1-.01-.15,0-.05,0-.1,0-.15,0-.05,0-.1,0-.16,0-.02,0-.04,0-.06,0-.1,0-.2,0-.3,0-.1,0-.21,0-.31-2.22-.11-4.39-.33-6.36-.62-.17-.02-.33-.05-.49-.07-.19.3-.4.58-.62.87-.08.1-.16.21-.24.31.07.01.13.02.2.03.12.02.24.04.35.05.09.01.19.03.28.04.15.12.31.23.46.35.06.05.13.1.19.15.1.08.2.16.3.25.07.05.13.11.2.17.09.08.18.15.26.23.08.07.15.13.23.2.08.07.15.14.22.21.69.08,1.38.16,2.06.22,1.09.1,2.17.17,3.22.21,0,0,0-.02,0-.03Z"/><path class="cls-9" d="M123.36,478.62c-.64-1.51-1.55-2.87-2.72-4.03-1.17-1.17-2.52-2.08-4.03-2.72-1.57-.66-3.23-1-4.94-1s-3.37.34-4.94,1c-1.51.64-2.87,1.55-4.03,2.72s-2.08,2.52-2.72,4.03c-.66,1.57-1,3.23-1,4.94,0,2.31.62,4.51,1.74,6.42.22.37.46.73.71,1.08.25.35.53.68.82,1,1.2,1.34,2.7,2.43,4.43,3.17,1.6.69,3.28,1.03,4.99,1.03s3.27-.32,4.81-.96c1.51-.62,2.87-1.51,4.04-2.64.2-.19.4-.39.58-.6.29-.32.57-.66.82-1,.26-.35.5-.71.71-1.08,1.13-1.92,1.73-4.12,1.73-6.42,0-1.71-.34-3.37-1-4.94ZM120.46,488.55c-.22.38-.45.74-.71,1.08-1.89,2.5-4.89,4.04-8.09,4.04-1.31,0-2.66-.26-3.97-.83-1.62-.69-3.02-1.8-4.08-3.19-.27-.35-.51-.73-.73-1.11-.84-1.47-1.32-3.17-1.32-4.99,0-5.58,4.53-10.11,10.11-10.11s10.11,4.52,10.11,10.11c0,1.85-.48,3.54-1.31,4.99Z"/><path class="cls-9" d="M183.48,512.9c-.43.02-.86.04-1.29.05v.02c0,.43-.02.86-.07,1.28-.05.44-.12.87-.22,1.3h.3c.34-.02.69-.03,1.03-.04,1.05-.04,2.12-.11,3.21-.21.48-.51.98-.99,1.5-1.46.61-.55,1.25-1.06,1.9-1.55-1.97.28-4.14.51-6.36.62ZM183.48,512.9c-.43.02-.86.04-1.29.05v.02c0,.43-.02.86-.07,1.28-.05.44-.12.87-.22,1.3h.3c.34-.02.69-.03,1.03-.04,1.05-.04,2.12-.11,3.21-.21.48-.51.98-.99,1.5-1.46.61-.55,1.25-1.06,1.9-1.55-1.97.28-4.14.51-6.36.62ZM183.48,512.9c-.43.02-.86.04-1.29.05v.02c0,.43-.02.86-.07,1.28-.05.44-.12.87-.22,1.3h.3c.34-.02.69-.03,1.03-.04,1.05-.04,2.12-.11,3.21-.21.48-.51.98-.99,1.5-1.46.61-.55,1.25-1.06,1.9-1.55-1.97.28-4.14.51-6.36.62ZM183.48,512.9c-.43.02-.86.04-1.29.05v.02c0,.43-.02.86-.07,1.28-.05.44-.12.87-.22,1.3h.3c.34-.02.69-.03,1.03-.04,1.05-.04,2.12-.11,3.21-.21.48-.51.98-.99,1.5-1.46.61-.55,1.25-1.06,1.9-1.55-1.97.28-4.14.51-6.36.62ZM183.48,512.9c-.43.02-.86.04-1.29.05v.02c0,.43-.02.86-.07,1.28-.05.44-.12.87-.22,1.3h.3c.34-.02.69-.03,1.03-.04,1.05-.04,2.12-.11,3.21-.21.48-.51.98-.99,1.5-1.46.61-.55,1.25-1.06,1.9-1.55-1.97.28-4.14.51-6.36.62ZM183.48,512.9c-.43.02-.86.04-1.29.05v.02c0,.43-.02.86-.07,1.28-.05.44-.12.87-.22,1.3h.3c.34-.02.69-.03,1.03-.04,1.05-.04,2.12-.11,3.21-.21.48-.51.98-.99,1.5-1.46.61-.55,1.25-1.06,1.9-1.55-1.97.28-4.14.51-6.36.62ZM192.39,510.62c-1.21-1.91-1.91-4.18-1.91-6.61,0-4.25,2.14-8,5.4-10.23l-.89-.95-.24-.25c-.22-.24-.45-.47-.67-.69-.7-.69-1.45-1.33-2.22-1.9-.35-.26-.7-.51-1.07-.74-.07-.05-.15-.09-.22-.14l-.88-.55c-.22.38-.46.74-.72,1.08h0c-1.89,2.49-4.88,4.04-8.08,4.04-1.31,0-2.66-.26-3.98-.83-1.62-.69-3.02-1.8-4.08-3.19-.27-.35-.51-.73-.73-1.11l-.88.55c-.07.04-.14.09-.21.14-.36.23-.72.48-1.07.74-1.88,1.39-3.54,3.11-4.96,5.15-1.71,2.46-2.97,5.25-3.75,8.28h0s0,.03-.01.04l-.43,1.69-1.45,5.74.27-.22.12-.09,1.64-1.31c.43-1.09,1.07-2.14,1.92-3.08.14-.15.28-.3.43-.45,0,0,0,0,0,0,1.82-1.78,4.31-2.87,7.06-2.87,5.58,0,10.11,4.52,10.11,10.11,0,.35-.02.69-.05,1.03h0c-.05.54-.15,1.07-.28,1.58l1.34-.03h.3c.34-.02.69-.03,1.03-.04,1.05-.04,2.12-.11,3.21-.21.68-.06,1.37-.13,2.06-.22.78-.09,1.57-.2,2.37-.32.35-.05.7-.11,1.05-.17l.3-.05,1.31-.22.3-.05,1.38-.23.32-.05c-1.25-.92-2.32-2.06-3.14-3.37ZM170.76,501.62c-2.45,0-4.92.79-7.02,2.46,0-.03.01-.05.02-.08.17-.67.37-1.33.6-1.97,1.45-4.14,3.96-7.62,7.12-9.96.35-.26.71-.51,1.08-.74.02,0,.03-.02.05-.03,2.25,2.41,5.27,3.61,8.29,3.61s6.07-1.21,8.31-3.61c.01,0,.03.02.04.03.37.23.73.48,1.08.74.63.46,1.22.97,1.79,1.52.25.24.5.5.75.76-4.51,4.66-5.15,11.74-1.77,17.09.13.2.26.41.4.6-.38.06-.77.12-1.16.18-.16.02-.33.05-.5.07h0c-1.97.28-4.14.51-6.36.62-.43.02-.86.04-1.29.05-.02,0-.03,0-.05,0,0-1.53-.3-3.01-.89-4.4-1.88-4.43-6.13-6.93-10.49-6.93ZM183.48,512.9c-.43.02-.86.04-1.29.05v.02c0,.43-.02.86-.07,1.28-.05.44-.12.87-.22,1.3h.3c.34-.02.69-.03,1.03-.04,1.05-.04,2.12-.11,3.21-.21.48-.51.98-.99,1.5-1.46.61-.55,1.25-1.06,1.9-1.55-1.97.28-4.14.51-6.36.62ZM183.48,512.9c-.43.02-.86.04-1.29.05v.02c0,.43-.02.86-.07,1.28-.05.44-.12.87-.22,1.3h.3c.34-.02.69-.03,1.03-.04,1.05-.04,2.12-.11,3.21-.21.48-.51.98-.99,1.5-1.46.61-.55,1.25-1.06,1.9-1.55-1.97.28-4.14.51-6.36.62ZM183.48,512.9c-.43.02-.86.04-1.29.05v.02c0,.43-.02.86-.07,1.28-.05.44-.12.87-.22,1.3h.3c.34-.02.69-.03,1.03-.04,1.05-.04,2.12-.11,3.21-.21.48-.51.98-.99,1.5-1.46.61-.55,1.25-1.06,1.9-1.55-1.97.28-4.14.51-6.36.62ZM183.48,512.9c-.43.02-.86.04-1.29.05v.02c0,.43-.02.86-.07,1.28-.05.44-.12.87-.22,1.3h.3c.34-.02.69-.03,1.03-.04,1.05-.04,2.12-.11,3.21-.21.48-.51.98-.99,1.5-1.46.61-.55,1.25-1.06,1.9-1.55-1.97.28-4.14.51-6.36.62Z"/><path class="cls-9" d="M192.59,478.62c-.64-1.51-1.55-2.87-2.72-4.03-1.17-1.17-2.52-2.08-4.03-2.72-1.57-.66-3.23-1-4.94-1s-3.38.34-4.94,1c-1.51.64-2.87,1.55-4.03,2.72-1.17,1.17-2.08,2.52-2.72,4.03-.66,1.57-1,3.23-1,4.94,0,2.31.62,4.51,1.74,6.42.22.37.46.73.71,1.08.25.35.53.68.82,1.01,1.21,1.34,2.7,2.43,4.43,3.17,1.6.69,3.28,1.04,5,1.04s3.27-.32,4.82-.96c1.51-.62,2.87-1.51,4.04-2.65.2-.19.39-.39.57-.59.29-.32.57-.66.82-1,.26-.35.5-.71.71-1.08,1.13-1.92,1.73-4.12,1.73-6.42,0-1.71-.34-3.37-1-4.94ZM189.69,488.55c-.22.38-.46.74-.72,1.08h0c-1.89,2.49-4.88,4.04-8.08,4.04-1.31,0-2.66-.26-3.98-.83-1.62-.69-3.02-1.8-4.08-3.19-.27-.35-.51-.73-.73-1.11-.84-1.47-1.32-3.17-1.32-4.99,0-5.58,4.52-10.11,10.11-10.11s10.11,4.53,10.11,10.11c0,1.85-.48,3.54-1.31,4.99Z"/><path class="cls-9" d="M158.22,514.71s0,0,0-.01c-.02-.12-.03-.23-.04-.35,0,0,0,0,0,0,0-.02,0-.03,0-.05-.04-.37-.06-.73-.07-1.1,0,0,0,0,0,0-.03.04-.06.07-.09.11-.03.04-.06.07-.09.11-.03.04-.06.08-.09.12-.05.06-.09.11-.14.17-.05.06-.09.11-.14.17-.03.04-.06.07-.1.11,0,0-.02.02-.02.03-.03.03-.05.06-.08.08.3.21.58.42.87.64,0,0,0,0,0-.01ZM134.86,513.69c-.04-.05-.09-.1-.13-.15-.04-.05-.09-.11-.13-.16-.05-.06-.1-.12-.14-.18,0,.51-.05,1.02-.12,1.52.28-.22.57-.43.87-.64-.12-.13-.23-.26-.34-.39ZM158.22,514.71s0,0,0-.01c-.02-.12-.03-.23-.04-.35,0,0,0,0,0,0,0-.02,0-.03,0-.05-.04-.37-.06-.73-.07-1.1,0,0,0,0,0,0-.03.04-.06.07-.09.11-.03.04-.06.07-.09.11-.03.04-.06.08-.09.12-.05.06-.09.11-.14.17-.05.06-.09.11-.14.17-.03.04-.06.07-.1.11,0,0-.02.02-.02.03-.03.03-.05.06-.08.08.3.21.58.42.87.64,0,0,0,0,0-.01ZM134.86,513.69c-.04-.05-.09-.1-.13-.15-.04-.05-.09-.11-.13-.16-.05-.06-.1-.12-.14-.18,0,.51-.05,1.02-.12,1.52.28-.22.57-.43.87-.64-.12-.13-.23-.26-.34-.39ZM158.22,514.71s0,0,0-.01c-.02-.12-.03-.23-.04-.35,0,0,0,0,0,0,0-.02,0-.03,0-.05-.04-.37-.06-.73-.07-1.1,0,0,0,0,0,0-.03.04-.06.07-.09.11-.03.04-.06.07-.09.11-.03.04-.06.08-.09.12-.05.06-.09.11-.14.17-.05.06-.09.11-.14.17-.03.04-.06.07-.1.11,0,0-.02.02-.02.03-.03.03-.05.06-.08.08.3.21.58.42.87.64,0,0,0,0,0-.01ZM134.86,513.69c-.04-.05-.09-.1-.13-.15-.04-.05-.09-.11-.13-.16-.05-.06-.1-.12-.14-.18,0,.51-.05,1.02-.12,1.52.28-.22.57-.43.87-.64-.12-.13-.23-.26-.34-.39ZM158.22,514.71s0,0,0-.01c-.02-.12-.03-.23-.04-.35,0,0,0,0,0,0,0-.02,0-.03,0-.05-.04-.37-.06-.73-.07-1.1,0,0,0,0,0,0-.03.04-.06.07-.09.11-.03.04-.06.07-.09.11-.03.04-.06.08-.09.12-.05.06-.09.11-.14.17-.05.06-.09.11-.14.17-.03.04-.06.07-.1.11,0,0-.02.02-.02.03-.03.03-.05.06-.08.08.3.21.58.42.87.64,0,0,0,0,0-.01ZM134.86,513.69c-.04-.05-.09-.1-.13-.15-.04-.05-.09-.11-.13-.16-.05-.06-.1-.12-.14-.18,0,.51-.05,1.02-.12,1.52.28-.22.57-.43.87-.64-.12-.13-.23-.26-.34-.39ZM158.22,514.71s0,0,0-.01c-.02-.12-.03-.23-.04-.35,0,0,0,0,0,0,0-.02,0-.03,0-.05-.04-.37-.06-.73-.07-1.1,0,0,0,0,0,0-.03.04-.06.07-.09.11-.03.04-.06.07-.09.11-.03.04-.06.08-.09.12-.05.06-.09.11-.14.17-.05.06-.09.11-.14.17-.03.04-.06.07-.1.11,0,0-.02.02-.02.03-.03.03-.05.06-.08.08.3.21.58.42.87.64,0,0,0,0,0-.01ZM134.73,513.54c-.04-.05-.09-.11-.13-.16-.05-.06-.1-.12-.14-.18,0,.51-.05,1.02-.12,1.52.28-.22.57-.43.87-.64-.12-.13-.23-.26-.34-.39-.04-.05-.09-.1-.13-.15ZM163.38,519.86s0,0,0,0c-.24-.26-.47-.53-.68-.81-.26-.35-.5-.71-.71-1.08-.45-.8-.79-1.66-1.01-2.55-.16-.66-.26-1.33-.29-2.01h0c-.42-.36-.85-.7-1.29-1.03-.16-.12-.32-.24-.48-.35-.25-.17-.49-.34-.75-.51-.11-.07-.22-.14-.34-.22,0,0-.01,0-.02-.01l-1.07-.67c-2.19,3.47-6.06,5.77-10.47,5.77s-8.27-2.3-10.47-5.77l-1.07.67s-.01,0-.02.01c-.11.07-.22.14-.34.21-.25.16-.5.33-.75.51-.16.11-.32.23-.48.35-.44.33-.87.67-1.29,1.03-.03.68-.13,1.35-.29,2.01-.22.89-.56,1.75-1.02,2.55l-.05-.03c-.2.36-.43.71-.68,1.04l-.33.45-.38.4c-.38.4-.78.77-1.21,1.1l.04.03,1.1.7.05.03.37.23c.25.16.5.33.75.51.33-.29.64-.6.93-.92,5.26,3.88,8.48,10.73,8.48,18.18h0s0,.05,0,.05c-.16.09-.63.25-1.34.44l-.14,1.38-.06.63,2,.15.65.05c1.94.15,3.75.22,5.55.22s3.61-.07,5.55-.22l.65-.05h0l2-.15-.06-.63-.14-1.38h0c-.72-.2-1.19-.36-1.34-.44h0s0-.06,0-.06c0-7.44,3.22-14.29,8.48-18.17.29.33.6.63.93.92.25-.18.5-.35.76-.51l.36-.23.05-.03,1.1-.7c-.44-.34-.84-.71-1.21-1.1ZM160.57,520.51c-5.32,3.96-8.95,11.01-8.95,19.18,0,.04,0,.09,0,.13-.02,0-.04,0-.05,0-.43.03-.86.06-1.29.09-1.37.08-2.69.12-4.01.12s-2.64-.04-4.01-.12c-.43-.03-.85-.05-1.29-.09-.02,0-.04,0-.05,0,0-.04,0-.08,0-.13,0-8.21-3.66-15.23-8.95-19.18-.35-.26-.7-.5-1.06-.73-.02-.01-.03-.02-.05-.03.01-.01.02-.03.03-.04.26-.35.49-.71.71-1.08.45-.78.8-1.6,1.05-2.46.02-.02.05-.05.07-.07.52-.49,1.05-.94,1.61-1.37.28-.22.57-.43.87-.64.3-.21.6-.41.9-.6,2.74,2.94,6.46,4.42,10.18,4.42s7.41-1.47,10.16-4.42c.3.19.6.39.9.6.3.21.58.42.87.64h0c.55.43,1.09.89,1.61,1.38.02.02.04.04.07.06.25.84.6,1.67,1.05,2.46.21.37.45.73.71,1.08,0,.01.02.03.03.04-.02.01-.03.02-.05.03-.36.23-.72.48-1.06.74ZM134.86,513.69c-.04-.05-.09-.1-.13-.15-.04-.05-.09-.11-.13-.16-.05-.06-.1-.12-.14-.18,0,.51-.05,1.02-.12,1.52.28-.22.57-.43.87-.64-.12-.13-.23-.26-.34-.39ZM158.22,514.71s0,0,0-.01c-.02-.12-.03-.23-.04-.35,0,0,0,0,0,0,0-.02,0-.03,0-.05-.04-.37-.06-.73-.07-1.1,0,0,0,0,0,0-.03.04-.06.07-.09.11-.03.04-.06.07-.09.11-.03.04-.06.08-.09.12-.05.06-.09.11-.14.17-.05.06-.09.11-.14.17-.03.04-.06.07-.1.11,0,0-.02.02-.02.03-.03.03-.05.06-.08.08.3.21.58.42.87.64,0,0,0,0,0-.01ZM134.86,513.69c-.04-.05-.09-.1-.13-.15-.04-.05-.09-.11-.13-.16-.05-.06-.1-.12-.14-.18,0,.51-.05,1.02-.12,1.52.28-.22.57-.43.87-.64-.12-.13-.23-.26-.34-.39ZM158.22,514.71s0,0,0-.01c-.02-.12-.03-.23-.04-.35,0,0,0,0,0,0,0-.02,0-.03,0-.05-.04-.37-.06-.73-.07-1.1,0,0,0,0,0,0-.03.04-.06.07-.09.11-.03.04-.06.07-.09.11-.03.04-.06.08-.09.12-.05.06-.09.11-.14.17-.05.06-.09.11-.14.17-.03.04-.06.07-.1.11,0,0-.02.02-.02.03-.03.03-.05.06-.08.08.3.21.58.42.87.64,0,0,0,0,0-.01ZM134.86,513.69c-.04-.05-.09-.1-.13-.15-.04-.05-.09-.11-.13-.16-.05-.06-.1-.12-.14-.18,0,.51-.05,1.02-.12,1.52.28-.22.57-.43.87-.64-.12-.13-.23-.26-.34-.39ZM158.22,514.71s0,0,0-.01c-.02-.12-.03-.23-.04-.35,0,0,0,0,0,0,0-.02,0-.03,0-.05-.04-.37-.06-.73-.07-1.1,0,0,0,0,0,0-.03.04-.06.07-.09.11-.03.04-.06.07-.09.11-.03.04-.06.08-.09.12-.05.06-.09.11-.14.17-.05.06-.09.11-.14.17-.03.04-.06.07-.1.11,0,0-.02.02-.02.03-.03.03-.05.06-.08.08.3.21.58.42.87.64,0,0,0,0,0-.01ZM134.86,513.69c-.04-.05-.09-.1-.13-.15-.04-.05-.09-.11-.13-.16-.05-.06-.1-.12-.14-.18,0,.51-.05,1.02-.12,1.52.28-.22.57-.43.87-.64-.12-.13-.23-.26-.34-.39ZM158.22,514.71s0,0,0-.01c-.02-.12-.03-.23-.04-.35,0,0,0,0,0,0,0-.02,0-.03,0-.05-.04-.37-.06-.73-.07-1.1,0,0,0,0,0,0-.03.04-.06.07-.09.11-.03.04-.06.07-.09.11-.03.04-.06.08-.09.12-.05.06-.09.11-.14.17-.05.06-.09.11-.14.17-.03.04-.06.07-.1.11,0,0-.02.02-.02.03-.03.03-.05.06-.08.08.3.21.58.42.87.64,0,0,0,0,0-.01ZM134.86,513.69c-.04-.05-.09-.1-.13-.15-.04-.05-.09-.11-.13-.16-.05-.06-.1-.12-.14-.18,0,.51-.05,1.02-.12,1.52.28-.22.57-.43.87-.64-.12-.13-.23-.26-.34-.39ZM158.22,514.71s0,0,0-.01c0-.05-.01-.11-.02-.16,0-.06-.01-.12-.02-.19,0,0,0,0,0,0,0-.02,0-.03,0-.05-.04-.37-.06-.73-.07-1.1,0,0,0,0,0,0-.03.04-.06.07-.09.11-.03.04-.06.07-.09.11-.03.04-.06.08-.09.12-.05.06-.09.11-.14.17-.05.06-.09.11-.14.17-.03.04-.06.07-.1.11,0,0-.02.02-.02.03-.03.03-.05.06-.08.08.3.21.58.42.87.64,0,0,0,0,0-.01ZM158.22,514.71s0,0,0-.01c0-.05-.01-.11-.02-.16,0-.06-.01-.12-.02-.19,0,0,0,0,0,0,0-.02,0-.03,0-.05-.04-.37-.06-.73-.07-1.1,0,0,0,0,0,0-.03.04-.06.07-.09.11-.03.04-.06.07-.09.11-.03.04-.06.08-.09.12-.05.06-.09.11-.14.17-.05.06-.09.11-.14.17-.03.04-.06.07-.1.11,0,0-.02.02-.02.03-.03.03-.05.06-.08.08.3.21.58.42.87.64h0s0,0,0-.01ZM134.86,513.69c-.04-.05-.09-.1-.13-.15-.04-.05-.09-.11-.13-.16-.05-.06-.1-.12-.14-.18,0,.51-.05,1.02-.12,1.52.28-.22.57-.43.87-.64-.12-.13-.23-.26-.34-.39Z"/><path class="cls-9" d="M161.23,503.41c-.07-1.81-.46-3.56-1.17-5.23-.75-1.78-1.83-3.38-3.21-4.76-1.37-1.37-2.97-2.45-4.76-3.21-1.85-.78-3.81-1.18-5.83-1.18s-3.98.4-5.83,1.18c-1.78.75-3.38,1.83-4.76,3.21-1.37,1.37-2.45,2.97-3.21,4.76-.7,1.66-1.1,3.42-1.17,5.23h0c0,.2-.01.4-.01.6s0,.4.01.6c.04.92.16,1.83.36,2.72.19.85.46,1.69.81,2.5.11.25.22.49.33.74.05.11.11.22.17.33h0c.2.39.42.76.65,1.13.23.36.48.72.74,1.06.03.04.06.07.09.11h0c.05.06.1.12.14.18.04.05.09.11.13.16.04.05.09.1.13.15.11.13.23.26.34.39.16.17.32.34.49.51,1.37,1.37,2.97,2.45,4.76,3.21,1.85.78,3.81,1.18,5.83,1.18s3.98-.4,5.83-1.18c1.78-.75,3.38-1.83,4.76-3.21.17-.17.33-.34.49-.51.03-.03.05-.06.08-.08,0,0,.02-.02.02-.03.03-.04.06-.07.1-.11.05-.05.1-.11.14-.17.05-.06.09-.11.14-.17.03-.04.06-.08.09-.12.03-.04.06-.07.09-.11.03-.04.06-.07.09-.11,0,0,0,0,0,0,.03-.04.05-.07.08-.11.26-.34.51-.7.74-1.06.23-.37.45-.75.65-1.14.06-.1.11-.21.16-.32.12-.24.23-.49.33-.73.35-.82.62-1.66.81-2.52.2-.89.32-1.79.35-2.71,0-.2.01-.4.01-.6s0-.4-.01-.6ZM146.28,491.63c6.84,0,12.38,5.54,12.38,12.38,0,2.43-.7,4.7-1.91,6.61-2.19,3.47-6.06,5.77-10.47,5.77s-8.27-2.3-10.47-5.77c-1.21-1.91-1.91-4.18-1.91-6.61,0-6.84,5.54-12.38,12.38-12.38Z"/><path class="cls-9" d="M191.65,513.93c-.11-.12-.21-.24-.31-.36-.04-.05-.09-.11-.13-.16,0,0,0,0-.01-.01-.08-.1-.16-.2-.24-.31-.2.14-.4.29-.6.44h0c-.13.02-.26.04-.39.06-.03,0-.07,0-.1.01-.06,0-.12.02-.19.03-.37.05-.74.1-1.11.14-.06,0-.12.01-.17.02,0,0-.02,0-.03,0-.14.02-.28.03-.42.05-.52.46-1.01.95-1.5,1.46-1.38,1.46-2.62,3.09-3.69,4.89.34.28.66.57.98.88.32.31.64.63.94.96,1.59-2.81,3.66-5.3,6.19-7.26.3-.23.6-.46.91-.67-.05-.05-.09-.1-.13-.15ZM227.1,532.22s-.03-.23-.07-.49c0-.04-.05-.35-.12-.73,0-.02-.02-.12-.04-.25h0s-.03-.17-.03-.17c0-.02,0-.05-.01-.07l-.07-.37h0c-.26-1.32-.55-2.33-.59-2.48-.68-2.44-1.65-4.76-2.87-6.91l-.17-.3-.03-.03c-.37-.63-1.2-2.06-2.6-3.75-1.49-1.8-3.16-3.36-5-4.66-.35-.25-.71-.49-1.08-.72,0,0,0,0,0,0l-1.08-.68c-2.19,3.47-6.06,5.77-10.47,5.77-2.74,0-5.27-.89-7.32-2.4-1.25-.92-2.32-2.06-3.14-3.37l-.2.12-.88.55s0,0-.01,0c-.07.04-.13.08-.2.13-.3.19-.59.39-.88.59-.12.09-.25.18-.37.27h0c-.66.48-1.29,1-1.9,1.55-.52.46-1.01.95-1.5,1.46-1.38,1.46-2.62,3.09-3.69,4.89-.22.38-.44.76-.65,1.15-.14.26-.28.53-.41.79l-.2.39c.34.3.67.61.98.94l-.02.03.58.65c3.4,3.82,5.44,9.22,5.61,14.81l.02.8c-.13.08-.58.24-1.28.43v.15s1.12.74,1.12.74c.05.03.09.06.14.09.41.24.78.3,1.07.35l.39.06.36.06.2.03c.27.04,4.77.76,9.78.94.74.03,1.5.04,2.26.04,6.2,0,12-.85,15.76-1.57,1.88-.36,3.71-.77,5.15-1.16.64-.17,1.16-.33,1.56-.47.25-.09.45-.17.63-.25.18-.09.34-.18.49-.29.7-.51,1.1-1.28,1.1-2.13,0-1.52-.1-3.04-.3-4.52ZM191.29,539.11c-.14-.02-.21-.03-.21-.03,0,0-.86-.14-1.08-.17-.03,0-.05,0-.05,0-.17-5.74-2.21-11.44-5.93-15.63,0-.02.02-.03.02-.05.2-.41.42-.81.65-1.21,1.59-2.81,3.66-5.3,6.19-7.26.3-.23.6-.46.91-.67.29-.2.59-.4.9-.59.27.29.55.57.85.83,2.64,2.39,5.98,3.59,9.33,3.59,3.71,0,7.42-1.47,10.17-4.43.31.19.61.39.9.6,4.84,3.39,6.96,7.79,7.12,7.96,1.12,1.98,2.01,4.13,2.63,6.34,0,0,.34,1.15.61,2.61h0c.05.24.08.45.08.45.06.37.11.67.11.67.04.24.06.45.06.45.18,1.36.28,2.76.28,4.17,0,.32-10.82,3.28-22.1,3.28-.72,0-1.45-.01-2.17-.04-4.32-.15-8.3-.73-9.25-.88ZM191.65,513.93c-.11-.12-.21-.24-.31-.36-.04-.05-.09-.11-.13-.16,0,0,0,0-.01-.01-.08-.1-.16-.2-.24-.31-.2.14-.4.29-.6.44h0c-.13.02-.26.04-.39.06-.03,0-.07,0-.1.01-.06,0-.12.02-.19.03-.37.05-.74.1-1.11.14-.06,0-.12.01-.17.02,0,0-.02,0-.03,0-.14.02-.28.03-.42.05-.52.46-1.01.95-1.5,1.46-1.38,1.46-2.62,3.09-3.69,4.89.34.28.66.57.98.88.32.31.64.63.94.96,1.59-2.81,3.66-5.3,6.19-7.26.3-.23.6-.46.91-.67-.05-.05-.09-.1-.13-.15ZM191.65,513.93c-.11-.12-.21-.24-.31-.36-.04-.05-.09-.11-.13-.16,0,0,0,0-.01-.01-.08-.1-.16-.2-.24-.31-.2.14-.4.29-.6.44h0c-.13.02-.26.04-.39.06-.03,0-.07,0-.1.01-.06,0-.12.02-.19.03-.37.05-.74.1-1.11.14-.06,0-.12.01-.17.02,0,0-.02,0-.03,0-.14.02-.28.03-.42.05-.52.46-1.01.95-1.5,1.46-1.38,1.46-2.62,3.09-3.69,4.89.34.28.66.57.98.88.32.31.64.63.94.96,1.59-2.81,3.66-5.3,6.19-7.26.3-.23.6-.46.91-.67-.05-.05-.09-.1-.13-.15Z"/><path class="cls-9" d="M216.64,498.18c-.75-1.78-1.83-3.38-3.21-4.76-1.37-1.37-2.97-2.45-4.76-3.21-1.85-.78-3.81-1.18-5.83-1.18s-3.98.4-5.83,1.18c-1.05.44-2.03,1-2.95,1.66-.35.25-.69.53-1.02.81-.27.23-.53.48-.79.73-.05.05-.1.1-.15.16-1.3,1.34-2.33,2.89-3.05,4.6-.78,1.85-1.18,3.81-1.18,5.82s.4,3.98,1.18,5.83c.32.76.71,1.5,1.15,2.19.04.06.08.13.12.19.2.3.4.59.62.87.08.1.16.21.24.31,0,0,0,0,.01.01.04.05.09.11.13.16.1.12.21.24.31.36.04.05.09.1.13.15.14.16.29.31.43.46.02.02.03.04.05.05,1.37,1.37,2.97,2.45,4.76,3.21,1.85.78,3.81,1.18,5.83,1.18s3.98-.4,5.83-1.18c1.78-.75,3.38-1.83,4.76-3.21.17-.17.33-.34.49-.51.29-.32.57-.65.83-1,.26-.34.51-.7.74-1.06.44-.69.82-1.43,1.15-2.19.78-1.85,1.18-3.81,1.18-5.83s-.4-3.98-1.18-5.83ZM213.32,510.62c-2.19,3.47-6.06,5.77-10.47,5.77-2.74,0-5.27-.89-7.32-2.4-1.25-.92-2.32-2.06-3.14-3.37-1.21-1.91-1.91-4.18-1.91-6.61,0-4.25,2.14-8,5.4-10.23,1.99-1.36,4.39-2.15,6.98-2.15,6.84,0,12.38,5.54,12.38,12.38,0,2.43-.7,4.7-1.91,6.61Z"/><path class="cls-9" d="M106.11,515.29c-.68-.06-1.37-.13-2.06-.22-.78-.09-1.57-.2-2.37-.32,2.44,1.91,4.55,4.38,6.19,7.26.07-.07.14-.15.21-.22.02-.02.04-.04.06-.06.07-.07.13-.14.2-.2.08-.08.16-.16.24-.24.08-.08.16-.16.24-.23t0,0c.08-.08.16-.15.24-.23.01-.01.03-.02.04-.03.07-.06.13-.12.2-.18,0,0,.01-.01.02-.02.08-.07.16-.14.24-.21.08-.07.17-.14.25-.21-1.07-1.79-2.31-3.43-3.69-4.89ZM106.11,515.29c-.68-.06-1.37-.13-2.06-.22-.78-.09-1.57-.2-2.37-.32,2.44,1.91,4.55,4.38,6.19,7.26.07-.07.14-.15.21-.22.02-.02.04-.04.06-.06.07-.07.13-.14.2-.2.08-.08.16-.16.24-.24.08-.08.16-.16.24-.23t0,0c.08-.08.16-.15.24-.23.01-.01.03-.02.04-.03.07-.06.13-.12.2-.18,0,0,.01-.01.02-.02.08-.07.16-.14.24-.21.08-.07.17-.14.25-.21-1.07-1.79-2.31-3.43-3.69-4.89ZM111.06,522.51l-.2-.4c-.13-.27-.27-.53-.41-.79-.21-.39-.43-.77-.65-1.15-1.07-1.79-2.31-3.43-3.69-4.89-.48-.51-.98-.99-1.5-1.46-.61-.55-1.25-1.07-1.9-1.55-.12-.09-.25-.18-.37-.27-.29-.21-.59-.4-.88-.59-.06-.04-.13-.08-.19-.12,0,0-.01,0-.02-.01l-.88-.55-.2-.12c-.49.78-1.08,1.52-1.77,2.19-.43.43-.89.82-1.38,1.18-2.05,1.51-4.58,2.4-7.32,2.4-4.41,0-8.27-2.3-10.47-5.77l-1.08.67s-.01,0-.02.01c-.37.23-.73.47-1.08.72-3.57,2.51-6.53,6.04-8.61,10.28-2.16,4.4-3.29,9.39-3.29,14.44,0,.84.4,1.62,1.09,2.13.15.11.31.21.5.3.18.08.38.17.63.26.4.14.93.3,1.58.47,1.44.39,3.28.8,5.17,1.16,3.76.71,9.52,1.56,15.58,1.56,3.85,0,7.7-.32,12.38-1.02h0c.31-.05.62-.09.93-.14l1.26-.2.86-.13.03-.96c-.7-.19-1.15-.35-1.28-.43l.02-.8c.16-5.58,2.21-10.98,5.61-14.81l.58-.66-.02-.03c.31-.32.64-.63.98-.93ZM108.55,523.27c-3.64,4.09-5.77,9.72-5.94,15.63-.02,0-.03,0-.05,0-.43.07-.87.13-1.3.2-3.84.57-7.57.93-11.56.93-10.98,0-21.96-2.95-21.96-3.29,0-8.86,3.83-17.75,10.89-22.66.29-.2.59-.4.9-.59h0c2.76,2.96,6.47,4.43,10.17,4.43,3.35,0,6.69-1.2,9.33-3.59.29-.26.57-.54.85-.83.3.19.6.39.9.59.31.22.61.44.91.67,2.44,1.91,4.55,4.38,6.19,7.26.23.4.44.8.65,1.21,0,.02.02.03.03.05Z"/><path class="cls-9" d="M103.69,498.67c-.7-1.84-1.75-3.51-3.12-4.95-.04-.05-.09-.09-.13-.14-.3-.31-.62-.61-.94-.89-.33-.29-.67-.56-1.02-.81-.88-.64-1.82-1.18-2.83-1.61-1.88-.82-3.89-1.23-5.95-1.23s-3.98.4-5.83,1.18c-1.78.75-3.38,1.83-4.76,3.21-1.37,1.37-2.45,2.97-3.21,4.76-.78,1.85-1.18,3.81-1.18,5.83s.4,3.98,1.18,5.83c.32.76.71,1.5,1.15,2.19.23.36.48.72.74,1.06.26.34.54.68.83,1,.16.17.32.34.49.51,1.37,1.37,2.97,2.45,4.76,3.21,1.85.78,3.81,1.18,5.83,1.18s3.95-.39,5.79-1.16c1.77-.74,3.36-1.81,4.74-3.16.04-.04.08-.08.11-.11.15-.15.29-.3.43-.46.2-.22.4-.45.59-.69.08-.1.16-.2.24-.31.22-.28.42-.57.62-.87.04-.06.08-.13.12-.19,1.47-2.31,2.28-4.98,2.32-7.78.03-1.91-.3-3.79-.98-5.57ZM89.7,491.63c2.54,0,4.95.77,6.98,2.15.73.5,1.4,1.07,2.02,1.72,3.96,4.18,4.45,10.43,1.48,15.12-.49.78-1.08,1.52-1.77,2.19-.43.43-.89.82-1.38,1.18-2.05,1.51-4.58,2.4-7.32,2.4-4.41,0-8.27-2.3-10.47-5.77-1.21-1.91-1.91-4.18-1.91-6.61,0-6.84,5.54-12.38,12.38-12.38Z"/><path class="cls-9" d="M127.96,520.96c-.22.17-.45.33-.69.49-1.68,1.09-3.59,1.63-5.5,1.63-2.57,0-5.14-.98-7.1-2.91-.35-.34-.67-.71-.96-1.09l-.03-.03-.9.57c-.06.04-.13.08-.19.12-.26-.35-.49-.71-.71-1.08-.36.23-.72.48-1.07.74-.34.25-.68.52-1.01.8.22.38.44.76.65,1.15.14.26.28.52.41.79l.2.4c.41-.37.84-.71,1.28-1.04.35-.26.71-.5,1.08-.74.01,0,.03-.02.04-.03,2.25,2.41,5.27,3.61,8.3,3.61,2.6,0,5.2-.89,7.3-2.66l-1.1-.7ZM139.32,527.26c-1.65-3.19-3.92-5.89-6.6-7.87-.35-.26-.7-.5-1.06-.73-.02-.01-.03-.02-.05-.03-.06-.04-.11-.07-.17-.11l-.88-.55-.05-.03c-.2.36-.43.71-.68,1.04l-.33.45-.38.4c-.38.4-.78.77-1.21,1.1-1.75,1.36-3.88,2.1-6.15,2.1h0c-2.82,0-5.43-1.14-7.35-3.2l-.7-.75c-.27-.35-.52-.73-.74-1.12l-.88.55c-.07.04-.14.09-.21.13-.36.23-.72.48-1.07.74-.34.25-.68.52-1.01.8-.08.07-.17.14-.25.21-.08.07-.16.14-.24.21,0,0-.01.01-.02.02-.07.06-.13.12-.2.18-.01.01-.03.02-.04.03-.08.07-.16.15-.24.23t0,0c-.08.08-.16.15-.24.23-.08.08-.16.16-.24.24-.07.07-.13.13-.2.2-.02.02-.04.04-.06.06-.07.07-.14.15-.21.22-1.53,1.64-2.84,3.55-3.88,5.67-1.71,3.49-2.65,7.42-2.74,11.42,0,.2,0,.39,0,.59,0,.08,0,.2.02.34.01.11.04.24.08.37.1.37.31.81.73,1.2h0c.2.18.44.35.74.5.16.08.34.15.57.23.25.09.56.18.93.29.13.04.26.07.4.11,1.19.32,2.7.66,4.25.95,3.09.59,7.83,1.28,12.81,1.28s9.71-.7,12.81-1.28c1.55-.29,3.07-.63,4.25-.95.14-.04.27-.07.4-.11.33-.09.62-.18.86-.27.02,0,.04-.01.06-.02.23-.08.41-.15.57-.23.52-.25.87-.58,1.1-.92.29-.42.4-.84.44-1.15,0-.04.01-.08.01-.12,0-.09.01-.16.01-.22,0-4.4-1.02-8.7-2.96-12.43ZM138.29,540.19c-2.86.79-9.69,2.19-16.52,2.19s-13.79-1.43-16.6-2.21c-.18-.05-.34-.1-.48-.14-.43-.13-.7-.23-.8-.29-.03-.02-.04-.03-.04-.04,0-6.05,2.18-12.08,6.24-16.25.31-.32.64-.63.98-.93.41-.37.84-.71,1.28-1.04.35-.26.71-.5,1.08-.74.01,0,.03-.02.04-.03,2.25,2.41,5.27,3.61,8.3,3.61,2.6,0,5.2-.89,7.3-2.66.34-.28.66-.59.97-.92.01-.01.02-.03.04-.04.02.01.03.02.05.03.37.23.73.48,1.08.74,5.1,3.77,8.5,10.52,8.5,18.22,0,.01-.02.03-.06.05-.11.06-.38.16-.79.28-.16.05-.35.1-.56.16ZM127.96,520.96c-.22.17-.45.33-.69.49-1.68,1.09-3.59,1.63-5.5,1.63-2.57,0-5.14-.98-7.1-2.91-.35-.34-.67-.71-.96-1.09l-.03-.03-.9.57c-.06.04-.13.08-.19.12-.26-.35-.49-.71-.71-1.08-.36.23-.72.48-1.07.74-.34.25-.68.52-1.01.8.22.38.44.76.65,1.15.14.26.28.52.41.79l.2.4c.41-.37.84-.71,1.28-1.04.35-.26.71-.5,1.08-.74.01,0,.03-.02.04-.03,2.25,2.41,5.27,3.61,8.3,3.61,2.6,0,5.2-.89,7.3-2.66l-1.1-.7ZM127.96,520.96c-.22.17-.45.33-.69.49-1.68,1.09-3.59,1.63-5.5,1.63-2.57,0-5.14-.98-7.1-2.91-.35-.34-.67-.71-.96-1.09l-.03-.03-.9.57c-.06.04-.13.08-.19.12-.26-.35-.49-.71-.71-1.08-.36.23-.72.48-1.07.74-.34.25-.68.52-1.01.8.22.38.44.76.65,1.15.14.26.28.52.41.79l.2.4c.41-.37.84-.71,1.28-1.04.35-.26.71-.5,1.08-.74.01,0,.03-.02.04-.03,2.25,2.41,5.27,3.61,8.3,3.61,2.6,0,5.2-.89,7.3-2.66l-1.1-.7Z"/><path class="cls-9" d="M134.38,511.52c-.04-.36-.1-.73-.17-1.09h0s0-.05-.01-.07c-.26-1.23-.69-2.4-1.29-3.49,0,0,0,0,0,0-.23-.42-.49-.84-.78-1.24-.12-.17-.24-.33-.37-.49-.14-.18-.29-.36-.44-.53-.42-.48-.88-.94-1.38-1.35-.54-.46-1.13-.87-1.74-1.23h0c-.18-.11-.36-.21-.54-.3-1.81-.95-3.85-1.45-5.9-1.45-1.78,0-3.51.36-5.12,1.08-1.56.69-2.95,1.67-4.12,2.92-1.17,1.25-2.07,2.69-2.66,4.28-.52,1.4-.78,2.86-.79,4.35,0,.1,0,.21,0,.31,0,.1,0,.2,0,.3,0,.02,0,.04,0,.06,0,.05,0,.1,0,.16,0,.05,0,.1,0,.15,0,.05,0,.1.01.15,0,.03,0,.07,0,.1,0,.02,0,.04,0,.06,0,.05.01.11.02.17,0,.05.01.1.02.15,0,.01,0,.02,0,.03,0,.05.01.1.02.14,0,.02,0,.03,0,.05,0,.02,0,.04,0,.06.03.18.06.36.09.53h0s0,0,0,0c0,.05.02.09.03.14,0,0,0,.02,0,.03.28,1.37.78,2.68,1.48,3.88.22.37.46.73.71,1.08.25.35.53.68.82,1,.17.18.34.36.51.54,1.2,1.19,2.61,2.11,4.17,2.74,1.51.61,3.11.92,4.75.92,2.46,0,4.85-.71,6.91-2.05.55-.36,1.07-.75,1.55-1.18.33-.29.64-.6.93-.92.01-.01.02-.03.04-.04.28-.31.54-.63.79-.96.01-.01.02-.03.03-.04.12-.17.24-.33.35-.5.13-.19.25-.38.36-.58.73-1.25,1.24-2.6,1.51-4.03.04-.21.08-.42.1-.63.07-.51.11-1.01.12-1.52h0c0-.06,0-.12,0-.17,0-.5-.03-1-.08-1.5ZM112,515.58c-.14-.52-.24-1.05-.29-1.59,0,0,0,0,0,0-.01-.13-.02-.26-.03-.4-.35-5.84,4.28-10.73,10.09-10.73,2.73,0,5.23,1.08,7.06,2.88,0,0,0,0,0,0,.43.43.83.89,1.19,1.39.48.67.86,1.39,1.15,2.13.53,1.34.76,2.75.69,4.14-.03.68-.13,1.35-.29,2.01-.22.89-.56,1.75-1.02,2.55-.21.38-.45.74-.71,1.09-.2.27-.41.52-.64.77-.37.41-.79.79-1.24,1.14-.22.17-.45.33-.69.49-1.68,1.09-3.59,1.63-5.5,1.63-2.57,0-5.14-.98-7.1-2.91-.35-.34-.67-.71-.96-1.09-.27-.35-.52-.73-.74-1.12-.42-.74-.75-1.54-.98-2.38ZM112.98,517.96c-.42-.74-.75-1.54-.98-2.38-.14-.52-.24-1.05-.29-1.59v.29s-1.27-.03-1.27-.03h-.05c-.41-.01-.83-.03-1.26-.05,0,.05.01.11.02.17,0,.05.01.1.02.15,0,.01,0,.02,0,.03,0,.05.01.1.02.14,0,.02,0,.03,0,.05,0,.02,0,.04,0,.06.03.18.06.36.09.53h0s0,0,0,0c0,.05.02.09.03.14,0,0,0,.02,0,.03.28,1.37.78,2.68,1.48,3.88.35-.26.7-.5,1.07-.74.21.37.45.73.71,1.08.06-.04.13-.08.19-.12l.9-.57.03.03c-.27-.35-.52-.73-.74-1.12Z"/><path class="cls-9" d="M191.29,539.11c-.08-4-1.03-7.94-2.74-11.43-1.04-2.12-2.35-4.03-3.87-5.67-.31-.33-.62-.65-.94-.96-.32-.3-.65-.6-.98-.88-.33-.27-.66-.54-1-.79-.35-.26-.71-.5-1.07-.74-.07-.05-.15-.09-.22-.14l-.88-.55c-.21.38-.45.74-.71,1.08-1.89,2.5-4.89,4.04-8.09,4.04-1.31,0-2.66-.26-3.97-.83-.82-.35-1.56-.79-2.22-1.3-.44-.34-.84-.71-1.21-1.1,0,0,0,0,0,0-.24-.26-.47-.53-.68-.81-.26-.35-.5-.71-.71-1.08l-.88.55c-.06.04-.11.07-.17.11-.02,0-.03.02-.04.03-.36.23-.72.48-1.07.74-2.68,1.98-4.95,4.68-6.6,7.87-1.93,3.74-2.96,8.04-2.96,12.43,0,.06,0,.13.01.22,0,.04,0,.08.01.12.04.31.15.73.44,1.15.23.34.58.67,1.1.92.16.08.34.15.57.23.02,0,.04.01.06.02h0c.24.08.53.17.86.27.13.04.26.07.4.11,1.19.32,2.7.66,4.25.95,3.09.59,7.83,1.28,12.81,1.28s9.71-.7,12.81-1.28c1.55-.29,3.07-.63,4.25-.95.14-.04.27-.07.4-.11.36-.1.67-.2.93-.29.23-.08.41-.15.57-.23.3-.14.54-.31.73-.49.41-.38.62-.82.73-1.2.04-.14.06-.27.08-.38.02-.14.02-.26.02-.34,0-.19,0-.39,0-.58ZM187.39,540.17c-2.81.78-9.71,2.21-16.6,2.21s-13.66-1.4-16.52-2.19h0c-.21-.06-.39-.11-.56-.16-.4-.12-.67-.22-.79-.28h0s-.06-.04-.06-.05c0-7.69,3.4-14.44,8.49-18.21.35-.26.71-.51,1.08-.74.02-.01.03-.02.05-.03.01.01.02.03.04.04h0c.31.33.63.63.97.92,2.1,1.77,4.7,2.65,7.3,2.65,3.03,0,6.06-1.2,8.3-3.61.02,0,.03.02.05.03.37.23.73.48,1.08.74.44.33.87.67,1.28,1.04.34.3.67.61.98.94,4.06,4.16,6.24,10.2,6.24,16.24,0,.01-.01.02-.04.04-.1.06-.37.17-.8.29-.14.04-.3.09-.48.14ZM181.75,519.39c-.35-.26-.71-.5-1.07-.74-.06.1-.11.19-.17.28-.03.04-.05.09-.08.13-.02.03-.04.06-.06.09-.02.03-.04.06-.06.09-.11.16-.22.32-.34.48-.07-.04-.13-.08-.2-.12l-.9-.57c-1.89,2.5-4.89,4.04-8.09,4.04-1.31,0-2.66-.26-3.97-.83-.82-.35-1.56-.79-2.22-1.3l-1.1.7c2.1,1.77,4.7,2.65,7.3,2.65,3.03,0,6.06-1.2,8.3-3.61.02,0,.03.02.05.03.37.23.73.48,1.08.74.44.33.87.67,1.28,1.04l.2-.39c.13-.27.27-.53.41-.79.21-.39.43-.77.65-1.15-.33-.27-.66-.54-1-.79Z"/><path class="cls-9" d="M182.48,508.03c-.64-1.51-1.55-2.87-2.72-4.03-1.17-1.17-2.52-2.08-4.03-2.72-1.57-.66-3.23-1-4.94-1-1.82,0-3.58.38-5.24,1.13-.41.19-.82.4-1.2.62-.61.36-1.2.77-1.74,1.23h0c-.43.37-.84.76-1.23,1.19-.05.05-.1.11-.14.16-.15.17-.3.35-.44.53-.43.54-.81,1.12-1.14,1.71,0,0,0,0,0,0h0c-.52.94-.91,1.94-1.18,2.99-.05.2-.09.39-.13.59h0s0,0,0,0c-.07.36-.13.72-.17,1.08-.06.5-.08,1-.08,1.51,0,.06,0,.11,0,.17,0,.37.03.73.07,1.1,0,.02,0,.03,0,.05,0,0,0,0,0,0,.01.12.03.23.04.35,0,0,0,0,0,.01,0,0,0,0,0,.01h0c.04.32.1.64.17.95.28,1.3.77,2.56,1.44,3.71.22.37.45.74.71,1.09.01.01.02.03.03.04.11.14.21.28.33.42.15.18.3.36.46.54.01.01.02.03.04.04.29.33.6.63.93.92,1.02.91,2.18,1.65,3.47,2.2,1.6.69,3.28,1.03,4.99,1.03s3.27-.32,4.81-.96c1.51-.62,2.87-1.51,4.04-2.64.2-.2.4-.4.58-.6.29-.32.57-.66.82-1,.26-.35.5-.71.71-1.08.71-1.2,1.21-2.51,1.48-3.88.09-.43.15-.86.19-1.3.04-.41.06-.82.06-1.23v-.06c0-1.69-.34-3.33-1-4.88ZM179.58,517.96c-.21.38-.45.74-.71,1.08-1.89,2.5-4.89,4.04-8.09,4.04-1.31,0-2.66-.26-3.97-.83-.82-.35-1.56-.79-2.22-1.3-.44-.34-.84-.71-1.21-1.1,0,0,0,0,0,0-.24-.26-.47-.53-.68-.81-.26-.35-.5-.71-.71-1.08-.45-.8-.79-1.66-1.01-2.55-.16-.66-.26-1.33-.29-2.01h0c-.06-1.39.16-2.8.69-4.14.43-1.09,1.07-2.14,1.92-3.08.14-.15.28-.3.43-.45,0,0,0,0,0,0,1.82-1.78,4.31-2.87,7.06-2.87,5.58,0,10.11,4.52,10.11,10.11,0,.35-.02.69-.05,1.03h0c-.05.54-.15,1.07-.28,1.58-.22.85-.56,1.65-.98,2.38Z"/><path class="cls-9" d="M239.51,541.32c0,.71-.58,1.29-1.29,1.29H54.34c-.71,0-1.29-.58-1.29-1.29s.58-1.29,1.29-1.29h50.35c.14.04.3.09.48.14,2.82.78,9.71,2.21,16.6,2.21s13.66-1.4,16.52-2.19c.21-.06.39-.11.56-.16h14.85c.16.05.35.1.56.16h0c2.86.79,9.69,2.19,16.52,2.19s13.79-1.43,16.6-2.21c.18-.05.34-.1.48-.14h50.35c.71,0,1.29.58,1.29,1.29Z"/><path class="cls-9" d="M49,542.61h-5.89c-.71,0-1.29-.58-1.29-1.29s.58-1.29,1.29-1.29h5.89c.71,0,1.29.58,1.29,1.29s-.58,1.29-1.29,1.29Z"/><path class="cls-9" d="M66.45,536.27h-5.89c-.71,0-1.29-.58-1.29-1.29s.58-1.29,1.29-1.29h5.89c.71,0,1.29.58,1.29,1.29s-.58,1.29-1.29,1.29Z"/><path class="cls-9" d="M55.22,536.27h-5.89c-.71,0-1.29-.58-1.29-1.29s.58-1.29,1.29-1.29h5.89c.71,0,1.29.58,1.29,1.29s-.58,1.29-1.29,1.29Z"/><path class="cls-9" d="M232,536.27h-5.89c-.71,0-1.29-.58-1.29-1.29s.58-1.29,1.29-1.29h5.89c.71,0,1.29.58,1.29,1.29s-.58,1.29-1.29,1.29Z"/><path class="cls-9" d="M243.23,536.27h-5.89c-.71,0-1.29-.58-1.29-1.29s.58-1.29,1.29-1.29h5.89c.71,0,1.29.58,1.29,1.29s-.58,1.29-1.29,1.29Z"/><path class="cls-9" d="M249.45,542.61h-5.89c-.71,0-1.29-.58-1.29-1.29s.58-1.29,1.29-1.29h5.89c.71,0,1.29.58,1.29,1.29s-.58,1.29-1.29,1.29Z"/></g></g></svg>