<?xml version="1.0" encoding="UTF-8"?><svg id="Layer_1" xmlns="http://www.w3.org/2000/svg" viewBox="0 0 1000 1000"><defs><style>.cls-1,.cls-2,.cls-3,.cls-4,.cls-5,.cls-6,.cls-7,.cls-8,.cls-9,.cls-10,.cls-11,.cls-12,.cls-13,.cls-14,.cls-15,.cls-16,.cls-17,.cls-18,.cls-19,.cls-20,.cls-21,.cls-22,.cls-23,.cls-24,.cls-25,.cls-26,.cls-27,.cls-28,.cls-29,.cls-30,.cls-31,.cls-32{fill-rule:evenodd;}.cls-1,.cls-33{fill:#15e9f4;}.cls-2{fill:#d7f7f7;}.cls-3{fill:#aceae5;}.cls-4{fill:#f09171;}.cls-5{fill:#6b6b6b;}.cls-6{fill:#09378c;}.cls-7{fill:#fbfdff;}.cls-34,.cls-11{fill:#fff;}.cls-8{fill:#f5fafd;}.cls-9{fill:#def9f8;}.cls-10{fill:#86bae4;}.cls-12{fill:#111;}.cls-13{fill:#212120;}.cls-35,.cls-15{fill:#f1f8fc;}.cls-14{fill:#828282;}.cls-16{fill:#e5e5e5;}.cls-17{fill:#080b11;}.cls-18{fill:#f4ae7c;}.cls-19{fill:#050505;}.cls-20{fill:#eaf3fb;}.cls-21{fill:#f0fcfb;}.cls-22{fill:#666;}.cls-36,.cls-25{fill:#bad9f2;}.cls-23{fill:#95c2e8;}.cls-37,.cls-28{fill:#a5cded;}.cls-24{fill:#8fefef;}.cls-27{fill:#b6c1c0;}.cls-29{fill:#515151;}.cls-30{fill:#06a0ed;}.cls-31{fill:#ed7d5b;}.cls-32{fill:#e6fffe;}</style></defs><path class="cls-20" d="M528.48,842.97c191.24,0,347.21-16.59,347.21-36.93s-155.97-36.93-347.21-36.93-347.21,16.59-347.21,36.93,155.97,36.93,347.21,36.93Z"/><path class="cls-8" d="M588.91,769.68c162.95,3.04,286.78,18.17,286.78,36.37,0,20.39-155.45,36.93-347.21,36.93-51.81,0-100.97-1.21-145.13-3.37,79.76-22.44,148.29-45.75,205.56-69.92Z"/><path class="cls-15" d="M539.27,173.64c112.57,0,115.56,66.36,187.55,61.74,109.18-6.98,203.35,56.31,203.35,137.44,0,9.74-1.37,19.25-3.98,28.42-17.37,61.13,14.37,82.55.17,133.76-28.71,103.41,3.81,46.73,3.81,128.14,0,76.19-41.83,125.28-146.19,130.24-75.63,3.59-172.24-15.66-288.79-20.07-69.32-2.62-119.46,20.59-181.21,20.59-128.69,0-224.18-97.34-173.2-185.46,24.78-42.82-42.66-72.85,5.14-157.13,17.57-30.78-17.13-42.12-18.9-89.29-3.94-104.98,137.31-165.98,259.48-127.24,28.79,9.13,55.82-61.14,152.79-61.14Z"/><path class="cls-24" d="M539.27,173.64c100.83,0,113.76,53.23,167.07,61.01-2.09,5.52-6.1,10.21-11.51,12.28h23.19c-5.41-2.06-9.41-6.74-11.51-12.25,6.17.89,12.86,1.18,20.31.7,106.06-6.78,197.95,52.75,203.11,130.53h-15.29c4.11,2.45,7.17,6.53,8.88,11.17,1.36-3.7,3.58-7.04,6.5-9.48.09,1.73.15,3.46.15,5.21,0,9.74-1.37,19.25-3.97,28.42-.96,3.38-1.76,6.63-2.44,9.78l-.24-.62c-2.32,6.31-7.13,11.56-13.68,13.14h11.83c-2.87,24.57,2.47,42.3,5.9,60.56h-17.68c6.25,1.74,10.85,6.87,13.1,12.99,1.18-3.21,3.01-6.15,5.38-8.47,2.28,13.78,3.04,28.21-2.01,46.39l-.32,1.16c-1.27-1.75-2.3-3.71-3.06-5.77-1.82,4.97-5.2,9.28-9.75,11.66h11.21c-10.23,37.95-11.23,52-8.81,60.55h-5.04c2.68,1.03,5.02,2.7,6.95,4.8,4.39,8.58,12.06,14.72,12.6,51.59-3.65-2.49-6.39-6.3-7.97-10.59-1.78,4.86-5.05,9.09-9.44,11.5h17.42c.01,1.06.02,2.13.02,3.24,0,21.36-3.28,40.59-10.32,57.32h-6.8c1.86,1.11,3.5,2.55,4.9,4.22-11.18,23.73-30.37,42.07-58.99,53.88h-25.72c3.71.89,6.86,2.96,9.32,5.74-16.8,4.94-36.26,8.02-58.59,9.08-24.95,1.19-52.19-.12-81.68-2.55,2.43-5.92,7.1-10.77,13.35-12.27h-27.37c6.22,1.5,10.88,6.32,13.32,12.21-59.71-4.96-128.62-14.52-206.41-17.46l-2.98-.1c-2.28-2.29-4.04-5.15-5.19-8.28-1.13,3.08-2.86,5.91-5.1,8.18-20.49.16-39.38,2.44-57.54,5.44h-26.06c2.58.62,4.89,1.81,6.88,3.41-30.16,5.66-59.12,11.93-91.23,11.93-15.94,0-31.36-1.5-46.07-4.28,2.55-5.36,7-9.66,12.81-11.06h-27.37c5.67,1.36,10.05,5.49,12.63,10.68-76.8-15.2-133.4-65.65-138.75-122.16,1.62-2.06,3.59-3.8,5.87-5.04h-6.21c-.71-17.65,3.61-35.81,13.89-53.58,12.6-21.78,1.35-40.25-6.46-64.23l.38-.21h-.45c-5.38-16.58-9.08-35.8-2.13-60.56h4.62c-1.46-.41-2.84-1-4.11-1.75,2.77-9.31,7.04-19.38,13.28-30.39,17.39-30.46-16.41-41.89-18.83-87.84h7.04c-2.97-1.78-5.4-4.4-7.15-7.47.68-44.14,27.32-80.04,67.07-103.36,2.11,2.23,3.76,4.96,4.85,7.93,2.07-5.62,6.11-10.4,11.6-12.5h-8.18c50.86-26.48,120.14-33.59,184.18-13.28,22.71,7.2,44.34-35.02,100.09-53.15-1.78,2.45-4.03,4.49-6.69,5.88h19.51c-3.2-1.67-5.82-4.31-7.73-7.45,13.73-3.95,29.45-6.42,47.61-6.42h0ZM551.69,189.47c4.55,2.38,7.93,6.7,9.76,11.67,1.82-4.97,5.21-9.29,9.76-11.67h-19.52ZM271.49,234.44c-2.07,5.62-6.11,10.4-11.6,12.49h23.19c-5.49-2.09-9.53-6.87-11.6-12.49h0ZM332.25,248.06c5.48,2.1,9.53,6.88,11.6,12.5,2.07-5.62,6.11-10.4,11.6-12.5h-23.19ZM404.87,246.93h23.19c-5.48-2.09-9.53-6.88-11.6-12.49-2.07,5.62-6.11,10.4-11.6,12.49h0ZM561.44,234.44c-2.07,5.62-6.12,10.4-11.6,12.49h23.2c-5.48-2.09-9.53-6.87-11.6-12.49h0ZM477.23,248.06c5.48,2.1,9.53,6.88,11.6,12.49,2.07-5.62,6.11-10.4,11.6-12.49h-23.19ZM622.2,248.06c5.49,2.1,9.53,6.88,11.6,12.5,2.07-5.62,6.11-10.4,11.6-12.5h-23.2ZM767.18,248.06c5.48,2.1,9.53,6.88,11.6,12.5,2.07-5.62,6.11-10.4,11.6-12.5h-23.19ZM189.42,305.36h18.89c-4.4-2.41-7.66-6.64-9.45-11.5-1.79,4.86-5.05,9.09-9.45,11.5h0ZM343.85,293.86c-1.79,4.86-5.05,9.09-9.45,11.5h18.9c-4.4-2.41-7.66-6.64-9.45-11.5h0ZM260.75,307.48c4.4,2.41,7.66,6.64,9.45,11.5,1.79-4.86,5.05-9.09,9.45-11.5h-18.89ZM405.73,307.48c4.4,2.41,7.66,6.64,9.45,11.5,1.79-4.86,5.05-9.09,9.45-11.5h-18.9ZM479.37,305.36h18.89c-4.4-2.41-7.66-6.64-9.45-11.5-1.79,4.86-5.05,9.09-9.45,11.5h0ZM633.8,293.86c-1.79,4.86-5.05,9.09-9.45,11.5h18.9c-4.4-2.41-7.66-6.64-9.45-11.5h0ZM550.7,307.48c4.4,2.41,7.66,6.64,9.45,11.5,1.79-4.86,5.05-9.09,9.45-11.5h-18.89ZM695.68,307.48c4.39,2.41,7.66,6.64,9.45,11.5,1.79-4.86,5.05-9.09,9.45-11.5h-18.9ZM769.33,305.36h18.9c-4.4-2.41-7.66-6.64-9.45-11.5-1.79,4.86-5.05,9.09-9.45,11.5h0ZM840.66,307.48c4.4,2.41,7.66,6.64,9.45,11.5,1.79-4.86,5.05-9.09,9.45-11.5h-18.9ZM270.2,352.29c-1.71,4.64-4.77,8.72-8.88,11.17h17.76c-4.11-2.46-7.17-6.53-8.88-11.17h0ZM189.76,365.92c4.11,2.45,7.17,6.53,8.88,11.17,1.71-4.65,4.77-8.72,8.88-11.17h-17.75ZM334.73,365.92c4.11,2.45,7.17,6.53,8.88,11.17,1.71-4.64,4.77-8.72,8.88-11.17h-17.76ZM406.3,363.46h17.76c-4.11-2.46-7.17-6.53-8.88-11.18-1.71,4.64-4.77,8.72-8.88,11.18h0ZM560.15,352.29c-1.71,4.64-4.77,8.72-8.88,11.17h17.76c-4.11-2.46-7.17-6.53-8.88-11.17h0ZM479.71,365.92c4.11,2.45,7.17,6.53,8.88,11.17,1.71-4.65,4.77-8.72,8.88-11.17h-17.76ZM624.69,365.92c4.11,2.45,7.17,6.53,8.88,11.17,1.71-4.65,4.77-8.72,8.88-11.17h-17.75ZM696.25,363.46h17.76c-4.11-2.46-7.17-6.53-8.88-11.17-1.71,4.64-4.77,8.72-8.88,11.17h0ZM850.1,352.29c-1.71,4.64-4.77,8.72-8.88,11.18h17.76c-4.11-2.46-7.17-6.53-8.88-11.18h0ZM769.66,365.92c4.11,2.45,7.17,6.53,8.88,11.17,1.71-4.65,4.77-8.72,8.88-11.17h-17.76ZM184.96,423.53h27.35c-6.54-1.58-11.35-6.83-13.67-13.14-2.32,6.31-7.13,11.56-13.67,13.14h0ZM343.61,410.4c-2.32,6.31-7.13,11.56-13.67,13.14h27.35c-6.54-1.58-11.35-6.83-13.67-13.14h0ZM254.94,424.02c6.54,1.58,11.36,6.83,13.67,13.14,2.32-6.31,7.13-11.56,13.67-13.14h-27.35ZM399.91,424.02c6.54,1.58,11.36,6.83,13.67,13.14,2.32-6.31,7.13-11.56,13.67-13.14h-27.35ZM474.91,423.53h27.35c-6.54-1.58-11.36-6.83-13.68-13.14-2.32,6.31-7.13,11.56-13.67,13.14h0ZM633.56,410.39c-2.32,6.31-7.13,11.56-13.67,13.14h27.35c-6.54-1.58-11.35-6.83-13.67-13.14h0ZM544.89,424.02c6.54,1.58,11.36,6.83,13.68,13.14,2.32-6.31,7.13-11.56,13.67-13.14h-27.35ZM689.86,424.02c6.54,1.58,11.36,6.83,13.67,13.14,2.32-6.31,7.13-11.56,13.67-13.14h-27.35ZM764.86,423.53h27.35c-6.54-1.58-11.36-6.83-13.68-13.14-2.32,6.31-7.13,11.56-13.67,13.14h0ZM834.84,424.02c6.54,1.58,11.36,6.83,13.68,13.14,2.32-6.31,7.13-11.56,13.67-13.14h-27.35ZM268.61,470.46c-2.25,6.12-6.85,11.25-13.1,12.99h26.19c-6.24-1.74-10.84-6.87-13.1-12.99h0ZM185,484.09c6.24,1.74,10.84,6.87,13.1,12.99,2.25-6.12,6.85-11.24,13.09-12.99h-26.19ZM329.97,484.09c6.25,1.74,10.85,6.87,13.1,12.99,2.25-6.12,6.85-11.25,13.1-12.99h-26.19ZM400.49,483.45h26.19c-6.24-1.74-10.84-6.87-13.1-12.99-2.25,6.12-6.85,11.25-13.1,12.99h0ZM558.56,470.47c-2.25,6.12-6.85,11.24-13.1,12.99h26.19c-6.24-1.74-10.84-6.87-13.1-12.99h0ZM474.95,484.09c6.25,1.74,10.85,6.87,13.1,12.99,2.25-6.12,6.85-11.25,13.1-12.99h-26.2ZM619.93,484.09c6.24,1.74,10.84,6.87,13.1,12.99,2.25-6.12,6.85-11.24,13.1-12.99h-26.19ZM690.44,483.45h26.19c-6.24-1.74-10.84-6.87-13.1-12.99-2.25,6.12-6.85,11.25-13.1,12.99h0ZM848.51,470.46c-2.25,6.12-6.85,11.25-13.1,12.99h26.2c-6.25-1.74-10.85-6.87-13.1-12.99h0ZM764.9,484.09c6.24,1.74,10.84,6.87,13.1,12.99,2.25-6.12,6.85-11.25,13.09-12.99h-26.19ZM188.34,542.05h19.52c-4.55-2.38-7.93-6.69-9.75-11.66-1.83,4.97-5.21,9.28-9.76,11.66h0ZM343.07,530.38c-1.83,4.97-5.2,9.29-9.75,11.67h19.51c-4.55-2.38-7.93-6.7-9.76-11.67h0ZM260.15,544.01c4.55,2.38,7.93,6.69,9.76,11.66,1.82-4.97,5.2-9.28,9.75-11.66h-19.51ZM405.13,544.01c4.55,2.38,7.92,6.69,9.75,11.66,1.83-4.97,5.2-9.28,9.75-11.66h-19.51ZM478.29,542.05h19.51c-4.55-2.38-7.93-6.69-9.76-11.66-1.82,4.97-5.2,9.28-9.76,11.66h0ZM633.03,530.39c-1.83,4.97-5.2,9.28-9.76,11.66h19.51c-4.55-2.38-7.93-6.69-9.76-11.66h0ZM550.1,544.01c4.55,2.38,7.93,6.7,9.75,11.67,1.83-4.97,5.21-9.29,9.76-11.67h-19.51ZM695.08,544.01c4.55,2.38,7.93,6.69,9.76,11.66,1.82-4.97,5.2-9.28,9.75-11.66h-19.51ZM768.24,542.05h19.51c-4.55-2.38-7.93-6.7-9.75-11.67-1.83,4.97-5.21,9.29-9.76,11.67h0ZM840.06,544.01c4.55,2.38,7.93,6.7,9.76,11.67,1.82-4.97,5.2-9.29,9.76-11.67h-19.51ZM269.9,588.98c-2.06,5.62-6.11,10.4-11.59,12.49h23.18c-5.48-2.09-9.53-6.87-11.59-12.49h0ZM185.69,602.6c5.48,2.1,9.53,6.88,11.59,12.49,2.07-5.61,6.11-10.39,11.59-12.49h-23.18ZM330.67,602.6c5.48,2.1,9.53,6.88,11.59,12.49,2.06-5.62,6.11-10.4,11.59-12.49h-23.18ZM403.29,601.47h23.18c-5.48-2.09-9.53-6.87-11.59-12.49-2.06,5.62-6.11,10.4-11.59,12.49h0ZM559.86,588.98c-2.07,5.61-6.11,10.4-11.59,12.49h23.18c-5.48-2.09-9.52-6.87-11.59-12.49h0ZM475.65,602.6c5.48,2.1,9.52,6.88,11.59,12.49,2.06-5.62,6.11-10.4,11.59-12.49h-23.18ZM620.62,602.6c5.48,2.1,9.53,6.88,11.59,12.49,2.07-5.61,6.11-10.39,11.59-12.49h-23.18ZM693.25,601.47h23.18c-5.48-2.09-9.53-6.87-11.59-12.49-2.06,5.62-6.11,10.4-11.59,12.49h0ZM849.81,588.98c-2.07,5.61-6.11,10.4-11.59,12.49h23.18c-5.48-2.09-9.53-6.87-11.59-12.49h0ZM765.6,602.6c5.48,2.1,9.53,6.88,11.59,12.49,2.06-5.62,6.11-10.4,11.59-12.49h-23.18ZM187.84,659.9h18.89c-4.39-2.41-7.66-6.64-9.44-11.5-1.78,4.86-5.05,9.09-9.44,11.5h0ZM342.26,648.4c-1.79,4.86-5.05,9.09-9.45,11.5h18.89c-4.39-2.41-7.66-6.64-9.44-11.5h0ZM259.17,662.02c4.4,2.41,7.66,6.64,9.45,11.5,1.79-4.86,5.05-9.09,9.44-11.5h-18.89ZM404.15,662.02c4.39,2.41,7.66,6.64,9.45,11.5,1.78-4.86,5.05-9.09,9.44-11.5h-18.89ZM477.79,659.9h18.89c-4.4-2.41-7.66-6.64-9.44-11.5-1.79,4.86-5.05,9.09-9.44,11.5h0ZM632.21,648.4c-1.78,4.86-5.05,9.09-9.44,11.5h18.89c-4.39-2.41-7.66-6.64-9.44-11.5h0ZM549.13,662.02c4.39,2.41,7.66,6.64,9.44,11.5,1.79-4.86,5.05-9.09,9.44-11.5h-18.89ZM694.1,662.02c4.4,2.41,7.66,6.64,9.45,11.5,1.78-4.86,5.05-9.09,9.44-11.5h-18.89ZM767.74,659.9h18.89c-4.39-2.41-7.66-6.64-9.44-11.5-1.79,4.86-5.05,9.09-9.45,11.5h0ZM839.08,662.02c4.39,2.41,7.65,6.64,9.44,11.5,1.79-4.85,5.05-9.09,9.44-11.5h-18.89ZM268.62,706.83c-1.71,4.64-4.77,8.72-8.88,11.17h17.77c-4.11-2.45-7.17-6.53-8.88-11.17h0ZM188.17,720.45c4.11,2.45,7.17,6.53,8.88,11.17,1.71-4.65,4.77-8.72,8.88-11.17h-17.76ZM333.14,720.45c4.11,2.45,7.17,6.53,8.88,11.18,1.71-4.64,4.77-8.72,8.88-11.18h-17.76ZM404.71,718h17.77c-4.11-2.45-7.17-6.53-8.88-11.17-1.71,4.64-4.77,8.72-8.88,11.17h0ZM558.57,706.83c-1.71,4.65-4.77,8.72-8.88,11.18h17.76c-4.11-2.45-7.17-6.53-8.88-11.18h0ZM478.12,720.45c4.11,2.45,7.17,6.53,8.88,11.17,1.71-4.65,4.77-8.72,8.88-11.17h-17.76ZM623.1,720.45c4.11,2.45,7.17,6.53,8.88,11.17,1.71-4.65,4.77-8.72,8.88-11.17h-17.76ZM694.66,718h17.77c-4.11-2.45-7.17-6.53-8.88-11.17-1.71,4.64-4.77,8.72-8.88,11.17h0ZM848.52,706.83c-1.71,4.64-4.77,8.72-8.88,11.17h17.76c-4.11-2.45-7.17-6.53-8.88-11.17h0ZM768.07,720.45c4.11,2.45,7.17,6.53,8.88,11.18,1.71-4.64,4.77-8.72,8.88-11.18h-17.76ZM342.02,764.93c-2.32,6.31-7.14,11.57-13.69,13.15h27.37c-6.55-1.58-11.37-6.83-13.69-13.15h0ZM631.98,764.93c-2.32,6.31-7.14,11.57-13.68,13.14h27.37c-6.55-1.58-11.36-6.83-13.69-13.14h0ZM763.27,778.07h27.37c-6.55-1.58-11.37-6.83-13.69-13.15-2.32,6.31-7.14,11.57-13.69,13.15Z"/><path class="cls-2" d="M539.27,173.64c25.67,0,45.64,3.46,62.03,8.73h-93.85c-3.28,0-6.27-1.61-8.48-4.23,11.93-2.82,25.28-4.51,40.3-4.51h0ZM629.46,194.6c26.41,14.57,43.2,32.45,69.79,38.71-2.12,4.57-6.11,7.66-10.65,7.66h-109.35c-6.75,0-12.27-6.81-12.27-15.16v-16.04c0-8.35,5.52-15.16,12.27-15.16h50.2ZM714.8,235.48c3.79.19,7.78.18,12.02-.1,24.92-1.59,49.05.48,71.46,5.59h-74.04c-3.78,0-7.18-2.14-9.44-5.49h0ZM838.24,254.02c26.07,11.38,48.16,27.3,64.15,46.37h-105.8c-6.75,0-12.27-6.81-12.27-15.16v-16.05c0-8.35,5.52-15.16,12.27-15.16h41.65ZM911.39,312.45c9.39,14.21,15.56,29.83,17.81,46.37h-61.28c-6.75,0-12.27-6.82-12.27-15.16v-16.05c0-8.35,5.52-15.16,12.27-15.16h43.47ZM929.9,380.21c-.19,2.58-.47,5.15-.84,7.69v-2.18c0-1.94.3-3.8.84-5.51h0ZM921.04,430.63c-1.04,17.97,2.21,32.29,5.11,46.37h-59.82c-6.75,0-12.27-6.82-12.27-15.16v-16.04c0-8.35,5.52-15.16,12.27-15.16h54.71ZM929.73,499.16c.68,7.84.58,16.11-1.01,25.32-.13-.89-.2-1.8-.2-2.73v-16.05c0-2.34.43-4.56,1.21-6.54h0ZM922.55,549.14c-6.36,24.53-8.36,37.87-8,46.37h-46.93c-6.75,0-12.27-6.82-12.27-15.16v-16.05c0-8.35,5.52-15.16,12.27-15.16h54.93ZM927.71,631.67c.88,4.41,1.58,9.77,2.01,16.39-1.27-2.39-2.01-5.23-2.01-8.28v-8.11h0ZM930.12,666.99c-.32,16.9-2.77,32.42-7.58,46.37h-56.2c-6.75,0-12.27-6.81-12.27-15.16v-16.05c0-8.35,5.52-15.16,12.27-15.16h63.79ZM914.28,731.78c-9.18,16.18-22.54,29.56-40.6,39.68h-78.91c-6.75,0-12.27-6.81-12.27-15.16v-16.05c0-8.35,5.52-15.16,12.27-15.16h109.35c4.22,0,7.95,2.66,10.16,6.69h0ZM834.21,786.54c-14.82,3.63-31.51,5.95-50.23,6.84-22.81,1.08-47.53.09-74.13-1.95,2.24-3.79,5.86-6.26,9.92-6.26h109.35c1.81,0,3.54.49,5.09,1.37h0ZM693.14,790.04c-15.93-1.41-32.5-3.11-49.69-4.88h40.7c3.55,0,6.75,1.88,9,4.88h0ZM388.35,785.16c-24.27,4.59-48.29,8.73-74.39,8.73-13.3,0-26.24-1.05-38.71-3.02,2.25-3.48,5.72-5.72,9.59-5.72h103.51ZM254.53,786.67c-1.92-.48-3.83-.98-5.72-1.51h.4c1.91,0,3.71.54,5.33,1.51h0ZM191.18,759.74c-15.53-9.97-28.77-21.71-39.14-34.65h27.19c6.75,0,12.27,6.81,12.27,15.16v16.05c0,1.18-.11,2.34-.32,3.44h0ZM143.62,713.36c-6.73-10.62-11.58-21.87-14.3-33.49.9-7.27,6.01-12.88,12.13-12.88h109.35c6.75,0,12.27,6.82,12.27,15.16v16.05c0,8.34-5.52,15.16-12.27,15.16h-107.18ZM126.87,654.93c.56-15.36,4.96-31.01,13.83-46.37h38.77c6.75,0,12.27,6.82,12.27,15.16v16.05c0,8.34-5.52,15.16-12.27,15.16h-52.6ZM145.71,595.51c2.82-14.53-3.28-28.32-9.03-44.37,1.79-1.27,3.86-1.99,6.07-1.99h109.35c6.75,0,12.27,6.81,12.27,15.16v16.05c0,8.35-5.52,15.16-12.27,15.16h-106.39ZM132.11,536.92c-3.62-13.25-5.53-28.28-1.75-46.37h49.92c6.75,0,12.27,6.82,12.27,15.16v16.05c0,8.35-5.52,15.16-12.27,15.16h-48.17ZM134.95,474.68c2.67-7.31,6.24-15.08,10.95-23.37,4.48-7.85,5.56-14.44,4.65-20.68h100.24c6.75,0,12.27,6.82,12.27,15.16v16.04c0,8.35-5.52,15.16-12.27,15.16h-109.35c-2.38,0-4.61-.85-6.5-2.32h0ZM145.82,416.93c-5.94-12.02-15.37-25.28-18.12-46.37h53.11c6.75,0,12.27,6.82,12.27,15.16v16.05c0,8.35-5.52,15.16-12.27,15.16h-34.99ZM130.77,328.99c1.24-4.5,2.77-8.89,4.57-13.15,2.11-2.11,4.79-3.38,7.71-3.38h109.34c6.75,0,12.27,6.81,12.27,15.16v16.05c0,8.34-5.52,15.16-12.27,15.16h-109.34c-6.76,0-12.27-6.82-12.27-15.16v-14.67h0ZM143.31,300.39c10.62-17.2,25.91-32,44.42-43.91,3.36,2.71,5.59,7.4,5.59,12.7v16.05c0,8.35-5.52,15.16-12.27,15.16h-37.74ZM217.45,240.97c15.08-6.31,31.4-11.07,48.47-14.09-.45,7.85-5.78,14.09-12.24,14.09h-36.23ZM277.03,225.18c35.3-4.6,73.21-1.88,109.44,9.6,7.77,2.46,15.42-.86,24.34-7.03-.78,7.44-5.95,13.22-12.17,13.22h-109.35c-6.75,0-12.27-6.81-12.27-15.16v-.63h0ZM422.01,219.36c9.68-7.57,21.04-16.67,35.28-24.76h86.34c6.75,0,12.27,6.82,12.27,15.16v16.04c0,8.35-5.52,15.16-12.27,15.16h-109.35c-6.75,0-12.27-6.81-12.27-15.16v-6.45h0ZM649.79,725.09h109.35c6.75,0,12.27,6.81,12.27,15.16v16.05c0,8.35-5.52,15.16-12.27,15.16h-109.35c-6.75,0-12.27-6.81-12.27-15.16v-16.05c0-8.35,5.52-15.16,12.27-15.16h0ZM504.81,725.09h109.35c6.75,0,12.27,6.81,12.27,15.16v16.05c0,8.35-5.52,15.16-12.27,15.16h-109.35c-6.75,0-12.27-6.81-12.27-15.16v-16.05c0-8.35,5.52-15.16,12.27-15.16h0ZM359.84,725.09h109.35c6.75,0,12.27,6.81,12.27,15.16v16.05c0,8.35-5.52,15.16-12.27,15.16h-109.35c-6.75,0-12.27-6.81-12.27-15.16v-16.05c0-8.35,5.52-15.16,12.27-15.16h0ZM214.86,725.09h109.35c6.75,0,12.27,6.81,12.27,15.16v16.05c0,8.35-5.52,15.16-12.27,15.16h-109.35c-6.75,0-12.27-6.81-12.27-15.16v-16.05c0-8.35,5.52-15.16,12.27-15.16h0ZM721.36,666.99h109.34c6.76,0,12.27,6.82,12.27,15.16v16.05c0,8.34-5.52,15.16-12.27,15.16h-109.34c-6.75,0-12.27-6.81-12.27-15.16v-16.05c0-8.35,5.52-15.16,12.27-15.16h0ZM576.38,666.99h109.35c6.75,0,12.27,6.82,12.27,15.16v16.05c0,8.34-5.52,15.16-12.27,15.16h-109.35c-6.75,0-12.27-6.81-12.27-15.16v-16.05c0-8.35,5.52-15.16,12.27-15.16h0ZM431.41,666.99h109.35c6.75,0,12.27,6.82,12.27,15.16v16.05c0,8.34-5.52,15.16-12.27,15.16h-109.35c-6.75,0-12.27-6.81-12.27-15.16v-16.05c0-8.35,5.52-15.16,12.27-15.16h0ZM286.43,666.99h109.34c6.75,0,12.27,6.82,12.27,15.16v16.05c0,8.34-5.52,15.16-12.27,15.16h-109.34c-6.75,0-12.27-6.81-12.27-15.16v-16.05c0-8.35,5.52-15.16,12.27-15.16h0ZM795,608.56h109.35c6.75,0,12.27,6.82,12.27,15.16v16.05c0,8.34-5.52,15.16-12.27,15.16h-109.35c-6.75,0-12.27-6.82-12.27-15.16v-16.05c0-8.35,5.52-15.16,12.27-15.16h0ZM650.03,608.56h109.35c6.75,0,12.27,6.82,12.27,15.16v16.05c0,8.34-5.52,15.16-12.27,15.16h-109.35c-6.75,0-12.27-6.82-12.27-15.16v-16.05c0-8.35,5.52-15.16,12.27-15.16h0ZM505.05,608.56h109.35c6.75,0,12.27,6.82,12.27,15.16v16.05c0,8.34-5.52,15.16-12.27,15.16h-109.35c-6.75,0-12.27-6.82-12.27-15.16v-16.05c0-8.35,5.52-15.16,12.27-15.16h0ZM360.08,608.56h109.35c6.75,0,12.27,6.82,12.27,15.16v16.05c0,8.34-5.52,15.16-12.27,15.16h-109.35c-6.75,0-12.27-6.82-12.27-15.16v-16.05c0-8.35,5.52-15.16,12.27-15.16h0ZM215.1,608.56h109.35c6.75,0,12.27,6.82,12.27,15.16v16.05c0,8.34-5.52,15.16-12.27,15.16h-109.35c-6.75,0-12.27-6.82-12.27-15.16v-16.05c0-8.35,5.52-15.16,12.27-15.16h0ZM722.65,549.14h109.35c6.75,0,12.27,6.81,12.27,15.16v16.05c0,8.35-5.52,15.16-12.27,15.16h-109.35c-6.75,0-12.27-6.82-12.27-15.16v-16.05c0-8.35,5.52-15.16,12.27-15.16h0ZM577.67,549.14h109.35c6.75,0,12.27,6.81,12.27,15.16v16.05c0,8.35-5.52,15.16-12.27,15.16h-109.35c-6.75,0-12.27-6.82-12.27-15.16v-16.05c0-8.35,5.52-15.16,12.27-15.16h0ZM432.7,549.14h109.35c6.75,0,12.27,6.81,12.27,15.16v16.05c0,8.35-5.52,15.16-12.27,15.16h-109.35c-6.75,0-12.27-6.82-12.27-15.16v-16.05c0-8.35,5.52-15.16,12.27-15.16h0ZM287.72,549.14h109.35c6.75,0,12.27,6.81,12.27,15.16v16.05c0,8.35-5.52,15.16-12.27,15.16h-109.35c-6.75,0-12.27-6.82-12.27-15.16v-16.05c0-8.35,5.52-15.16,12.27-15.16h0ZM795.82,490.55h109.35c6.75,0,12.27,6.82,12.27,15.16v16.05c0,8.35-5.52,15.16-12.27,15.16h-109.35c-6.75,0-12.27-6.81-12.27-15.16v-16.05c0-8.34,5.52-15.16,12.27-15.16h0ZM650.84,490.55h109.35c6.75,0,12.27,6.82,12.27,15.16v16.05c0,8.35-5.52,15.16-12.27,15.16h-109.35c-6.75,0-12.27-6.81-12.27-15.16v-16.05c0-8.34,5.52-15.16,12.27-15.16h0ZM505.86,490.55h109.35c6.75,0,12.27,6.82,12.27,15.16v16.05c0,8.35-5.52,15.16-12.27,15.16h-109.35c-6.75,0-12.27-6.81-12.27-15.16v-16.05c0-8.34,5.52-15.16,12.27-15.16h0ZM360.89,490.55h109.35c6.75,0,12.27,6.82,12.27,15.16v16.05c0,8.35-5.52,15.16-12.27,15.16h-109.35c-6.75,0-12.27-6.81-12.27-15.16v-16.05c0-8.34,5.52-15.16,12.27-15.16h0ZM215.91,490.55h109.35c6.75,0,12.27,6.82,12.27,15.16v16.05c0,8.35-5.52,15.16-12.27,15.16h-109.35c-6.75,0-12.27-6.81-12.27-15.16v-16.05c0-8.34,5.52-15.16,12.27-15.16h0ZM721.35,430.63h109.35c6.75,0,12.27,6.82,12.27,15.16v16.04c0,8.35-5.52,15.16-12.27,15.16h-109.35c-6.75,0-12.27-6.82-12.27-15.16v-16.04c0-8.35,5.52-15.16,12.27-15.16h0ZM576.38,430.63h109.35c6.75,0,12.27,6.82,12.27,15.16v16.04c0,8.35-5.52,15.16-12.27,15.16h-109.35c-6.75,0-12.27-6.82-12.27-15.16v-16.04c0-8.35,5.52-15.16,12.27-15.16h0ZM431.4,430.63h109.34c6.75,0,12.27,6.82,12.27,15.16v16.04c0,8.35-5.52,15.16-12.27,15.16h-109.34c-6.75,0-12.27-6.82-12.27-15.16v-16.04c0-8.35,5.52-15.16,12.27-15.16h0ZM286.43,430.63h109.35c6.75,0,12.27,6.82,12.27,15.16v16.04c0,8.35-5.52,15.16-12.27,15.16h-109.35c-6.75,0-12.27-6.82-12.27-15.16v-16.04c0-8.35,5.52-15.16,12.27-15.16h0ZM796.35,370.55h109.34c6.75,0,12.27,6.82,12.27,15.16v16.05c0,8.35-5.52,15.16-12.27,15.16h-109.34c-6.75,0-12.27-6.82-12.27-15.16v-16.05c0-8.34,5.52-15.16,12.27-15.16h0ZM651.38,370.55h109.35c6.75,0,12.27,6.82,12.27,15.16v16.05c0,8.35-5.52,15.16-12.27,15.16h-109.35c-6.75,0-12.27-6.82-12.27-15.16v-16.05c0-8.34,5.52-15.16,12.27-15.16h0ZM506.4,370.55h109.35c6.75,0,12.27,6.82,12.27,15.16v16.05c0,8.35-5.52,15.16-12.27,15.16h-109.35c-6.75,0-12.27-6.82-12.27-15.16v-16.05c0-8.34,5.52-15.16,12.27-15.16h0ZM361.42,370.55h109.35c6.75,0,12.27,6.82,12.27,15.16v16.05c0,8.35-5.52,15.16-12.27,15.16h-109.35c-6.75,0-12.27-6.82-12.27-15.16v-16.05c0-8.34,5.52-15.16,12.27-15.16h0ZM216.45,370.55h109.35c6.75,0,12.27,6.82,12.27,15.16v16.05c0,8.35-5.52,15.16-12.27,15.16h-109.35c-6.75,0-12.27-6.82-12.27-15.16v-16.05c0-8.34,5.52-15.16,12.27-15.16h0ZM722.94,312.45h109.35c6.75,0,12.27,6.81,12.27,15.16v16.05c0,8.34-5.52,15.16-12.27,15.16h-109.35c-6.75,0-12.27-6.82-12.27-15.16v-16.05c0-8.35,5.52-15.16,12.27-15.16h0ZM577.97,312.45h109.34c6.75,0,12.27,6.81,12.27,15.16v16.05c0,8.34-5.52,15.16-12.27,15.16h-109.34c-6.75,0-12.27-6.82-12.27-15.16v-16.05c0-8.35,5.52-15.16,12.27-15.16h0ZM432.99,312.45h109.35c6.75,0,12.27,6.81,12.27,15.16v16.05c0,8.34-5.52,15.16-12.27,15.16h-109.35c-6.75,0-12.27-6.82-12.27-15.16v-16.05c0-8.35,5.52-15.16,12.27-15.16h0ZM288.02,312.45h109.35c6.75,0,12.27,6.81,12.27,15.16v16.05c0,8.34-5.52,15.16-12.27,15.16h-109.35c-6.75,0-12.27-6.82-12.27-15.16v-16.05c0-8.35,5.52-15.16,12.27-15.16h0ZM651.61,254.02h109.35c6.75,0,12.27,6.82,12.27,15.16v16.05c0,8.35-5.52,15.16-12.27,15.16h-109.35c-6.75,0-12.27-6.81-12.27-15.16v-16.05c0-8.35,5.52-15.16,12.27-15.16h0ZM506.63,254.02h109.35c6.75,0,12.27,6.82,12.27,15.16v16.05c0,8.35-5.52,15.16-12.27,15.16h-109.35c-6.75,0-12.27-6.81-12.27-15.16v-16.05c0-8.35,5.52-15.16,12.27-15.16h0ZM361.66,254.02h109.35c6.75,0,12.27,6.82,12.27,15.16v16.05c0,8.35-5.52,15.16-12.27,15.16h-109.35c-6.75,0-12.27-6.81-12.27-15.16v-16.05c0-8.35,5.52-15.16,12.27-15.16h0ZM216.68,254.02h109.35c6.75,0,12.27,6.82,12.27,15.16v16.05c0,8.35-5.52,15.16-12.27,15.16h-109.35c-6.75,0-12.27-6.81-12.27-15.16v-16.05c0-8.35,5.52-15.16,12.27-15.16Z"/><path class="cls-24" d="M825.41,248.92c59.06,21.39,101.07,65.13,104.51,117h-15.29c4.11,2.45,7.17,6.53,8.88,11.17,1.36-3.7,3.58-7.04,6.5-9.48.09,1.73.15,3.46.15,5.21,0,9.74-1.37,19.25-3.97,28.42-.96,3.38-1.76,6.63-2.44,9.78l-.24-.62c-2.32,6.31-7.13,11.56-13.68,13.14h11.83c-2.87,24.57,2.47,42.3,5.9,60.56h-17.68c6.25,1.74,10.85,6.87,13.1,12.99,1.18-3.21,3.01-6.15,5.38-8.47,2.28,13.78,3.04,28.21-2.01,46.39l-.32,1.16c-1.27-1.75-2.3-3.71-3.06-5.77-1.82,4.97-5.2,9.28-9.75,11.66h11.21c-10.23,37.95-11.23,52-8.81,60.55h-5.04c2.68,1.03,5.02,2.7,6.95,4.8,4.39,8.58,12.06,14.72,12.6,51.59-3.65-2.49-6.39-6.3-7.97-10.59-1.78,4.86-5.05,9.09-9.44,11.5h17.42c.01,1.06.02,2.13.02,3.24,0,21.36-3.28,40.59-10.32,57.32h-6.8c1.86,1.11,3.5,2.55,4.9,4.22-11.18,23.73-30.37,42.07-58.99,53.88h-25.72c3.71.89,6.86,2.96,9.32,5.74-16.8,4.94-36.26,8.02-58.59,9.08-24.95,1.19-52.19-.12-81.68-2.55,2.43-5.92,7.1-10.77,13.35-12.27h-27.37c6.22,1.5,10.88,6.32,13.32,12.21-59.71-4.96-128.62-14.52-206.41-17.46l-2.98-.1c-2.28-2.29-4.04-5.15-5.19-8.28-1.13,3.08-2.86,5.91-5.1,8.18-20.49.16-39.38,2.44-57.54,5.44h-26.06c2.58.62,4.89,1.81,6.88,3.41-30.16,5.66-59.12,11.93-91.23,11.93-15.94,0-31.36-1.5-46.07-4.28,2.55-5.36,7-9.66,12.81-11.06h-27.37c5.67,1.36,10.05,5.49,12.63,10.68-76.8-15.2-133.4-65.65-138.75-122.16,1.62-2.06,3.59-3.8,5.87-5.04h-6.21c-.07-1.73-.09-3.46-.06-5.2,67.68-87.74,122.07-145.6,253.71-154.5,35.6-2.41,69.95-6.64,102.87-12.98,2.02,2.19,3.6,4.85,4.66,7.73,1.49-4.05,4.01-7.67,7.36-10.16,143.88-30.25,259.32-102,330.01-238h0ZM840.66,307.48c4.4,2.41,7.66,6.64,9.45,11.5,1.79-4.86,5.05-9.09,9.45-11.5h-18.9ZM850.1,352.29c-1.71,4.64-4.77,8.72-8.88,11.18h17.76c-4.11-2.46-7.17-6.53-8.88-11.18h0ZM769.66,365.92c4.11,2.45,7.17,6.53,8.88,11.17,1.71-4.65,4.77-8.72,8.88-11.17h-17.76ZM689.86,424.02c6.54,1.58,11.36,6.83,13.67,13.14,2.32-6.31,7.13-11.56,13.67-13.14h-27.35ZM764.86,423.53h27.35c-6.54-1.58-11.36-6.83-13.68-13.14-2.32,6.31-7.13,11.56-13.67,13.14h0ZM834.84,424.02c6.54,1.58,11.36,6.83,13.68,13.14,2.32-6.31,7.13-11.56,13.67-13.14h-27.35ZM558.56,470.47c-2.25,6.12-6.85,11.24-13.1,12.99h26.19c-6.24-1.74-10.84-6.87-13.1-12.99h0ZM619.93,484.09c6.24,1.74,10.84,6.87,13.1,12.99,2.25-6.12,6.85-11.24,13.1-12.99h-26.19ZM690.44,483.45h26.19c-6.24-1.74-10.84-6.87-13.1-12.99-2.25,6.12-6.85,11.25-13.1,12.99h0ZM848.51,470.46c-2.25,6.12-6.85,11.25-13.1,12.99h26.2c-6.25-1.74-10.85-6.87-13.1-12.99h0ZM764.9,484.09c6.24,1.74,10.84,6.87,13.1,12.99,2.25-6.12,6.85-11.25,13.09-12.99h-26.19ZM343.07,530.38c-1.83,4.97-5.2,9.29-9.75,11.67h19.51c-4.55-2.38-7.93-6.7-9.76-11.67h0ZM260.15,544.01c4.55,2.38,7.93,6.69,9.76,11.66,1.82-4.97,5.2-9.28,9.75-11.66h-19.51ZM405.13,544.01c4.55,2.38,7.92,6.69,9.75,11.66,1.83-4.97,5.2-9.28,9.75-11.66h-19.51ZM478.29,542.05h19.51c-4.55-2.38-7.93-6.69-9.76-11.66-1.82,4.97-5.2,9.28-9.76,11.66h0ZM633.03,530.39c-1.83,4.97-5.2,9.28-9.76,11.66h19.51c-4.55-2.38-7.93-6.69-9.76-11.66h0ZM550.1,544.01c4.55,2.38,7.93,6.7,9.75,11.67,1.83-4.97,5.21-9.29,9.76-11.67h-19.51ZM695.08,544.01c4.55,2.38,7.93,6.69,9.76,11.66,1.82-4.97,5.2-9.28,9.75-11.66h-19.51ZM768.24,542.05h19.51c-4.55-2.38-7.93-6.7-9.75-11.67-1.83,4.97-5.21,9.29-9.76,11.67h0ZM840.06,544.01c4.55,2.38,7.93,6.7,9.76,11.67,1.82-4.97,5.2-9.29,9.76-11.67h-19.51ZM269.9,588.98c-2.06,5.62-6.11,10.4-11.59,12.49h23.18c-5.48-2.09-9.53-6.87-11.59-12.49h0ZM185.69,602.6c5.48,2.1,9.53,6.88,11.59,12.49,2.07-5.61,6.11-10.39,11.59-12.49h-23.18ZM330.67,602.6c5.48,2.1,9.53,6.88,11.59,12.49,2.06-5.62,6.11-10.4,11.59-12.49h-23.18ZM403.29,601.47h23.18c-5.48-2.09-9.53-6.87-11.59-12.49-2.06,5.62-6.11,10.4-11.59,12.49h0ZM559.86,588.98c-2.07,5.61-6.11,10.4-11.59,12.49h23.18c-5.48-2.09-9.52-6.87-11.59-12.49h0ZM475.65,602.6c5.48,2.1,9.52,6.88,11.59,12.49,2.06-5.62,6.11-10.4,11.59-12.49h-23.18ZM620.62,602.6c5.48,2.1,9.53,6.88,11.59,12.49,2.07-5.61,6.11-10.39,11.59-12.49h-23.18ZM693.25,601.47h23.18c-5.48-2.09-9.53-6.87-11.59-12.49-2.06,5.62-6.11,10.4-11.59,12.49h0ZM849.81,588.98c-2.07,5.61-6.11,10.4-11.59,12.49h23.18c-5.48-2.09-9.53-6.87-11.59-12.49h0ZM765.6,602.6c5.48,2.1,9.53,6.88,11.59,12.49,2.06-5.62,6.11-10.4,11.59-12.49h-23.18ZM187.84,659.9h18.89c-4.39-2.41-7.66-6.64-9.44-11.5-1.78,4.86-5.05,9.09-9.44,11.5h0ZM342.26,648.4c-1.79,4.86-5.05,9.09-9.45,11.5h18.89c-4.39-2.41-7.66-6.64-9.44-11.5h0ZM259.17,662.02c4.4,2.41,7.66,6.64,9.45,11.5,1.79-4.86,5.05-9.09,9.44-11.5h-18.89ZM404.15,662.02c4.39,2.41,7.66,6.64,9.45,11.5,1.78-4.86,5.05-9.09,9.44-11.5h-18.89ZM477.79,659.9h18.89c-4.4-2.41-7.66-6.64-9.44-11.5-1.79,4.86-5.05,9.09-9.44,11.5h0ZM632.21,648.4c-1.78,4.86-5.05,9.09-9.44,11.5h18.89c-4.39-2.41-7.66-6.64-9.44-11.5h0ZM549.13,662.02c4.39,2.41,7.66,6.64,9.44,11.5,1.79-4.86,5.05-9.09,9.44-11.5h-18.89ZM694.1,662.02c4.4,2.41,7.66,6.64,9.45,11.5,1.78-4.86,5.05-9.09,9.44-11.5h-18.89ZM767.74,659.9h18.89c-4.39-2.41-7.66-6.64-9.44-11.5-1.79,4.86-5.05,9.09-9.45,11.5h0ZM839.08,662.02c4.39,2.41,7.65,6.64,9.44,11.5,1.79-4.85,5.05-9.09,9.44-11.5h-18.89ZM268.62,706.83c-1.71,4.64-4.77,8.72-8.88,11.17h17.77c-4.11-2.45-7.17-6.53-8.88-11.17h0ZM188.17,720.45c4.11,2.45,7.17,6.53,8.88,11.17,1.71-4.65,4.77-8.72,8.88-11.17h-17.76ZM333.14,720.45c4.11,2.45,7.17,6.53,8.88,11.18,1.71-4.64,4.77-8.72,8.88-11.18h-17.76ZM404.71,718h17.77c-4.11-2.45-7.17-6.53-8.88-11.17-1.71,4.64-4.77,8.72-8.88,11.17h0ZM558.57,706.83c-1.71,4.65-4.77,8.72-8.88,11.18h17.76c-4.11-2.45-7.17-6.53-8.88-11.18h0ZM478.12,720.45c4.11,2.45,7.17,6.53,8.88,11.17,1.71-4.65,4.77-8.72,8.88-11.17h-17.76ZM623.1,720.45c4.11,2.45,7.17,6.53,8.88,11.17,1.71-4.65,4.77-8.72,8.88-11.17h-17.76ZM694.66,718h17.77c-4.11-2.45-7.17-6.53-8.88-11.17-1.71,4.64-4.77,8.72-8.88,11.17h0ZM848.52,706.83c-1.71,4.64-4.77,8.72-8.88,11.17h17.76c-4.11-2.45-7.17-6.53-8.88-11.17h0ZM768.07,720.45c4.11,2.45,7.17,6.53,8.88,11.18,1.71-4.64,4.77-8.72,8.88-11.18h-17.76ZM342.02,764.93c-2.32,6.31-7.14,11.57-13.69,13.15h27.37c-6.55-1.58-11.37-6.83-13.69-13.15h0ZM631.98,764.93c-2.32,6.31-7.14,11.57-13.68,13.14h27.37c-6.55-1.58-11.36-6.83-13.69-13.14h0ZM763.27,778.07h27.37c-6.55-1.58-11.37-6.83-13.69-13.15-2.32,6.31-7.14,11.57-13.69,13.15Z"/><path class="cls-2" d="M822.7,254.02c-8.72,16.31-18.1,31.69-28.1,46.17.65.13,1.31.2,1.99.2h105.8c-15.99-19.07-38.08-34.99-64.15-46.37h-15.54ZM785.82,312.45c-12.41,16.71-25.7,32.14-39.84,46.37h86.3c6.75,0,12.27-6.82,12.27-15.16v-16.05c0-8.35-5.52-15.16-12.27-15.16h-46.47ZM733.85,370.55c-18.7,17.36-38.74,32.76-60.03,46.37h86.9c6.75,0,12.27-6.82,12.27-15.16v-16.05c0-8.34-5.52-15.16-12.27-15.16h-26.87ZM650.89,430.63c-26.85,14.98-55.47,27.39-85.67,37.5,1.94,5.23,6.22,8.87,11.16,8.87h109.35c6.75,0,12.27-6.82,12.27-15.16v-16.04c0-8.35-5.52-15.16-12.27-15.16h-34.83ZM548.68,473.38c-4.12,1.24-8.26,2.46-12.44,3.62h4.5c3.02,0,5.8-1.36,7.94-3.62h0ZM473.66,491.15c-29.94,5.35-61.04,9.01-93.14,11.18-11.18.76-21.78,1.88-31.9,3.33v16.1c0,8.35,5.52,15.16,12.27,15.16h109.35c6.75,0,12.27-6.81,12.27-15.16v-16.05c0-6.88-3.75-12.71-8.85-14.55h0ZM337.53,507.4c-33.93,5.92-62.04,15.93-86.66,29.51h74.39c6.75,0,12.27-6.81,12.27-15.16v-14.35h0ZM230.96,549.14c-19.26,13.1-36.51,28.66-53.14,46.37h74.27c6.75,0,12.27-6.82,12.27-15.16v-16.05c0-8.35-5.52-15.16-12.27-15.16h-21.13ZM165.99,608.56c-12.53,14.29-24.9,29.79-37.72,46.37h51.2c6.75,0,12.27-6.82,12.27-15.16v-16.05c0-8.35-5.52-15.16-12.27-15.16h-13.48ZM911.39,312.45c9.39,14.21,15.56,29.83,17.81,46.37h-61.28c-6.75,0-12.27-6.82-12.27-15.16v-16.05c0-8.35,5.52-15.16,12.27-15.16h43.47ZM929.9,380.21c-.19,2.58-.47,5.15-.84,7.69v-2.18c0-1.94.3-3.8.84-5.51h0ZM921.04,430.63c-1.04,17.97,2.21,32.29,5.11,46.37h-59.82c-6.75,0-12.27-6.82-12.27-15.16v-16.04c0-8.35,5.52-15.16,12.27-15.16h54.71ZM929.73,499.16c.68,7.84.58,16.11-1.01,25.32-.13-.89-.2-1.8-.2-2.73v-16.05c0-2.34.43-4.56,1.21-6.54h0ZM922.55,549.14c-6.36,24.53-8.36,37.87-8,46.37h-46.93c-6.75,0-12.27-6.82-12.27-15.16v-16.05c0-8.35,5.52-15.16,12.27-15.16h54.93ZM927.71,631.67c.88,4.41,1.58,9.77,2.01,16.39-1.27-2.39-2.01-5.23-2.01-8.28v-8.11h0ZM930.12,666.99c-.32,16.9-2.77,32.42-7.58,46.37h-56.2c-6.75,0-12.27-6.81-12.27-15.16v-16.05c0-8.35,5.52-15.16,12.27-15.16h63.79ZM914.28,731.78c-9.18,16.18-22.54,29.56-40.6,39.68h-78.91c-6.75,0-12.27-6.81-12.27-15.16v-16.05c0-8.35,5.52-15.16,12.27-15.16h109.35c4.22,0,7.95,2.66,10.16,6.69h0ZM834.21,786.54c-14.82,3.63-31.51,5.95-50.23,6.84-22.81,1.08-47.53.09-74.13-1.95,2.24-3.79,5.86-6.26,9.92-6.26h109.35c1.81,0,3.54.49,5.09,1.37h0ZM693.14,790.04c-15.93-1.41-32.5-3.11-49.69-4.88h40.7c3.55,0,6.75,1.88,9,4.88h0ZM388.35,785.16c-24.27,4.59-48.29,8.73-74.39,8.73-13.3,0-26.24-1.05-38.71-3.02,2.25-3.48,5.72-5.72,9.59-5.72h103.51ZM254.53,786.67c-1.92-.48-3.83-.98-5.72-1.51h.4c1.91,0,3.71.54,5.33,1.51h0ZM191.18,759.74c-15.53-9.97-28.77-21.71-39.14-34.65h27.19c6.75,0,12.27,6.81,12.27,15.16v16.05c0,1.18-.11,2.34-.32,3.44h0ZM143.62,713.36c-6.73-10.62-11.58-21.87-14.3-33.49.9-7.27,6.01-12.88,12.13-12.88h109.35c6.75,0,12.27,6.82,12.27,15.16v16.05c0,8.34-5.52,15.16-12.27,15.16h-107.18ZM649.79,725.09h109.35c6.75,0,12.27,6.81,12.27,15.16v16.05c0,8.35-5.52,15.16-12.27,15.16h-109.35c-6.75,0-12.27-6.81-12.27-15.16v-16.05c0-8.35,5.52-15.16,12.27-15.16h0ZM504.81,725.09h109.35c6.75,0,12.27,6.81,12.27,15.16v16.05c0,8.35-5.52,15.16-12.27,15.16h-109.35c-6.75,0-12.27-6.81-12.27-15.16v-16.05c0-8.35,5.52-15.16,12.27-15.16h0ZM359.84,725.09h109.35c6.75,0,12.27,6.81,12.27,15.16v16.05c0,8.35-5.52,15.16-12.27,15.16h-109.35c-6.75,0-12.27-6.81-12.27-15.16v-16.05c0-8.35,5.52-15.16,12.27-15.16h0ZM214.86,725.09h109.35c6.75,0,12.27,6.81,12.27,15.16v16.05c0,8.35-5.52,15.16-12.27,15.16h-109.35c-6.75,0-12.27-6.81-12.27-15.16v-16.05c0-8.35,5.52-15.16,12.27-15.16h0ZM721.36,666.99h109.34c6.76,0,12.27,6.82,12.27,15.16v16.05c0,8.34-5.52,15.16-12.27,15.16h-109.34c-6.75,0-12.27-6.81-12.27-15.16v-16.05c0-8.35,5.52-15.16,12.27-15.16h0ZM576.38,666.99h109.35c6.75,0,12.27,6.82,12.27,15.16v16.05c0,8.34-5.52,15.16-12.27,15.16h-109.35c-6.75,0-12.27-6.81-12.27-15.16v-16.05c0-8.35,5.52-15.16,12.27-15.16h0ZM431.41,666.99h109.35c6.75,0,12.27,6.82,12.27,15.16v16.05c0,8.34-5.52,15.16-12.27,15.16h-109.35c-6.75,0-12.27-6.81-12.27-15.16v-16.05c0-8.35,5.52-15.16,12.27-15.16h0ZM286.43,666.99h109.34c6.75,0,12.27,6.82,12.27,15.16v16.05c0,8.34-5.52,15.16-12.27,15.16h-109.34c-6.75,0-12.27-6.81-12.27-15.16v-16.05c0-8.35,5.52-15.16,12.27-15.16h0ZM795,608.56h109.35c6.75,0,12.27,6.82,12.27,15.16v16.05c0,8.34-5.52,15.16-12.27,15.16h-109.35c-6.75,0-12.27-6.82-12.27-15.16v-16.05c0-8.35,5.52-15.16,12.27-15.16h0ZM650.03,608.56h109.35c6.75,0,12.27,6.82,12.27,15.16v16.05c0,8.34-5.52,15.16-12.27,15.16h-109.35c-6.75,0-12.27-6.82-12.27-15.16v-16.05c0-8.35,5.52-15.16,12.27-15.16h0ZM505.05,608.56h109.35c6.75,0,12.27,6.82,12.27,15.16v16.05c0,8.34-5.52,15.16-12.27,15.16h-109.35c-6.75,0-12.27-6.82-12.27-15.16v-16.05c0-8.35,5.52-15.16,12.27-15.16h0ZM360.08,608.56h109.35c6.75,0,12.27,6.82,12.27,15.16v16.05c0,8.34-5.52,15.16-12.27,15.16h-109.35c-6.75,0-12.27-6.82-12.27-15.16v-16.05c0-8.35,5.52-15.16,12.27-15.16h0ZM215.1,608.56h109.35c6.75,0,12.27,6.82,12.27,15.16v16.05c0,8.34-5.52,15.16-12.27,15.16h-109.35c-6.75,0-12.27-6.82-12.27-15.16v-16.05c0-8.35,5.52-15.16,12.27-15.16h0ZM722.65,549.14h109.35c6.75,0,12.27,6.81,12.27,15.16v16.05c0,8.35-5.52,15.16-12.27,15.16h-109.35c-6.75,0-12.27-6.82-12.27-15.16v-16.05c0-8.35,5.52-15.16,12.27-15.16h0ZM577.67,549.14h109.35c6.75,0,12.27,6.81,12.27,15.16v16.05c0,8.35-5.52,15.16-12.27,15.16h-109.35c-6.75,0-12.27-6.82-12.27-15.16v-16.05c0-8.35,5.52-15.16,12.27-15.16h0ZM432.7,549.14h109.35c6.75,0,12.27,6.81,12.27,15.16v16.05c0,8.35-5.52,15.16-12.27,15.16h-109.35c-6.75,0-12.27-6.82-12.27-15.16v-16.05c0-8.35,5.52-15.16,12.27-15.16h0ZM287.72,549.14h109.35c6.75,0,12.27,6.81,12.27,15.16v16.05c0,8.35-5.52,15.16-12.27,15.16h-109.35c-6.75,0-12.27-6.82-12.27-15.16v-16.05c0-8.35,5.52-15.16,12.27-15.16h0ZM795.82,490.55h109.35c6.75,0,12.27,6.82,12.27,15.16v16.05c0,8.35-5.52,15.16-12.27,15.16h-109.35c-6.75,0-12.27-6.81-12.27-15.16v-16.05c0-8.34,5.52-15.16,12.27-15.16h0ZM650.84,490.55h109.35c6.75,0,12.27,6.82,12.27,15.16v16.05c0,8.35-5.52,15.16-12.27,15.16h-109.35c-6.75,0-12.27-6.81-12.27-15.16v-16.05c0-8.34,5.52-15.16,12.27-15.16h0ZM505.86,490.55h109.35c6.75,0,12.27,6.82,12.27,15.16v16.05c0,8.35-5.52,15.16-12.27,15.16h-109.35c-6.75,0-12.27-6.81-12.27-15.16v-16.05c0-8.34,5.52-15.16,12.27-15.16h0ZM721.35,430.63h109.35c6.75,0,12.27,6.82,12.27,15.16v16.04c0,8.35-5.52,15.16-12.27,15.16h-109.35c-6.75,0-12.27-6.82-12.27-15.16v-16.04c0-8.35,5.52-15.16,12.27-15.16h0ZM796.35,370.55h109.34c6.75,0,12.27,6.82,12.27,15.16v16.05c0,8.35-5.52,15.16-12.27,15.16h-109.34c-6.75,0-12.27-6.82-12.27-15.16v-16.05c0-8.34,5.52-15.16,12.27-15.16Z"/><path class="cls-11" d="M840.92,402.44h0ZM479.99,775.25c-2.47,4.09-4.98,8.19-7.52,12.28,71.72,2.93,133.17,6.95,184.32,12.07,51.22,5.12,92.15,11.34,122.77,18.66,10.04-13.41,19.48-27.74,28.32-43.01,22.77-39.34,41.55-84.87,56.32-136.58,20.56-71.96,33.37-155.87,38.43-251.74-11.17-12.15-21.7-17-31.58-14.53-10.04,2.51-19.54,12.53-28.5,30.06-.23.45-.78.63-1.22.4-.19-.1-.33-.25-.41-.42-15.51-32.85-37.86-56.09-67.05-69.73-29.23-13.66-65.36-17.71-108.37-12.15h-.07c-6.6.32-15.83.91-27.68,1.76-11.55.83-25.64,1.93-42.25,3.29,8,75.2,1.73,151.33-18.82,228.38-19.45,72.92-51.68,146.67-96.68,221.24Z"/><path class="cls-1" d="M667.93,320.57c-6.61.31-15.83.9-27.68,1.76-11.55.83-25.64,1.93-42.25,3.29,8,75.2,1.72,151.33-18.82,228.38-20.51,76.92-55.25,154.77-104.21,233.52,71.72,2.93,133.17,6.95,184.32,12.07,51.22,5.12,92.15,11.34,122.77,18.66,35.92-47.95,64.13-107.82,84.64-179.59,20.56-71.96,33.37-155.87,38.43-251.74-11.17-12.15-21.7-17-31.58-14.53-10.04,2.51-19.54,12.53-28.5,30.06-.23.45-.78.63-1.22.4-.19-.1-.32-.25-.41-.42h0c-15.51-32.85-37.86-56.09-67.05-69.73-29.23-13.66-65.36-17.71-108.37-12.15h-.07ZM640.12,320.51c11.78-.85,21.01-1.44,27.7-1.76,43.34-5.59,79.78-1.49,109.32,12.31,29.1,13.59,51.48,36.58,67.14,68.95,8.97-17.02,18.59-26.82,28.83-29.38,10.65-2.66,21.86,2.45,33.62,15.35h0c.16.17.25.41.24.66-5.05,96.17-17.89,180.35-38.51,252.52-20.63,72.22-49.07,132.44-85.29,180.66-.21.28-.58.42-.94.34-30.6-7.36-71.64-13.61-123.11-18.76-51.48-5.15-113.39-9.19-185.73-12.12-.17,0-.34-.04-.49-.14-.43-.27-.56-.83-.29-1.25,49.3-79.06,84.24-157.18,104.82-234.35,20.57-77.14,26.8-153.35,18.68-228.61v-.07c-.05-.5.33-.94.83-.98,16.94-1.39,31.34-2.51,43.19-3.37Z"/><path class="cls-3" d="M761.1,325.7c42.79,37.56,65.36,73.32,67.69,107.25,4.79-15.25,8.51-28.4,11.16-39.44-18.2-33.92-44.49-56.52-78.85-67.82Z"/><path class="cls-32" d="M906.06,386.6c-39.21-57.84-103.31-76.88-203.76-69.35,21.7-.12,41.3,2.7,58.81,8.45,34.36,11.29,60.64,33.9,78.85,67.82,1.49,2.77,2.92,5.61,4.3,8.53,18.18-35.56,38.78-40.71,61.81-15.45Z"/><path class="cls-1" d="M899.3,378.81c-18.67-24.17-42.47-40.65-72.45-50.54-29.03-9.58-63.87-12.99-105.45-11.24,4.08.33,8.08.78,11.99,1.34,9.85,1.42,19.18,3.57,27.98,6.47,17.29,5.68,32.56,14.22,45.79,25.6,13.23,11.38,24.42,25.6,33.58,42.65.74,1.38,1.48,2.8,2.2,4.24.45.89.89,1.78,1.33,2.68,8.97-17.02,18.59-26.81,28.83-29.37,8.39-2.1,17.12.63,26.19,8.18h0ZM827.43,326.55c33.65,11.11,59.62,30.42,79.34,59.49.3.37.26.92-.1,1.24-.37.34-.95.31-1.29-.06-11.27-12.36-21.88-17.29-31.83-14.81-10.03,2.51-19.52,12.52-28.48,30.02-.09.19-.24.35-.44.44-.45.21-1,.02-1.21-.43-.68-1.45-1.38-2.88-2.09-4.29-.71-1.41-1.44-2.81-2.18-4.2-9.05-16.86-20.1-30.91-33.15-42.13-13.05-11.22-28.11-19.64-45.17-25.25-8.7-2.86-17.93-4.99-27.68-6.39-9.74-1.4-20-2.07-30.78-2.02h0c-.5.04-.94-.34-.98-.84-.04-.5.34-.94.84-.98,50.34-3.77,91.6-.88,125.2,10.21Z"/><path class="cls-1" d="M608.72,337.85c-.05-.56.36-1.05.92-1.1.56-.05,1.05.36,1.1.92,5.65,60.24,3.32,118.95-7.01,176.1-10.33,57.16-28.64,112.78-54.94,166.83-.25.5-.86.72-1.36.47-.5-.25-.72-.86-.47-1.36,26.22-53.9,44.48-109.33,54.77-166.3,10.29-56.98,12.62-115.5,6.98-175.56Z"/><path class="cls-1" d="M619.48,337.49c-.56.04-1.05-.39-1.08-.95-.04-.56.39-1.05.95-1.09,13.31-.89,25.62-1.76,36.91-2.58,11.2-.82,21.43-1.61,30.69-2.38.56-.05,1.06.37,1.1.93.04.56-.37,1.05-.93,1.1-9.13.75-19.37,1.54-30.71,2.38-11.24.82-23.55,1.69-36.92,2.59Z"/><path class="cls-1" d="M621.01,346.67c-.56.04-1.05-.39-1.08-.95-.04-.56.39-1.05.95-1.08,4.84-.32,9.55-.65,14.12-.96,4.49-.31,8.93-.62,13.3-.93.56-.04,1.05.38,1.09.94.04.56-.38,1.05-.94,1.09-4.23.3-8.66.61-13.3.93-4.57.32-9.28.64-14.12.96Z"/><path class="cls-1" d="M681.26,791.11c-.56-.06-.96-.56-.9-1.12.06-.56.56-.96,1.12-.9,21.17,2.29,39.42,4.74,54.75,7.32,15.01,2.53,27.24,5.21,36.68,8.03,8.1-9.28,15.1-18.13,20.97-26.55,5.97-8.56,10.8-16.69,14.48-24.37.24-.51.85-.72,1.35-.48.5.24.72.85.48,1.35-3.73,7.79-8.61,16.01-14.64,24.66-6.03,8.64-13.21,17.72-21.53,27.22l-.43.49-.63-.19c-9.42-2.86-21.78-5.58-37.05-8.16-15.29-2.58-33.5-5.02-54.63-7.3Z"/><path class="cls-14" d="M675.26,540.39l-22.65-1.19,8.21-41.15c.67-3.38-.15-5.13-2.47-5.25-2.43-.13-3.98,1.49-4.65,4.88l-28.81,144.33c-.67,3.38.2,5.13,2.63,5.26,2.32.12,3.82-1.51,4.5-4.93l10.29-51.54,22.65,1.19-10.59,53.08c-1.98,9.89-6.21,17.7-12.69,23.44-6.48,5.69-13.03,8.35-19.69,8-19.22-1.01-26.35-14.04-21.36-39.04l26.8-134.24c5.4-27.04,17.72-40.05,36.94-39.04,17.23.91,23.37,13.69,18.45,38.34l-7.56,37.87h0ZM660.5,640.61c-4.99,25,1.97,38.02,20.87,39.02,8.38.44,15.86-2.48,22.36-8.71,6.54-6.29,11.02-15.49,13.44-27.62l26.8-134.24c5.36-26.84-1.35-40.75-20.09-41.74-19.01-1-31.19,12.02-36.59,39.06l-26.8,134.24h0ZM692.45,644.36l28.34-141.94c.83-4.18-.07-6.33-2.71-6.47-2.75-.15-4.54,1.87-5.37,6.04l-28.34,141.94c-.83,4.17.12,6.33,2.87,6.48,2.64.14,4.38-1.88,5.21-6.05h0ZM731.84,595.91l22.65,1.19-9.56,47.91c-.95,4.77.14,7.24,3.26,7.4,3.02.16,5.01-2.15,5.95-6.87l4.93-24.7c1.51-7.55.53-16.6-2.91-27.07-6.82-19.44-10.86-32.51-12.16-39.11-1.29-6.65-1.16-13.83.39-21.62l4.67-23.41c5.4-27.04,17.72-40.05,36.94-39.04,17.23.91,23.37,13.69,18.45,38.34l-7.21,36.13-22.65-1.19,7.64-38.27c.82-4.13-.03-6.28-2.56-6.41-2.96-.16-5.23,3.69-6.8,11.54l-2.22,13.59c-1.55,7.75-.54,16.9,3.01,27.48,6.75,18.89,10.83,32.01,12.21,39.42,1.37,7.45,1.14,15.73-.71,24.97l-5.31,26.59c-5.54,27.73-17.93,41.09-37.2,40.07-18.58-.98-25.36-14.09-20.32-39.34l9.5-47.61h0ZM865.41,504l5.42-27.13-52.73-2.78-5.41,27.13,13.91.73-36.25,181.6,24.91,1.31,36.25-181.6,13.91.73Z"/><path class="cls-1" d="M816.47,457.62l4.04-20.25,62.44,3.29-8.99,45.03-13.91-.73-36.25,181.6-34.62-1.82,36.25-181.6-10.81-.57-8.82,44.18-19.22-1.01c3.69,10.29,7.78,22.24,9.77,32.96,1.69,9.11,1.35,19.26-.84,30.23l-5.31,26.59c-7.53,37.74-25.41,49.74-43.84,48.77-13.35-.7-24.49-8.04-25.3-28.32-2.85,5.9-6.39,10.95-10.58,14.98-8.49,8.15-17.31,10.55-25.4,10.12-13.08-.69-24.49-7.54-25.74-27.15-3,6.06-6.81,10.99-11.16,14.83-7.64,6.73-15.19,9.58-22.49,9.19-16.99-.89-31.68-11.89-24.42-48.24l26.8-134.24c7.46-37.37,25.52-48.68,43.58-47.73,13.01.68,22.96,8.39,23.48,27.95,8.97-19.14,22.42-25.54,36.05-24.82,13.81.73,24.44,8.74,25.24,29.18,9.07-20.11,22.97-26.64,36.88-25.91,11.98.63,21.35,7.21,23.18,23.5h0ZM744.4,531.53l-5.57,27.9,13.81.73c-3.15-9.05-6.35-18.94-8.11-27.92-.05-.23-.09-.47-.13-.7h0ZM672.59,555.54l6.73-33.7-25.26-1.33-6.73,33.7,25.26,1.33Z"/><path class="cls-32" d="M680.75,512.88l-22.65-1.19,8.21-41.15c.67-3.38-.15-5.13-2.47-5.25-2.43-.13-3.98,1.49-4.65,4.88l-28.81,144.33c-.67,3.38.2,5.13,2.63,5.26,2.32.12,3.82-1.51,4.5-4.93l10.29-51.54,22.65,1.19-10.59,53.08c-1.97,9.89-6.2,17.7-12.69,23.44-6.48,5.69-13.03,8.35-19.69,8-19.22-1.01-26.35-14.04-21.36-39.04l26.8-134.24c5.4-27.04,17.72-40.05,36.94-39.04,17.23.91,23.37,13.69,18.45,38.34l-7.56,37.87h0ZM666,613.1c-4.99,25,1.97,38.02,20.87,39.02,8.38.44,15.86-2.48,22.36-8.71,6.54-6.29,11.02-15.49,13.44-27.62l26.8-134.24c5.36-26.84-1.35-40.75-20.09-41.74-19.01-1-31.2,12.02-36.59,39.06l-26.8,134.24h0ZM697.94,616.84l28.34-141.94c.83-4.18-.07-6.33-2.71-6.47-2.75-.15-4.54,1.87-5.37,6.04l-28.34,141.94c-.83,4.17.13,6.33,2.87,6.48,2.64.14,4.38-1.88,5.21-6.05h0ZM737.34,568.39l22.65,1.19-9.56,47.91c-.95,4.77.14,7.24,3.26,7.4,3.02.16,5.01-2.15,5.95-6.87l4.93-24.7c1.51-7.55.53-16.59-2.91-27.07-6.82-19.44-10.86-32.51-12.16-39.11-1.29-6.65-1.16-13.83.39-21.63l4.67-23.41c5.4-27.04,17.72-40.05,36.94-39.04,17.23.91,23.37,13.69,18.45,38.34l-7.21,36.13-22.65-1.19,7.64-38.27c.82-4.13-.03-6.28-2.56-6.41-2.96-.16-5.23,3.69-6.8,11.54l-2.22,13.59c-1.55,7.75-.54,16.9,3.01,27.47,6.75,18.89,10.83,32.01,12.21,39.42,1.37,7.45,1.14,15.73-.71,24.97l-5.31,26.59c-5.54,27.73-17.93,41.09-37.2,40.07-18.58-.98-25.36-14.09-20.32-39.34l9.51-47.61h0ZM870.9,476.48l5.42-27.13-52.73-2.78-5.42,27.13,13.91.73-36.25,181.6,24.91,1.31,36.25-181.6,13.91.73Z"/><path class="cls-11" d="M577.45,551.06h227.75l-217.89-43.28c-2.78,14.39-6.07,28.82-9.85,43.28Z"/><rect class="cls-33" x="159.01" y="312.38" width="313.97" height="263.08"/><rect class="cls-35" x="172.25" y="323.47" width="287.48" height="240.89"/><polygon class="cls-9" points="172.25 446.85 177.17 446.85 177.17 454.84 178.72 454.84 178.72 466.84 181.16 466.84 181.16 487.49 188.94 487.49 188.94 451.73 206.93 451.73 206.93 427.75 217.15 427.75 217.15 421.53 223.59 421.53 223.59 413.53 240.25 413.53 240.25 484.61 256.02 484.61 256.02 461.51 258.9 461.51 258.9 448.63 287.78 448.63 287.78 461.51 289.77 461.51 289.77 492.16 296.66 492.16 296.66 472.84 310.43 472.84 310.43 446.01 312.65 446.01 312.65 439.74 332.87 439.74 332.87 446.01 334.64 446.01 334.64 480.39 341.31 480.39 341.31 466.17 342.86 466.17 342.86 461.51 357.08 461.51 357.08 466.17 358.85 466.17 358.85 492.16 365.74 492.16 365.74 474.39 377.74 474.39 377.74 455.73 399.94 446.01 399.94 493.16 409.72 493.16 409.72 480.39 424.15 480.39 424.15 461.51 427.27 461.51 427.27 455.73 444.37 455.73 444.37 461.51 445.92 461.51 445.92 493.93 454.58 493.93 454.58 486.83 459.54 486.83 459.54 442.3 459.74 442.3 459.74 551.04 172.25 551.04 172.25 446.85"/><path class="cls-11" d="M442.48,463.23h-15.02v1.8h15.02v-1.8h0ZM442.48,500.11h-15.02v1.8h15.02v-1.8h0ZM442.48,496.01h-15.02v1.79h15.02v-1.79h0ZM442.48,491.91h-15.02v1.79h15.02v-1.79h0ZM442.48,487.82h-15.02v1.79h15.02v-1.79h0ZM442.48,483.72h-15.02v1.79h15.02v-1.79h0ZM442.48,479.62h-15.02v1.79h15.02v-1.79h0ZM442.48,475.53h-15.02v1.79h15.02v-1.79h0ZM442.48,471.43h-15.02v1.79h15.02v-1.79h0ZM442.48,467.33h-15.02v1.79h15.02v-1.79Z"/><path class="cls-11" d="M396.34,456.37h-15.02v1.79h15.02v-1.79h0ZM396.34,493.25h-15.02v1.79h15.02v-1.79h0ZM396.34,489.15h-15.02v1.79h15.02v-1.79h0ZM396.34,485.05h-15.02v1.79h15.02v-1.79h0ZM396.34,480.96h-15.02v1.79h15.02v-1.79h0ZM396.34,476.86h-15.02v1.79h15.02v-1.79h0ZM396.34,472.76h-15.02v1.79h15.02v-1.79h0ZM396.34,468.66h-15.02v1.79h15.02v-1.79h0ZM396.34,464.57h-15.02v1.79h15.02v-1.79h0ZM396.34,460.47h-15.02v1.79h15.02v-1.79Z"/><path class="cls-11" d="M356.31,467.37h-1.75v32.81h1.75v-32.81h0ZM345.23,467.37h-1.75v32.81h1.75v-32.81h0ZM350.77,467.37h-1.75v32.81h1.75v-32.81Z"/><rect class="cls-34" x="327.57" y="447.78" width="3.39" height="3.5"/><rect class="cls-34" x="327.57" y="454.68" width="3.39" height="3.5"/><rect class="cls-34" x="327.57" y="461.57" width="3.39" height="3.5"/><rect class="cls-34" x="327.57" y="468.46" width="3.39" height="3.5"/><rect class="cls-34" x="327.57" y="475.36" width="3.39" height="3.5"/><rect class="cls-34" x="320.22" y="447.78" width="3.39" height="3.5"/><rect class="cls-34" x="312.88" y="447.78" width="3.39" height="3.5"/><rect class="cls-34" x="320.22" y="454.68" width="3.39" height="3.5"/><rect class="cls-34" x="312.88" y="454.68" width="3.39" height="3.5"/><rect class="cls-34" x="320.22" y="461.57" width="3.39" height="3.5"/><rect class="cls-34" x="312.88" y="461.57" width="3.39" height="3.5"/><rect class="cls-34" x="320.22" y="468.46" width="3.39" height="3.5"/><rect class="cls-34" x="312.88" y="468.46" width="3.39" height="3.5"/><rect class="cls-34" x="320.22" y="475.36" width="3.39" height="3.5"/><rect class="cls-34" x="312.88" y="475.36" width="3.39" height="3.5"/><path class="cls-11" d="M284.14,451.14h-2.26v8.44h2.26v-8.44h0ZM265.1,450.88h-2.26v8.44h2.26v-8.44h0ZM271.45,450.97h-2.26v8.44h2.26v-8.44h0ZM277.8,451.05h-2.26v8.44h2.26v-8.44Z"/><path class="cls-11" d="M286.54,464.08h-2.9v10.83h2.9v-10.83h0ZM262.09,463.75h-2.9v10.83h2.9v-10.83h0ZM270.24,463.86h-2.9v10.83h2.9v-10.83h0ZM278.39,463.97h-2.9v10.83h2.9v-10.83Z"/><path class="cls-11" d="M286.54,478.64h-2.9v10.83h2.9v-10.83h0ZM262.09,478.31h-2.9v10.83h2.9v-10.83h0ZM270.24,478.42h-2.9v10.83h2.9v-10.83h0ZM278.39,478.53h-2.9v10.83h2.9v-10.83Z"/><path class="cls-11" d="M286.54,495.06h-2.9v10.83h2.9v-10.83h0ZM262.09,494.74h-2.9v10.83h2.9v-10.83h0ZM270.24,494.85h-2.9v10.83h2.9v-10.83h0ZM278.39,494.95h-2.9v10.83h2.9v-10.83Z"/><path class="cls-11" d="M239.38,415.3h-15.02v1.79h15.02v-1.79h0ZM239.38,452.17h-15.02v1.79h15.02v-1.79h0ZM239.38,448.08h-15.02v1.79h15.02v-1.79h0ZM239.38,443.98h-15.02v1.79h15.02v-1.79h0ZM239.38,439.88h-15.02v1.79h15.02v-1.79h0ZM239.38,435.79h-15.02v1.79h15.02v-1.79h0ZM239.38,431.69h-15.02v1.79h15.02v-1.79h0ZM239.38,427.59h-15.02v1.79h15.02v-1.79h0ZM239.38,423.5h-15.02v1.79h15.02v-1.79h0ZM239.38,419.4h-15.02v1.79h15.02v-1.79Z"/><path class="cls-11" d="M239.38,456.21h-15.02v1.79h15.02v-1.79h0ZM239.38,493.08h-15.02v1.79h15.02v-1.79h0ZM239.38,488.98h-15.02v1.79h15.02v-1.79h0ZM239.38,484.88h-15.02v1.79h15.02v-1.79h0ZM239.38,480.79h-15.02v1.79h15.02v-1.79h0ZM239.38,476.69h-15.02v1.79h15.02v-1.79h0ZM239.38,472.59h-15.02v1.79h15.02v-1.79h0ZM239.38,468.5h-15.02v1.79h15.02v-1.79h0ZM239.38,464.4h-15.02v1.79h15.02v-1.79h0ZM239.38,460.3h-15.02v1.79h15.02v-1.79Z"/><rect class="cls-34" x="173.86" y="457.24" width="2.38" height="2.46"/><rect class="cls-34" x="173.86" y="462.08" width="2.38" height="2.46"/><rect class="cls-34" x="173.86" y="466.93" width="2.38" height="2.46"/><rect class="cls-34" x="173.86" y="471.78" width="2.38" height="2.46"/><rect class="cls-34" x="173.86" y="476.63" width="2.38" height="2.46"/><rect class="cls-34" x="205.87" y="456.06" width="3.39" height="3.5"/><rect class="cls-34" x="205.87" y="462.95" width="3.39" height="3.5"/><rect class="cls-34" x="205.87" y="469.85" width="3.39" height="3.5"/><rect class="cls-34" x="205.87" y="476.74" width="3.39" height="3.5"/><rect class="cls-34" x="205.87" y="483.64" width="3.39" height="3.5"/><rect class="cls-34" x="198.53" y="456.06" width="3.39" height="3.5"/><rect class="cls-34" x="191.18" y="456.06" width="3.39" height="3.5"/><rect class="cls-34" x="198.53" y="462.95" width="3.39" height="3.5"/><rect class="cls-34" x="191.18" y="462.95" width="3.39" height="3.5"/><rect class="cls-34" x="198.53" y="469.85" width="3.39" height="3.5"/><rect class="cls-34" x="191.18" y="469.85" width="3.39" height="3.5"/><rect class="cls-34" x="198.53" y="476.74" width="3.39" height="3.5"/><rect class="cls-34" x="191.18" y="476.74" width="3.39" height="3.5"/><rect class="cls-34" x="198.53" y="483.64" width="3.39" height="3.5"/><rect class="cls-34" x="191.18" y="483.64" width="3.39" height="3.5"/><polygon class="cls-21" points="459.74 497.68 452.89 497.68 452.89 505.68 451.34 505.68 451.34 517.67 448.9 517.67 448.9 538.33 441.12 538.33 441.12 502.57 423.13 502.57 423.13 478.58 412.91 478.58 412.91 472.36 406.47 472.36 406.47 464.37 389.81 464.37 389.81 535.44 374.04 535.44 374.04 512.34 371.16 512.34 371.16 499.46 342.28 499.46 342.28 512.34 340.29 512.34 340.29 542.99 333.4 542.99 333.4 523.67 319.63 523.67 319.63 496.85 317.41 496.85 317.41 490.58 297.19 490.58 297.19 496.85 295.42 496.85 295.42 531.22 288.75 531.22 288.75 517.01 287.2 517.01 287.2 512.34 272.98 512.34 272.98 517.01 271.21 517.01 271.21 542.99 264.32 542.99 264.32 525.22 252.33 525.22 252.33 506.57 230.12 496.85 230.12 544 220.34 544 220.34 531.22 205.91 531.22 205.91 512.34 202.8 512.34 202.8 506.57 185.69 506.57 185.69 512.34 184.14 512.34 184.14 544.77 175.48 544.77 175.48 537.66 172.25 537.66 172.25 564.37 459.74 564.37 459.74 497.68"/><path class="cls-11" d="M187.58,514.07h15.02v1.79h-15.02v-1.79h0ZM187.58,550.94h15.02v1.79h-15.02v-1.79h0ZM187.58,546.85h15.02v1.79h-15.02v-1.79h0ZM187.58,542.75h15.02v1.79h-15.02v-1.79h0ZM187.58,538.65h15.02v1.79h-15.02v-1.79h0ZM187.58,534.56h15.02v1.79h-15.02v-1.79h0ZM187.58,530.46h15.02v1.79h-15.02v-1.79h0ZM187.58,526.36h15.02v1.79h-15.02v-1.79h0ZM187.58,522.27h15.02v1.79h-15.02v-1.79h0ZM187.58,518.17h15.02v1.79h-15.02v-1.79Z"/><path class="cls-11" d="M233.72,507.21h15.02v1.79h-15.02v-1.79h0ZM233.72,544.08h15.02v1.79h-15.02v-1.79h0ZM233.72,539.98h15.02v1.79h-15.02v-1.79h0ZM233.72,535.89h15.02v1.79h-15.02v-1.79h0ZM233.72,531.79h15.02v1.79h-15.02v-1.79h0ZM233.72,527.69h15.02v1.79h-15.02v-1.79h0ZM233.72,523.6h15.02v1.79h-15.02v-1.79h0ZM233.72,519.5h15.02v1.79h-15.02v-1.79h0ZM233.72,515.4h15.02v1.79h-15.02v-1.79h0ZM233.72,511.31h15.02v1.79h-15.02v-1.79Z"/><path class="cls-11" d="M273.75,518.21h1.75v32.81h-1.75v-32.81h0ZM284.83,518.21h1.75v32.81h-1.75v-32.81h0ZM279.29,518.21h1.75v32.81h-1.75v-32.81Z"/><rect class="cls-34" x="299.1" y="498.62" width="3.39" height="3.5"/><rect class="cls-34" x="299.1" y="505.51" width="3.39" height="3.5"/><rect class="cls-34" x="299.1" y="512.41" width="3.39" height="3.5"/><rect class="cls-34" x="299.1" y="519.3" width="3.39" height="3.5"/><rect class="cls-34" x="299.1" y="526.2" width="3.39" height="3.5"/><rect class="cls-34" x="306.45" y="498.62" width="3.39" height="3.5"/><rect class="cls-34" x="313.79" y="498.62" width="3.39" height="3.5"/><rect class="cls-34" x="306.45" y="505.51" width="3.39" height="3.5"/><rect class="cls-34" x="313.79" y="505.51" width="3.39" height="3.5"/><rect class="cls-34" x="306.45" y="512.41" width="3.39" height="3.5"/><rect class="cls-34" x="313.79" y="512.41" width="3.39" height="3.5"/><rect class="cls-34" x="306.45" y="519.3" width="3.39" height="3.5"/><rect class="cls-34" x="313.79" y="519.3" width="3.39" height="3.5"/><rect class="cls-34" x="306.45" y="526.2" width="3.39" height="3.5"/><rect class="cls-34" x="313.79" y="526.2" width="3.39" height="3.5"/><path class="cls-11" d="M345.92,501.97h2.26v8.44h-2.26v-8.44h0ZM364.96,501.72h2.26v8.44h-2.26v-8.44h0ZM358.61,501.8h2.26v8.44h-2.26v-8.44h0ZM352.26,501.89h2.26v8.44h-2.26v-8.44Z"/><path class="cls-11" d="M343.52,514.91h2.9v10.83h-2.9v-10.83h0ZM367.97,514.58h2.9v10.83h-2.9v-10.83h0ZM359.82,514.69h2.9v10.83h-2.9v-10.83h0ZM351.67,514.8h2.9v10.83h-2.9v-10.83Z"/><path class="cls-11" d="M343.52,529.47h2.9v10.83h-2.9v-10.83h0ZM367.97,529.14h2.9v10.83h-2.9v-10.83h0ZM359.82,529.25h2.9v10.83h-2.9v-10.83h0ZM351.67,529.36h2.9v10.83h-2.9v-10.83Z"/><path class="cls-11" d="M343.52,545.9h2.9v10.83h-2.9v-10.83h0ZM367.97,545.57h2.9v10.83h-2.9v-10.83h0ZM359.82,545.68h2.9v10.83h-2.9v-10.83h0ZM351.67,545.79h2.9v10.83h-2.9v-10.83Z"/><path class="cls-11" d="M390.68,466.14h15.02v1.79h-15.02v-1.79h0ZM390.68,503.01h15.02v1.79h-15.02v-1.79h0ZM390.68,498.91h15.02v1.79h-15.02v-1.79h0ZM390.68,494.81h15.02v1.79h-15.02v-1.79h0ZM390.68,490.72h15.02v1.79h-15.02v-1.79h0ZM390.68,486.62h15.02v1.79h-15.02v-1.79h0ZM390.68,482.52h15.02v1.79h-15.02v-1.79h0ZM390.68,478.43h15.02v1.79h-15.02v-1.79h0ZM390.68,474.33h15.02v1.79h-15.02v-1.79h0ZM390.68,470.24h15.02v1.79h-15.02v-1.79Z"/><path class="cls-11" d="M390.68,507.04h15.02v1.79h-15.02v-1.79h0ZM390.68,543.91h15.02v1.79h-15.02v-1.79h0ZM390.68,539.82h15.02v1.79h-15.02v-1.79h0ZM390.68,535.72h15.02v1.79h-15.02v-1.79h0ZM390.68,531.62h15.02v1.79h-15.02v-1.79h0ZM390.68,527.53h15.02v1.79h-15.02v-1.79h0ZM390.68,523.43h15.02v1.79h-15.02v-1.79h0ZM390.68,519.33h15.02v1.79h-15.02v-1.79h0ZM390.68,515.24h15.02v1.79h-15.02v-1.79h0ZM390.68,511.14h15.02v1.79h-15.02v-1.79Z"/><rect class="cls-34" x="453.81" y="508.07" width="2.38" height="2.46"/><rect class="cls-34" x="453.81" y="512.92" width="2.38" height="2.46"/><rect class="cls-34" x="453.81" y="517.77" width="2.38" height="2.46"/><rect class="cls-34" x="453.81" y="522.62" width="2.38" height="2.46"/><rect class="cls-34" x="453.81" y="527.46" width="2.38" height="2.46"/><rect class="cls-34" x="458.98" y="508.07" width=".76" height="2.46"/><rect class="cls-34" x="458.98" y="512.92" width=".76" height="2.46"/><rect class="cls-34" x="458.98" y="517.77" width=".76" height="2.46"/><rect class="cls-34" x="458.98" y="522.62" width=".76" height="2.46"/><rect class="cls-34" x="458.98" y="527.46" width=".76" height="2.46"/><rect class="cls-34" x="420.8" y="506.89" width="3.39" height="3.5"/><rect class="cls-34" x="420.8" y="513.79" width="3.39" height="3.5"/><rect class="cls-34" x="420.8" y="520.68" width="3.39" height="3.5"/><rect class="cls-34" x="420.8" y="527.58" width="3.39" height="3.5"/><rect class="cls-34" x="420.8" y="534.47" width="3.39" height="3.5"/><rect class="cls-34" x="428.14" y="506.89" width="3.39" height="3.5"/><rect class="cls-34" x="435.49" y="506.89" width="3.39" height="3.5"/><rect class="cls-34" x="428.14" y="513.79" width="3.39" height="3.5"/><rect class="cls-34" x="435.49" y="513.79" width="3.39" height="3.5"/><rect class="cls-34" x="428.14" y="520.68" width="3.39" height="3.5"/><rect class="cls-34" x="435.49" y="520.68" width="3.39" height="3.5"/><rect class="cls-34" x="428.14" y="527.58" width="3.39" height="3.5"/><rect class="cls-34" x="435.49" y="527.58" width="3.39" height="3.5"/><rect class="cls-34" x="428.14" y="534.47" width="3.39" height="3.5"/><rect class="cls-34" x="435.49" y="534.47" width="3.39" height="3.5"/><polygon class="cls-11" points="350.93 323.47 368.17 323.47 172.25 564.37 172.25 546.86 350.93 323.47"/><polygon class="cls-11" points="442.5 323.47 459.74 323.47 266.66 564.37 266.66 546.86 442.5 323.47"/><path class="cls-1" d="M368.17,320.45h11.9v246.95h-11.9v-246.95h0ZM254.76,320.45h11.91v246.95h-11.91v-246.95Z"/><circle class="cls-33" cx="551.3" cy="253.62" r="68.97" transform="translate(-17.86 464.11) rotate(-45)"/><path class="cls-22" d="M549.82,316.28c-.16,0-.31,0-.47-.01-.34-.01-.69-.02-1.03-.04-.17,0-.35-.02-.52-.03-.33-.02-.67-.04-1-.06-.16-.01-.33-.02-.49-.04-.39-.03-.79-.07-1.18-.1-.09,0-.19-.02-.28-.03-.48-.05-.97-.1-1.45-.16-.13-.02-.26-.04-.39-.05-.35-.05-.7-.09-1.05-.15-.17-.02-.33-.05-.5-.08-.32-.05-.65-.1-.97-.16-.16-.03-.32-.06-.49-.09-.35-.06-.71-.13-1.06-.2-.12-.02-.24-.05-.36-.07-.47-.1-.94-.2-1.41-.31-.08-.02-.16-.04-.24-.06-.39-.09-.78-.19-1.16-.28-.15-.04-.29-.08-.43-.11-.33-.09-.65-.17-.97-.26-.15-.04-.3-.08-.45-.13-.34-.1-.67-.2-1.01-.3-.12-.04-.24-.07-.37-.11-.91-.28-1.81-.59-2.71-.92-.12-.04-.24-.09-.36-.13-.33-.12-.65-.25-.98-.37-.14-.05-.28-.11-.41-.16-.32-.13-.63-.26-.95-.39-.12-.05-.25-.1-.37-.16-.39-.17-.78-.34-1.16-.51l-.13-.06c-.44-.2-.87-.4-1.3-.61-.08-.04-.16-.08-.25-.12-.34-.17-.68-.34-1.02-.51-.12-.06-.24-.12-.35-.18-.31-.16-.62-.33-.93-.49-.11-.06-.23-.12-.34-.18-.34-.19-.68-.37-1.02-.57-.07-.04-.14-.08-.21-.12-.42-.24-.84-.49-1.25-.74l-.03-.02c-.39-.24-.78-.48-1.16-.73-.09-.06-.19-.12-.28-.18-.3-.2-.61-.4-.91-.6l-.32-.21c-.31-.21-.61-.42-.92-.63-.08-.06-.16-.11-.24-.17-.77-.55-1.54-1.12-2.28-1.71-.07-.06-.15-.12-.22-.18-.29-.23-.59-.47-.88-.71-.1-.08-.19-.16-.29-.24-.28-.23-.56-.47-.83-.7-.08-.07-.17-.14-.25-.21-.35-.3-.69-.6-1.03-.91h-.02c-.36-.34-.72-.68-1.07-1.02-.04-.03-.07-.07-.11-.11-.3-.29-.6-.58-.89-.87-.08-.08-.16-.16-.24-.24-.26-.26-.51-.52-.77-.79-.08-.08-.16-.16-.24-.25-.28-.3-.56-.6-.84-.9l-.12-.13c-.64-.71-1.27-1.43-1.88-2.17-.07-.08-.13-.16-.2-.24-.24-.29-.47-.58-.7-.87-.07-.09-.15-.19-.22-.28-.23-.3-.46-.6-.69-.9-.06-.08-.11-.15-.17-.23-.57-.76-1.12-1.54-1.66-2.33-.05-.07-.1-.15-.15-.23-.21-.32-.42-.63-.63-.95-.07-.11-.13-.21-.2-.32-.19-.31-.39-.61-.58-.92-.06-.1-.12-.19-.18-.29-.23-.38-.46-.76-.68-1.14l-.04-.07c-.24-.42-.48-.84-.71-1.27-.04-.06-.07-.13-.1-.19-.19-.35-.37-.7-.56-1.05-.06-.12-.12-.23-.17-.34-.16-.31-.32-.63-.47-.94-.06-.12-.12-.24-.17-.36-.17-.35-.33-.71-.5-1.07-.03-.07-.07-.14-.1-.22-.2-.44-.4-.89-.59-1.34l-.03-.08c-.17-.41-.34-.81-.5-1.23-.05-.12-.09-.24-.14-.36-.13-.33-.25-.65-.37-.98-.05-.13-.1-.27-.15-.4-.12-.34-.24-.67-.36-1.01-.04-.11-.08-.23-.12-.35-.15-.46-.3-.92-.45-1.38h0c-1.83-5.88-2.81-12.14-2.81-18.62,0-17.96,7.55-34.15,19.66-45.58h0c.27-.26.54-.51.81-.76l.11-.1c.33-.3.67-.6,1.01-.89l.12-.1c.34-.3.69-.59,1.04-.88l.09-.08c.36-.3.73-.59,1.1-.89l.06-.05c.38-.3.76-.59,1.15-.88l.04-.03c.4-.3.8-.59,1.2-.87l.03-.02c.4-.28.8-.56,1.2-.83l.07-.05c.39-.26.78-.52,1.17-.77l.11-.07c.38-.24.77-.48,1.16-.72l.14-.08c.38-.23.77-.46,1.16-.68l.15-.08c.39-.22.77-.44,1.16-.65l.16-.08c.39-.21.78-.42,1.18-.62l.16-.08c.4-.2.79-.4,1.19-.59l.16-.08c.4-.19.81-.38,1.22-.57l.14-.06c.42-.19.83-.37,1.25-.55l.13-.06c.43-.18.86-.36,1.29-.53l.11-.04c.45-.18.9-.35,1.35-.51l.06-.02c.47-.17.95-.34,1.42-.5h0c.48-.16.96-.32,1.45-.47h.05c.47-.16.94-.3,1.42-.44l.08-.02c.46-.13.93-.26,1.39-.38l.12-.03c.45-.12.91-.23,1.37-.33l.16-.04c.45-.1.9-.2,1.35-.29l.17-.04c.45-.09.9-.18,1.35-.26l.18-.03c.45-.08.91-.15,1.36-.23l.18-.03c.45-.07.91-.13,1.37-.19l.18-.02c.46-.06.93-.11,1.39-.16l.16-.02c.47-.05.95-.09,1.43-.13h.14c.49-.05.98-.08,1.47-.11h.1c.51-.03,1.02-.05,1.53-.06h.07c.53-.02,1.06-.02,1.6-.02s1.07,0,1.6.02h.07c.51.02,1.02.03,1.53.06h.11c.49.03.98.06,1.47.1h.15c.48.05.95.09,1.43.14l.16.02c.47.05.93.1,1.39.16l.19.02c.46.06.92.12,1.37.19l.18.03c.46.07.91.15,1.36.23l.18.03c.45.08.9.17,1.35.26l.17.04c.45.09.9.19,1.35.29l.15.04c.46.11.91.22,1.37.33l.12.03c.47.12.93.25,1.39.38l.08.02c.47.14.95.28,1.42.42h.05c.48.17.97.32,1.45.49h0c.48.16.95.33,1.42.5l.06.02c.45.17.9.34,1.35.51l.11.04c.43.17.86.35,1.29.53l.13.06c.42.18.84.36,1.25.55l.14.06c.41.19.82.38,1.22.57l.16.08c.4.19.8.39,1.19.59l.16.08c.4.2.79.41,1.18.62l.15.08c.39.21.78.43,1.17.65l.15.08c.39.22.77.45,1.16.68l.14.08c.39.24.77.48,1.16.72l.11.07c.39.25.78.51,1.17.77l.07.05c.4.27.8.55,1.2.83l.03.02c.4.29.8.58,1.2.87l.04.03c.39.29.77.58,1.15.88l.06.05c.37.29.74.59,1.1.89l.09.08c.35.29.7.59,1.05.88l.11.1c.34.29.67.59,1.01.89l.11.1c.27.25.55.5.81.75h0c12.1,11.43,19.65,27.62,19.65,45.58,0,6.48-.98,12.74-2.81,18.62h0c-.14.46-.29.92-.45,1.38-.04.12-.08.23-.12.35-.12.34-.23.68-.36,1.01-.05.13-.1.27-.15.4-.12.33-.25.66-.37.98-.05.12-.09.24-.14.36-.16.41-.33.82-.5,1.23l-.03.08c-.19.45-.38.89-.58,1.34-.03.07-.07.14-.1.22-.16.36-.33.71-.5,1.07-.06.12-.12.24-.17.36-.15.32-.31.63-.47.94-.06.12-.12.23-.17.34-.18.35-.37.7-.56,1.05-.03.07-.07.13-.1.19-.23.43-.47.85-.71,1.27l-.04.07c-.22.38-.45.77-.68,1.14-.06.1-.12.19-.18.29-.19.31-.38.62-.58.92-.07.11-.13.21-.2.32-.21.32-.41.63-.63.95-.05.08-.1.15-.15.23-.54.79-1.09,1.57-1.66,2.33-.06.08-.12.15-.17.23-.23.3-.46.6-.69.9-.07.09-.15.19-.22.28-.23.29-.46.58-.7.87-.06.08-.13.16-.2.24-.61.74-1.23,1.46-1.88,2.17-.04.04-.08.09-.12.13-.28.3-.56.6-.84.9-.08.08-.16.16-.24.25-.25.26-.51.53-.77.79-.08.08-.16.16-.24.24-.29.29-.59.58-.89.87-.04.04-.07.07-.11.11-.35.34-.71.67-1.07,1h-.01c-.34.32-.68.62-1.03.92-.08.07-.17.14-.25.21-.28.24-.55.47-.83.7-.1.08-.19.16-.29.24-.29.24-.58.47-.88.71-.07.06-.15.12-.22.18-.75.59-1.51,1.16-2.28,1.71-.08.06-.16.11-.24.17-.3.21-.61.43-.92.63l-.32.21c-.3.2-.6.4-.91.6-.09.06-.19.12-.28.18-.38.24-.77.49-1.16.73l-.03.02c-.41.25-.83.5-1.25.74-.07.04-.14.08-.21.12-.34.19-.68.38-1.02.57-.11.06-.23.12-.34.18-.31.17-.62.33-.93.49-.12.06-.24.12-.35.18-.34.17-.68.34-1.02.51-.08.04-.16.08-.25.12-.43.21-.87.41-1.31.61l-.12.06c-.39.17-.77.34-1.16.51l-.37.16c-.32.13-.63.26-.95.39-.14.06-.28.11-.42.16-.32.13-.65.25-.98.37-.12.04-.24.09-.36.13-.89.33-1.8.63-2.71.92-.12.04-.24.07-.37.11-.33.1-.67.2-1.01.3-.15.04-.3.09-.45.13-.32.09-.65.18-.97.26-.14.04-.29.08-.43.11-.39.1-.77.19-1.16.28-.08.02-.16.04-.24.06-.47.11-.94.21-1.41.31-.12.03-.24.05-.36.07-.35.07-.7.14-1.06.2-.16.03-.32.06-.49.09-.32.06-.64.11-.97.16-.17.03-.33.05-.5.08-.35.05-.7.1-1.06.15-.13.02-.26.04-.39.05-.48.06-.96.12-1.44.16-.1,0-.19.02-.29.03-.39.04-.78.07-1.18.1-.16.01-.33.02-.49.04-.33.02-.67.04-1,.06-.17,0-.35.02-.52.03-.34.02-.69.03-1.03.04-.16,0-.31.01-.47.01-.49.01-.99.02-1.48.02s-.99,0-1.48-.02h0ZM602.12,229.39c-.05-.1-.09-.19-.14-.29-.36-.74-.73-1.47-1.12-2.19-.05-.1-.11-.19-.16-.29-.15-.28-.31-.56-.47-.84-.05-.09-.1-.17-.15-.26-.2-.35-.41-.7-.62-1.05-.04-.06-.07-.12-.11-.18-.18-.29-.36-.58-.54-.86-.06-.1-.13-.2-.19-.3-.18-.28-.36-.55-.54-.83-.05-.07-.09-.14-.14-.2-.22-.33-.45-.66-.68-.98-.06-.09-.13-.18-.19-.26-.18-.25-.36-.5-.54-.74-.07-.1-.14-.19-.22-.29-.24-.32-.48-.63-.73-.94l-.06-.08c-.23-.29-.45-.57-.69-.85-.08-.1-.17-.21-.26-.31-.18-.22-.37-.44-.56-.66-.08-.09-.16-.19-.24-.28-.25-.29-.51-.58-.77-.87-.07-.08-.15-.16-.22-.24-.2-.22-.4-.43-.6-.64-.1-.1-.2-.21-.29-.31-.21-.22-.42-.43-.63-.65-.07-.07-.14-.14-.21-.21-.27-.27-.55-.54-.82-.8-.1-.09-.19-.18-.29-.28-.2-.19-.4-.37-.6-.56-.1-.1-.21-.19-.31-.29-.28-.26-.57-.51-.86-.76-.06-.05-.12-.1-.18-.15-.24-.21-.49-.42-.74-.63-.11-.09-.22-.18-.33-.27-.21-.18-.43-.35-.65-.52-.1-.08-.2-.16-.31-.24-.3-.23-.6-.47-.91-.69-.1-.08-.2-.15-.31-.23-.22-.16-.45-.33-.67-.49-.12-.09-.24-.17-.37-.26-.25-.18-.5-.35-.75-.52-.08-.05-.15-.11-.23-.16-.32-.22-.64-.43-.97-.64-.12-.07-.23-.15-.35-.22-.23-.15-.47-.29-.7-.44-.12-.07-.24-.15-.36-.22-.33-.2-.67-.4-1-.59-.07-.04-.14-.08-.21-.12-.28-.16-.55-.31-.83-.47-.13-.07-.26-.14-.38-.21-.25-.14-.51-.27-.76-.4-.11-.05-.21-.11-.32-.16-.35-.18-.69-.35-1.05-.52-.11-.05-.22-.1-.33-.15-.26-.13-.53-.25-.79-.37-.12-.06-.25-.11-.37-.17-.31-.14-.62-.27-.93-.41-.06-.03-.13-.06-.19-.08-.36-.15-.73-.3-1.1-.45-.12-.05-.25-.1-.37-.15-.27-.11-.54-.21-.82-.31-.12-.04-.24-.09-.36-.13-.37-.14-.75-.27-1.12-.4-.08-.03-.16-.05-.25-.08-.31-.1-.62-.21-.93-.3-.13-.04-.26-.08-.39-.12-.3-.09-.6-.18-.9-.27-.1-.03-.2-.06-.3-.09-.39-.11-.78-.22-1.17-.32-.11-.03-.21-.05-.32-.08-.31-.08-.61-.15-.92-.22-.12-.03-.25-.06-.37-.09-.37-.08-.74-.16-1.11-.24-.04,0-.08-.02-.12-.03-.4-.08-.81-.16-1.22-.23-.12-.02-.25-.04-.37-.06-.31-.05-.62-.11-.94-.15-.11-.02-.23-.04-.34-.05-.41-.06-.82-.12-1.24-.17-.08,0-.16-.02-.23-.03-.35-.04-.7-.08-1.05-.12-.12-.01-.25-.03-.37-.04-.35-.03-.7-.07-1.05-.09-.08,0-.16-.01-.24-.02-.42-.03-.85-.06-1.27-.08-.11,0-.22-.01-.33-.02-.33-.02-.66-.03-1-.04-.12,0-.24,0-.37-.01-.43,0-.87-.02-1.3-.02s-.87,0-1.3.02c-.12,0-.24,0-.37.01-.33,0-.66.02-1,.04-.11,0-.22,0-.34.02-.43.02-.85.05-1.27.08-.08,0-.16.01-.24.02-.35.03-.7.06-1.05.09-.12.01-.25.02-.37.04-.35.04-.7.08-1.05.12-.08,0-.16.02-.23.03-.41.05-.83.11-1.24.17-.12.02-.23.04-.35.05-.31.05-.63.1-.94.15-.12.02-.25.04-.37.06-.41.07-.81.15-1.22.23l-.12.03c-.37.08-.74.16-1.11.24-.12.03-.25.06-.37.09-.31.07-.61.15-.92.22-.11.03-.21.05-.32.08-.39.1-.78.21-1.17.32-.1.03-.2.06-.3.09-.3.09-.6.18-.9.27-.13.04-.26.08-.39.12-.31.1-.62.2-.93.3-.08.03-.16.05-.25.08-.38.13-.75.26-1.13.4-.12.04-.24.09-.36.13-.27.1-.55.2-.82.31-.13.05-.25.1-.37.15-.37.14-.73.29-1.1.45-.06.03-.13.06-.19.08-.31.13-.62.27-.93.41-.12.06-.25.11-.37.17-.27.12-.53.24-.79.37-.11.05-.22.1-.33.15-.35.17-.7.34-1.05.52-.11.05-.21.11-.32.16-.26.13-.51.27-.76.4-.13.07-.26.14-.38.21-.28.15-.56.31-.83.47-.07.04-.14.08-.22.12-.34.19-.67.39-1,.59-.12.07-.24.14-.36.22-.24.14-.47.29-.7.44-.12.07-.23.15-.35.22-.32.21-.65.42-.97.64-.08.05-.15.11-.23.16-.25.17-.5.35-.76.52-.12.09-.24.17-.37.26-.22.16-.45.32-.67.49-.1.08-.2.15-.31.23-.3.23-.61.46-.91.69-.1.08-.2.16-.31.24-.22.17-.43.35-.65.52-.11.09-.22.18-.33.27-.25.21-.5.42-.74.63-.06.05-.12.1-.18.15-.29.25-.58.51-.86.76-.1.09-.21.19-.31.29-.2.18-.4.37-.6.56-.1.09-.2.18-.29.28-.28.27-.55.53-.82.8-.07.07-.14.14-.21.21-.21.21-.42.43-.63.65-.1.1-.2.21-.29.31-.2.21-.4.43-.6.64-.07.08-.15.16-.22.24-.26.28-.52.57-.77.87-.08.09-.16.19-.24.28-.19.22-.37.44-.56.66-.08.1-.17.21-.25.31-.23.28-.46.57-.69.85l-.06.08c-.24.31-.49.63-.72.94-.07.1-.14.19-.22.29-.18.25-.36.49-.54.74-.06.09-.13.18-.19.26-.23.32-.46.65-.68.98-.05.07-.09.14-.14.2-.18.27-.36.55-.54.83-.06.1-.13.2-.19.3-.18.28-.36.57-.54.86-.04.06-.07.12-.11.18-.21.35-.42.69-.62,1.05-.05.09-.1.17-.15.26-.16.28-.32.56-.47.84-.05.1-.11.19-.16.29-.39.72-.76,1.45-1.12,2.19-.05.1-.09.19-.14.29-3.51,7.34-5.47,15.56-5.47,24.23,0,6.28,1.03,12.32,2.93,17.95.04.11.08.22.12.33.1.29.2.58.31.87.05.13.09.26.14.39.11.28.21.57.32.85.05.12.09.23.14.35.15.38.3.76.46,1.13v.03s.02,0,.02,0c.16.38.33.76.5,1.14.05.12.11.24.16.35.12.26.24.53.37.79.06.14.13.27.2.41.12.25.25.5.37.75.06.12.13.25.19.37.17.34.35.67.53,1.01l.07.12c.19.35.38.69.58,1.04.07.13.15.25.22.38.14.24.28.47.42.7.08.13.16.27.24.4.14.23.29.46.43.69.08.12.16.25.24.37.19.3.39.59.58.89l.15.23c.21.3.42.61.63.91.09.12.18.25.26.37.15.21.31.43.47.64.1.13.2.26.3.39.16.21.31.41.47.62.1.12.19.25.29.37.2.26.41.51.61.76.09.11.19.23.28.34.21.25.42.51.64.76.11.13.22.25.33.37.16.19.33.37.49.55.12.13.23.26.35.38.17.19.34.37.51.55.11.12.22.24.33.35.22.23.45.46.68.69.11.11.21.21.32.32.23.23.47.46.7.69.12.12.25.24.37.35.18.17.35.33.53.49.13.12.26.24.4.36.18.16.37.33.55.49.12.11.25.22.37.33.24.21.48.41.73.62.12.1.24.2.37.3.25.21.5.41.76.61.13.1.26.2.39.31.19.15.39.3.59.45.14.11.28.21.42.32.2.15.4.29.6.44.13.1.27.19.4.29.26.19.53.37.8.55.12.09.25.17.38.25.27.18.55.36.83.55.14.09.28.18.42.26.21.13.42.27.64.4.15.09.3.18.44.27.22.13.44.26.65.39.14.08.28.16.42.24.29.17.59.33.88.49.11.06.22.12.34.18.31.17.61.33.92.49.14.07.28.14.42.21.23.12.46.23.7.35.15.07.31.15.46.22.24.11.48.23.72.34.14.06.27.13.41.19.34.15.67.3,1.01.44l.22.09c.35.15.7.29,1.05.43.14.05.28.11.41.16.26.1.51.2.77.29.15.06.3.11.45.17.26.09.52.18.78.27.14.05.28.1.42.15.36.12.72.24,1.08.35l.2.06c.37.11.74.22,1.11.33.14.04.28.08.42.12.27.07.55.15.82.22.15.04.3.08.45.12.28.07.56.14.84.21.14.03.27.06.41.1.4.09.8.18,1.2.26h.05s0,.01,0,.01h.03c.41.09.81.17,1.22.24.14.02.28.05.41.07.29.05.58.1.87.15.15.02.31.05.46.07.29.04.59.08.88.12.14.02.28.04.41.05.43.05.86.1,1.29.15h0c.43.04.86.08,1.3.12.14.01.27.02.41.03.3.02.61.04.91.06.16,0,.31.02.47.02.3.01.61.02.92.03.14,0,.28,0,.41.01.44.01.88.02,1.33.02s.89,0,1.33-.02c.14,0,.28,0,.41-.01.31,0,.61-.02.92-.03.16,0,.31-.02.47-.02.3-.02.61-.04.91-.06.14,0,.27-.02.41-.03.43-.03.87-.07,1.3-.12h0l45.06-80.23h0ZM555.76,309.73c.43-.03.87-.07,1.3-.12l-1.3.12h0ZM558.35,309.46c.14-.02.28-.04.41-.05.29-.04.59-.08.88-.12.15-.02.31-.05.46-.07.29-.05.58-.09.87-.15.14-.02.28-.05.41-.07.41-.07.82-.15,1.22-.23h.03s0,0,0,0h.05c.4-.09.8-.18,1.2-.27.14-.03.27-.06.41-.1.28-.07.56-.13.84-.21.15-.04.3-.08.45-.12.27-.07.55-.15.82-.22.14-.04.28-.08.42-.12.37-.11.74-.22,1.11-.33l.2-.06c.36-.11.72-.23,1.08-.35.14-.05.28-.1.42-.15.26-.09.52-.18.78-.27.15-.05.3-.11.45-.17.26-.1.52-.19.77-.29.14-.05.28-.11.41-.16.35-.14.7-.28,1.04-.43l.22-.09c.34-.14.68-.29,1.01-.44.14-.06.28-.13.41-.19.24-.11.48-.22.72-.34.15-.07.31-.15.46-.22.23-.11.47-.23.7-.35.14-.07.28-.14.42-.21.31-.16.62-.32.92-.49.11-.06.23-.12.34-.18.3-.16.59-.32.88-.49.14-.08.28-.16.42-.24.22-.13.44-.26.66-.39.15-.09.3-.18.44-.27.21-.13.43-.26.64-.4.14-.09.28-.17.42-.26.28-.18.55-.36.83-.55.13-.08.25-.17.38-.25.27-.18.53-.37.8-.55.13-.1.27-.19.4-.29.2-.15.4-.29.6-.44.14-.1.28-.21.42-.32.2-.15.39-.3.59-.45.13-.1.26-.2.39-.31.26-.2.51-.41.76-.61.12-.1.24-.2.37-.3.24-.2.49-.41.73-.62.13-.11.25-.22.37-.33.18-.16.37-.32.55-.49.13-.12.26-.24.4-.36.18-.16.35-.33.53-.49.12-.12.25-.23.37-.35.24-.23.47-.46.7-.69.11-.11.21-.21.32-.32.23-.23.45-.46.68-.69.11-.12.22-.24.33-.35.17-.18.34-.37.51-.55.12-.13.23-.26.35-.38.17-.18.33-.37.49-.55.11-.12.22-.25.33-.37.22-.25.43-.5.64-.76.09-.11.19-.23.28-.34.21-.25.41-.51.61-.76.1-.12.19-.25.29-.37.16-.2.32-.41.47-.62.1-.13.2-.26.3-.39.16-.21.31-.43.47-.64.09-.12.18-.24.26-.37.21-.3.42-.6.63-.91l.15-.23c.2-.29.39-.59.58-.89.08-.12.16-.25.24-.37.15-.23.29-.46.43-.69.08-.13.16-.27.24-.4.14-.23.28-.47.42-.7.07-.13.15-.25.22-.38.2-.34.39-.69.58-1.04l.07-.12c.18-.33.36-.67.53-1.01.06-.12.13-.25.19-.37.13-.25.25-.5.38-.75.06-.14.13-.27.19-.41.13-.26.25-.52.37-.79.06-.12.11-.24.16-.35.17-.38.34-.76.5-1.14h0s.01-.04.01-.04c.16-.37.31-.75.46-1.13.05-.12.09-.23.14-.35.11-.28.22-.57.32-.85.05-.13.1-.26.14-.39.11-.29.21-.58.31-.87.04-.11.08-.22.11-.33,1.9-5.64,2.93-11.68,2.93-17.95,0-8.68-1.96-16.89-5.47-24.23l-43.77,80.08h0ZM602.66,276.68c.17-.38.34-.76.5-1.14l-.5,1.14Z"/><path class="cls-11" d="M607.59,253.62c0,31.08-25.2,56.28-56.28,56.28s-56.28-25.2-56.28-56.28,25.2-56.28,56.28-56.28,56.28,25.2,56.28,56.28Z"/><rect class="cls-37" x="549.69" y="199.8" width="3.04" height="10.25" rx="1.46" ry="1.46"/><path class="cls-28" d="M507.73,253.66v.11c0,.81-.65,1.46-1.46,1.46h-7.33c-.81,0-1.46-.65-1.46-1.46v-.11c0-.81.66-1.46,1.46-1.46h7.33c.81,0,1.46.66,1.46,1.46h0ZM605.12,253.47v.11c0,.81-.65,1.46-1.46,1.46h-7.33c-.81,0-1.46-.66-1.46-1.46v-.11c0-.81.65-1.46,1.46-1.46h7.33c.81,0,1.46.66,1.46,1.46Z"/><path class="cls-28" d="M520.47,222.84l-.08.08c-.57.57-1.5.57-2.07,0l-5.18-5.18c-.57-.57-.57-1.5,0-2.07l.08-.08c.57-.57,1.5-.57,2.07,0l5.18,5.18c.57.57.57,1.5,0,2.07h0ZM589.47,291.57l-.08.08c-.57.57-1.5.57-2.07,0l-5.18-5.18c-.57-.57-.57-1.5,0-2.07l.08-.08c.57-.57,1.5-.57,2.07,0l5.18,5.18c.57.57.57,1.5,0,2.07Z"/><path class="cls-28" d="M582.14,222.84l.08.08c.57.57,1.5.57,2.07,0l5.18-5.18c.57-.57.57-1.5,0-2.07l-.08-.08c-.57-.57-1.5-.57-2.07,0l-5.18,5.18c-.57.57-.57,1.5,0,2.07h0ZM513.14,291.57l.08.08c.57.57,1.5.57,2.07,0l5.18-5.18c.57-.57.57-1.5,0-2.07l-.08-.08c-.57-.57-1.5-.57-2.07,0l-5.18,5.18c-.57.57-.57,1.5,0,2.07Z"/><rect class="cls-37" x="549.88" y="297.19" width="3.04" height="10.25" rx="1.46" ry="1.46"/><path class="cls-36" d="M551.22,215.92h.12c.89,0,1.62.72,1.62,1.62v35.34c0,.89-.72,1.62-1.62,1.62h-.12c-.89,0-1.62-.72-1.62-1.62v-35.34c0-.89.72-1.62,1.62-1.62Z"/><path class="cls-25" d="M552.35,253.48l.04.12c.27.85-.21,1.76-1.06,2.02l-23.32,7.32c-.85.27-1.76-.21-2.02-1.06l-.04-.12c-.27-.85.21-1.76,1.06-2.02l23.32-7.32c.85-.27,1.76.21,2.02,1.06Z"/><path class="cls-23" d="M584.01,261.75l-32.78-8.41c-.24-.06-.48.08-.54.32-.06.24.08.48.32.54l32.78,8.41c.24.06.48-.08.54-.32.06-.24-.08-.48-.32-.54Z"/><path class="cls-7" d="M595.01,254.19c-.19-.02-.36-.03-.5-.04-.12-.01-.21-.12-.2-.24,0-.02,0-.03,0-.05.06.04.14.06.21.06.11,0,.25.02.4.03.02.08.05.15.08.23Z"/><path class="cls-7" d="M594.35,250.31s0-.03,0-.05c0-.12.09-.22.21-.23,1.27-.05,4.77-.21,8.13-.38l.04.22c-3.37.18-6.88.33-8.16.39-.08,0-.15.02-.21.06Z"/><path class="cls-10" d="M192.37,674.06c-1.01,13.88-3.06,15.8-16.3,16.87,13.24,1.07,15.28,2.98,16.3,16.87,1.01-13.88,3.06-15.8,16.3-16.87-13.24-1.07-15.28-2.99-16.3-16.87Z"/><path class="cls-11" d="M202.49,673.58c-.41,5.61-1.24,6.38-6.58,6.81,5.34.43,6.17,1.2,6.58,6.81.41-5.61,1.23-6.38,6.58-6.81-5.34-.43-6.17-1.2-6.58-6.81Z"/><path class="cls-10" d="M446.99,622.26c-1.01,13.88-3.06,15.8-16.3,16.87,13.24,1.07,15.28,2.98,16.3,16.87,1.01-13.88,3.06-15.8,16.3-16.87-13.24-1.07-15.28-2.98-16.3-16.87Z"/><path class="cls-11" d="M457.12,621.78c-.41,5.6-1.24,6.38-6.58,6.81,5.34.43,6.17,1.2,6.58,6.81.41-5.6,1.23-6.38,6.58-6.81-5.34-.43-6.17-1.2-6.58-6.81Z"/><path class="cls-10" d="M396.29,734.69c-1.01,13.88-3.06,15.8-16.3,16.87,13.24,1.07,15.28,2.99,16.3,16.87,1.01-13.88,3.06-15.8,16.3-16.87-13.24-1.07-15.29-2.98-16.3-16.87Z"/><path class="cls-11" d="M406.41,734.21c-.41,5.6-1.23,6.38-6.58,6.81,5.34.43,6.17,1.2,6.58,6.81.41-5.61,1.23-6.38,6.58-6.81-5.34-.43-6.17-1.21-6.58-6.81Z"/><path class="cls-10" d="M515.33,386.37c-1.01,13.88-3.06,15.8-16.3,16.87,13.24,1.07,15.28,2.98,16.3,16.87,1.01-13.88,3.06-15.8,16.3-16.87-13.24-1.07-15.28-2.99-16.3-16.87Z"/><path class="cls-11" d="M525.45,385.89c-.41,5.61-1.24,6.38-6.58,6.81,5.34.43,6.17,1.2,6.58,6.81.41-5.6,1.23-6.38,6.58-6.81-5.34-.43-6.17-1.2-6.58-6.81Z"/><path class="cls-10" d="M681.77,267.33c-1.01,13.88-3.06,15.8-16.29,16.87,13.24,1.07,15.28,2.98,16.29,16.87,1.01-13.88,3.06-15.8,16.3-16.87-13.24-1.07-15.28-2.99-16.3-16.87h0ZM691.9,266.85c.41,5.6,1.23,6.38,6.58,6.81-5.34.43-6.17,1.21-6.58,6.81-.41-5.6-1.24-6.38-6.58-6.81,5.34-.43,6.17-1.21,6.58-6.81Z"/><path class="cls-10" d="M826.17,262.92c-1.01,13.88-3.06,15.8-16.29,16.87,13.24,1.07,15.28,2.98,16.29,16.87,1.01-13.88,3.06-15.8,16.3-16.87-13.24-1.07-15.28-2.99-16.3-16.87h0ZM836.29,262.44c.41,5.6,1.23,6.38,6.58,6.81-5.34.43-6.17,1.21-6.58,6.81-.41-5.6-1.24-6.38-6.58-6.81,5.34-.43,6.17-1.21,6.58-6.81Z"/><path class="cls-10" d="M900.33,562.39c-.83,11.41-2.51,12.99-13.4,13.87,10.88.88,12.57,2.45,13.4,13.87.83-11.41,2.52-12.99,13.4-13.87-10.88-.88-12.56-2.45-13.4-13.87h0ZM908.65,561.99c.34,4.61,1.02,5.24,5.41,5.6-4.39.35-5.07.99-5.41,5.6-.34-4.61-1.02-5.24-5.41-5.6,4.39-.35,5.07-.99,5.41-5.6Z"/><path class="cls-10" d="M876.08,681.98c-.83,11.41-2.51,12.99-13.4,13.87,10.88.88,12.57,2.45,13.4,13.87.83-11.41,2.52-12.99,13.4-13.87-10.88-.88-12.56-2.45-13.4-13.87h0ZM884.4,681.59c.34,4.61,1.02,5.24,5.41,5.6-4.39.35-5.07.99-5.41,5.6-.34-4.61-1.02-5.24-5.41-5.6,4.39-.35,5.07-.99,5.41-5.6Z"/><polygon class="cls-32" points="587.32 510.67 588.76 503.5 803.03 550.44 587.32 510.67"/><polygon class="cls-32" points="577.47 553.49 578.98 546.04 804.96 550.92 577.47 553.49"/><path class="cls-18" d="M331.4,779.95l-5.12,16.15c-.34,2.54-1.78,8.81-1.71,11.11.28,8.61,38.63-8.58,29.79-12.13-.8-.33-3.37-3-3.72-5.93-.56-4.49,2.93-10.25,2.93-10.25l-22.18,1.05Z"/><path class="cls-18" d="M246.61,767.68s-6.09,6.34-6.17,8.6c-.07,2.26.32,26.39,2.96,28.56,2.65,2.17,10.26,3.54,7.91,6.15-1.77,1.95-15.91,2.01-25.29,1.83-2.72-.09-6.88-21.71-8.07-24.87-1.71-4.59-7.71-14.55-6.4-17.8.65-1.6,5.71-5.38,10.3-8.55,4.82-3.36,9.32-10.6,9.32-10.6l15.44,16.69Z"/><path class="cls-12" d="M375.07,476.33l15.26,35.42s12.01,85.35,8.36,136.78c-1.54,21.53-46.15,137.9-46.15,137.9l-24.16-2.59,27.72-136.98-13.56-51.59-20.16-102.23,52.7-16.72Z"/><path class="cls-12" d="M308.85,480.37l-10.76,40.34-14.37,121.24-58.38,114.88s9.8,13.85,19.9,15.72l84.38-116.96,43.06-144.34-2.72-31.68-61.11.8Z"/><path class="cls-18" d="M322.11,279.51l-6.76,30.42s14.69,37.78,25.15,35.31c8.76-2.1,5.66-34.83,5.66-34.83,0,0-3.52-17.74-1.53-26.37,2-8.57-22.52-4.54-22.52-4.54Z"/><path class="cls-31" d="M344.62,284.06c2-8.57-22.52-4.54-22.52-4.54l-.55,2.51c.59,1.77,1.34,3.31,2.33,4.49,4.99,6.11,13.19,10.17,20.44,10.9-.4-4.74-.52-9.8.29-13.35Z"/><path class="cls-18" d="M321.08,235.77c-.66-.29-7.82,34.63.6,44.96,8.43,10.28,25.89,14.68,32.76,7.45,3.39-3.55,10.37-13.74,6.77-25.99-3.65-12.42-2.99-24.81-10.43-30.87-13.43-10.91-29.7,4.45-29.7,4.45Z"/><path class="cls-18" d="M329.5,263.08c-.22,4.31-2.43,7.72-4.92,7.56-2.51-.12-4.37-3.71-4.14-8.02.22-4.31,2.41-7.68,4.92-7.56,2.51.12,4.35,3.71,4.14,8.02Z"/><path class="cls-26" d="M354.58,279.07c-23.78,6.85-38.73,6.66-44.84-.57-6.57-2-10.53-8.22-11.86-18.64-5.86-16.14,1.74-40.77,10.62-27.72,9.42-20.02,40.87-5.93,59.83-16.11,10.55,7.95,5.16,25.5-3.18,31-1.07,20.53-2.93,31.41-10.56,32.05Z"/><path class="cls-26" d="M303.1,234.03c2.64-1.77,3.59-3.82,2.85-6.18-3.71-2.42-7.37-2.74-10.98-.95,2.1.26,4.81,2.64,8.12,7.13Z"/><path class="cls-26" d="M308.26,228.95c-1.92,1.88-3.59,2.21-5,.99-.67-3.83.1-7.1,2.29-9.82-.38,1.9.52,4.84,2.71,8.83Z"/><path class="cls-6" d="M319.95,238.37c-4.26-2.02-7.61-1.67-10.05,1.06-.26,6.57,2.25,19.98,7.28,23.22.95-.58,1.67-14.47,2.77-24.29Z"/><path class="cls-6" d="M322.02,232.14c-7.64,3.09-10.29,6.16-7.97,9.22,11.05,2.4,21.81,1.91,32.29-1.46-6.19.17-14.29-2.42-24.32-7.75Z"/><path class="cls-26" d="M364.67,246.13c-7.8-9.02-23.53-11.1-45.82-4.61-13.54-4.34-16.21-10.91-9.7-20.88,9.2-14.07,26.21-1.31,48.93-13.61-1.55,10.64,30.27,21.98,6.59,39.1Z"/><path class="cls-18" d="M311.85,249.8c5.86-.85,4.51,10.98,3.68,16.83-1.64,11.5-12.91-15.51-3.68-16.83Z"/><path class="cls-18" d="M318,308.78c-1.08-3.5.57-18.42.51-23.44-.54-1.94-1.07-4.37-1.6-7.3-11.76-9.2-13.03-15.51-3.8-18.92,1.74,1.13,3.77,4.4,6.09,9.8,2.14.06,3.84-.93,5.08-2.95-1.95-8.98-3.13-16.25-3.52-21.8,6.68-8.61,20.97-8.95,39.61-5.25.54,5.06.89,10.41,1.07,16.05,2.2,2.31,6.58,38.84-16.62,38.75-.33,2.63-.31,5.89-.16,6.26.23.59-3.51,6.48-2.23,7.04-.94-3.14-5.32,63.9-24.43,1.77Z"/><path class="cls-17" d="M360.36,238.91c-18.64-3.7-32.93-3.37-39.61,5.25.4,5.55,1.57,12.82,3.52,21.8-1.24,2.02-2.94,3.01-5.08,2.95-2.32-5.4-4.36-8.67-6.09-9.8-9.23,3.41-7.96,9.72,3.8,18.92.53,2.93,1.07,5.37,1.6,7.3-10.92-3.23-19.53-13.77-20.54-18.15-11.22-26.36,3.93-36.16,11.91-39.56,5.1-25.01,40.26-.24,59.44-11.17,6.62,10.57-3.25,22.61-8.96,22.46Z"/><path class="cls-31" d="M332.63,290.29c2.91,1.69,6.97,2.83,12.18,3.42-.22,1.77-.28,3.81-.26,5.08-5.19-1.37-9.17-4.2-11.93-8.5Z"/><path class="cls-26" d="M358.1,232.52c2.69,2.38,3.44,4.83,2.26,7.35-4.52,2.15-8.66,1.95-12.44-.6,2.39.02,5.79-2.23,10.18-6.75Z"/><path class="cls-29" d="M338.41,252.41c-1.51-.14-2.85.97-2.99,2.48-.14,1.51.97,2.85,2.48,2.99,1.51.14,2.85-.97,2.99-2.48.14-1.51-.97-2.85-2.48-2.99Z"/><path class="cls-29" d="M337.9,257.88c-1.51-.14-2.62-1.48-2.48-2.99.14-1.51,1.48-2.62,2.99-2.48.63.06,1.2.33,1.63.73l-.21-.05c-.49-.05-.92.31-.97.8-.05.49.31.92.8.97.49.05.92-.31.97-.8v-.1c.21.43.31.93.26,1.44-.14,1.51-1.48,2.62-2.99,2.48Z"/><path class="cls-29" d="M341.41,250.57c.06.05.11.09.16.15-.07-.25-.37-.58-.49-.79.12.1.19.13.31.29.1.14.17.28.25.46.01-.19-.06-.32-.08-.49.09.13.16.38.17.53-.01-.55-.03-.52-.25-1.04.23.16.4.66.44.94.06-.12.06-.28.06-.44.1.19.1.28.09.47l.15-.2c-.02.13-.06.16-.08.26.27-.21.75-.92.7-1.29-.05.16-.16.45-.24.54.03-.26.12-.55.08-.86-.08.19-.05.45-.11.67-.05.21-.14.46-.24.59.08-.44.21-.81.08-1.3l-.02.12c0,.23.01.48-.04.71-.06-.41-.02-.8-.37-1.11.08.17.16.27.22.48-.18-.19-.26-.54-.57-.58.14.16.26.26.41.48.11.17.28.47.21.69-.2-.76-.63-1.15-1.15-1.29.14.07.58.39.62.57v.03c-.03.2-.03-.18-.01.05.1.07.22.24.28.37.04.08.08.18.11.27.01.04.03.12.04.16,0,.05,0,.04,0,.08v.05c-.16-.5-.33-.78-.67-1.06-.21-.17-.7-.47-.99-.51,0,0,.02.01.02.01l.24.11c.57.29,1.13.64,1.31,1.36-.03-.03,0,0-.05-.06-.01-.02-.01-.02-.03-.04-.12-.21-.25-.43-.43-.61-.18-.19-.41-.37-.61-.48-.26-.14-1.09-.45-1.51-.4.13,0,.91.22,1.04.28.29.12.67.29.88.57-.12-.03-.25-.12-.36-.17-.72-.32-1.98-.8-2.74-.75.46.09,1.13.3,1.48.5l-.29-.06c.08.04.15.08.23.12.08.04.15.07.23.11.39.22.99.61,1.21,1.03-.1-.1-.24-.2-.36-.3-.13-.11-.24-.19-.38-.29-.25-.17-.53-.37-.8-.5-.58-.27-1.13-.5-1.78-.64.09.03.18.07.25.15-.53-.02-1.4-.44-2.72-.49.28.1.76.13,1.08.23l.3.11c-.17,0-.75-.14-.98-.18-1.13-.21-1.84-.35-3.07-.33-.79.01-1.52.02-2.31.36-.51.22-.99.48-1.4.83-.15.12-.23.22-.34.33.32-.16,1.01-.86,1.71-1.02-1.07.64-1.92,1.2-2.66,2.04.2-.13.49-.41.71-.58.25-.2.51-.38.77-.56.47-.32,1.24-.76,1.85-.92-.14.11-.52.3-.7.41-1.32.77-2.59,1.64-3.75,2.63-.14.12-.41.41-.51.48.13-.05.61-.44.78-.56.85-.6,1.66-1.15,2.71-1.46-.27.22-2.17,1-2.76,1.56l1.63-.84c.49-.23,1.33-.6,1.88-.68-.62.13-3.04,1.25-3.52,1.67.26-.09.63-.31.9-.43.33-.15.65-.28.98-.4.68-.25,1.4-.47,2.12-.58.97-.14,1.89-.13,2.83-.05.27.03.64.09.89.08-.16-.09-.62-.12-.79-.14-.54-.07-1.09-.11-1.64-.11-.22,0-.67.06-.85.03.66-.17,1.17-.11,1.74-.19-.05,0-.02,0-.07-.01-.05-.02-.03,0-.07-.03.35-.04,1.02.08,1.35.16.38.09,1.15.38,1.19.39-.09-.07-.18-.11-.26-.19l.93.21-1.15-.41c.23.03.54.14.76.2.27.07.84.2,1.09.3.3.11.85.18,1.16.19-.11-.07-.48-.17-.65-.22l-.62-.21c-.12-.05-.22-.07-.31-.12-.29-.15-.59-.26-.89-.37-.54-.21-2.11-.67-2.68-.5.74-.24,2.26.21,2.79.42l1.25.5c.11.04.2.08.31.13.3.12.61.25.93.34l-.02-.07s0-.01,0-.01c0,0,0,0,0-.01,0,0,0,0,0-.01.11.07.43.19.58.2-.3-.28-1.05-.51-1.32-.87.26.08.57.31.8.46.09.05.17.09.25.14-.2-.36-.61-.66-.94-.89l-.37-.22c.31.02.67.31.9.51.23.2.43.44.63.68.02.03.02.02.04.05.04.04.02.02.06.04l-.28-.48c.05.09.44.48.46.61-.05-.25-.21-.45-.32-.65l.18.13c-.29-.49-.98-.83-1.41-1.13.42.04,1.19.63,1.48,1.02.13.19.23.42.35.57l-.14-.38s.01,0,.02.01l.21.24c-.16-.48-.4-.73-.69-1.03.13.03.22.11.32.21.09.08.18.19.26.3.16.23.3.48.41.76.02-.12-.06-.33-.11-.46.09.02.01,0,.09.04.13.09.22.28.3.4l-.05-.29.2.29c-.04-.26-.13-.41-.19-.63.16.11.23.31.31.52.03-.09-.01-.24-.05-.35l.22.23c.06.08.11.17.17.24-.06-.25-.18-.38-.29-.58.24.15.33.38.5.63-.05-.29-.27-.72-.43-.9.26.04.43.73.56.87v-.3s0,0,.04.05l.16.29-.02-.38c.1.11.12.23.19.38,0-.02,0-.32-.06-.49.05.03.01,0,.08.05.11.11.16.27.27.38l-.12-.3s.02,0,.06.03l.14.12Z"/><path class="cls-29" d="M357.32,251.62c1.51.14,2.62,1.48,2.48,2.99-.14,1.51-1.48,2.62-2.99,2.48-1.51-.14-2.62-1.48-2.48-2.99.14-1.51,1.48-2.62,2.99-2.48Z"/><path class="cls-29" d="M356.81,257.09c1.51.14,2.85-.97,2.99-2.48.14-1.51-.97-2.85-2.48-2.99-.63-.06-1.24.1-1.73.42h.21c.49.04.85.47.8.96-.05.49-.48.85-.97.8-.49-.05-.85-.48-.8-.97l.02-.1c-.28.39-.47.85-.52,1.37-.14,1.51.97,2.85,2.48,2.99Z"/><path class="cls-29" d="M352.15,250.8c-.05.05-.1.09-.15.15.07-.25.34-.59.44-.79-.11.1-.17.13-.28.29-.09.14-.15.29-.22.46-.01-.19.05-.32.07-.49-.08.13-.14.38-.16.54.01-.55.03-.52.23-1.04-.21.16-.37.66-.4.95-.05-.12-.05-.28-.05-.43-.09.19-.09.28-.08.47l-.13-.2c.02.13.05.16.07.26-.24-.2-.67-.91-.62-1.28.04.16.14.44.21.53-.03-.26-.11-.55-.06-.85.07.19.04.45.09.66.05.21.12.45.21.58-.07-.44-.18-.81-.06-1.3v.12c.02.23,0,.48.05.71.06-.41.03-.8.34-1.11-.07.17-.14.28-.2.48.17-.19.23-.54.51-.58-.12.16-.24.27-.36.49-.1.18-.25.47-.19.69.19-.76.58-1.16,1.04-1.3-.13.08-.52.4-.56.58v.03c.03.2.03-.18.01.05-.09.08-.2.24-.26.37-.04.08-.07.18-.1.27-.01.04-.03.12-.03.16,0,.05,0,.04,0,.08v.05c.14-.51.3-.79.61-1.07.19-.17.63-.48.89-.52,0,0-.01.01-.02.01l-.21.12c-.51.3-1.01.66-1.18,1.38.03-.03,0,0,.05-.06.01-.02.01-.02.02-.04.11-.21.23-.44.38-.61.17-.19.37-.38.55-.49.23-.15.98-.47,1.35-.42-.11,0-.81.24-.93.29-.26.12-.6.29-.79.58.11-.03.22-.12.33-.17.65-.33,1.78-.82,2.46-.79-.42.1-1.02.31-1.33.52l.26-.06c-.07.04-.13.09-.21.13-.07.04-.13.07-.21.12-.35.23-.89.62-1.09,1.05.09-.1.22-.2.33-.3.12-.11.22-.2.34-.29.23-.17.47-.37.72-.51.52-.28,1.02-.52,1.6-.67-.08.04-.16.07-.23.16.47-.03,1.25-.46,2.45-.53-.25.1-.68.14-.97.24l-.27.11c.16,0,.67-.15.88-.19,1.02-.22,1.65-.38,2.76-.38.71,0,1.37,0,2.07.33.46.21.88.47,1.26.81.13.12.2.21.31.33-.28-.16-.9-.85-1.53-.99.96.62,1.71,1.17,2.38,2-.18-.13-.43-.4-.63-.57-.23-.19-.45-.37-.69-.55-.42-.31-1.11-.74-1.65-.89.12.11.46.3.62.4,1.18.75,2.31,1.6,3.35,2.57.12.12.37.4.46.47-.11-.05-.55-.44-.69-.55-.76-.58-1.49-1.12-2.43-1.41.24.21,1.94.97,2.47,1.51l-1.46-.82c-.44-.23-1.19-.58-1.68-.65.56.12,2.72,1.21,3.15,1.62-.23-.09-.56-.3-.81-.42-.29-.14-.58-.27-.88-.39-.61-.24-1.25-.45-1.89-.55-.87-.13-1.7-.11-2.54,0-.24.03-.57.1-.8.1.14-.09.56-.13.71-.16.49-.08.98-.13,1.48-.14.2,0,.6.05.76.02-.59-.16-1.05-.1-1.56-.16.05,0,.02,0,.06-.02.05-.02.02,0,.06-.03-.31-.03-.92.1-1.21.18-.34.1-1.04.4-1.07.41.08-.07.16-.12.23-.19l-.84.23,1.03-.43c-.2.03-.48.15-.68.21-.25.07-.75.21-.98.31-.27.12-.77.19-1.04.2.1-.07.43-.18.58-.23l.56-.22c.11-.05.19-.07.28-.12.26-.15.53-.26.8-.39.49-.22,1.9-.7,2.41-.54-.66-.23-2.03.25-2.51.46l-1.12.52c-.1.04-.18.09-.28.13-.27.12-.55.26-.84.35l.02-.07s0-.01,0-.01c0,0,0,0,0-.01,0,0,0,0,0-.01-.1.07-.39.2-.52.21.27-.28.95-.52,1.18-.89-.23.09-.51.31-.72.47-.08.06-.15.09-.23.14.19-.36.55-.66.84-.9l.33-.22c-.27.02-.6.32-.81.52-.21.2-.39.45-.57.69-.02.03-.02.02-.04.05-.04.04-.02.02-.05.04l.26-.48c-.05.1-.4.49-.42.62.04-.25.19-.45.29-.65l-.16.13c.26-.49.88-.84,1.27-1.15-.38.05-1.08.65-1.33,1.04-.12.19-.21.42-.32.57l.13-.38s-.01.01-.02.01l-.18.24c.15-.48.36-.74.62-1.04-.11.03-.2.12-.29.21-.08.08-.17.19-.24.3-.15.23-.27.48-.37.77-.02-.11.05-.33.1-.46-.08.03-.01,0-.08.04-.12.09-.2.28-.27.41l.05-.29-.18.29c.04-.26.12-.41.18-.64-.14.11-.21.32-.28.52-.02-.09.01-.24.04-.35l-.2.23c-.05.08-.1.17-.15.25.06-.25.16-.39.26-.58-.22.15-.29.39-.45.64.05-.29.24-.73.39-.91-.24.04-.39.73-.5.88v-.3s0,0-.03.05l-.15.3.02-.38c-.09.11-.11.23-.18.38,0-.02,0-.32.05-.49-.05.03,0,0-.07.05-.1.11-.15.27-.24.39l.11-.31s-.02,0-.05.03l-.13.12Z"/><path class="cls-4" d="M349.13,256.17c-.19-.18-.49-.17-.67.01-.18.19-.17.49.01.67.34.33,1.25,2.61,2.12,5.07,1.04,2.94,2.03,6.1,1.99,6.53-.18,1.91-1.73,1.99-2.78,2.04-.52.02-.96.05-1.26.25-.21.15-.27.44-.12.66.15.21.44.27.66.12.07-.05.39-.07.77-.08,1.39-.07,3.43-.17,3.68-2.9.05-.55-.96-3.89-2.04-6.93-.91-2.57-1.9-4.99-2.36-5.43Z"/><path class="cls-11" d="M354.41,277.75c-4.48.23-4.17.33-9.95.44-2.05.04-3.56-.02-1.49.78,3.2,1.24,9.83.68,11.67-1.13l-.23-.1Z"/><path class="cls-18" d="M489.42,467.42c-9.39-.14-9.04,1.45-10.25,1.37-1.41-.04-16.94-11.07-16.94-11.07,0,0-45.93-32.17-48.34-33.99l-29.64-49.82-28.93,7.7s33.69,53.31,35.94,55.8c2.23,2.45,69.4,38.73,75.23,42.14,0,0,5.43,6.59,8.98,10.62,3.55,4.02,8.71,6.25,9.89,7.24.17.12,4.27,3.19,10.32,5.54,5.21,2.1,1.23-2.23,1.23-2.23,0,0-8.97-5.58-8.41-6.19.43-.5,5.15,2.83,10.89,5.17,1.48.6,2.93,1.17,4.27,1.69,3.53,1.39,5.41-.34,1.94-2.41-1.23-.72-3.29-1.85-4.86-2.46-1.72-.69-3.08-1.85-4.43-2.61-2.68-1.54-4.67-2.65-4.55-2.71.17-.08-.16-.78,1.43-.17,1.92.7,5.62,3.1,8.53,3.94,1.64.48,4.99,1.65,4.99,1.65,0,0,5.67,1.33,5.81,1.02.85-1.6-2.94-3.72-5.23-4.04-1.36-1.01-4.92-2.13-4.92-2.13,0,0-6.7-3.95-6.16-4.9.44-.8,18.31,5.54,19.06,3.89.6-1.38-4.69-3.54-4.69-3.54,0,0-3.3-1.05-4.37-1.49-1.25-.51-4.9-2.34-4.9-2.34,0,0-12.35-6.89-11.76-7.76.58-.87,2.99-2.45,3.91-2.28.92.17,2.44,1.35,3.33,1.48.92.17,2.26-.41,2.55-1.5.27-1.13-3.84-3.59-3.84-3.59,0,0-3.34-1.98-6.06-2Z"/><path class="cls-13" d="M380.66,424.85c-25.02-21.79-46.33-44.72-63.91-68.79.22-3.11.49-6.38.81-9.8l71.46,31.68c4.16,12.89,8.1,15.25,13.08,24.89,17.97,13.66,39.23,34.23,66.33,58.29.32,3.87-3.9,10.16-8.62,15.46-15.52-6.37-46.71-19.81-79.33-44.95-1.8-1.52,1.93-5.24.17-6.77Z"/><path class="cls-16" d="M368.3,489.09c-3.03-24.59-6.69-56.73-11.63-95.65,1.09-32.33,1.3-59.64.63-81.93-.9-.3-1.87-.57-2.91-.81.33,5.48.33,10,.01,13.57-1.52-4.17-4.18-7.53-7.99-10.07-1.08,2.26-1.35,4.7-3.12,7.47-2.06-2.01-4.01-3.93-5.3-5.4-3.6,4.62-6.14,9.42-9.39,14.28-6.94-8.5-12.74-16.28-18.95-21.12-2.03,1.13-3.85,2.2-5.46,3.23,9.51,30.23,18.43,58.47,26.77,84.72,2.51,26.36,3.48,57.66,2.91,93.88,5.11.61,29.1-.99,34.42-2.17Z"/><path class="cls-19" d="M299.1,366.53c12.73,14.29,23.35,24.57,31.86,30.85-8.45-26.62-12.58-56.71-22.25-87.43-2.96,2.67-10.25,6.72-12.01,9.31-.27,12.59-.12,22.19.45,28.79,4.6,3.4,8.28,5.5,11.04,6.31-4.01,3.88-7.04,7.94-9.1,12.18Z"/><path class="cls-19" d="M375.54,356.85c-5.51,13.38-11.81,25.58-18.88,36.59,1.1-32.91,1.3-60.61.59-83.11,3.39,1.76,5.93,3.46,7.83,5.35.37.4.72.8,1.06,1.21,3.93,12.45,6.53,22.21,7.8,29.28-3.24,1.61-5.97,3-8.2,4.18,3.15,1.97,6.42,4.14,9.8,6.51Z"/><path class="cls-13" d="M356.67,393.44c9.89,77.9,14.63,128.6,19.52,146.07,12.21-1.75,21.45-7.8,26.97-13.66-3-44.4-9.13-72.63-12.17-98.54,2.55-42.8-4.06-83.2-13.39-101.14-6.46-6.17-7.53-5.11-11.45-9.28,3.93,12.45,6.53,22.21,7.8,29.28-3.24,1.61-5.97,3-8.2,4.18,3.15,1.97,6.42,4.14,9.8,6.51-5.51,13.39-11.81,25.58-18.88,36.59Z"/><path class="cls-5" d="M328.87,331.34c-7.01-8.59-12.86-16.45-19.15-21.27.57-2.71.94-4.73,1.61-6.79.32-.98,2.36-2.17,5.12-2.78-.24.45-.73,2.34-.26,2.61.12.07.22.17.33.25,6.68,5.04,13.69,9.35,22.25,13.07-3.87,4.82-6.5,9.83-9.89,14.91Z"/><path class="cls-5" d="M354.61,310.94c.36,5.73.38,10.43.05,14.12-1.52-4.17-4.18-7.53-7.99-10.07-.73-4.81-1.26-9.34-1.6-13.56,4.1,1.39,7.28,4.56,9.54,9.51Z"/><path class="cls-27" d="M351.92,328.46c-2.41-3.61-5.13-5.7-8.17-6.28-2.21,1.06-4.55,3.42-7,7.09,2.12,3.4,4.33,5.75,6.63,7.05-3.35,26.77-4.08,63.91-2.2,111.43,3.44,6.97,6.75,11.98,9.93,15.03,3.53-5.6,5.65-11.34,6.35-17.2-4.58-49.78-7.52-86.12-8.84-109.02,2.03-2.85,3.13-5.55,3.3-8.09Z"/><path class="cls-11" d="M336.23,319.82c-1.41,2.04-2.69,4.1-3.98,6.19,1.27.79,2.89,1.69,4.86,2.73,1.64-2.34,3.23-4.09,4.77-5.24-1.93-1.33-3.81-2.56-5.64-3.68h0ZM348.33,316.21c-.62,2.48-1.51,4.79-2.68,6.92,1.74.78,3.36,2.1,4.86,3.98.77-1.31,1.38-3.5,1.82-6.58-1.1-1.61-2.44-3.05-4.01-4.32Z"/><path class="cls-26" d="M222.15,761.4s14.59,39.59,20.33,41.39c1.54.45,10.09,2.28,11.56,5.44l.11.31c.51,2.01-1.17,3.92-3.26,3.99l-26.96.89s-4.42-17.86-6.2-25.7c0,0-8.64-19.07-7.81-20.82.83-1.79,12.24-5.5,12.24-5.5Z"/><path class="cls-26" d="M322.45,810.12l3.99-14.21s9.47,3.66,14.12,2.83c4.66-.79,13.7-3.75,13.7-3.75,18.86,5.52,34.24,7.99,31.62,13.04l-63.43,2.09Z"/><path class="cls-30" d="M481.38,468.06c-2.43,16.96-33.26,7.7-30.69-8.92,2.64-17.07,33.06-7.55,30.69,8.92h0ZM525.26,509.66c-1.07,5.43-8.89,3.62-8.06-1.17,1.01-5.77,9.01-3.67,8.06,1.17h0ZM481.75,479.19c2.42-3.42,4.64-4.34,5.52-10.1,1.59-10.38-6.6-20.64-17.64-23.99-22.52-6.84-37.45,20.34-11.1,35.62,4.72,2.74,23.8,11.36,30.73,14.76,3.41,1.67,19.75,9.04,21.36,11.9,3.2,5.71-5.77,2.93,17.02,14.64,30.93,15.91,61.66,29.73,93.58,43.66,5.22,2.28,11.51,5.34,16.8,7.07-2.04-2.41-14.4-9.93-18.14-12.38-6.28-4.12-12.33-8.08-18.58-12.07-33.66-21.51-62.27-39.8-98.08-58.23-4.09-2.1-19.08-8.91-21.46-10.88Z"/><path class="cls-30" d="M448.95,528.35c-8.8-.62-16.14-7.1-15.01-14.35,1.25-8.05,10.66-11.29,17.43-10.62,21.14,2.07,19.06,26.48-2.42,24.97h0ZM471.74,511.85c2.73-.67,37.58,5.43,42.24,4.58-5.36-3.7-3.41-5.45-4.59-8.06-1.41-3.11-6.57-3.95-9.73-4.32-7.68-.91-15.17-1.96-22.96-3.1-16.36-2.4-31.07-7.16-41.94,1.1-12.73,9.68-7.15,27.78,10.01,31.77,7.78,1.81,15.5-.28,19.64-3.37,7.57-5.65,8.3-10.33,7.32-18.59Z"/><path class="cls-30" d="M654.62,521.62c-6.09-2.44-86.56-15.25-95.59-16.56-9.91-1.44-21.33-3.2-31.08-3.76l28.7,17.05c3.45,2.15,11.98,1.7,16.46,1.82,5.68.16,10.89.36,16.5.49l49.15.93c2.89.05,14.47-.32,15.86.03Z"/><path class="cls-30" d="M525.26,509.66c.95-4.84-7.05-6.94-8.06-1.17-.84,4.79,6.99,6.6,8.06,1.17Z"/><path class="cls-13" d="M296.71,319.25c-10.16,6.35-19.31,12.29-27.42,17.82-29.25,19.93,13.33,81.18,13.48,80.94.32,1.85.66,3.65.99,5.43l1.9,6.17-.65.2c1.49,7.51,2.9,14.6,3.51,21.86-1.26,22.48-1.35,49.28-6.32,80.6,7.7,6.91,24.35,10.63,49.95,11.17,11.65-60.68,6.29-108.47-1.19-146.06-8.52-6.27-19.14-16.56-31.86-30.85,2.06-4.24,5.09-8.3,9.1-12.18-2.76-.81-6.44-2.91-11.04-6.31-.57-6.6-.72-16.2-.45-28.79Z"/><path class="cls-18" d="M441.78,490.51c-10.03.39-9.52,2-10.83,2-1.53.02-18.91-10.49-18.91-10.49,0,0-51.5-30.67-54.23-32.43l-35.41-49.7-30.33,9.45s39.98,53.09,42.59,55.53c2.6,2.45,77.05,36.2,83.54,39.38,0,0,6.33,6.5,10.43,10.46,4.06,3.93,9.77,5.99,11.07,6.92.22.16,4.82,3.06,11.47,5.21,5.72,1.84,1.11-2.43,1.11-2.43,0,0-9.98-5.24-9.44-5.91.41-.54,5.74,2.64,12.04,4.75,1.59.53,3.23,1.06,4.69,1.53,3.9,1.27,5.73-.67,1.89-2.59-1.35-.68-3.67-1.76-5.41-2.31-1.87-.58-3.39-1.7-4.91-2.43-2.96-1.44-5.16-2.45-5.05-2.56.16-.1-.23-.79,1.51-.26,2.11.63,6.26,2.92,9.39,3.6,1.77.39,5.47,1.45,5.47,1.45,0,0,5.86.58,5.99.26.81-1.7-3.12-3.19-5.6-3.43-1.52-.93-5.42-1.91-5.42-1.91,0,0-7.45-3.7-6.96-4.74.24-.41,5.07,1.32,10.1,2.34,4.67.93,9.52,1.15,9.81.27.55-1.43-4.54-3.01-4.54-3.01,0,0-3.58-.9-4.77-1.3-1.37-.45-5.4-2.13-5.4-2.13,0,0-13.74-6.46-13.17-7.38.57-.91,3.04-2.67,4.02-2.56.98.11,2.7,1.25,3.69,1.36.99.11,2.36-.55,2.59-1.7.24-1.16-4.36-3.49-4.36-3.49,0,0-3.72-1.85-6.65-1.77Z"/><path class="cls-13" d="M269.99,391.43c.07-3.12,15.25-29.03,15.41-32.46l31.5,35.86c12.27,7.01,11.77,10.37,18.57,23.41,1.86,3.56,18.36,13.45,20.78,17.66,18.6,12.8,42,30.57,70.21,53.32.51,3.85-3.41,10.33-7.88,15.85-15.8-5.63-51.51-14.36-85.28-37.93-3.32-2.55-51.65-61.21-63.32-75.7Z"/><path class="cls-13" d="M291.49,450.63c-1.88-16.59,43.4,28.45,41.82,16.5-.73,3.44-46.99-43.16-50.54-49.12,2.12,12.19,4.83,22.73,5.75,33.66-1.26,22.48-1.36,49.28-6.32,80.6.7.63,1.48,1.23,2.33,1.81,4.25-19.34,6.56-47.15,6.95-83.45Z"/></svg>