<?xml version="1.0" encoding="UTF-8"?><svg xmlns="http://www.w3.org/2000/svg" viewBox="0 0 1000 1000"><defs><style>.cls-1{fill:#111;}.cls-2{opacity:.92;}.cls-3{fill:#0c0c0c;}.cls-4{fill:#edf6fb;}.cls-5{fill:#333130;}.cls-6{fill:none;stroke:#000;stroke-miterlimit:10;stroke-width:2px;}.cls-7{isolation:isolate;}.cls-8{fill:#0c3879;}.cls-9{fill:#002a69;}.cls-10{fill:#ffb685;}.cls-11{fill:#444;}.cls-12{fill:#212120;}.cls-13{fill:#d1d3d4;mix-blend-mode:multiply;}.cls-14{fill:#5b628c;}.cls-15{fill:#002152;}.cls-16{opacity:.35;}.cls-17{opacity:.1;}.cls-18{opacity:.68;}.cls-18,.cls-19{fill:#15e9f4;}.cls-20{fill:#161616;}</style></defs><g class="cls-7"><g id="Layer_1"><g class="cls-17"><polygon class="cls-18" points="449.58 921.65 450.19 241.36 404.61 241.36 487.48 158.76 569.91 241.36 527.37 241.36 526.76 921.65 449.58 921.65"/><polygon class="cls-18" points="651.03 922.53 650.73 295.44 613.96 295.44 682.85 226.82 751.3 296.05 716.06 296.05 715.45 922.53 651.03 922.53"/><path class="cls-18" d="M94.08,922.53V352.56c-9.6.29-19.29-.37-28.89-.02-2.27.08-4.1.83-6.67.63-.91-.07-1.76.47-1.5-.9l68.28-67.72,68.45,68.63h-35.25v569.36h-64.42Z"/><polygon class="cls-18" points="335.94 921.65 336.55 412.12 298.87 412.12 367.24 343.46 435.6 412.12 400.36 412.12 400.36 921.65 335.94 921.65"/><polygon class="cls-18" points="844.59 917.23 844.28 490.52 808.12 490.52 875.88 422.46 943.03 490.52 909.31 490.52 909 917.23 844.59 917.23"/></g><path d="M750.57,898l-16.74,9.51-21.82-2.26s-2.8,12.25,7.89,13.35c10.69,1.11,40.26-.16,40.26-.16l15.1.32-4.39-10.3-2.49-8.61-17.82-1.84Z"/><path d="M883.24,903.47l-11.45,8.35-16.18-.21s-1.01,9.47,6.92,9.58c7.93.1,29.48-2.89,29.48-2.89l11.09-.8-4.1-7.5-2.56-6.36-13.21-.17Z"/><path class="cls-1" d="M855.44,526.36l6.72,197.66s51.04,64.43,36.38,181.04l-15.13,5.08-87.86-252.18s32.38-149.73,59.88-131.6Z"/><path class="cls-1" d="M744.3,518.6l-5.3,193.47,10.55,185.93,16.62,1.72c2.21-3.47,47.77-129.09,16.5-204.59l58.49-136.17s12.89-31.62,12.06-59.94l-108.93,19.57Z"/><polygon class="cls-12" points="759.14 480.17 725.72 531.37 745.67 545.39 759.14 480.17"/><path class="cls-1" d="M836.88,329.28l-63.32,84.11-109.87-20.5,5.92-10.96,84-1.46,48.9-74.3s28.96-21.66,36.93,11.04c1.02,4.19.03,8.63-2.56,12.07Z"/><path class="cls-10" d="M827.47,204.49l-21.12,28.58-15.11,14.63,5.69,5.88s-3.81,31.34,24.38,25.18l7.23,12.51,2.27,27.04,35.54-14.86,15.78-1.38-18.63-26.76s-18.89-58.15-36.04-70.82Z"/><path d="M819.07,212.62s17.18,1.07,20.54,7.07c3.36,5.99-12.52,32.33-12.52,32.33l4.06,4.2,14.72-14.25s11.52,5.11,6.41,13.31l-6.73,6.52,17.96,13.51,23.09-48.38-9.21-17.91s-66.32-35.81-58.31,3.6Z"/><path class="cls-10" d="M821.31,278.76l13.82-5.56,11.35-40.58s12.88,6.79,3.4,32.44l8.22,6.18,5.4,4.07-14.27,13.82-20,3.58-7.92-13.94Z"/><path class="cls-14" d="M807.32,231.56s3.73-3.99,6.83,2.3l4.5,3.93s-13.46-2.46-11.33-6.23Z"/><path class="cls-12" d="M837.2,575.57c7.15-17.99,29.38-42.86,15.35-79.33l54.46-156.16c1.75-5.01.59-10.57-3.01-14.47l-22.67-24.56-55.59-1.15-21.86,38.59-32.53,92.18-27.47,109.51-1.09,36.23,94.41-.85Z"/><polygon class="cls-12" points="842.66 490.82 857.09 518.6 862.1 578.78 800.03 574.12 764.14 505.64 842.66 490.82"/><polygon class="cls-4" points="825.75 299.91 869.03 290.12 878.77 298.79 826.42 322.83 825.75 299.91"/><path class="cls-4" d="M766.18,452.46l19.18-86.26c.92-4.16,2.7-8.08,5.2-11.52l33.85-50.87-58.23,148.65Z"/><path class="cls-12" d="M766.18,452.46l66.81-114.13-11.1-28.1s-53.53,134.66-55.71,142.23Z"/><polygon class="cls-9" points="796.93 571.59 797.16 573.13 802.81 575.36 796.93 571.59"/><polygon class="cls-12" points="849.76 576.07 775.79 568.35 755.46 497.52 768.22 577.47 849.76 576.07"/><polygon class="cls-20" points="840.45 415.09 783.98 465.05 766.1 458.83 787.26 471.41 840.45 415.09"/><polygon class="cls-15" points="786.46 400.67 813.58 372.46 815.78 367.73 786.46 400.67"/><polygon class="cls-4" points="764.04 457.06 755.46 497.52 770.66 460.41 764.04 457.06"/><path class="cls-14" d="M819.16,256.22s3.49,1.4,6.62.74l-6.84,2.88s-.49-.44.22-3.62Z"/><path class="cls-5" d="M883.3,376.38l-99.31,88.67-128.92-51.66,7.78-13.04,104.54,18.94,79.01-80.07s41.27-19.71,43.07,22.82c.23,5.45-2.09,10.71-6.16,14.34Z"/><path class="cls-10" d="M660.72,412.58l3.13-5.96-10.89-2.26-4.1-2.15c-2.7-8.97-4.08-2.58-4.08-2.58l1.07,4.48-14.91-6.12-.76-7.76-2.53-1.32.35,10.06,17.57,14.07,4.52-1.41h0l10.62.95Z"/><ellipse class="cls-13" cx="487.26" cy="912.33" rx="342.93" ry="24.04"/><rect class="cls-19" x="183.19" y="804.17" width="124.99" height="115.37"/><rect class="cls-19" x="317.8" y="804.17" width="124.99" height="115.37"/><rect class="cls-19" x="317.8" y="680.99" width="124.99" height="115.37"/><rect class="cls-19" x="452.4" y="804.17" width="124.99" height="115.37"/><rect class="cls-19" x="452.4" y="680.99" width="124.99" height="115.37"/><rect class="cls-19" x="587" y="804.17" width="124.99" height="115.37"/><rect class="cls-19" x="587" y="680.99" width="124.99" height="115.37"/><rect class="cls-19" x="587" y="560.81" width="124.99" height="115.37"/><rect class="cls-19" x="587" y="440.62" width="124.99" height="115.37"/><rect class="cls-19" x="550.94" y="296.4" width="124.99" height="115.37" transform="translate(-39.36 79.24) rotate(-7.16)"/><path class="cls-3" d="M193.53,920.09l-126.95.03c-3.15,0-5.71-2.55-5.71-5.71l-.02-84.5c0-3.15,2.55-5.71,5.71-5.71l126.95-.03c3.15,0,5.71,2.56,5.71,5.71l.02,84.5c0,3.15-2.55,5.71-5.71,5.71Z"/><rect class="cls-8" x="62" y="867.21" width="137.23" height="1.61"/><rect class="cls-8" x="124.6" y="853.35" width="13.14" height="2.53" transform="translate(-29.13 4.98) rotate(-1.96)"/><path class="cls-11" d="M153.8,840.49l-49.42.51-.26-25.04c-.07-6.52,5.18-12.01,11.68-12.23l25.51-.27c6.68-.06,12.16,5.31,12.23,11.99l.26,25.04ZM109.4,835.88l39.29-.4-.21-19.97c-.04-3.88-3.23-7.01-7.11-6.97l-25.21.26h0c-3.96.14-7,3.32-6.96,7.11l.2,19.97Z"/><rect class="cls-19" x="452.4" y="560.81" width="124.99" height="115.37"/><g class="cls-16"><path class="cls-2" d="M654.6,485.44l8.63.67,1.75,1.19,2.02,26.37c-.31,1.61-3.49,2.22-4.15.58l-2.69-18.03-.72,43.19c-.83,2.06-4.72,1.83-5.34-.08l-2.26-21.56c-.97.34-1.01,1.23-1.1,2.16-.27,2.65-.14,5.47-.37,8.12-.33,3.81-.81,7.64-1.3,11.43-.79,1.99-4.91,1.95-5.24-.64-.22-1.74.11-4.05.03-5.91-.03-.77-.33-1.49-.35-2.26-.35-11.61.64-23.17.34-34.78l-3.18,18.53c-1.14,1.83-3.67,1.12-4.34-.76,1.23-7.26,1.27-14.89,2.34-22.14.15-1.04.33-3.16,1.13-3.76s8.52-1.97,8.92-1.63c1.09,4.63,1.12,9.42,1.34,14.17l.65,4.74-.65-21.87h-2.29s1.29-2.58,1.29-2.58c-7.81-3.6-5.5-17.3,3.77-16.35,8.25.84,9.52,14.27,1.47,16.33-.03.61,1.5.46,1.63.65.57.88-.98,1.32-.98,1.46l.98.82-.97-.15c-.2.7-.25,1.39-.33,2.11-1.19-.24-.18-1.92-.98-2.28.32,8.44-1.15,16.77-1.96,25.13.48.06.59-.85.62-1.17.2-1.75.15-3.79.36-5.52.65-5.39,1.38-10.75,1.96-16.16Z"/><path class="cls-2" d="M612.23,336.37l8.62-.84,1.93.86,6.56,25.62c-.03,1.64-3.05,2.79-3.99,1.29l-5.78-17.29,6.78,42.66c-.46,2.17-4.33,2.62-5.27.85l-5.97-20.84c-.89.5-.78,1.38-.71,2.32.19,2.65.81,5.41,1.04,8.06.33,3.81.53,7.66.7,11.48-.43,2.1-4.49,2.77-5.27.28-.52-1.68-.6-4.01-1-5.82-.17-.76-.58-1.41-.74-2.16-2.36-11.37-3.39-22.93-5.71-34.31l.09,18.8c-.8,2-3.42,1.74-4.4,0-.05-7.37-1.33-14.88-1.54-22.21-.03-1.05-.22-3.17.46-3.9s8.05-3.42,8.5-3.15c1.87,4.37,2.74,9.08,3.78,13.72l1.46,4.55-4.44-21.43-2.25.4.82-2.77c-8.32-2.19-8.41-16.08.88-16.76,8.27-.6,11.86,12.4,4.28,15.82.08.61,1.56.19,1.72.36.71.76-.73,1.47-.71,1.61l1.11.63-.98.02c-.08.72,0,1.42.04,2.14-1.21-.03-.51-1.86-1.36-2.08,1.78,8.25,1.77,16.72,2.43,25.09.48-.03.43-.94.41-1.26-.11-1.76-.51-3.76-.61-5.5-.3-5.43-.5-10.83-.88-16.26Z"/><path class="cls-2" d="M654.6,601.41l8.63.67,1.75,1.19,2.02,26.37c-.31,1.61-3.49,2.22-4.15.58l-2.69-18.03-.72,43.19c-.83,2.06-4.72,1.83-5.34-.08l-2.26-21.56c-.97.34-1.01,1.23-1.1,2.16-.27,2.65-.14,5.47-.37,8.12-.33,3.81-.81,7.64-1.3,11.43-.79,1.99-4.91,1.95-5.24-.64-.22-1.74.11-4.05.03-5.91-.03-.77-.33-1.49-.35-2.26-.35-11.61.64-23.17.34-34.78l-3.18,18.53c-1.14,1.83-3.67,1.12-4.34-.76,1.23-7.26,1.27-14.89,2.34-22.14.15-1.04.33-3.16,1.13-3.76s8.52-1.97,8.92-1.63c1.09,4.63,1.12,9.42,1.34,14.17l.65,4.74-.65-21.87h-2.29s1.29-2.58,1.29-2.58c-7.81-3.6-5.5-17.3,3.77-16.35,8.25.84,9.52,14.27,1.47,16.33-.03.61,1.5.46,1.63.65.57.88-.98,1.32-.98,1.46l.98.82-.97-.15c-.2.7-.25,1.39-.33,2.11-1.19-.24-.18-1.92-.98-2.28.32,8.44-1.15,16.77-1.96,25.13.48.06.59-.85.62-1.17.2-1.75.15-3.79.36-5.52.65-5.39,1.38-10.75,1.96-16.16Z"/><path class="cls-2" d="M517.84,601.41l8.63.67,1.75,1.19,2.02,26.37c-.31,1.61-3.49,2.22-4.15.58l-2.69-18.03-.72,43.19c-.83,2.06-4.72,1.83-5.34-.08l-2.26-21.56c-.97.34-1.01,1.23-1.1,2.16-.27,2.65-.14,5.47-.37,8.12-.33,3.81-.81,7.64-1.3,11.43-.79,1.99-4.91,1.95-5.24-.64-.22-1.74.11-4.05.03-5.91-.03-.77-.33-1.49-.35-2.26-.35-11.61.64-23.17.34-34.78l-3.18,18.53c-1.14,1.83-3.67,1.12-4.34-.76,1.23-7.26,1.27-14.89,2.34-22.14.15-1.04.33-3.16,1.13-3.76s8.52-1.97,8.92-1.63c1.09,4.63,1.12,9.42,1.34,14.17l.65,4.74-.65-21.87h-2.29s1.29-2.58,1.29-2.58c-7.81-3.6-5.5-17.3,3.77-16.35,8.25.84,9.52,14.27,1.47,16.33-.03.61,1.5.46,1.63.65.57.88-.98,1.32-.98,1.46l.98.82-.97-.15c-.2.7-.25,1.39-.33,2.11-1.19-.24-.18-1.92-.98-2.28.32,8.44-1.15,16.77-1.96,25.13.48.06.59-.85.62-1.17.2-1.75.15-3.79.36-5.52.65-5.39,1.38-10.75,1.96-16.16Z"/><path class="cls-2" d="M517.84,721.59l8.63.67,1.75,1.19,2.02,26.37c-.31,1.61-3.49,2.22-4.15.58l-2.69-18.03-.72,43.19c-.83,2.06-4.72,1.83-5.34-.08l-2.26-21.56c-.97.34-1.01,1.23-1.1,2.16-.27,2.65-.14,5.47-.37,8.12-.33,3.81-.81,7.64-1.3,11.43-.79,1.99-4.91,1.95-5.24-.64-.22-1.74.11-4.05.03-5.91-.03-.77-.33-1.49-.35-2.26-.35-11.61.64-23.17.34-34.78l-3.18,18.53c-1.14,1.83-3.67,1.12-4.34-.76,1.23-7.26,1.27-14.89,2.34-22.14.15-1.04.33-3.16,1.13-3.76s8.52-1.97,8.92-1.63c1.09,4.63,1.12,9.42,1.34,14.17l.65,4.74-.65-21.87h-2.29s1.29-2.58,1.29-2.58c-7.81-3.6-5.5-17.3,3.77-16.35,8.25.84,9.52,14.27,1.47,16.33-.03.61,1.5.46,1.63.65.57.88-.98,1.32-.98,1.46l.98.82-.97-.15c-.2.7-.25,1.39-.33,2.11-1.19-.24-.18-1.92-.98-2.28.32,8.44-1.15,16.77-1.96,25.13.48.06.59-.85.62-1.17.2-1.75.15-3.79.36-5.52.65-5.39,1.38-10.75,1.96-16.16Z"/><path class="cls-2" d="M517.84,843.77l8.63.67,1.75,1.19,2.02,26.37c-.31,1.61-3.49,2.22-4.15.58l-2.69-18.03-.72,43.19c-.83,2.06-4.72,1.83-5.34-.08l-2.26-21.56c-.97.34-1.01,1.23-1.1,2.16-.27,2.65-.14,5.47-.37,8.12-.33,3.81-.81,7.64-1.3,11.43-.79,1.99-4.91,1.95-5.24-.64-.22-1.74.11-4.05.03-5.91-.03-.77-.33-1.49-.35-2.26-.35-11.61.64-23.17.34-34.78l-3.18,18.53c-1.14,1.83-3.67,1.12-4.34-.76,1.23-7.26,1.27-14.89,2.34-22.14.15-1.04.33-3.16,1.13-3.76s8.52-1.97,8.92-1.63c1.09,4.63,1.12,9.42,1.34,14.17l.65,4.74-.65-21.87h-2.29s1.29-2.58,1.29-2.58c-7.81-3.6-5.5-17.3,3.77-16.35,8.25.84,9.52,14.27,1.47,16.33-.03.61,1.5.46,1.63.65.57.88-.98,1.32-.98,1.46l.98.82-.97-.15c-.2.7-.25,1.39-.33,2.11-1.19-.24-.18-1.92-.98-2.28.32,8.44-1.15,16.77-1.96,25.13.48.06.59-.85.62-1.17.2-1.75.15-3.79.36-5.52.65-5.39,1.38-10.75,1.96-16.16Z"/><path class="cls-2" d="M383.23,843.77l8.63.67,1.75,1.19,2.02,26.37c-.31,1.61-3.49,2.22-4.15.58l-2.69-18.03-.72,43.19c-.83,2.06-4.72,1.83-5.34-.08l-2.26-21.56c-.97.34-1.01,1.23-1.1,2.16-.27,2.65-.14,5.47-.37,8.12-.33,3.81-.81,7.64-1.3,11.43-.79,1.99-4.91,1.95-5.24-.64-.22-1.74.11-4.05.03-5.91-.03-.77-.33-1.49-.35-2.26-.35-11.61.64-23.17.34-34.78l-3.18,18.53c-1.14,1.83-3.67,1.12-4.34-.76,1.23-7.26,1.27-14.89,2.34-22.14.15-1.04.33-3.16,1.13-3.76s8.52-1.97,8.92-1.63c1.09,4.63,1.12,9.42,1.34,14.17l.65,4.74-.65-21.87h-2.29s1.29-2.58,1.29-2.58c-7.81-3.6-5.5-17.3,3.77-16.35,8.25.84,9.52,14.27,1.47,16.33-.03.61,1.5.46,1.63.65.57.88-.98,1.32-.98,1.46l.98.82-.97-.15c-.2.7-.25,1.39-.33,2.11-1.19-.24-.18-1.92-.98-2.28.32,8.44-1.15,16.77-1.96,25.13.48.06.59-.85.62-1.17.2-1.75.15-3.79.36-5.52.65-5.39,1.38-10.75,1.96-16.16Z"/><path class="cls-2" d="M248.63,843.77l8.63.67,1.75,1.19,2.02,26.37c-.31,1.61-3.49,2.22-4.15.58l-2.69-18.03-.72,43.19c-.83,2.06-4.72,1.83-5.34-.08l-2.26-21.56c-.97.34-1.01,1.23-1.1,2.16-.27,2.65-.14,5.47-.37,8.12-.33,3.81-.81,7.64-1.3,11.43-.79,1.99-4.91,1.95-5.24-.64-.22-1.74.11-4.05.03-5.91-.03-.77-.33-1.49-.35-2.26-.35-11.61.64-23.17.34-34.78l-3.18,18.53c-1.14,1.83-3.67,1.12-4.34-.76,1.23-7.26,1.27-14.89,2.34-22.14.15-1.04.33-3.16,1.13-3.76s8.52-1.97,8.92-1.63c1.09,4.63,1.12,9.42,1.34,14.17l.65,4.74-.65-21.87h-2.29s1.29-2.58,1.29-2.58c-7.81-3.6-5.5-17.3,3.77-16.35,8.25.84,9.52,14.27,1.47,16.33-.03.61,1.5.46,1.63.65.57.88-.98,1.32-.98,1.46l.98.82-.97-.15c-.2.7-.25,1.39-.33,2.11-1.19-.24-.18-1.92-.98-2.28.32,8.44-1.15,16.77-1.96,25.13.48.06.59-.85.62-1.17.2-1.75.15-3.79.36-5.52.65-5.39,1.38-10.75,1.96-16.16Z"/><path class="cls-2" d="M652.44,721.59l8.63.67,1.75,1.19,2.02,26.37c-.31,1.61-3.49,2.22-4.15.58l-2.69-18.03-.72,43.19c-.83,2.06-4.72,1.83-5.34-.08l-2.26-21.56c-.97.34-1.01,1.23-1.1,2.16-.27,2.65-.14,5.47-.37,8.12-.33,3.81-.81,7.64-1.3,11.43-.79,1.99-4.91,1.95-5.24-.64-.22-1.74.11-4.05.03-5.91-.03-.77-.33-1.49-.35-2.26-.35-11.61.64-23.17.34-34.78l-3.18,18.53c-1.14,1.83-3.67,1.12-4.34-.76,1.23-7.26,1.27-14.89,2.34-22.14.15-1.04.33-3.16,1.13-3.76s8.52-1.97,8.92-1.63c1.09,4.63,1.12,9.42,1.34,14.17l.65,4.74-.65-21.87h-2.29s1.29-2.58,1.29-2.58c-7.81-3.6-5.5-17.3,3.77-16.35,8.25.84,9.52,14.27,1.47,16.33-.03.61,1.5.46,1.63.65.57.88-.98,1.32-.98,1.46l.98.82-.97-.15c-.2.7-.25,1.39-.33,2.11-1.19-.24-.18-1.92-.98-2.28.32,8.44-1.15,16.77-1.96,25.13.48.06.59-.85.62-1.17.2-1.75.15-3.79.36-5.52.65-5.39,1.38-10.75,1.96-16.16Z"/><path class="cls-2" d="M652.44,843.77l8.63.67,1.75,1.19,2.02,26.37c-.31,1.61-3.49,2.22-4.15.58l-2.69-18.03-.72,43.19c-.83,2.06-4.72,1.83-5.34-.08l-2.26-21.56c-.97.34-1.01,1.23-1.1,2.16-.27,2.65-.14,5.47-.37,8.12-.33,3.81-.81,7.64-1.3,11.43-.79,1.99-4.91,1.95-5.24-.64-.22-1.74.11-4.05.03-5.91-.03-.77-.33-1.49-.35-2.26-.35-11.61.64-23.17.34-34.78l-3.18,18.53c-1.14,1.83-3.67,1.12-4.34-.76,1.23-7.26,1.27-14.89,2.34-22.14.15-1.04.33-3.16,1.13-3.76s8.52-1.97,8.92-1.63c1.09,4.63,1.12,9.42,1.34,14.17l.65,4.74-.65-21.87h-2.29s1.29-2.58,1.29-2.58c-7.81-3.6-5.5-17.3,3.77-16.35,8.25.84,9.52,14.27,1.47,16.33-.03.61,1.5.46,1.63.65.57.88-.98,1.32-.98,1.46l.98.82-.97-.15c-.2.7-.25,1.39-.33,2.11-1.19-.24-.18-1.92-.98-2.28.32,8.44-1.15,16.77-1.96,25.13.48.06.59-.85.62-1.17.2-1.75.15-3.79.36-5.52.65-5.39,1.38-10.75,1.96-16.16Z"/><path class="cls-2" d="M383.23,721.59l8.63.67,1.75,1.19,2.02,26.37c-.31,1.61-3.49,2.22-4.15.58l-2.69-18.03-.72,43.19c-.83,2.06-4.72,1.83-5.34-.08l-2.26-21.56c-.97.34-1.01,1.23-1.1,2.16-.27,2.65-.14,5.47-.37,8.12-.33,3.81-.81,7.64-1.3,11.43-.79,1.99-4.91,1.95-5.24-.64-.22-1.74.11-4.05.03-5.91-.03-.77-.33-1.49-.35-2.26-.35-11.61.64-23.17.34-34.78l-3.18,18.53c-1.14,1.83-3.67,1.12-4.34-.76,1.23-7.26,1.27-14.89,2.34-22.14.15-1.04.33-3.16,1.13-3.76s8.52-1.97,8.92-1.63c1.09,4.63,1.12,9.42,1.34,14.17l.65,4.74-.65-21.87h-2.29s1.29-2.58,1.29-2.58c-7.81-3.6-5.5-17.3,3.77-16.35,8.25.84,9.52,14.27,1.47,16.33-.03.61,1.5.46,1.63.65.57.88-.98,1.32-.98,1.46l.98.82-.97-.15c-.2.7-.25,1.39-.33,2.11-1.19-.24-.18-1.92-.98-2.28.32,8.44-1.15,16.77-1.96,25.13.48.06.59-.85.62-1.17.2-1.75.15-3.79.36-5.52.65-5.39,1.38-10.75,1.96-16.16Z"/></g><line class="cls-6" x1="42.48" y1="921.07" x2="957.52" y2="921.07"/></g></g></svg>