<svg width="16" height="16" viewBox="0 0 16 16" fill="none" xmlns="http://www.w3.org/2000/svg">
<g clip-path="url(#clip0_209_1889)">
<path d="M15.3029 10.0621C15.2418 10.274 15.1073 10.4452 14.9158 10.5552L13.6035 11.2888V12.7886C13.6035 13.2369 13.2367 13.6037 12.7884 13.6037H11.2846L10.5551 14.916C10.4451 15.1076 10.2739 15.2421 10.062 15.3032C9.85414 15.3603 9.63407 15.3358 9.44253 15.2299L7.99984 14.4229L6.55715 15.2299C6.43081 15.2991 6.29632 15.3317 6.15776 15.3317C6.08436 15.3317 6.01105 15.3236 5.93769 15.3032C5.72577 15.2421 5.5546 15.1076 5.44457 14.916L4.71507 13.6037H3.21125C2.76296 13.6037 2.39617 13.2369 2.39617 12.7886V11.2888L1.08389 10.5552C0.892349 10.4452 0.757861 10.274 0.69673 10.0621C0.639675 9.85421 0.664127 9.63413 0.770087 9.44258L1.57702 7.99984L0.770087 6.5571C0.550016 6.16177 0.692655 5.66455 1.08389 5.44447L2.39617 4.71087V3.21107C2.39617 2.76276 2.76296 2.39596 3.21125 2.39596H4.71507L5.44457 1.08363C5.5546 0.892084 5.72577 0.757591 5.93769 0.696457C6.14553 0.6394 6.36561 0.663853 6.55715 0.769858L7.99984 1.57682L9.44253 0.769858C9.63407 0.663894 9.8541 0.639441 10.062 0.696457C10.2739 0.757591 10.4451 0.892084 10.5551 1.08363L11.2846 2.39596H12.7884C13.2367 2.39596 13.6035 2.76276 13.6035 3.21107V4.71087L14.9158 5.44447C15.307 5.66455 15.4497 6.16177 15.2296 6.5571L14.4227 7.99984L15.2296 9.44258C15.3356 9.63413 15.36 9.85421 15.3029 10.0621Z" fill="url(#paint0_linear_209_1889)"/>
<path d="M7.13705 10.3332C7.03168 10.3332 6.92635 10.2952 6.84594 10.2192L4.78713 8.27479C4.6263 8.12289 4.6263 7.8768 4.78713 7.72487C4.94796 7.57293 5.20853 7.57297 5.3694 7.72487L7.13709 9.39436L10.9636 5.78043C11.1244 5.62853 11.385 5.62853 11.5459 5.78043C11.7067 5.93233 11.7067 6.17842 11.5459 6.33035L7.42825 10.2192C7.34783 10.2952 7.24238 10.3332 7.13705 10.3332Z" fill="white"/>
</g>
<defs>
<linearGradient id="paint0_linear_209_1889" x1="7.99984" y1="15.3334" x2="7.99984" y2="0.666707" gradientUnits="userSpaceOnUse">
<stop stop-color="#0064E1"/>
<stop offset="0.9944" stop-color="#26B7FF"/>
</linearGradient>
<clipPath id="clip0_209_1889">
<rect width="16" height="16" fill="white"/>
</clipPath>
</defs>
</svg>
