<svg width="54" height="24" viewBox="0 0 54 24" fill="none" xmlns="http://www.w3.org/2000/svg">
<rect width="54" height="24" rx="12" fill="white"/>
<g clip-path="url(#clip0_209_2234)">
<path fill-rule="evenodd" clip-rule="evenodd" d="M4.45215 11.5627C4.54971 10.0805 5.14077 8.73209 6.06171 7.68034L7.92415 9.54321C7.4709 10.1093 7.17077 10.8036 7.08677 11.5627H4.45215ZM11.4377 5.45215C12.92 5.54971 14.2683 6.14077 15.3201 7.06171L13.4572 8.92415C12.8911 8.4709 12.1968 8.17077 11.4377 8.08677V5.45215ZM17.5483 12.4377C17.4507 13.92 16.8596 15.2683 15.9387 16.3201L14.0763 14.4572C14.5295 13.8911 14.8296 13.1968 14.9136 12.4377H17.5483ZM10.5627 18.5483C9.08046 18.4507 7.73209 17.8597 6.68034 16.9387L8.54321 15.0763C9.10934 15.5295 9.80365 15.8296 10.5627 15.9136V18.5483ZM6.68034 7.06171C7.73209 6.14077 9.08046 5.54971 10.5627 5.45215V8.08677C9.80365 8.17077 9.10934 8.4709 8.54321 8.92415L6.68034 7.06171ZM15.9387 7.68034C16.8596 8.73209 17.4507 10.0805 17.5483 11.5627H14.9136C14.8296 10.8036 14.5295 10.1093 14.0763 9.54321L15.9387 7.68034ZM15.3201 16.9387C14.2683 17.8597 12.92 18.4507 11.4377 18.5483V15.9136C12.1968 15.8296 12.8911 15.5295 13.4572 15.0763L15.3201 16.9387ZM6.06171 16.3201C5.14077 15.2683 4.54971 13.92 4.45215 12.4377H7.08677C7.17077 13.1968 7.4709 13.8911 7.92415 14.4572L6.06171 16.3201ZM8.54802 10.1666C8.72346 9.93215 8.93215 9.72346 9.16665 9.54802C9.5674 9.24746 10.0443 9.04315 10.5627 8.96877C10.7058 8.94821 10.8519 8.93771 11.0002 8.93771C11.1485 8.93771 11.2946 8.94821 11.4377 8.96877C11.9561 9.04315 12.433 9.24746 12.8338 9.54802C13.0683 9.72346 13.277 9.93215 13.4524 10.1666C13.753 10.5674 13.9573 11.0443 14.0316 11.5627C14.0522 11.7058 14.0627 11.8519 14.0627 12.0002C14.0627 12.1485 14.0522 12.2946 14.0316 12.4377C13.9573 12.9561 13.753 13.433 13.4524 13.8338C13.277 14.0683 13.0683 14.277 12.8338 14.4524C12.433 14.753 11.9561 14.9573 11.4377 15.0316C11.2946 15.0522 11.1485 15.0627 11.0002 15.0627C10.8519 15.0627 10.7058 15.0522 10.5627 15.0316C10.0443 14.9573 9.5674 14.753 9.16665 14.4524C8.93215 14.277 8.72346 14.0683 8.54802 13.8338C8.24746 13.433 8.04315 12.9561 7.96877 12.4377C7.94821 12.2946 7.93771 12.1485 7.93771 12.0002C7.93771 11.8519 7.94821 11.7058 7.96877 11.5627C8.04315 11.0443 8.24746 10.5674 8.54802 10.1666Z" fill="url(#paint0_linear_209_2234)"/>
</g>
<path d="M24.17 15.5L22.28 8.5H23.35L24.77 14.33L26.39 8.5H27.51L29.09 14.35L30.53 8.5H31.6L29.66 15.5H28.5L26.93 9.93L25.32 15.5H24.17ZM33.6957 15.62C33.2957 15.62 32.959 15.5467 32.6857 15.4C32.419 15.2533 32.219 15.0567 32.0857 14.81C31.959 14.5633 31.8957 14.3 31.8957 14.02C31.8957 13.68 31.979 13.39 32.1457 13.15C32.319 12.91 32.5657 12.7267 32.8857 12.6C33.2057 12.4667 33.5857 12.4 34.0257 12.4H35.3057C35.3057 12.0867 35.269 11.8267 35.1957 11.62C35.1224 11.4133 35.0024 11.26 34.8357 11.16C34.669 11.0533 34.4457 11 34.1657 11C33.879 11 33.6357 11.0667 33.4357 11.2C33.2424 11.3333 33.119 11.5367 33.0657 11.81H32.0657C32.1057 11.4567 32.2224 11.16 32.4157 10.92C32.609 10.6733 32.859 10.4867 33.1657 10.36C33.4724 10.2267 33.8057 10.16 34.1657 10.16C34.639 10.16 35.0357 10.2433 35.3557 10.41C35.6757 10.5767 35.9124 10.8133 36.0657 11.12C36.2257 11.42 36.3057 11.78 36.3057 12.2V15.5H35.4357L35.3557 14.64C35.289 14.78 35.2024 14.91 35.0957 15.03C34.9957 15.1433 34.8757 15.2467 34.7357 15.34C34.6024 15.4267 34.449 15.4933 34.2757 15.54C34.1024 15.5933 33.909 15.62 33.6957 15.62ZM33.8857 14.81C34.0857 14.81 34.269 14.7667 34.4357 14.68C34.609 14.5867 34.759 14.4633 34.8857 14.31C35.0124 14.1567 35.109 13.9833 35.1757 13.79C35.249 13.5967 35.289 13.3933 35.2957 13.18V13.11H34.1157C33.8424 13.11 33.6157 13.1467 33.4357 13.22C33.2624 13.2867 33.1357 13.3867 33.0557 13.52C32.9824 13.6467 32.9457 13.79 32.9457 13.95C32.9457 14.1233 32.9824 14.2767 33.0557 14.41C33.129 14.5367 33.2357 14.6367 33.3757 14.71C33.5157 14.7767 33.6857 14.81 33.8857 14.81ZM37.6902 15.5V10.28H38.5902L38.6702 11.23C38.7902 10.9967 38.9469 10.8033 39.1402 10.65C39.3336 10.49 39.5636 10.37 39.8302 10.29C40.0969 10.2033 40.3969 10.16 40.7302 10.16V11.22H40.1902C39.9902 11.22 39.8002 11.2467 39.6202 11.3C39.4402 11.3467 39.2802 11.4267 39.1402 11.54C39.0002 11.6533 38.8902 11.81 38.8102 12.01C38.7302 12.2033 38.6902 12.45 38.6902 12.75V15.5H37.6902ZM41.6844 15.5V10.28H42.5744L42.6444 10.99C42.8044 10.7367 43.0177 10.5367 43.2844 10.39C43.5577 10.2367 43.851 10.16 44.1644 10.16C44.411 10.16 44.6344 10.1967 44.8344 10.27C45.041 10.3367 45.221 10.44 45.3744 10.58C45.5277 10.7133 45.651 10.8833 45.7444 11.09C45.9244 10.79 46.161 10.56 46.4544 10.4C46.7544 10.24 47.071 10.16 47.4044 10.16C47.8044 10.16 48.1444 10.24 48.4244 10.4C48.711 10.5533 48.9277 10.7867 49.0744 11.1C49.221 11.4067 49.2944 11.79 49.2944 12.25V15.5H48.3044V12.35C48.3044 11.91 48.2077 11.58 48.0144 11.36C47.8277 11.1333 47.561 11.02 47.2144 11.02C46.9877 11.02 46.781 11.08 46.5944 11.2C46.4077 11.3133 46.261 11.4867 46.1544 11.72C46.0477 11.9467 45.9944 12.2233 45.9944 12.55V15.5H44.9944V12.35C44.9944 11.91 44.8977 11.58 44.7044 11.36C44.511 11.1333 44.2444 11.02 43.9044 11.02C43.6844 11.02 43.481 11.08 43.2944 11.2C43.1077 11.3133 42.9577 11.4867 42.8444 11.72C42.7377 11.9467 42.6844 12.2233 42.6844 12.55V15.5H41.6844Z" fill="#151515"/>
<defs>
<linearGradient id="paint0_linear_209_2234" x1="5.75021" y1="5.87521" x2="17.1252" y2="18.1252" gradientUnits="userSpaceOnUse">
<stop stop-color="#FFBF61"/>
<stop offset="1" stop-color="#FF4F68"/>
</linearGradient>
<clipPath id="clip0_209_2234">
<rect width="14" height="14" fill="white" transform="translate(4 5)"/>
</clipPath>
</defs>
</svg>
