<svg width="23" height="23" viewBox="0 0 23 23" fill="none" xmlns="http://www.w3.org/2000/svg">
<path fill-rule="evenodd" clip-rule="evenodd" d="M0 10.4753C0.16725 7.93425 1.1805 5.62275 2.75925 3.81975L5.952 7.01325C5.175 7.98375 4.6605 9.174 4.5165 10.4753H0ZM11.9753 0C14.5163 0.16725 16.8278 1.1805 18.6308 2.75925L15.4372 5.952C14.4667 5.175 13.2765 4.6605 11.9753 4.5165V0ZM22.4505 11.9753C22.2833 14.5163 21.27 16.8278 19.6913 18.6308L16.4985 15.4373C17.2755 14.4668 17.79 13.2765 17.934 11.9753H22.4505ZM10.4753 22.4505C7.93425 22.2833 5.62275 21.27 3.81975 19.6913L7.01325 16.4985C7.98375 17.2755 9.174 17.79 10.4753 17.934V22.4505ZM3.81975 2.75925C5.62275 1.1805 7.93425 0.16725 10.4753 0V4.5165C9.174 4.6605 7.98375 5.175 7.01325 5.952L3.81975 2.75925ZM19.6913 3.81975C21.27 5.62275 22.2833 7.93425 22.4505 10.4753H17.934C17.79 9.174 17.2755 7.98375 16.4985 7.01325L19.6913 3.81975ZM18.6308 19.6913C16.8278 21.27 14.5163 22.2833 11.9753 22.4505V17.934C13.2765 17.79 14.4667 17.2755 15.4372 16.4985L18.6308 19.6913ZM2.75925 18.6308C1.1805 16.8278 0.16725 14.5163 0 11.9753H4.5165C4.6605 13.2765 5.175 14.4668 5.952 15.4373L2.75925 18.6308ZM7.0215 8.082C7.32225 7.68 7.68 7.32225 8.082 7.0215C8.769 6.50625 9.5865 6.156 10.4753 6.0285C10.7205 5.99325 10.971 5.97525 11.2253 5.97525C11.4795 5.97525 11.73 5.99325 11.9753 6.0285C12.864 6.156 13.6815 6.50625 14.3685 7.0215C14.7705 7.32225 15.1283 7.68 15.429 8.082C15.9443 8.769 16.2945 9.5865 16.422 10.4753C16.4573 10.7205 16.4753 10.971 16.4753 11.2253C16.4753 11.4795 16.4573 11.73 16.422 11.9753C16.2945 12.864 15.9443 13.6815 15.429 14.3685C15.1283 14.7705 14.7705 15.1283 14.3685 15.429C13.6815 15.9443 12.864 16.2945 11.9753 16.422C11.73 16.4573 11.4795 16.4753 11.2253 16.4753C10.971 16.4753 10.7205 16.4573 10.4753 16.422C9.5865 16.2945 8.769 15.9443 8.082 15.429C7.68 15.1283 7.32225 14.7705 7.0215 14.3685C6.50625 13.6815 6.156 12.864 6.0285 11.9753C5.99325 11.73 5.97525 11.4795 5.97525 11.2253C5.97525 10.971 5.99325 10.7205 6.0285 10.4753C6.156 9.5865 6.50625 8.769 7.0215 8.082Z" fill="url(#paint0_linear_18_1187)"/>
<defs>
<linearGradient id="paint0_linear_18_1187" x1="2.22525" y1="0.72525" x2="21.7253" y2="21.7253" gradientUnits="userSpaceOnUse">
<stop stop-color="#FFBF61"/>
<stop offset="1" stop-color="#FF4F68"/>
</linearGradient>
</defs>
</svg>
