<svg width="20" height="20" viewBox="0 0 20 20" fill="none" xmlns="http://www.w3.org/2000/svg">
<g clip-path="url(#clip0_58_2944)">
<path d="M19.4341 14.703L18.825 13.8839C18.8308 13.8298 19.4535 12.1641 18.7286 10.7179C18.6131 10.4875 18.5225 10.2449 18.479 9.99094C18.1768 8.22696 19.0706 5.83962 19.0877 5.7856C19.3993 4.80084 19.523 4.40783 18.7702 4.04573C17.9509 3.65159 17.2229 4.10686 16.7978 4.87932C16.7401 4.98416 15.8847 6.57107 15.6887 8.63325C14.422 6.92958 11.4097 2.87819 10.4085 1.53156C10.0347 1.02875 9.33547 0.873824 8.80106 1.20097C8.18817 1.57616 8.04114 2.38569 8.46016 2.94928C8.45712 2.94518 7.82638 2.09683 7.84442 2.12112C7.45208 1.59343 6.70607 1.45409 6.16841 1.83273C5.61236 2.22433 5.49135 2.99456 5.89463 3.53698C6.61353 4.50381 6.44822 4.28158 6.52654 4.3869C6.11197 3.82932 5.30729 3.73295 4.77135 4.19475C4.2901 4.6094 4.22877 5.33463 4.6078 5.84443L5.7751 7.41442C5.35607 6.85087 4.53854 6.75845 4.00272 7.23735C3.53557 7.65489 3.48253 8.36911 3.85635 8.87192C4.04834 9.13016 9.30622 16.2018 9.5984 16.5948C10.1997 17.4036 11.0214 17.9518 11.9185 18.2184C12.7626 18.4691 13.107 19.1354 13.2056 19.2397L13.2462 19.2942C13.5839 19.7485 14.2259 19.8429 14.6802 19.5052L19.2245 16.1264C19.6756 15.7911 19.7693 15.1538 19.4341 14.703Z" fill="#F4D44E"/>
<path d="M15.3215 3.2762C14.8252 2.23065 14.1238 1.28718 13.265 0.510269C13.145 0.401754 13.1358 0.216442 13.2443 0.0964427C13.3528 -0.0235568 13.5381 -0.0328537 13.6581 0.0757396C14.5733 0.903588 15.3213 1.90929 15.8509 3.02487C15.9202 3.17104 15.858 3.34584 15.7118 3.41522C15.5663 3.48436 15.3912 3.42307 15.3215 3.2762Z" fill="#EAE9E8"/>
<path d="M13.6791 3.73426C13.3331 3.07606 12.8848 2.47297 12.3534 1.95129C12.2379 1.83794 12.2362 1.65243 12.3495 1.53696C12.4629 1.42145 12.6484 1.41981 12.7639 1.53309C13.3378 2.09649 13.823 2.7486 14.1977 3.4616C14.273 3.6048 14.2179 3.78199 14.0747 3.85726C13.9311 3.93273 13.7542 3.87722 13.6791 3.73426Z" fill="#EAE9E8"/>
<path d="M2.58659 12.8871C1.67128 12.0591 0.923552 11.0537 0.393867 9.93801C0.324453 9.79184 0.386718 9.61703 0.532851 9.54766C0.679022 9.47828 0.853787 9.54051 0.923201 9.68668C1.41964 10.7323 2.12077 11.6755 2.97972 12.4526C3.09972 12.5611 3.10897 12.7464 3.00042 12.8664C2.89222 12.986 2.70691 12.996 2.58659 12.8871Z" fill="#EAE9E8"/>
<path d="M3.48087 11.4297C2.90673 10.8661 2.42181 10.2141 2.04701 9.50117C1.97174 9.35792 2.02677 9.18078 2.17002 9.10546C2.31326 9.03023 2.49041 9.08523 2.56568 9.22843C2.91181 9.88691 3.35993 10.4898 3.89134 11.0115C4.00681 11.1248 4.00852 11.3103 3.8952 11.4258C3.782 11.5412 3.59646 11.5432 3.48087 11.4297Z" fill="#EAE9E8"/>
<path d="M5.94686 3.60687C6.39049 4.20351 9.9052 8.93068 9.78634 8.77083C9.98005 9.03138 10.3541 9.07298 10.6003 8.86134C10.8242 8.66896 10.8612 8.33619 10.685 8.09928L7.554 3.88824C7.55267 3.88644 7.55142 3.88476 7.55029 3.88324L7.54599 3.87746C7.54431 3.87519 7.54279 3.87316 7.5415 3.87136L7.53826 3.86703L7.53818 3.86695L6.93209 3.05179C6.60889 2.61711 6.62272 2.03629 6.92701 1.6211C5.96635 1.55868 5.23315 2.64664 5.94686 3.60687Z" fill="#E8C842"/>
<path d="M8.05098 10.4749C8.25879 10.7544 8.6643 10.7893 8.9168 10.5493C9.11324 10.3625 9.13937 10.0586 8.97766 9.84102C8.56789 9.28993 5.95771 5.77932 5.64536 5.3592C5.31997 4.92158 5.31943 4.32541 5.63013 3.90299C4.60611 3.8428 3.98771 5.0099 4.60806 5.84424C6.1647 7.93794 6.43102 8.29618 8.05098 10.4749Z" fill="#E8C842"/>
<path d="M14.2836 18.809L14.243 18.7544C14.1444 18.6501 13.8 17.9839 12.9559 17.7331C12.0589 17.4666 11.2372 16.9183 10.6359 16.1095C10.3437 15.7165 5.08581 8.64491 4.89382 8.38667C4.56898 7.94976 4.56663 7.35336 4.87808 6.93055C3.85711 6.87098 3.23312 8.03328 3.85656 8.87175C4.04855 9.12999 9.30642 16.2016 9.59861 16.5946C10.2 17.4034 11.0216 17.9517 11.9187 18.2182C12.7628 18.469 13.1072 19.1352 13.2058 19.2395L13.2464 19.2941C13.5841 19.7483 14.2261 19.8427 14.6804 19.505L15.062 19.2213C14.7645 19.2083 14.4751 19.0666 14.2836 18.809Z" fill="#E8C842"/>
<path d="M9.49755 2.46412C9.17384 2.02877 9.18822 1.44682 9.49388 1.03155C9.28255 1.01757 9.06713 1.05932 8.87025 1.16229L8.87017 1.16214C8.76799 1.21557 8.67545 1.28268 8.59619 1.358C8.59607 1.35811 8.59592 1.35823 8.59576 1.35839C8.17646 1.7571 8.09838 2.40573 8.42185 2.89447L8.46021 2.9492L11.9277 7.61289C12.1302 7.88523 12.5254 7.91879 12.7709 7.68449C12.9974 7.46832 13.0256 7.11656 12.8364 6.86707L9.49755 2.46412ZM9.16494 2.01682L9.14666 1.99225C9.15275 2.00041 9.15884 2.00858 9.16494 2.01682Z" fill="#E8C842"/>
<path d="M16.7979 4.87918C16.7618 4.94461 16.4153 5.58793 16.1121 6.56324L16.1118 6.56297C15.9292 7.15027 15.7624 7.85808 15.6887 8.63311C16.0101 9.06026 16.6897 8.85249 16.7172 8.31862L16.726 8.14804C16.922 6.08586 17.7773 4.49899 17.8351 4.39411C17.9369 4.20915 18.0562 4.04267 18.1898 3.90138C17.6137 3.8929 17.1192 4.29524 16.7979 4.87918Z" fill="#E8C842"/>
<path d="M15.175 3.27617C15.245 3.42332 15.4202 3.48414 15.5654 3.41519C15.7116 3.34582 15.7738 3.17102 15.7044 3.02484C15.1752 1.91012 14.4276 0.904188 13.5117 0.0756754C13.3917 -0.0328007 13.2064 -0.023582 13.0978 0.0964175C12.9893 0.216417 12.9985 0.40169 13.1185 0.510283C13.977 1.2868 14.6783 2.22993 15.175 3.27617Z" fill="black"/>
<path d="M12.203 1.53693C12.0897 1.65239 12.0914 1.8379 12.2069 1.95126C12.7378 2.47239 13.1861 3.07512 13.5326 3.73426C13.585 3.83399 13.6868 3.89098 13.7922 3.89098C14.0096 3.89098 14.1547 3.65821 14.0513 3.46157C13.6771 2.74966 13.1923 2.09731 12.6175 1.5331C12.5019 1.41982 12.3165 1.42146 12.203 1.53693Z" fill="black"/>
<path d="M0.776731 9.68657C0.707356 9.54044 0.532591 9.47813 0.386381 9.54755C0.240249 9.61692 0.177983 9.79172 0.247358 9.9379C0.776575 11.0526 1.52415 12.0584 2.44008 12.887C2.49618 12.9377 2.56641 12.9627 2.63653 12.9627C2.90239 12.9627 3.03274 12.6329 2.83313 12.4524C2.40571 12.0657 2.01403 11.6344 1.66907 11.1705C1.32403 10.7064 1.02384 10.2071 0.776731 9.68657Z" fill="black"/>
<path d="M2.41921 9.22855C2.34398 9.08538 2.16691 9.03034 2.02351 9.10558C1.88031 9.18089 1.82523 9.35804 1.90054 9.50128C2.26113 10.1872 2.73917 10.8455 3.3344 11.4298C3.44979 11.543 3.6353 11.5415 3.74874 11.4259C3.86206 11.3105 3.86034 11.1249 3.74487 11.0116C3.2139 10.4903 2.76573 9.88769 2.41921 9.22855Z" fill="black"/>
<path d="M11.3214 2.95637C11.1916 3.05293 11.1646 3.23649 11.2611 3.36629L15.3071 8.80803C15.4669 9.02295 15.8086 8.92736 15.8339 8.66096C16.0258 6.6421 16.872 5.08589 16.908 5.02058C17.0585 4.74691 17.6182 3.88707 18.4966 4.30972C19.0515 4.57668 18.9502 4.73171 18.6576 5.70878C18.4429 6.31214 17.764 8.40771 18.0436 10.0403C18.1777 10.8236 18.4905 10.8693 18.6126 11.8901C18.6615 12.2987 18.6466 12.7153 18.5686 13.1335C18.5498 13.2258 18.4432 13.6629 18.038 14.1497C17.9345 14.2741 17.9514 14.4588 18.0758 14.5624C18.2003 14.6661 18.3851 14.6487 18.4884 14.5246C18.5442 14.4577 18.5952 14.3913 18.6421 14.326L19.0524 14.8778C19.2907 15.1983 19.2238 15.6529 18.9034 15.8912L18.287 16.3495C18.0606 16.5178 18.1809 16.8776 18.462 16.8776C18.6274 16.8776 18.6544 16.7845 19.253 16.3614C19.8327 15.9303 19.9538 15.1079 19.5227 14.5282L19.0005 13.8258C19.0749 13.5401 19.3141 12.8198 19.1946 11.8204C19.0647 10.7357 18.7282 10.5659 18.6212 9.94138C18.359 8.41045 19.0655 6.31065 19.2097 5.90526C19.2158 5.88819 19.2194 5.87765 19.2206 5.8739C19.5291 4.89855 19.7329 4.25414 18.7507 3.78156C17.8719 3.35883 16.947 3.73418 16.3947 4.73789C16.3608 4.79937 15.6522 6.10245 15.3474 7.8801L11.7314 3.01668C11.6348 2.8868 11.4512 2.85973 11.3214 2.95637Z" fill="black"/>
<path d="M17.5978 17.2271C17.5013 17.0971 17.3177 17.0701 17.1879 17.1667L14.3591 19.27C14.0351 19.5108 13.5758 19.4432 13.335 19.1194C13.218 18.9962 12.8248 18.2253 11.8556 17.9374C10.1138 17.42 9.52688 16.1147 9.19646 15.7598C9.09993 15.6299 8.91634 15.6029 8.7865 15.6995C8.65669 15.7961 8.62966 15.9796 8.72622 16.1095C9.03544 16.4387 9.73212 17.9179 11.6888 18.4992C12.4409 18.7226 12.7387 19.3338 12.8648 19.469C13.2977 20.0511 14.1247 20.1745 14.7088 19.7402L17.5376 17.637C17.6674 17.5404 17.6944 17.3569 17.5978 17.2271Z" fill="black"/>
<path d="M7.83741 1.82991C6.98921 0.896707 5.43652 1.33046 5.23621 2.58104C5.17844 2.9417 5.25152 3.30185 5.44238 3.60802C4.20137 3.58127 3.47251 5.00548 4.22629 6.01919L4.68465 6.63567C3.42079 6.62215 2.7356 8.05234 3.47481 9.0466C5.15488 11.3062 1.84146 6.84981 7.90886 15.0103C7.96636 15.0876 8.05468 15.1285 8.14421 15.1284C8.38143 15.1284 8.52401 14.8555 8.37913 14.6606C3.04626 7.48793 4.50922 9.4557 3.94508 8.69695C3.46177 8.04683 3.96024 7.14551 4.7536 7.2261C5.18801 7.27016 5.38934 7.58566 5.39395 7.58969L8.06007 11.1755C8.11757 11.2529 8.20589 11.2937 8.29542 11.2937C8.53327 11.2937 8.67491 11.0203 8.53034 10.8259C8.1694 10.3404 5.05707 6.15446 4.69649 5.6695C4.4043 5.27653 4.45684 4.72622 4.81614 4.41665C5.2209 4.06794 5.82934 4.1372 6.14496 4.56165L9.76295 9.42777C9.82045 9.50511 9.90877 9.54593 9.9983 9.54593C10.0591 9.54593 10.1204 9.52714 10.1729 9.48808C10.3027 9.39152 10.3297 9.20796 10.2332 9.07816C9.91393 8.64878 6.19543 3.64744 5.98324 3.36209C5.67758 2.95103 5.7693 2.36897 6.19054 2.07221C6.59082 1.79041 7.16148 1.89077 7.46273 2.29592C7.54179 2.40225 11.8845 8.24304 11.927 8.30031C12.0237 8.43039 12.2075 8.45699 12.337 8.36062C12.4668 8.26406 12.4938 8.08051 12.3973 7.9507L8.54889 2.77439C8.23698 2.35498 8.3353 1.73991 8.80764 1.45081C9.20432 1.20796 9.7399 1.32022 10.027 1.70631L10.444 2.26717C10.5405 2.39705 10.7241 2.42404 10.8539 2.32748C10.9838 2.23096 11.0108 2.04741 10.9142 1.91756L10.4972 1.35671C9.75182 0.354131 8.17491 0.616982 7.83741 1.82991Z" fill="black"/>
</g>
<defs>
<clipPath id="clip0_58_2944">
<rect width="20" height="20" fill="white"/>
</clipPath>
</defs>
</svg>
