<svg width="40" height="40" viewBox="0 0 40 40" fill="none" xmlns="http://www.w3.org/2000/svg">
<path fill-rule="evenodd" clip-rule="evenodd" d="M20 0C31.0461 0 40 8.95391 40 20C40 31.0461 31.0461 40 20 40C8.95391 40 0 31.0461 0 20C0 8.95391 8.95391 0 20 0Z" fill="url(#paint0_linear_4233_1903)"/>
<path fill-rule="evenodd" clip-rule="evenodd" d="M20 29.2047C18.371 29.2047 16.7679 28.7711 15.3656 27.9516C15.1398 27.8196 14.8679 27.7844 14.6156 27.8532L11.5664 28.6899L12.6289 26.35C12.7734 26.0321 12.7359 25.661 12.532 25.3774C11.3953 23.8032 10.7953 21.943 10.7953 20C10.7953 14.9243 14.9242 10.7954 20 10.7954C25.0757 10.7954 29.2046 14.9243 29.2046 20C29.2046 25.0758 25.0757 29.2047 20 29.2047ZM20 8.84692C13.85 8.84692 8.84761 13.85 8.84761 20C8.84761 22.1633 9.46089 24.2407 10.6289 26.0438L8.93433 29.7758C8.77808 30.1204 8.83511 30.5235 9.07964 30.811C9.26792 31.0305 9.54058 31.1532 9.82105 31.1532C10.4492 31.1532 13.875 30.0766 14.7468 29.8368C16.3585 30.6993 18.1656 31.1532 20 31.1532C26.1492 31.1532 31.1531 26.1493 31.1531 20C31.1531 13.85 26.1492 8.84771 20 8.84692Z" fill="white"/>
<path fill-rule="evenodd" clip-rule="evenodd" d="M22.6626 21.304C22.2408 21.4767 21.9712 22.1376 21.6978 22.4751C21.5572 22.6478 21.39 22.6751 21.1744 22.5884C19.59 21.9572 18.3751 20.8994 17.5009 19.4415C17.3525 19.2158 17.379 19.0369 17.5579 18.8267C17.822 18.5158 18.154 18.1626 18.2251 17.7431C18.3837 16.8165 17.172 13.9408 15.5712 15.2439C10.9658 18.997 23.254 28.9509 25.472 23.5673C26.0994 22.0408 23.3626 21.0173 22.6626 21.304Z" fill="white"/>
<defs>
<linearGradient id="paint0_linear_4233_1903" x1="5.29922" y1="6.43906" x2="37.0461" y2="30.4672" gradientUnits="userSpaceOnUse">
<stop stop-color="#39AE41"/>
<stop offset="1" stop-color="#80C269"/>
</linearGradient>
</defs>
</svg>
