<svg width="20" height="20" viewBox="0 0 20 20" fill="none" xmlns="http://www.w3.org/2000/svg">
<path d="M10.0334 1.66675C5.48337 1.66675 1.77504 5.37508 1.77504 9.92508C1.77504 11.3834 2.15837 12.8001 2.87504 14.0501L1.70837 18.3334L6.08337 17.1834C7.29171 17.8417 8.65004 18.1917 10.0334 18.1917C14.5834 18.1917 18.2917 14.4834 18.2917 9.93341C18.2917 7.72508 17.4334 5.65008 15.875 4.09175C14.3167 2.52508 12.2417 1.66675 10.0334 1.66675ZM10.0417 3.05841C11.875 3.05841 13.5917 3.77508 14.8917 5.07508C16.1834 6.37508 16.9 8.10008 16.9 9.93341C16.9 13.7167 13.8167 16.7917 10.0334 16.7917C8.80004 16.7917 7.59171 16.4667 6.54171 15.8334L6.29171 15.6917L3.69171 16.3751L4.38337 13.8417L4.21671 13.5751C3.53337 12.5001 3.16671 11.2251 3.16671 9.92508C3.17504 6.14175 6.25004 3.05841 10.0417 3.05841ZM7.10837 6.10841C6.97504 6.10841 6.75004 6.15841 6.55837 6.36675C6.37504 6.57508 5.83337 7.08341 5.83337 8.09175C5.83337 9.10841 6.57504 10.0834 6.66671 10.2251C6.78337 10.3667 8.13337 12.4501 10.2084 13.3334C10.7 13.5584 11.0834 13.6834 11.3834 13.7751C11.875 13.9334 12.325 13.9084 12.6834 13.8584C13.0834 13.8001 13.9 13.3584 14.075 12.8751C14.25 12.3917 14.25 11.9834 14.2 11.8917C14.1417 11.8084 14.0084 11.7584 13.8 11.6667C13.5917 11.5501 12.575 11.0501 12.3917 10.9834C12.2 10.9167 12.0834 10.8834 11.925 11.0834C11.7917 11.2917 11.3917 11.7584 11.275 11.8917C11.15 12.0334 11.0334 12.0501 10.8334 11.9501C10.6167 11.8417 9.95004 11.6251 9.16671 10.9251C8.55004 10.3751 8.14171 9.70008 8.01671 9.49175C7.91671 9.29175 8.00837 9.16675 8.10837 9.07508C8.20004 8.98341 8.33337 8.83341 8.41671 8.70841C8.52504 8.59175 8.55837 8.50008 8.62504 8.36675C8.69171 8.22508 8.65837 8.10841 8.60837 8.00841C8.55837 7.91675 8.14171 6.88341 7.96671 6.47508C7.80004 6.07508 7.63337 6.12508 7.50004 6.11675C7.38337 6.11675 7.25004 6.10841 7.10837 6.10841Z" fill="#49454F"/>
</svg>
