<svg width="20" height="20" viewBox="0 0 20 20" fill="none" xmlns="http://www.w3.org/2000/svg">
<path d="M16.6667 11.4583H15.4167C15.251 11.4583 15.092 11.3925 14.9748 11.2753C14.8576 11.1581 14.7917 10.9991 14.7917 10.8333C14.7917 10.6676 14.8576 10.5086 14.9748 10.3914C15.092 10.2742 15.251 10.2083 15.4167 10.2083H16.6667C16.9429 10.2079 17.2076 10.098 17.4028 9.90275C17.5981 9.70749 17.708 9.4428 17.7084 9.16667V4.16667C17.708 3.89053 17.5981 3.62584 17.4028 3.43058C17.2076 3.23533 16.9429 3.12544 16.6667 3.125H3.33341C3.05728 3.12544 2.79259 3.23533 2.59733 3.43058C2.40208 3.62584 2.29219 3.89053 2.29175 4.16667V9.16667C2.29219 9.4428 2.40208 9.70749 2.59733 9.90275C2.79259 10.098 3.05728 10.2079 3.33341 10.2083H4.58341C4.74918 10.2083 4.90815 10.2742 5.02536 10.3914C5.14257 10.5086 5.20842 10.6676 5.20842 10.8333C5.20842 10.9991 5.14257 11.1581 5.02536 11.2753C4.90815 11.3925 4.74918 11.4583 4.58341 11.4583H3.33341C2.72576 11.4579 2.14312 11.2163 1.71345 10.7866C1.28377 10.357 1.04219 9.77432 1.04175 9.16667V4.16667C1.04219 3.55901 1.28377 2.97638 1.71345 2.5467C2.14312 2.11703 2.72576 1.87544 3.33341 1.875H16.6667C17.2744 1.87544 17.857 2.11703 18.2867 2.5467C18.7164 2.97638 18.958 3.55901 18.9584 4.16667V9.16667C18.958 9.77432 18.7164 10.357 18.2867 10.7866C17.857 11.2163 17.2744 11.4579 16.6667 11.4583Z" fill="#6E7C87"/>
<path d="M13.7502 18.1252H6.25016C5.64251 18.1247 5.05987 17.8831 4.6302 17.4535C4.20052 17.0238 3.95894 16.4411 3.9585 15.8335V5.8335C3.9585 5.66774 4.02434 5.50876 4.14155 5.39155C4.25876 5.27434 4.41774 5.2085 4.5835 5.2085H15.4168C15.5826 5.2085 15.7416 5.27434 15.8588 5.39155C15.976 5.50876 16.0418 5.66774 16.0418 5.8335V15.8335C16.0414 16.4411 15.7998 17.0238 15.3701 17.4535C14.9405 17.8831 14.3578 18.1247 13.7502 18.1252ZM5.2085 6.4585V15.8335C5.20894 16.1096 5.31883 16.3743 5.51408 16.5696C5.70933 16.7648 5.97403 16.8747 6.25016 16.8752H13.7502C14.0263 16.8747 14.291 16.7648 14.4862 16.5696C14.6815 16.3743 14.7914 16.1096 14.7918 15.8335V6.4585H5.2085Z" fill="#6E7C87"/>
<path d="M10 15.625C9.91795 15.6252 9.83663 15.6091 9.76081 15.5777C9.685 15.5462 9.61618 15.5 9.55837 15.4417L7.05837 12.9417C6.94797 12.8232 6.88787 12.6665 6.89072 12.5046C6.89358 12.3427 6.95917 12.1882 7.07368 12.0737C7.18819 11.9592 7.34268 11.8936 7.5046 11.8907C7.66652 11.8879 7.82322 11.948 7.9417 12.0584L10 14.1159L12.0584 12.0584C12.1768 11.948 12.3336 11.8879 12.4955 11.8907C12.6574 11.8936 12.8119 11.9592 12.9264 12.0737C13.0409 12.1882 13.1065 12.3427 13.1093 12.5046C13.1122 12.6665 13.0521 12.8232 12.9417 12.9417L10.4417 15.4417C10.3839 15.5 10.3151 15.5462 10.2393 15.5777C10.1634 15.6091 10.0821 15.6252 10 15.625Z" fill="#6E7C87"/>
<path d="M10 15.6248C9.83424 15.6248 9.67527 15.559 9.55806 15.4418C9.44085 15.3246 9.375 15.1656 9.375 14.9998V9.1665C9.375 9.00074 9.44085 8.84177 9.55806 8.72456C9.67527 8.60735 9.83424 8.5415 10 8.5415C10.1658 8.5415 10.3247 8.60735 10.4419 8.72456C10.5592 8.84177 10.625 9.00074 10.625 9.1665V14.9998C10.625 15.1656 10.5592 15.3246 10.4419 15.4418C10.3247 15.559 10.1658 15.6248 10 15.6248Z" fill="#6E7C87"/>
<path d="M16.25 6.4585H3.75C3.58424 6.4585 3.42527 6.39265 3.30806 6.27544C3.19085 6.15823 3.125 5.99926 3.125 5.8335C3.125 5.66774 3.19085 5.50876 3.30806 5.39155C3.42527 5.27434 3.58424 5.2085 3.75 5.2085H16.25C16.4158 5.2085 16.5747 5.27434 16.6919 5.39155C16.8092 5.50876 16.875 5.66774 16.875 5.8335C16.875 5.99926 16.8092 6.15823 16.6919 6.27544C16.5747 6.39265 16.4158 6.4585 16.25 6.4585Z" fill="#6E7C87"/>
</svg>
